<svg width="75" height="83" viewBox="0 0 75 83" fill="none" xmlns="http://www.w3.org/2000/svg">
<mask id="path-1-inside-1_5782_979" fill="white">
<path d="M0 8.14035C0 3.64455 3.64456 0 8.14035 0H66.2947C70.7905 0 74.4351 3.64456 74.4351 8.14035V74.6199C74.4351 79.1157 70.7905 82.7602 66.2947 82.7602H8.14035C3.64456 82.7602 0 79.1157 0 74.6199V8.14035Z"/>
</mask>
<path d="M0 8.14035C0 3.64455 3.64456 0 8.14035 0H66.2947C70.7905 0 74.4351 3.64456 74.4351 8.14035V74.6199C74.4351 79.1157 70.7905 82.7602 66.2947 82.7602H8.14035C3.64456 82.7602 0 79.1157 0 74.6199V8.14035Z" fill="#02070E" fill-opacity="0.6"/>
<path d="M8.14035 0V0.678363H66.2947V0V-0.678363H8.14035V0ZM74.4351 8.14035H73.7567V74.6199H74.4351H75.1134V8.14035H74.4351ZM66.2947 82.7602V82.0819H8.14035V82.7602V83.4386H66.2947V82.7602ZM0 74.6199H0.678363V8.14035H0H-0.678363V74.6199H0ZM8.14035 82.7602V82.0819C4.01921 82.0819 0.678363 78.741 0.678363 74.6199H0H-0.678363C-0.678363 79.4903 3.26991 83.4386 8.14035 83.4386V82.7602ZM74.4351 74.6199H73.7567C73.7567 78.741 70.4158 82.0819 66.2947 82.0819V82.7602V83.4386C71.1651 83.4386 75.1134 79.4903 75.1134 74.6199H74.4351ZM66.2947 0V0.678363C70.4158 0.678363 73.7567 4.01921 73.7567 8.14035H74.4351H75.1134C75.1134 3.26991 71.1651 -0.678363 66.2947 -0.678363V0ZM8.14035 0V-0.678363C3.26991 -0.678363 -0.678363 3.2699 -0.678363 8.14035H0H0.678363C0.678363 4.0192 4.01921 0.678363 8.14035 0.678363V0Z" fill="#4C89D5" fill-opacity="0.15" mask="url(#path-1-inside-1_5782_979)"/>
<g clip-path="url(#clip0_5782_979)">
<path d="M50.9737 32.4216L46.1788 37.2221L46.1831 43.7262L38.7301 43.7135V34.3568H36.5962L34.9431 36.0124V43.7163L28.2309 43.729V33.4012H26.097L24.4439 35.0569V43.7333L17.8287 43.729L14.2456 47.3311H60.1894V32.4245L50.9737 32.4216ZM56.3983 43.7262H49.9799V38.8566L52.7027 36.0237H56.3983V43.7276V43.7262Z" fill="white"/>
<path d="M46.1797 52.5288V68.3036H56.0744L60.1832 64.1778V52.5288H46.1797ZM56.3949 62.5334L54.0797 64.9428H49.9807V55.8966H56.3963V62.532L56.3949 62.5334Z" fill="white"/>
<path d="M37.2294 56.7145L33.0587 52.5281H28.895L35.2769 58.9376L35.312 58.9419V66.6514L36.9637 68.3042H39.1215V58.9419L39.1552 58.9376L39.6303 58.4605L45.5385 52.5281H41.4001L37.2294 56.7145Z" fill="white"/>
<path d="M28.2506 64.9251V56.6567L28.2365 56.6426V52.5281H24.1263L24.1291 52.5309L14.2456 52.5281V64.1714L18.3559 68.2986H32.5604L30.3479 64.9266H28.2492L28.2506 64.9251ZM24.4482 64.9251H20.3983L18.0466 62.647V55.9086H24.4482V64.9251Z" fill="white"/>
<path d="M60.1894 28.0242H55.3734L51.7734 31.6277H60.1837L60.1894 28.0242Z" fill="white"/>
<path d="M38.7314 48.1274H33.9155L30.3169 51.731H38.7258L38.7314 48.1274Z" fill="white"/>
</g>
<defs>
<clipPath id="clip0_5782_979">
<rect width="45.9438" height="40.2795" fill="white" transform="translate(14.2456 28.0239)"/>
</clipPath>
</defs>
</svg>
