<svg width="185" height="185" viewBox="0 0 185 185" fill="none" xmlns="http://www.w3.org/2000/svg">
<path opacity="0.3" d="M92.3538 107.745H53.8735V146.225H92.3538V107.745Z" fill="white" stroke="white" stroke-width="2.30881"/>
<path opacity="0.3" d="M92.3538 69.2644H53.8735V107.745H92.3538V69.2644Z" fill="white" stroke="white" stroke-width="2.30881"/>
<path opacity="0.3" d="M130.834 107.745H92.3535V146.225H130.834V107.745Z" fill="white" stroke="white" stroke-width="2.30881"/>
<path opacity="0.2" d="M73.1133 69.2644V107.745" stroke="white" stroke-width="0.769605"/>
<path opacity="0.2" d="M53.8735 88.5045H92.3538" stroke="white" stroke-width="0.769605"/>
<path opacity="0.2" d="M73.1133 107.745V146.225" stroke="white" stroke-width="0.769605"/>
<path opacity="0.2" d="M53.8735 126.985H92.3538" stroke="white" stroke-width="0.769605"/>
<path opacity="0.2" d="M111.594 107.745V146.225" stroke="white" stroke-width="0.769605"/>
<path opacity="0.2" d="M92.3535 126.985H130.834" stroke="white" stroke-width="0.769605"/>
<path opacity="0.3" d="M115.442 76.9604C128.193 76.9604 138.53 66.6235 138.53 53.8723C138.53 41.1211 128.193 30.7842 115.442 30.7842C102.69 30.7842 92.3535 41.1211 92.3535 53.8723C92.3535 66.6235 102.69 76.9604 115.442 76.9604Z" stroke="white" stroke-width="2.30881"/>
<path opacity="0.3" d="M115.442 66.1859C122.242 66.1859 127.755 60.6729 127.755 53.8723C127.755 47.0716 122.242 41.5586 115.442 41.5586C108.641 41.5586 103.128 47.0716 103.128 53.8723C103.128 60.6729 108.641 66.1859 115.442 66.1859Z" fill="white" stroke="white" stroke-width="2.30881"/>
<path opacity="0.3" d="M118.52 27.7058H112.363V35.4019H118.52V27.7058Z" fill="white"/>
<path opacity="0.3" d="M118.52 72.3428H112.363V80.0388H118.52V72.3428Z" fill="white"/>
<path opacity="0.3" d="M96.9709 50.7939H89.2749V56.9508H96.9709V50.7939Z" fill="white"/>
<path opacity="0.3" d="M141.608 50.7939H133.912V56.9508H141.608V50.7939Z" fill="white"/>
<path opacity="0.3" d="M104.403 38.4804L100.049 34.1268L95.6958 38.4804L100.049 42.8339L104.403 38.4804Z" fill="white"/>
<path opacity="0.3" d="M127.756 34.1267L123.402 38.4802L127.756 42.8338L132.109 38.4802L127.756 34.1267Z" fill="white"/>
<path opacity="0.3" d="M100.05 61.8325L95.6963 66.186L100.05 70.5396L104.403 66.186L100.05 61.8325Z" fill="white"/>
<path opacity="0.3" d="M132.109 66.1861L127.755 61.8325L123.402 66.1861L127.755 70.5396L132.109 66.1861Z" fill="white"/>
<path opacity="0.3" d="M30.7852 38.4802L38.4812 30.7842L46.1772 38.4802L43.0988 41.5586L53.8733 52.3331L49.2557 56.9507L38.4812 46.1763L35.4028 49.2547L30.7852 38.4802Z" fill="white" stroke="white" stroke-width="1.53921"/>
<path opacity="0.3" d="M167.775 92.3525H140.069C139.219 92.3525 138.53 93.0417 138.53 93.8917V144.686C138.53 145.536 139.219 146.225 140.069 146.225H167.775C168.625 146.225 169.314 145.536 169.314 144.686V93.8917C169.314 93.0417 168.625 92.3525 167.775 92.3525Z" fill="white" stroke="white" stroke-width="2.30881"/>
<path opacity="0.25" d="M138.53 100.049H146.226" stroke="white" stroke-width="0.769605"/>
<path opacity="0.25" d="M138.53 107.745H149.304" stroke="white" stroke-width="0.769605"/>
<path opacity="0.25" d="M138.53 115.441H146.226" stroke="white" stroke-width="0.769605"/>
<path opacity="0.25" d="M138.53 123.137H149.304" stroke="white" stroke-width="0.769605"/>
<path opacity="0.25" d="M138.53 130.833H146.226" stroke="white" stroke-width="0.769605"/>
<path opacity="0.25" d="M138.53 138.529H149.304" stroke="white" stroke-width="0.769605"/>
</svg>
