<svg width="101" height="83" viewBox="0 0 101 83" fill="none" xmlns="http://www.w3.org/2000/svg">
<mask id="path-1-inside-1_5782_888" fill="white">
<path d="M0 8.14035C0 3.64455 3.64456 0 8.14035 0H91.9053C96.401 0 100.046 3.64456 100.046 8.14035V74.6199C100.046 79.1157 96.401 82.7602 91.9053 82.7602H8.14035C3.64456 82.7602 0 79.1157 0 74.6199V8.14035Z"/>
</mask>
<path d="M0 8.14035C0 3.64455 3.64456 0 8.14035 0H91.9053C96.401 0 100.046 3.64456 100.046 8.14035V74.6199C100.046 79.1157 96.401 82.7602 91.9053 82.7602H8.14035C3.64456 82.7602 0 79.1157 0 74.6199V8.14035Z" fill="#02070E" fill-opacity="0.6"/>
<path d="M8.14035 0V0.678363H91.9053V0V-0.678363H8.14035V0ZM100.046 8.14035H99.3672V74.6199H100.046H100.724V8.14035H100.046ZM91.9053 82.7602V82.0819H8.14035V82.7602V83.4386H91.9053V82.7602ZM0 74.6199H0.678363V8.14035H0H-0.678363V74.6199H0ZM8.14035 82.7602V82.0819C4.01921 82.0819 0.678363 78.741 0.678363 74.6199H0H-0.678363C-0.678363 79.4903 3.26991 83.4386 8.14035 83.4386V82.7602ZM100.046 74.6199H99.3672C99.3672 78.741 96.0264 82.0819 91.9053 82.0819V82.7602V83.4386C96.7757 83.4386 100.724 79.4903 100.724 74.6199H100.046ZM91.9053 0V0.678363C96.0264 0.678363 99.3672 4.01921 99.3672 8.14035H100.046H100.724C100.724 3.26991 96.7757 -0.678363 91.9053 -0.678363V0ZM8.14035 0V-0.678363C3.26991 -0.678363 -0.678363 3.2699 -0.678363 8.14035H0H0.678363C0.678363 4.0192 4.01921 0.678363 8.14035 0.678363V0Z" fill="#62C4AA" fill-opacity="0.15" mask="url(#path-1-inside-1_5782_888)"/>
<g clip-path="url(#clip0_5782_888)">
<path d="M16.9102 60.8141C16.5278 60.8141 16.1734 60.7508 15.8468 60.6217C15.5227 60.4926 15.2391 60.3128 15.0012 60.0799C14.7632 59.847 14.5783 59.5735 14.4442 59.2571C14.31 58.9406 14.2441 58.5963 14.2441 58.2241C14.2441 57.8519 14.31 57.505 14.4442 57.1911C14.5783 56.8746 14.7657 56.6012 15.0037 56.3683C15.2442 56.1353 15.5278 55.9556 15.8518 55.8265C16.1759 55.6973 16.5304 55.634 16.9152 55.634C17.3001 55.634 17.6317 55.6948 17.9558 55.8189C18.2799 55.9429 18.5558 56.1277 18.7786 56.3759L18.4368 56.7177C18.2292 56.505 17.9963 56.3505 17.7457 56.2543C17.4925 56.1607 17.2216 56.1125 16.9304 56.1125C16.6241 56.1125 16.3405 56.1657 16.0797 56.2695C15.8164 56.3733 15.5885 56.5227 15.3961 56.7126C15.2012 56.905 15.0493 57.1278 14.9404 57.3835C14.8315 57.6392 14.7758 57.9177 14.7758 58.2241C14.7758 58.5304 14.8315 58.8089 14.9404 59.0647C15.0493 59.3204 15.2012 59.5432 15.3961 59.7356C15.5911 59.928 15.8189 60.0748 16.0797 60.1787C16.3405 60.2825 16.6266 60.3356 16.9304 60.3356C17.2342 60.3356 17.4925 60.2875 17.7457 60.1913C17.9988 60.0951 18.2292 59.9381 18.4368 59.7255L18.7786 60.0673C18.5558 60.3154 18.2799 60.5027 17.9558 60.6293C17.6317 60.7559 17.2798 60.8192 16.9076 60.8192L16.9102 60.8141Z" fill="white"/>
<path d="M22.2984 60.8064C22.0123 60.8064 21.7642 60.7583 21.5516 60.6646C21.3414 60.5709 21.1794 60.4393 21.068 60.2722C20.9566 60.1051 20.9009 59.9127 20.9009 59.6924C20.9009 59.4924 20.949 59.3126 21.0427 59.1506C21.1363 58.9885 21.2933 58.8569 21.5085 58.7581C21.7237 58.6594 22.0149 58.6088 22.3795 58.6088H23.6985V58.9936H22.3947C22.025 58.9936 21.7693 59.0594 21.6275 59.1911C21.4832 59.3227 21.4123 59.4848 21.4123 59.6797C21.4123 59.8975 21.4984 60.0722 21.668 60.2038C21.8377 60.3355 22.0756 60.4013 22.382 60.4013C22.6883 60.4013 22.9238 60.3355 23.1365 60.2013C23.3466 60.0671 23.5011 59.8747 23.5998 59.6215L23.7163 59.9785C23.6201 60.2317 23.4504 60.4317 23.2099 60.5836C22.9694 60.7355 22.6681 60.8089 22.3035 60.8089L22.2984 60.8064ZM23.6175 60.7709V59.9253L23.5947 59.7861V58.3733C23.5947 58.0492 23.5036 57.7986 23.3213 57.6239C23.139 57.4492 22.8681 57.3606 22.5086 57.3606C22.2605 57.3606 22.025 57.4011 21.8022 57.4846C21.5794 57.5682 21.3895 57.6771 21.2351 57.8112L21.0022 57.4264C21.1971 57.2618 21.43 57.1327 21.7009 57.0441C21.9718 56.9555 22.2579 56.9099 22.5592 56.9099C23.0555 56.9099 23.4378 57.0314 23.7061 57.277C23.9745 57.5226 24.1112 57.8948 24.1112 58.3936V60.7684H23.615L23.6175 60.7709Z" fill="white"/>
<path d="M26.9717 62.1839V56.948H27.4679V58.0975L27.4173 58.8621L27.4907 59.6343V62.1839H26.9742H26.9717ZM28.9465 60.8065C28.6174 60.8065 28.3186 60.7306 28.0502 60.5761C27.7844 60.4242 27.5717 60.2014 27.4122 59.9128C27.2552 59.6242 27.1768 59.2723 27.1768 58.8545C27.1768 58.4368 27.2552 58.0848 27.4097 57.7962C27.5641 57.5076 27.7768 57.2873 28.0426 57.1379C28.3085 56.9886 28.6098 56.9126 28.9465 56.9126C29.3111 56.9126 29.6377 56.9936 29.9263 57.1557C30.2149 57.3177 30.4428 57.5456 30.6074 57.8392C30.7719 58.1329 30.8555 58.4722 30.8555 58.8545C30.8555 59.2368 30.7719 59.5837 30.6074 59.8748C30.4428 60.166 30.2149 60.3939 29.9263 60.5584C29.6377 60.723 29.3111 60.8065 28.9465 60.8065ZM28.9085 60.3483C29.1794 60.3483 29.4225 60.2875 29.6377 60.1635C29.8504 60.0394 30.02 59.8647 30.1466 59.6394C30.2732 59.414 30.3365 59.1533 30.3365 58.857C30.3365 58.5608 30.2732 58.3 30.1466 58.0772C30.02 57.8544 29.8504 57.6797 29.6377 57.5531C29.425 57.4266 29.182 57.3633 28.9085 57.3633C28.6351 57.3633 28.392 57.4266 28.1768 57.5531C27.9616 57.6797 27.792 57.8544 27.6679 58.0772C27.5439 58.3 27.4831 58.5608 27.4831 58.857C27.4831 59.1533 27.5439 59.414 27.6679 59.6394C27.792 59.8647 27.9616 60.0394 28.1768 60.1635C28.392 60.2875 28.6376 60.3483 28.9085 60.3483Z" fill="white"/>
<path d="M33.8535 60.7711V56.1404H32.0635V55.6746H36.1853V56.1404H34.3953V60.7711H33.856H33.8535Z" fill="white"/>
<path d="M39.6128 60.8065C39.2153 60.8065 38.8659 60.723 38.5646 60.5559C38.2633 60.3888 38.0279 60.1584 37.8583 59.8647C37.6886 59.571 37.6025 59.2343 37.6025 58.857C37.6025 58.4798 37.6836 58.1431 37.8456 57.8519C38.0076 57.5607 38.2304 57.3303 38.5165 57.1632C38.8001 56.9961 39.1191 56.9126 39.4736 56.9126C39.828 56.9126 40.1521 56.9936 40.4306 57.1557C40.7091 57.3177 40.9294 57.5456 41.0889 57.8392C41.2484 58.1329 41.3294 58.4722 41.3294 58.8545C41.3294 58.8798 41.3294 58.9051 41.3269 58.9305C41.3269 58.9583 41.3243 58.9862 41.3243 59.014H37.9975V58.6292H41.0484L40.8433 58.7811C40.8433 58.5051 40.785 58.257 40.666 58.0418C40.547 57.8266 40.385 57.657 40.1825 57.5354C39.9774 57.4139 39.7419 57.3531 39.4761 57.3531C39.2102 57.3531 38.9773 57.4139 38.7697 57.5354C38.5621 57.657 38.3975 57.8266 38.2811 58.0443C38.1646 58.2621 38.1064 58.5127 38.1064 58.7937V58.8748C38.1064 59.1659 38.1697 59.4216 38.2988 59.6444C38.4279 59.8672 38.6077 60.0369 38.8381 60.1609C39.0685 60.285 39.3318 60.3457 39.628 60.3457C39.8609 60.3457 40.0787 60.3052 40.2787 60.2217C40.4812 60.1381 40.6534 60.0141 40.8002 59.8419L41.0914 60.1761C40.9218 60.3812 40.7091 60.5356 40.4534 60.642C40.1977 60.7483 39.9192 60.8015 39.6128 60.8015V60.8065Z" fill="white"/>
<path d="M45.4309 60.8065C45.0511 60.8065 44.7144 60.723 44.4156 60.5559C44.1169 60.3888 43.8839 60.1584 43.7118 59.8647C43.5421 59.571 43.4561 59.2343 43.4561 58.857C43.4561 58.4798 43.5421 58.1355 43.7118 57.8443C43.8814 57.5531 44.1169 57.3253 44.4156 57.1607C44.7144 56.9961 45.0536 56.9126 45.4309 56.9126C45.755 56.9126 46.0486 56.9759 46.312 57.1025C46.5727 57.2291 46.7803 57.419 46.9297 57.6696L46.5449 57.9329C46.4132 57.738 46.2512 57.5962 46.0562 57.5025C45.8613 57.4114 45.6511 57.3633 45.4233 57.3633C45.1524 57.3633 44.9068 57.424 44.6891 57.5481C44.4713 57.6721 44.2992 57.8443 44.1726 58.0696C44.046 58.2924 43.9827 58.5558 43.9827 58.857C43.9827 59.1583 44.046 59.4191 44.1726 59.6444C44.2992 59.8672 44.4713 60.0419 44.6891 60.166C44.9068 60.2901 45.1524 60.3508 45.4233 60.3508C45.6511 60.3508 45.8638 60.3052 46.0562 60.2116C46.2512 60.1204 46.4132 59.9786 46.5449 59.7887L46.9297 60.0495C46.7803 60.2976 46.5727 60.485 46.312 60.6141C46.0486 60.7432 45.755 60.8065 45.4309 60.8065Z" fill="white"/>
<path d="M51.2951 56.9128C51.6065 56.9128 51.88 56.9711 52.1154 57.09C52.3509 57.209 52.5357 57.3888 52.6699 57.6319C52.8041 57.8749 52.8699 58.1813 52.8699 58.5484V60.7688H52.3534V58.599C52.3534 58.1965 52.2521 57.8926 52.0521 57.685C51.8496 57.4799 51.5686 57.3761 51.204 57.3761C50.9331 57.3761 50.6951 57.4318 50.4951 57.5407C50.2925 57.6496 50.1381 57.8066 50.0292 58.0142C49.9203 58.2218 49.8646 58.4699 49.8646 58.7611V60.7713H49.3481V55.3684H49.8646V57.9964L49.7634 57.799C49.8849 57.523 50.0798 57.3053 50.3457 57.1483C50.6115 56.9913 50.9305 56.9128 51.3002 56.9128H51.2951Z" fill="white"/>
<path d="M81.0676 33.6052V27.4731C76.2394 32.3013 74.062 31.7342 74.062 31.7342V37.8663C74.062 37.8663 76.2394 38.4334 81.0676 33.6052Z" fill="url(#paint0_linear_5782_888)"/>
<path d="M74.062 38.7879V44.9199C74.062 44.9199 80.9714 44.3528 85.7995 49.181V43.0489C80.9714 38.2207 74.062 38.7879 74.062 38.7879Z" fill="url(#paint1_linear_5782_888)"/>
<path d="M31.3404 43.6259C31.9911 43.0258 32.3177 42.1853 32.3177 41.1042C32.3177 40.0231 31.9911 39.1977 31.3404 38.5901C30.6872 37.985 29.7656 37.6812 28.5757 37.6812H27.5528L29.9378 34.4733L26.9275 33.8936L24.1779 38.3091V40.1117H28.2744C28.7428 40.1117 29.0694 40.2029 29.2517 40.3877C29.434 40.57 29.5277 40.8105 29.5277 41.1067C29.5277 41.4029 29.4365 41.6283 29.2517 41.8182C29.0694 42.008 28.7428 42.1017 28.2744 42.1017H22.9424V44.5323H28.5808C29.7732 44.5323 30.6948 44.231 31.3455 43.6309L31.3404 43.6259Z" fill="white"/>
<path d="M45.9335 36.9926C46.5032 36.9926 46.9943 36.7926 47.407 36.3976C47.8197 36.0001 48.0248 35.5166 48.0248 34.9469C48.0248 34.3772 47.8197 33.8911 47.4146 33.4886C47.007 33.086 46.5133 32.886 45.9335 32.886C45.3537 32.886 44.8727 33.0885 44.4676 33.4886C44.06 33.8911 43.8574 34.3772 43.8574 34.9469C43.8574 35.5166 44.06 35.9875 44.4676 36.39C44.8752 36.7926 45.3639 36.9926 45.9335 36.9926Z" fill="white"/>
<path d="M51.4501 36.9926C52.0198 36.9926 52.511 36.7926 52.9236 36.3976C53.3363 36.0001 53.5414 35.5166 53.5414 34.9469C53.5414 34.3772 53.3363 33.8911 52.9312 33.4886C52.5236 33.086 52.0299 32.886 51.4501 32.886C50.8703 32.886 50.3893 33.0885 49.9842 33.4886C49.5766 33.8911 49.374 34.3772 49.374 34.9469C49.374 35.5166 49.5791 35.9875 49.9842 36.39C50.3918 36.7926 50.8805 36.9926 51.4501 36.9926Z" fill="white"/>
<path d="M59.1827 45.5657C59.1827 46.9911 58.9042 48.0013 58.3497 48.5912C57.7952 49.1811 56.3951 49.4774 54.1545 49.4774H53.8633C52.7417 49.4774 51.8961 49.1735 51.3264 48.5684C50.7568 47.9633 50.5061 47.0164 50.577 45.7328V39.3602H46.2678V45.7328C46.3387 47.0164 46.0906 47.9608 45.5184 48.5684C44.9488 49.1735 44.1031 49.4774 42.9815 49.4774H42.4321C41.351 49.4774 40.5282 49.1963 39.956 48.6368C40.232 47.7405 40.3687 46.7101 40.3687 45.5505V29.7798H36.3203V45.5505C36.3203 46.9861 36.0418 48.0013 35.4873 48.5912C34.9329 49.1811 34.0442 49.4774 32.8213 49.4774H23.6384C22.4965 49.4774 21.5902 49.3052 20.9192 48.9583C20.2458 48.6115 19.7571 48.0773 19.4533 47.3532C19.1469 46.6898 18.995 45.8315 18.995 44.7707V40.6135H15.0049V44.7859C15.0049 47.4241 15.6783 49.4318 17.0227 50.8066C18.4583 52.3029 20.6635 53.0523 23.6384 53.0523H33.2796C35.1126 53.0523 36.6013 52.6497 37.7407 51.8446C38.7686 52.6497 40.113 53.0523 41.7739 53.0523H43.3031L43.3183 53.0447C44.8424 53.0042 46.0222 52.6903 46.8476 52.0978C47.4325 51.6775 47.916 51.1205 48.3009 50.4293C48.7718 51.1332 49.3491 51.6952 50.0403 52.113C51.0808 52.7409 52.1189 53.0523 53.1569 53.0523H56.1369C58.4484 53.0523 60.2106 52.4168 61.4157 51.1433C62.6234 49.8698 63.2766 48.0165 63.3804 45.5809V37.8335H59.1776V45.5657H59.1827Z" fill="white"/>
<path d="M58.4965 54.9639C57.9268 54.9639 57.4357 55.1639 57.0306 55.5664C56.623 55.969 56.4204 56.4551 56.4204 57.0248C56.4204 57.5944 56.623 58.0653 57.0306 58.4679C57.4382 58.8705 57.9268 59.0705 58.4965 59.0705C59.0662 59.0705 59.5573 58.8705 59.97 58.4755C60.3827 58.078 60.5878 57.5944 60.5878 57.0248C60.5878 56.4551 60.3827 55.969 59.9776 55.5664C59.57 55.1639 59.0763 54.9639 58.4965 54.9639Z" fill="white"/>
<path d="M71.9357 49.1837C71.8193 49.1837 71.723 49.1558 71.6446 49.0976C71.5484 49.0191 71.4977 48.9128 71.4977 48.7761V29.7798H67.0088V49.328C67.0088 50.1837 67.2822 50.9509 67.824 51.6319C68.5633 52.5054 69.5052 52.9434 70.6521 52.9434H85.8V49.1837H71.9357Z" fill="white"/>
<path d="M16.2082 64.9846C16.2629 64.9846 16.3095 65.0038 16.348 65.0423C16.3865 65.0808 16.4057 65.1274 16.4057 65.1821C16.4057 65.2347 16.3865 65.2803 16.348 65.3188C16.3095 65.3573 16.2629 65.3765 16.2082 65.3765C16.1535 65.3765 16.1069 65.3573 16.0685 65.3188C16.03 65.2803 16.0107 65.2347 16.0107 65.1821C16.0107 65.1274 16.03 65.0808 16.0685 65.0423C16.1069 65.0038 16.1535 64.9846 16.2082 64.9846ZM16.67 64.9846C16.7247 64.9846 16.7713 65.0038 16.8098 65.0423C16.8483 65.0808 16.8675 65.1274 16.8675 65.1821C16.8675 65.2347 16.8483 65.2803 16.8098 65.3188C16.7713 65.3573 16.7247 65.3765 16.67 65.3765C16.6174 65.3765 16.5718 65.3573 16.5333 65.3188C16.4948 65.2803 16.4756 65.2347 16.4756 65.1821C16.4756 65.1274 16.4948 65.0808 16.5333 65.0423C16.5718 65.0038 16.6174 64.9846 16.67 64.9846ZM16.8675 65.5709V66.6647C16.8675 66.689 16.8746 66.7072 16.8888 66.7194C16.9009 66.7336 16.9171 66.7406 16.9374 66.7406H17.0225V67.0505H16.8311C16.7379 67.0505 16.6538 67.0131 16.5789 66.9381C16.4634 67.0333 16.3348 67.0809 16.193 67.0809C16.033 67.0809 15.8953 67.0303 15.7798 66.929C15.6259 66.7852 15.5489 66.5928 15.5489 66.3518C15.5489 66.131 15.6198 65.9477 15.7616 65.8018C15.8912 65.6702 16.0502 65.6044 16.2386 65.6044C16.3439 65.6044 16.4493 65.6266 16.5546 65.6712L16.6852 65.5709H16.8675ZM16.4969 65.9629C16.426 65.9365 16.3581 65.9234 16.2933 65.9234C16.1839 65.9234 16.0938 65.9639 16.0229 66.0449C15.952 66.1239 15.9166 66.2272 15.9166 66.3548C15.9166 66.4824 15.948 66.5847 16.0107 66.6616C16.0756 66.7386 16.1616 66.7771 16.269 66.7771C16.3419 66.7771 16.4179 66.7609 16.4969 66.7285V65.9629ZM17.9161 65.653V66.7163C17.9161 66.7953 17.8898 66.8682 17.8371 66.9351C17.7703 67.0121 17.6872 67.0505 17.588 67.0505H17.0016V66.7406H17.4695C17.4918 66.7406 17.511 66.7325 17.5272 66.7163C17.5414 66.7022 17.5485 66.6849 17.5485 66.6647V65.653H17.9161ZM17.2507 67.2723C17.3054 67.2723 17.352 67.2916 17.3905 67.3301C17.429 67.3685 17.4482 67.4151 17.4482 67.4698C17.4482 67.5245 17.429 67.5711 17.3905 67.6096C17.352 67.648 17.3054 67.6673 17.2507 67.6673C17.1981 67.6673 17.1525 67.648 17.114 67.6096C17.0755 67.5711 17.0563 67.5245 17.0563 67.4698C17.0563 67.4151 17.0755 67.3685 17.114 67.3301C17.1525 67.2916 17.1981 67.2723 17.2507 67.2723ZM17.7156 67.2723C17.7703 67.2723 17.8158 67.2916 17.8523 67.3301C17.8908 67.3685 17.91 67.4151 17.91 67.4698C17.91 67.5245 17.8908 67.5711 17.8523 67.6096C17.8158 67.648 17.7703 67.6673 17.7156 67.6673C17.6609 67.6673 17.6143 67.648 17.5758 67.6096C17.5373 67.5711 17.5181 67.5245 17.5181 67.4698C17.5181 67.4151 17.5373 67.3685 17.5758 67.3301C17.6143 67.2916 17.6609 67.2723 17.7156 67.2723ZM19.1896 65.653V66.9776C19.1896 67.2288 19.1126 67.4232 18.9587 67.561C18.8594 67.6521 18.7318 67.7159 18.5759 67.7524C18.503 67.7665 18.427 67.7736 18.348 67.7736C18.3217 67.7736 18.2862 67.7716 18.2417 67.7675L18.0928 67.5822V67.4516C18.1576 67.4617 18.2204 67.4668 18.2812 67.4668C18.6397 67.4668 18.8189 67.2926 18.8189 66.9442V65.653H19.1896ZM19.9794 64.8752V66.6647C19.9794 66.6849 19.9855 66.7011 19.9976 66.7133C20.0098 66.7315 20.029 66.7406 20.0554 66.7406H20.1344V67.0505H19.9369C19.8538 67.0505 19.7809 67.0212 19.7181 66.9624C19.6452 66.8956 19.6088 66.8136 19.6088 66.7163V64.8752H19.9794ZM20.6548 66.7406C20.6061 66.6232 20.5818 66.4915 20.5818 66.3457C20.5818 66.1067 20.6558 65.9213 20.8036 65.7897C20.9272 65.6783 21.0852 65.6216 21.2776 65.6196C21.4497 65.6196 21.5905 65.6601 21.6999 65.7411C21.8336 65.8424 21.9004 65.9882 21.9004 66.1786V66.6647C21.9004 66.6829 21.9055 66.7001 21.9156 66.7163C21.9318 66.7325 21.95 66.7406 21.9703 66.7406H21.9976V67.0505H21.864C21.7728 67.0505 21.6948 67.0181 21.63 66.9533C21.5308 67.0789 21.3991 67.1417 21.235 67.1417C21.0588 67.1417 20.9089 67.0769 20.7854 66.9472H20.7793L20.6942 67.0505H20.114V66.7406H20.6548ZM21.5298 66.1786C21.5298 66.1036 21.5065 66.0429 21.4599 65.9963C21.4173 65.9497 21.3566 65.9264 21.2776 65.9264C21.1783 65.9264 21.0983 65.9649 21.0376 66.0419C20.9788 66.1188 20.9495 66.2221 20.9495 66.3518C20.9495 66.4935 20.9798 66.609 21.0406 66.6981C21.1014 66.7872 21.1793 66.8318 21.2745 66.8318C21.3616 66.8318 21.4467 66.7903 21.5298 66.7072V66.1786ZM22.5059 64.62C22.5545 64.62 22.596 64.6382 22.6304 64.6747C22.6669 64.7091 22.6851 64.7506 22.6851 64.7992C22.6851 64.8499 22.6679 64.8934 22.6335 64.9299C22.599 64.9643 22.5565 64.9815 22.5059 64.9815C22.4532 64.9815 22.4097 64.9643 22.3752 64.9299C22.3408 64.8954 22.3236 64.8519 22.3236 64.7992C22.3236 64.7486 22.3408 64.7061 22.3752 64.6716C22.4117 64.6372 22.4552 64.62 22.5059 64.62ZM22.275 64.9846C22.3276 64.9846 22.3732 65.0038 22.4117 65.0423C22.4502 65.0808 22.4694 65.1274 22.4694 65.1821C22.4694 65.2347 22.4502 65.2803 22.4117 65.3188C22.3732 65.3573 22.3276 65.3765 22.275 65.3765C22.2203 65.3765 22.1737 65.3573 22.1352 65.3188C22.0967 65.2803 22.0775 65.2347 22.0775 65.1821C22.0775 65.1274 22.0967 65.0808 22.1352 65.0423C22.1737 65.0038 22.2203 64.9846 22.275 64.9846ZM22.7337 64.9846C22.7884 64.9846 22.835 65.0038 22.8735 65.0423C22.912 65.0808 22.9312 65.1274 22.9312 65.1821C22.9312 65.2347 22.912 65.2803 22.8735 65.3188C22.835 65.3573 22.7884 65.3765 22.7337 65.3765C22.6811 65.3765 22.6355 65.3573 22.597 65.3188C22.5585 65.2803 22.5393 65.2347 22.5393 65.1821C22.5393 65.1274 22.5585 65.0808 22.597 65.0423C22.6355 65.0038 22.6811 64.9846 22.7337 64.9846ZM22.8917 65.653V66.6951V66.7406H23.0467V67.0505H22.9403L22.8279 66.926H22.8218C22.753 67.009 22.6669 67.0505 22.5636 67.0505H21.9772V66.7406H22.436C22.4643 66.7406 22.4846 66.7325 22.4967 66.7163C22.515 66.7001 22.5241 66.6799 22.5241 66.6556V65.653H22.8917ZM23.3193 64.9846C23.374 64.9846 23.4205 65.0038 23.459 65.0423C23.4975 65.0808 23.5167 65.1274 23.5167 65.1821C23.5167 65.2347 23.4975 65.2803 23.459 65.3188C23.4205 65.3573 23.374 65.3765 23.3193 65.3765C23.2646 65.3765 23.218 65.3573 23.1795 65.3188C23.141 65.2803 23.1218 65.2347 23.1218 65.1821C23.1218 65.1274 23.141 65.0808 23.1795 65.0423C23.218 65.0038 23.2646 64.9846 23.3193 64.9846ZM23.7811 64.9846C23.8358 64.9846 23.8823 65.0038 23.9208 65.0423C23.9593 65.0808 23.9786 65.1274 23.9786 65.1821C23.9786 65.2347 23.9593 65.2803 23.9208 65.3188C23.8823 65.3573 23.8358 65.3765 23.7811 65.3765C23.7284 65.3765 23.6828 65.3573 23.6444 65.3188C23.6059 65.2803 23.5866 65.2347 23.5866 65.1821C23.5866 65.1274 23.6059 65.0808 23.6444 65.0423C23.6828 65.0038 23.7284 64.9846 23.7811 64.9846ZM23.9391 65.653V66.6951V66.7406H24.094V67.0505H23.9877L23.8753 66.926H23.8692C23.8003 67.009 23.7142 67.0505 23.6109 67.0505H23.0246V66.7406H23.4833C23.5117 66.7406 23.5319 66.7325 23.5441 66.7163C23.5623 66.7001 23.5714 66.6799 23.5714 66.6556V65.653H23.9391ZM27.2954 65.653V66.7163C27.2954 66.8075 27.263 66.8865 27.1982 66.9533C27.1354 67.0181 27.0584 67.0505 26.9673 67.0505H26.3293L26.2169 66.926H26.2078C26.1409 67.009 26.0558 67.0505 25.9525 67.0505H25.3145L25.1991 66.926H25.19C25.1231 67.009 25.038 67.0505 24.9348 67.0505H24.0719V66.7406H24.8163C24.8669 66.7406 24.8922 66.7153 24.8922 66.6647V66.0024H25.2629V66.61C25.2629 66.6687 25.2619 66.7123 25.2598 66.7406H25.8341C25.8847 66.7406 25.91 66.7153 25.91 66.6647V65.8261H26.2807V66.6373C26.2807 66.6495 26.2797 66.6677 26.2776 66.692C26.2776 66.7143 26.2776 66.7305 26.2776 66.7406H26.8488C26.8994 66.7406 26.9248 66.7153 26.9248 66.6647V65.653H27.2954ZM29.3096 64.8752V66.7163C29.3096 66.8034 29.2812 66.8774 29.2245 66.9381C29.1597 67.0131 29.0787 67.0505 28.9815 67.0505H27.7632L27.6113 66.8622V66.7406H28.3495L27.8482 65.2489H28.1946L28.6989 66.7406H28.863C28.8873 66.7406 28.9075 66.7325 28.9237 66.7163C28.9339 66.7001 28.9389 66.6829 28.9389 66.6647V64.8752H29.3096ZM30.0998 64.8752V66.9746L29.9114 67.1265H29.7291V64.8752H30.0998ZM32.1274 65.5709C32.182 65.5709 32.2286 65.5902 32.2671 65.6287C32.3056 65.6671 32.3248 65.7137 32.3248 65.7684C32.3248 65.8231 32.3056 65.8697 32.2671 65.9082C32.2286 65.9467 32.182 65.9659 32.1274 65.9659C32.0747 65.9659 32.0291 65.9467 31.9906 65.9082C31.9521 65.8697 31.9329 65.8231 31.9329 65.7684C31.9329 65.7137 31.9521 65.6671 31.9906 65.6287C32.0291 65.5902 32.0747 65.5709 32.1274 65.5709ZM32.5922 65.5709C32.6449 65.5709 32.6904 65.5902 32.7289 65.6287C32.7674 65.6671 32.7866 65.7137 32.7866 65.7684C32.7866 65.8231 32.7674 65.8697 32.7289 65.9082C32.6904 65.9467 32.6449 65.9659 32.5922 65.9659C32.5375 65.9659 32.4909 65.9467 32.4524 65.9082C32.414 65.8697 32.3947 65.8231 32.3947 65.7684C32.3947 65.7137 32.414 65.6671 32.4524 65.6287C32.4909 65.5902 32.5375 65.5709 32.5922 65.5709ZM33.6373 65.653V66.7163C33.6373 66.8014 33.611 66.8733 33.5583 66.932C33.4935 67.011 33.4105 67.0505 33.3092 67.0505H31.6078C31.4762 67.0505 31.3627 67.008 31.2675 66.9229C31.1399 66.8156 31.0761 66.6758 31.0761 66.5037V66.0236L31.2645 65.8717H31.4468V66.5037C31.4468 66.5746 31.4711 66.6323 31.5197 66.6768C31.5663 66.7194 31.62 66.7406 31.6807 66.7406H33.1907C33.2414 66.7406 33.2667 66.7153 33.2667 66.6647V65.653H33.6373ZM34.4286 64.8752V66.6647C34.4286 66.6849 34.4347 66.7011 34.4468 66.7133C34.459 66.7315 34.4782 66.7406 34.5046 66.7406H34.5836V67.0505H34.3861C34.303 67.0505 34.2301 67.0212 34.1673 66.9624C34.0944 66.8956 34.058 66.8136 34.058 66.7163V64.8752H34.4286ZM35.107 66.1786C35.107 65.9862 35.1738 65.8403 35.3075 65.7411C35.4128 65.6601 35.5566 65.6196 35.7389 65.6196C35.9172 65.6196 36.0681 65.6722 36.1916 65.7775C36.3476 65.9112 36.4256 66.1006 36.4256 66.3457C36.4256 66.5766 36.3638 66.768 36.2402 66.9199C36.1207 67.0678 35.9658 67.1417 35.7754 67.1417C35.6073 67.1417 35.4746 67.0789 35.3774 66.9533C35.3126 67.0181 35.2336 67.0505 35.1404 67.0505H34.5601V66.7406H35.028C35.0503 66.7406 35.0695 66.7325 35.0857 66.7163C35.0999 66.7022 35.107 66.6849 35.107 66.6647V66.1786ZM35.4746 66.7072C35.5495 66.7882 35.6356 66.8287 35.7328 66.8287C35.828 66.8287 35.906 66.7872 35.9668 66.7042C36.0276 66.6191 36.0579 66.5097 36.0579 66.3761C36.0579 66.2302 36.0245 66.1158 35.9577 66.0327C35.8969 65.9619 35.8179 65.9264 35.7207 65.9264C35.6478 65.9264 35.5901 65.9497 35.5475 65.9963C35.4989 66.0408 35.4746 66.1016 35.4746 66.1786V66.7072ZM36.9945 65.6347C37.0633 65.6226 37.1433 65.6165 37.2345 65.6165C37.4674 65.6165 37.6558 65.6915 37.7996 65.8413C37.9272 65.977 37.991 66.1452 37.991 66.3457V66.6373C37.991 66.6839 37.99 66.7184 37.9879 66.7406H38.0669V67.0505H38.0274L37.9272 66.926H37.9181C37.9019 66.9442 37.8846 66.9614 37.8664 66.9776C37.8057 67.0262 37.7378 67.0505 37.6629 67.0505H36.6876V66.7406H37.5444C37.595 66.7406 37.6203 66.7153 37.6203 66.6647V66.3821C37.6203 66.2424 37.5778 66.13 37.4927 66.0449C37.4137 65.9659 37.2993 65.9234 37.1494 65.9173C37.0805 65.9173 37.0289 65.9213 36.9945 65.9294V65.6347ZM39.0034 64.9846C39.0581 64.9846 39.1047 65.0038 39.1432 65.0423C39.1817 65.0808 39.2009 65.1274 39.2009 65.1821C39.2009 65.2347 39.1817 65.2803 39.1432 65.3188C39.1047 65.3573 39.0581 65.3765 39.0034 65.3765C38.9507 65.3765 38.9052 65.3573 38.8667 65.3188C38.8282 65.2803 38.809 65.2347 38.809 65.1821C38.809 65.1274 38.8282 65.0808 38.8667 65.0423C38.9052 65.0038 38.9507 64.9846 39.0034 64.9846ZM38.4474 65.7046C38.6398 65.6459 38.815 65.6165 38.973 65.6165C39.2181 65.6165 39.4156 65.6935 39.5655 65.8474C39.7012 65.9851 39.769 66.1593 39.769 66.37V66.6951V66.7406H39.8693V67.0505H39.8055L39.7052 66.926H39.6992C39.6303 67.009 39.5442 67.0505 39.4409 67.0505H38.0433V66.7406H39.3224C39.3731 66.7406 39.3984 66.7153 39.3984 66.6647V66.3913C39.3984 66.2535 39.3518 66.1431 39.2586 66.0601C39.1675 65.975 39.047 65.9325 38.8971 65.9325C38.7978 65.9325 38.6479 65.9548 38.4474 65.9993V65.7046ZM40.7618 64.8752V66.7163C40.7618 66.8014 40.7345 66.8743 40.6798 66.9351C40.617 67.0121 40.535 67.0505 40.4337 67.0505H39.8473V66.7406H40.3152C40.3375 66.7406 40.3567 66.7325 40.3729 66.7163C40.3871 66.7022 40.3942 66.6849 40.3942 66.6647V64.8752H40.7618ZM41.5523 64.8752V66.9746L41.364 67.1265H41.1817V64.8752H41.5523ZM43.1454 64.9846C43.2001 64.9846 43.2457 65.0038 43.2822 65.0423C43.3206 65.0808 43.3399 65.1274 43.3399 65.1821C43.3399 65.2367 43.3206 65.2833 43.2822 65.3218C43.2457 65.3583 43.2001 65.3765 43.1454 65.3765C43.0907 65.3765 43.0442 65.3573 43.0057 65.3188C42.9672 65.2803 42.948 65.2347 42.948 65.1821C42.948 65.1274 42.9672 65.0808 43.0057 65.0423C43.0442 65.0038 43.0907 64.9846 43.1454 64.9846ZM43.6072 64.9846C43.6619 64.9846 43.7085 65.0038 43.747 65.0423C43.7855 65.0808 43.8047 65.1274 43.8047 65.1821C43.8047 65.2347 43.7855 65.2803 43.747 65.3188C43.7085 65.3573 43.6619 65.3765 43.6072 65.3765C43.5526 65.3765 43.506 65.3573 43.4675 65.3188C43.429 65.2803 43.4098 65.2347 43.4098 65.1821C43.4098 65.1274 43.429 65.0808 43.4675 65.0423C43.506 65.0038 43.5526 64.9846 43.6072 64.9846ZM43.8047 65.5709V66.5189C43.8047 66.693 43.745 66.8318 43.6255 66.9351C43.5141 67.0303 43.3611 67.0779 43.1667 67.0779C42.952 67.0779 42.7839 67.009 42.6624 66.8713C42.5449 66.7477 42.4861 66.5806 42.4861 66.37C42.4861 66.1411 42.5601 65.9527 42.7079 65.8049C42.8396 65.6712 43.0026 65.6044 43.1971 65.6044C43.3004 65.6044 43.3986 65.6277 43.4918 65.6742L43.6194 65.5709H43.8047ZM43.4341 65.9629C43.3632 65.9345 43.2963 65.9203 43.2335 65.9203C43.1201 65.9203 43.028 65.9619 42.9571 66.0449C42.8882 66.1279 42.8538 66.2363 42.8538 66.37C42.8538 66.4956 42.8811 66.5938 42.9358 66.6647C42.9925 66.7336 43.0705 66.768 43.1697 66.768C43.2589 66.768 43.3257 66.7437 43.3703 66.6951C43.4128 66.6465 43.4341 66.5867 43.4341 66.5158V65.9629ZM44.8925 65.653V66.9776C44.8925 67.2288 44.8156 67.4232 44.6616 67.561C44.5624 67.6521 44.4348 67.7159 44.2788 67.7524C44.2059 67.7665 44.1299 67.7736 44.051 67.7736C44.0246 67.7736 43.9892 67.7716 43.9446 67.7675L43.7957 67.5822V67.4516C43.8606 67.4617 43.9234 67.4668 43.9841 67.4668C44.3426 67.4668 44.5219 67.2926 44.5219 66.9442V65.653H44.8925ZM45.6824 64.8752V66.9746L45.494 67.1265H45.3117V64.8752H45.6824ZM46.3166 65.6347C46.3855 65.6226 46.4655 65.6165 46.5567 65.6165C46.7896 65.6165 46.9779 65.6915 47.1218 65.8413C47.2494 65.977 47.3132 66.1452 47.3132 66.3457V66.7163C47.3132 66.8115 47.2787 66.8915 47.2099 66.9564C47.1471 67.0191 47.0721 67.0505 46.985 67.0505H46.0098V66.7406H46.8665C46.9172 66.7406 46.9425 66.7153 46.9425 66.6647V66.3821C46.9425 66.2424 46.9 66.13 46.8149 66.0449C46.7359 65.9659 46.6215 65.9234 46.4716 65.9173C46.4027 65.9173 46.3511 65.9213 46.3166 65.9294V65.6347ZM49.3011 64.8752V66.7163C49.3011 66.8034 49.2728 66.8774 49.216 66.9381C49.1512 67.0131 49.0702 67.0505 48.973 67.0505H47.7547L47.6028 66.8622V66.7406H48.341L47.8397 65.2489H48.1861L48.6904 66.7406H48.8545C48.8788 66.7406 48.8991 66.7325 48.9153 66.7163C48.9254 66.7001 48.9305 66.6829 48.9305 66.6647V64.8752H49.3011ZM48.4869 67.801C48.4524 67.7463 48.4352 67.6886 48.4352 67.6278C48.4352 67.5407 48.4605 67.4708 48.5112 67.4182C48.5638 67.3655 48.6337 67.3392 48.7208 67.3392C48.7674 67.3392 48.819 67.3483 48.8758 67.3665V67.5275C48.8353 67.5154 48.7978 67.5093 48.7633 67.5093C48.6742 67.5093 48.6297 67.5579 48.6297 67.6551C48.6297 67.6916 48.6398 67.724 48.6601 67.7524C48.6844 67.7848 48.7208 67.801 48.7694 67.801H48.976V67.8769L48.9031 67.965H48.3653V67.801H48.4869ZM50.8952 64.9846C50.9499 64.9846 50.9965 65.0038 51.0349 65.0423C51.0734 65.0808 51.0927 65.1274 51.0927 65.1821C51.0927 65.2347 51.0734 65.2803 51.0349 65.3188C50.9965 65.3573 50.9499 65.3765 50.8952 65.3765C50.8405 65.3765 50.7939 65.3573 50.7554 65.3188C50.7169 65.2803 50.6977 65.2347 50.6977 65.1821C50.6977 65.1274 50.7169 65.0808 50.7554 65.0423C50.7939 65.0038 50.8405 64.9846 50.8952 64.9846ZM51.357 64.9846C51.4117 64.9846 51.4583 65.0038 51.4967 65.0423C51.5352 65.0808 51.5545 65.1274 51.5545 65.1821C51.5545 65.2347 51.5352 65.2803 51.4967 65.3188C51.4583 65.3573 51.4117 65.3765 51.357 65.3765C51.3043 65.3765 51.2588 65.3573 51.2203 65.3188C51.1818 65.2803 51.1625 65.2347 51.1625 65.1821C51.1625 65.1274 51.1818 65.0808 51.2203 65.0423C51.2588 65.0038 51.3043 64.9846 51.357 64.9846ZM51.5545 65.5709V66.6647C51.5545 66.689 51.5616 66.7072 51.5757 66.7194C51.5879 66.7336 51.6041 66.7406 51.6244 66.7406H51.7094V67.0505H51.518C51.4248 67.0505 51.3408 67.0131 51.2658 66.9381C51.1504 67.0333 51.0218 67.0809 50.88 67.0809C50.72 67.0809 50.5823 67.0303 50.4668 66.929C50.3129 66.7852 50.2359 66.5928 50.2359 66.3518C50.2359 66.131 50.3068 65.9477 50.4486 65.8018C50.5782 65.6702 50.7372 65.6044 50.9256 65.6044C51.0309 65.6044 51.1362 65.6266 51.2415 65.6712L51.3722 65.5709H51.5545ZM51.1838 65.9629C51.1129 65.9365 51.0451 65.9234 50.9803 65.9234C50.8709 65.9234 50.7807 65.9639 50.7099 66.0449C50.639 66.1239 50.6035 66.2272 50.6035 66.3548C50.6035 66.4824 50.6349 66.5847 50.6977 66.6616C50.7625 66.7386 50.8486 66.7771 50.9559 66.7771C51.0289 66.7771 51.1048 66.7609 51.1838 66.7285V65.9629ZM52.603 65.653V66.6951V66.7406H52.758V67.0505H52.6517L52.5392 66.926H52.5332C52.4643 67.009 52.3782 67.0505 52.2749 67.0505H51.6886V66.7406H52.1473C52.1757 66.7406 52.1959 66.7325 52.2081 66.7163C52.2263 66.7001 52.2354 66.6799 52.2354 66.6556V65.653H52.603ZM51.9438 67.2723C51.9985 67.2723 52.045 67.2916 52.0835 67.3301C52.122 67.3685 52.1412 67.4151 52.1412 67.4698C52.1412 67.5245 52.122 67.5711 52.0835 67.6096C52.045 67.648 51.9985 67.6673 51.9438 67.6673C51.8891 67.6673 51.8425 67.648 51.804 67.6096C51.7655 67.5711 51.7463 67.5245 51.7463 67.4698C51.7463 67.4151 51.7655 67.3685 51.804 67.3301C51.8425 67.2916 51.8891 67.2723 51.9438 67.2723ZM52.4056 67.2723C52.4603 67.2723 52.5068 67.2916 52.5453 67.3301C52.5838 67.3685 52.603 67.4151 52.603 67.4698C52.603 67.5245 52.5838 67.5711 52.5453 67.6096C52.5068 67.648 52.4603 67.6673 52.4056 67.6673C52.3529 67.6673 52.3073 67.648 52.2688 67.6096C52.2304 67.5711 52.2111 67.5245 52.2111 67.4698C52.2111 67.4151 52.2304 67.3685 52.2688 67.3301C52.3073 67.2916 52.3529 67.2723 52.4056 67.2723ZM54.1821 64.8327V65.176L53.5471 65.5618C53.8084 65.657 54.018 65.813 54.176 66.0297C54.3178 66.2282 54.3887 66.4449 54.3887 66.6799C54.3887 66.7893 54.3573 66.8784 54.2945 66.9472C54.2337 67.0161 54.1547 67.0505 54.0575 67.0505H52.7329V66.7406H53.939C53.9917 66.7406 54.018 66.7143 54.018 66.6616C54.0018 66.4713 53.9319 66.3052 53.8084 66.1634C53.6423 65.9669 53.4144 65.8535 53.1248 65.8231C53.1106 65.8231 53.1035 65.815 53.1035 65.7988V65.4525L54.1821 64.8327ZM55.1898 64.9846C55.2424 64.9846 55.288 65.0038 55.3265 65.0423C55.365 65.0808 55.3842 65.1274 55.3842 65.1821C55.3842 65.2347 55.365 65.2803 55.3265 65.3188C55.288 65.3573 55.2424 65.3765 55.1898 65.3765C55.1351 65.3765 55.0885 65.3573 55.05 65.3188C55.0115 65.2803 54.9923 65.2347 54.9923 65.1821C54.9923 65.1274 55.0115 65.0808 55.05 65.0423C55.0885 65.0038 55.1351 64.9846 55.1898 64.9846ZM54.9862 65.6347C55.0551 65.6226 55.1351 65.6165 55.2262 65.6165C55.4592 65.6165 55.6475 65.6915 55.7913 65.8413C55.9189 65.977 55.9827 66.1452 55.9827 66.3457V66.6373C55.9827 66.6839 55.9817 66.7184 55.9797 66.7406H56.0587V67.0505H56.0192L55.9189 66.926H55.9098C55.8936 66.9442 55.8764 66.9614 55.8582 66.9776C55.7974 67.0262 55.7296 67.0505 55.6546 67.0505H54.6794V66.7406H55.5361C55.5868 66.7406 55.6121 66.7153 55.6121 66.6647V66.3821C55.6121 66.2424 55.5696 66.13 55.4845 66.0449C55.4055 65.9659 55.2911 65.9234 55.1412 65.9173C55.0723 65.9173 55.0207 65.9213 54.9862 65.9294V65.6347ZM56.9526 64.8752V66.7163C56.9526 66.8014 56.9253 66.8743 56.8706 66.9351C56.8078 67.0121 56.7258 67.0505 56.6245 67.0505H56.0381V66.7406H56.506C56.5283 66.7406 56.5475 66.7325 56.5638 66.7163C56.5779 66.7022 56.585 66.6849 56.585 66.6647V64.8752H56.9526ZM57.7431 64.8752V66.9746L57.5548 67.1265H57.3725V64.8752H57.7431ZM61.2837 64.8752V66.6951C61.2837 66.7153 61.2827 66.7305 61.2807 66.7406H61.4356V67.0505H61.3202L61.2199 66.926H61.2108C61.148 67.009 61.0629 67.0505 60.9556 67.0505H59.2542C59.1205 67.0505 59.0031 67.005 58.9018 66.9138C58.7823 66.8044 58.7225 66.6677 58.7225 66.5037V66.0236L58.9109 65.8717H59.0932V66.5037C59.0932 66.5644 59.1124 66.6171 59.1509 66.6616C59.1995 66.7143 59.2583 66.7406 59.3271 66.7406H60.8371C60.8634 66.7406 60.8827 66.7325 60.8948 66.7163C60.907 66.7042 60.9131 66.687 60.9131 66.6647V64.8752H61.2837ZM59.7798 65.8717C59.7555 65.8292 59.7363 65.7816 59.7221 65.7289C59.714 65.6985 59.7099 65.6651 59.7099 65.6287C59.714 65.5132 59.7525 65.4231 59.8254 65.3583C59.8983 65.2935 59.9976 65.261 60.1231 65.261C60.1819 65.261 60.2355 65.2671 60.2842 65.2793V65.4525C60.2416 65.4403 60.2001 65.4342 60.1596 65.4342C60.0219 65.4342 59.9489 65.5031 59.9408 65.6408C59.9408 65.6854 59.95 65.7279 59.9682 65.7684C59.9986 65.8373 60.0573 65.8717 60.1444 65.8717H60.4482V65.9507L60.3601 66.0601H59.555V65.8717H59.7798ZM61.709 64.9846C61.7637 64.9846 61.8103 65.0038 61.8488 65.0423C61.8873 65.0808 61.9065 65.1274 61.9065 65.1821C61.9065 65.2347 61.8873 65.2803 61.8488 65.3188C61.8103 65.3573 61.7637 65.3765 61.709 65.3765C61.6543 65.3765 61.6077 65.3573 61.5693 65.3188C61.5308 65.2803 61.5115 65.2347 61.5115 65.1821C61.5115 65.1274 61.5308 65.0808 61.5693 65.0423C61.6077 65.0038 61.6543 64.9846 61.709 64.9846ZM62.1708 64.9846C62.2255 64.9846 62.2721 65.0038 62.3106 65.0423C62.3491 65.0808 62.3683 65.1274 62.3683 65.1821C62.3683 65.2347 62.3491 65.2803 62.3106 65.3188C62.2721 65.3573 62.2255 65.3765 62.1708 65.3765C62.1182 65.3765 62.0726 65.3573 62.0341 65.3188C61.9956 65.2803 61.9764 65.2347 61.9764 65.1821C61.9764 65.1274 61.9956 65.0808 62.0341 65.0423C62.0726 65.0038 62.1182 64.9846 62.1708 64.9846ZM62.3288 65.653V66.6951V66.7406H62.4838V67.0505H62.3774L62.265 66.926H62.2589C62.1901 67.009 62.104 67.0505 62.0007 67.0505H61.4143V66.7406H61.8731C61.9014 66.7406 61.9217 66.7325 61.9338 66.7163C61.9521 66.7001 61.9612 66.6799 61.9612 66.6556V65.653H62.3288ZM63.3762 65.653V66.7163C63.3762 66.7953 63.3498 66.8682 63.2972 66.9351C63.2303 67.0121 63.1473 67.0505 63.048 67.0505H62.4617V66.7406H62.9295C62.9518 66.7406 62.9711 66.7325 62.9873 66.7163C63.0014 66.7022 63.0085 66.6849 63.0085 66.6647V65.653H63.3762ZM63.124 67.2723C63.1787 67.2723 63.2253 67.2916 63.2637 67.3301C63.3022 67.3685 63.3215 67.4151 63.3215 67.4698C63.3215 67.5245 63.3022 67.5711 63.2637 67.6096C63.2253 67.648 63.1787 67.6673 63.124 67.6673C63.0693 67.6673 63.0227 67.648 62.9842 67.6096C62.9478 67.5711 62.9295 67.5245 62.9295 67.4698C62.9295 67.4151 62.9478 67.3685 62.9842 67.3301C63.0227 67.2916 63.0693 67.2723 63.124 67.2723ZM64.1667 64.8752V66.9746L63.9783 67.1265H63.796V64.8752H64.1667ZM65.2323 67.0505C65.0095 67.0505 64.8343 66.9746 64.7067 66.8227C64.5994 66.693 64.5457 66.533 64.5457 66.3426C64.5457 66.1158 64.6095 65.9386 64.7371 65.811C64.8708 65.6813 65.0419 65.6165 65.2506 65.6165C65.4025 65.6165 65.5341 65.654 65.6455 65.7289C65.7914 65.8342 65.8643 65.9841 65.8643 66.1786V66.7406H65.9615V67.0505H65.8612C65.8471 67.2693 65.7701 67.4404 65.6303 67.564C65.5331 67.6511 65.4167 67.7108 65.281 67.7432C65.1858 67.7655 65.0926 67.7767 65.0014 67.7767C64.9711 67.7767 64.9275 67.7746 64.8708 67.7706H64.8617L64.7067 67.5792V67.4455C64.7898 67.4597 64.8678 67.4668 64.9407 67.4668C65.2729 67.4668 65.4541 67.328 65.4845 67.0505H65.2323ZM65.4936 66.1786C65.4936 66.0976 65.4673 66.0338 65.4146 65.9872C65.368 65.9467 65.3134 65.9264 65.2506 65.9264C65.1473 65.9264 65.0652 65.9629 65.0045 66.0358C64.9437 66.1087 64.9133 66.209 64.9133 66.3366C64.9133 66.4601 64.9468 66.5584 65.0136 66.6313C65.0804 66.7042 65.1716 66.7406 65.287 66.7406H65.4936V66.1786ZM66.8535 65.653V66.7163C66.8535 66.7953 66.8271 66.8682 66.7745 66.9351C66.7076 67.0121 66.6246 67.0505 66.5253 67.0505H65.939V66.7406H66.4068C66.4291 66.7406 66.4484 66.7325 66.4646 66.7163C66.4787 66.7022 66.4858 66.6849 66.4858 66.6647V65.653H66.8535ZM66.6013 67.2723C66.656 67.2723 66.7026 67.2916 66.741 67.3301C66.7795 67.3685 66.7988 67.4151 66.7988 67.4698C66.7988 67.5245 66.7795 67.5711 66.741 67.6096C66.7026 67.648 66.656 67.6673 66.6013 67.6673C66.5466 67.6673 66.5 67.648 66.4615 67.6096C66.4251 67.5711 66.4068 67.5245 66.4068 67.4698C66.4068 67.4151 66.4251 67.3685 66.4615 67.3301C66.5 67.2916 66.5466 67.2723 66.6013 67.2723Z" fill="white"/>
</g>
<defs>
<linearGradient id="paint0_linear_5782_888" x1="74.062" y1="32.6811" x2="81.0676" y2="32.6811" gradientUnits="userSpaceOnUse">
<stop stop-color="#479E6F"/>
<stop offset="1" stop-color="#78F6B9"/>
</linearGradient>
<linearGradient id="paint1_linear_5782_888" x1="75.1988" y1="48.7253" x2="86.3869" y2="37.5219" gradientUnits="userSpaceOnUse">
<stop stop-color="#479E6F"/>
<stop offset="1" stop-color="#78F6B9"/>
</linearGradient>
<clipPath id="clip0_5782_888">
<rect width="71.5544" height="41.3801" fill="white" transform="translate(14.2456 27.4736)"/>
</clipPath>
</defs>
</svg>
