<svg width="79" height="39" viewBox="0 0 79 39" fill="none" xmlns="http://www.w3.org/2000/svg">
<g clip-path="url(#clip0_5735_8196)">
<path d="M55.6201 9.0446V13.6145C55.6201 15.6885 56.3786 16.622 57.7683 16.622C59.158 16.622 59.8899 15.6885 59.8899 13.6145V9.0446C59.8899 6.97059 59.1569 6.03712 57.7683 6.03712C56.3797 6.03712 55.6201 6.97059 55.6201 9.0446Z" fill="url(#paint0_linear_5735_8196)"/>
<path d="M74.5915 6.05483C74.9182 7.07468 75.081 8.26172 75.081 9.61266V21.172H69.6307V9.03131C69.6307 7.06692 68.9719 6.12349 67.7151 6.03712H64.8527C65.186 7.0625 65.3521 8.26172 65.3521 9.62373V13.0332C65.3521 18.3682 62.7731 21.172 57.7437 21.172C52.7142 21.172 50.1618 18.3671 50.1618 13.0332V9.62373C50.1618 8.26726 50.3279 7.07578 50.6546 6.05483C48.3392 6.25858 46.5254 8.20304 46.5254 10.5716V33.6913C46.5254 36.1961 48.5551 38.2269 51.061 38.2269H52.6943V30.6385C52.6943 28.5689 51.9612 27.6354 50.5726 27.6354C50.4287 27.6354 50.2903 27.6454 50.1596 27.6664V23.0998C50.2969 23.0954 50.432 23.0932 50.5726 23.0932C55.5678 23.0932 58.1434 25.867 58.1434 31.2187V38.228H60.3924C60.058 37.2004 59.8896 36.0034 59.8896 34.6414V31.232C59.8896 25.8748 62.4686 23.0954 67.498 23.0954C72.5275 23.0954 75.0799 25.8748 75.0799 31.232V34.6414C75.0799 35.9957 74.9138 37.1861 74.5816 38.2103C76.897 38.0077 78.7152 36.0643 78.7152 33.6936V10.5716C78.7152 8.20414 76.9025 6.25969 74.5893 6.05483H74.5904H74.5915Z" fill="url(#paint1_linear_5735_8196)"/>
<path d="M69.6194 35.2228V30.6517C69.6194 28.5788 68.8886 27.6443 67.4978 27.6443C66.107 27.6443 65.3496 28.5788 65.3496 30.6517V35.2228C65.3496 37.2625 66.086 38.2015 67.4336 38.2291H67.562C68.9097 38.2015 69.6194 37.2636 69.6194 35.2228Z" fill="url(#paint2_linear_5735_8196)"/>
<path d="M55.6201 9.0446V13.6145C55.6201 15.6885 56.3786 16.622 57.7683 16.622C59.158 16.622 59.8899 15.6885 59.8899 13.6145V9.0446C59.8899 6.97059 59.1569 6.03712 57.7683 6.03712C56.3797 6.03712 55.6201 6.97059 55.6201 9.0446Z" fill="url(#paint3_linear_5735_8196)"/>
<path d="M74.5915 6.05483C74.9182 7.07468 75.081 8.26172 75.081 9.61266V21.172H69.6307V9.03131C69.6307 7.06692 68.9719 6.12349 67.7151 6.03712H64.8527C65.186 7.0625 65.3521 8.26172 65.3521 9.62373V13.0332C65.3521 18.3682 62.7731 21.172 57.7437 21.172C52.7142 21.172 50.1618 18.3671 50.1618 13.0332V9.62373C50.1618 8.26726 50.3279 7.07578 50.6546 6.05483C48.3392 6.25858 46.5254 8.20304 46.5254 10.5716V33.6913C46.5254 36.1961 48.5551 38.2269 51.061 38.2269H52.6943V30.6385C52.6943 28.5689 51.9612 27.6354 50.5726 27.6354C50.4287 27.6354 50.2903 27.6454 50.1596 27.6664V23.0998C50.2969 23.0954 50.432 23.0932 50.5726 23.0932C55.5678 23.0932 58.1434 25.867 58.1434 31.2187V38.228H60.3924C60.058 37.2004 59.8896 36.0034 59.8896 34.6414V31.232C59.8896 25.8748 62.4686 23.0954 67.498 23.0954C72.5275 23.0954 75.0799 25.8748 75.0799 31.232V34.6414C75.0799 35.9957 74.9138 37.1861 74.5816 38.2103C76.897 38.0077 78.7152 36.0643 78.7152 33.6936V10.5716C78.7152 8.20414 76.9025 6.25969 74.5893 6.05483H74.5904H74.5915Z" fill="url(#paint4_linear_5735_8196)"/>
<path d="M69.6194 35.2228V30.6517C69.6194 28.5788 68.8886 27.6443 67.4978 27.6443C66.107 27.6443 65.3496 28.5788 65.3496 30.6517V35.2228C65.3496 37.2625 66.086 38.2015 67.4336 38.2291H67.562C68.9097 38.2015 69.6194 37.2636 69.6194 35.2228Z" fill="url(#paint5_linear_5735_8196)"/>
<path d="M0 29.7814V38.228H3.98414V29.3562C3.98414 27.8436 4.51898 27.1615 5.53328 27.1615C5.63958 27.1615 5.73924 27.1692 5.83558 27.1847V23.8473C5.73592 23.8439 5.63626 23.8428 5.53328 23.8428C1.88134 23.8428 0.00110732 25.8714 0.00110732 29.7814H0Z" fill="#1A1B23"/>
<path d="M35.6812 23.8428C34.2029 23.8428 33.0125 24.1728 32.1222 24.8206C32.1211 24.8206 32.1189 24.8239 32.1178 24.8239C31.2264 24.1728 30.0416 23.8428 28.5677 23.8428C27.0939 23.8428 25.8991 24.1728 25.0088 24.8206C24.1207 24.1728 22.9359 23.8428 21.4654 23.8428C21.3646 23.8428 21.2627 23.8461 21.1631 23.8473V27.1847C21.2594 27.1703 21.3591 27.1615 21.4654 27.1615C22.4808 27.1615 23.0145 27.8436 23.0145 29.3562V29.4282C23.0112 29.5477 23.0079 29.6662 23.0079 29.7902V38.2291H26.9965V29.3661C26.9965 27.8513 27.5512 27.1681 28.5666 27.1681C29.582 27.1681 30.1191 27.8524 30.1191 29.3661V38.2291H34.1121V29.3661C34.1121 27.8513 34.6669 27.1681 35.6823 27.1681C36.6977 27.1681 37.2347 27.8524 37.2347 29.3661V38.2291H41.2233V29.7902C41.2233 25.8748 39.3398 23.8428 35.6823 23.8428H35.6812Z" fill="#1A1B23"/>
<path d="M18.8314 34.9293H17.4218C17.6698 34.1741 17.7961 33.2905 17.7961 32.2817V29.7902C17.7961 25.8936 15.9125 23.8428 12.2373 23.8428C8.56212 23.8428 6.69629 25.8925 6.69629 29.7902V32.2817C6.69629 36.195 8.57763 38.2258 12.2484 38.2291H12.255L22.1334 38.2258L18.8336 34.9271H18.8325L18.8314 34.9293ZM10.6826 29.3661C10.6826 27.8513 11.2374 27.1681 12.2528 27.1681C13.2682 27.1681 13.8053 27.8524 13.8053 29.3661V32.7069C13.8053 34.2217 13.2705 34.905 12.2528 34.905C11.2352 34.905 10.6826 34.2206 10.6826 32.7069V29.3661Z" fill="#1A1B23"/>
<path d="M36.6946 5.72816V15.8103C36.6946 17.5289 36.0878 18.304 34.934 18.304C34.8133 18.304 34.7003 18.2963 34.5918 18.2774V22.07C34.7047 22.0733 34.8188 22.0766 34.934 22.0766C39.0842 22.0766 41.2224 19.7712 41.2224 15.3286V5.73038H36.6957L36.6946 5.72816Z" fill="#1A1B23"/>
<path d="M11.2249 22.0755H11.2327C12.9103 22.0755 14.2601 21.6991 15.2733 20.9627C16.2854 21.7002 17.6319 22.0755 19.3061 22.0755C20.9804 22.0755 22.338 21.7024 23.3523 20.9638C23.3556 20.9627 23.3567 20.9594 23.36 20.9571C24.3721 21.6968 25.7164 22.0755 27.3896 22.0755C31.5653 22.0755 33.7068 19.7446 33.7068 15.3176V12.4861C33.7068 8.03582 31.5653 5.72816 27.4106 5.72816C23.2559 5.72816 21.0934 8.03693 21.0934 12.4861V13.1372H21.0922V15.8004C21.0922 17.5222 20.4622 18.2985 19.3083 18.2985C18.1545 18.2985 17.5444 17.5211 17.5444 15.8004V12.4861C17.5444 8.05686 15.4028 5.72816 11.2471 5.72816C7.09128 5.72816 4.92979 8.05908 4.92979 12.4861V15.3176C4.92979 16.4636 5.07374 17.4669 5.3539 18.325H3.7516L0 22.0722L11.2249 22.0755ZM25.6267 12.0034C25.6267 10.2815 26.2568 9.50524 27.4106 9.50524C28.5644 9.50524 29.1735 10.2826 29.1735 12.0034V15.8015C29.1735 17.5233 28.5644 18.2996 27.4106 18.2996C26.2568 18.2996 25.6267 17.5222 25.6267 15.8015V12.0034ZM9.46205 12.0034C9.46205 10.2815 10.0711 9.50524 11.2249 9.50524C12.3787 9.50524 13.0088 10.2826 13.0088 12.0034V15.8015C13.0088 17.5233 12.3787 18.2996 11.2249 18.2996C10.0711 18.2996 9.46205 17.5222 9.46205 15.8015V12.0034Z" fill="#1A1B23"/>
<path d="M23.6597 3.88116C24.5411 4.76259 25.9707 4.76259 26.8532 3.88116L26.8665 3.86787C27.1157 3.61872 27.2928 3.32418 27.4002 3.01081C27.5076 3.32418 27.6837 3.61762 27.934 3.86787L27.9473 3.88116C28.8287 4.76259 30.2582 4.76259 31.1408 3.88116L31.1541 3.86787C32.0355 2.98644 32.0355 1.55689 31.1541 0.674358L31.1408 0.66107C30.2593 -0.220357 28.8298 -0.220357 27.9473 0.66107L27.934 0.674358C27.6848 0.923505 27.5076 1.21805 27.4002 1.53142C27.2928 1.21805 27.1168 0.924613 26.8665 0.674358L26.8532 0.66107C25.9718 -0.220357 24.5422 -0.220357 23.6597 0.66107L23.6464 0.674358C22.765 1.55579 22.765 2.98534 23.6464 3.86787L23.6597 3.88116Z" fill="#1A1B23"/>
</g>
<defs>
<linearGradient id="paint0_linear_5735_8196" x1="55.6201" y1="11.329" x2="59.8888" y2="11.329" gradientUnits="userSpaceOnUse">
<stop stop-color="#62C4AA"/>
<stop offset="1" stop-color="#4C89D5"/>
</linearGradient>
<linearGradient id="paint1_linear_5735_8196" x1="46.5243" y1="22.1331" x2="78.7152" y2="22.1331" gradientUnits="userSpaceOnUse">
<stop stop-color="#62C4AA"/>
<stop offset="1" stop-color="#4C89D5"/>
</linearGradient>
<linearGradient id="paint2_linear_5735_8196" x1="65.3507" y1="32.9361" x2="69.6217" y2="32.9361" gradientUnits="userSpaceOnUse">
<stop stop-color="#62C4AA"/>
<stop offset="1" stop-color="#4C89D5"/>
</linearGradient>
<linearGradient id="paint3_linear_5735_8196" x1="46.5235" y1="11.329" x2="78.7166" y2="11.329" gradientUnits="userSpaceOnUse">
<stop stop-color="#62C4AA"/>
<stop offset="1" stop-color="#4C89D5"/>
</linearGradient>
<linearGradient id="paint4_linear_5735_8196" x1="46.5243" y1="22.1331" x2="78.7152" y2="22.1331" gradientUnits="userSpaceOnUse">
<stop stop-color="#62C4AA"/>
<stop offset="1" stop-color="#4C89D5"/>
</linearGradient>
<linearGradient id="paint5_linear_5735_8196" x1="46.5229" y1="32.9361" x2="78.7161" y2="32.9361" gradientUnits="userSpaceOnUse">
<stop stop-color="#62C4AA"/>
<stop offset="1" stop-color="#4C89D5"/>
</linearGradient>
<clipPath id="clip0_5735_8196">
<rect width="78.715" height="38.2302" fill="white"/>
</clipPath>
</defs>
</svg>