<svg width="348" height="299" viewBox="0 0 348 299" fill="none" xmlns="http://www.w3.org/2000/svg">
<path d="M78.3413 32.2795V81.3286C78.3413 103.589 86.8895 113.608 102.551 113.608C118.212 113.608 126.461 103.589 126.461 81.3286V32.2795C126.461 10.019 118.2 0 102.551 0C86.902 0 78.3413 10.019 78.3413 32.2795Z" fill="white" fill-opacity="0.06"/>
<path d="M292.148 0.190159C295.829 11.1362 297.663 23.8768 297.663 38.3765V162.443H236.241V32.1369C236.241 11.053 228.816 0.927025 214.652 0H182.393C186.149 11.0055 188.021 23.8769 188.021 38.4953V75.0891C188.021 132.351 158.957 162.443 102.277 162.443C45.5963 162.443 16.8318 132.339 16.8318 75.0891V38.4953C16.8318 23.9363 18.7037 11.1481 22.385 0.190159C-3.70897 2.37699 -24.1499 23.2469 -24.1499 48.6688V296.815C-24.1499 323.698 -1.27555 345.495 26.9649 345.495H45.3717V264.048C45.3717 241.835 37.1104 231.816 21.4615 231.816C19.8392 231.816 18.2794 231.923 16.8068 232.149V183.135C18.3542 183.088 19.8767 183.064 21.4615 183.064C77.7552 183.064 106.782 212.836 106.782 270.275V345.507H132.127C128.358 334.478 126.461 321.63 126.461 307.012V270.418C126.461 212.919 155.525 183.088 212.206 183.088C268.886 183.088 297.651 212.919 297.651 270.418V307.012C297.651 321.547 295.779 334.323 292.035 345.317C318.129 343.142 338.62 322.284 338.62 296.838V48.6688C338.62 23.2588 318.192 2.38887 292.123 0.190159H292.135H292.148Z" fill="white" fill-opacity="0.06"/>
<path d="M236.116 313.252V264.191C236.116 241.942 227.88 231.911 212.206 231.911C196.532 231.911 187.996 241.942 187.996 264.191V313.252C187.996 335.144 196.295 345.222 211.482 345.519H212.93C228.117 345.222 236.116 335.156 236.116 313.252Z" fill="white" fill-opacity="0.06"/>
<path d="M78.3413 32.2795V81.3286C78.3413 103.589 86.8895 113.608 102.551 113.608C118.212 113.608 126.461 103.589 126.461 81.3286V32.2795C126.461 10.019 118.2 0 102.551 0C86.902 0 78.3413 10.019 78.3413 32.2795Z" fill="white" fill-opacity="0.06"/>
<path d="M292.148 0.190159C295.829 11.1362 297.663 23.8768 297.663 38.3765V162.443H236.241V32.1369C236.241 11.053 228.816 0.927025 214.652 0H182.393C186.149 11.0055 188.021 23.8769 188.021 38.4953V75.0891C188.021 132.351 158.957 162.443 102.277 162.443C45.5963 162.443 16.8318 132.339 16.8318 75.0891V38.4953C16.8318 23.9363 18.7037 11.1481 22.385 0.190159C-3.70897 2.37699 -24.1499 23.2469 -24.1499 48.6688V296.815C-24.1499 323.698 -1.27555 345.495 26.9649 345.495H45.3717V264.048C45.3717 241.835 37.1104 231.816 21.4615 231.816C19.8392 231.816 18.2794 231.923 16.8068 232.149V183.135C18.3542 183.088 19.8767 183.064 21.4615 183.064C77.7552 183.064 106.782 212.836 106.782 270.275V345.507H132.127C128.358 334.478 126.461 321.63 126.461 307.012V270.418C126.461 212.919 155.525 183.088 212.206 183.088C268.886 183.088 297.651 212.919 297.651 270.418V307.012C297.651 321.547 295.779 334.323 292.035 345.317C318.129 343.142 338.62 322.284 338.62 296.838V48.6688C338.62 23.2588 318.192 2.38887 292.123 0.190159H292.135H292.148Z" fill="white" fill-opacity="0.06"/>
<path d="M236.116 313.252V264.191C236.116 241.942 227.88 231.911 212.206 231.911C196.532 231.911 187.996 241.942 187.996 264.191V313.252C187.996 335.144 196.295 345.222 211.482 345.519H212.93C228.117 345.222 236.116 335.156 236.116 313.252Z" fill="white" fill-opacity="0.06"/>
</svg>
