<svg width="108" height="52" viewBox="0 0 108 52" fill="none" xmlns="http://www.w3.org/2000/svg">
<g clip-path="url(#clip0_5650_504)">
<path d="M75.6528 12.3026V18.5185C75.6528 21.3396 76.6845 22.6092 78.5748 22.6092C80.465 22.6092 81.4606 21.3396 81.4606 18.5185V12.3026C81.4606 9.4816 80.4635 8.21191 78.5748 8.21191C76.6861 8.21191 75.6528 9.4816 75.6528 12.3026Z" fill="white"/>
<path d="M101.458 8.23601C101.902 9.62318 102.123 11.2378 102.123 13.0753V28.798H94.7101V12.2846C94.7101 9.61264 93.814 8.32939 92.1045 8.21191H88.2111C88.6644 9.60661 88.8904 11.2378 88.8904 13.0903V17.7278C88.8904 24.9845 85.3825 28.798 78.5416 28.798C71.7006 28.798 68.2289 24.9829 68.2289 17.7278V13.0903C68.2289 11.2453 68.4549 9.62469 68.8992 8.23601C65.7498 8.51314 63.2827 11.158 63.2827 14.3796V45.8266C63.2827 49.2335 66.0435 51.9958 69.4519 51.9958H71.6735V41.6742C71.6735 38.8591 70.6764 37.5895 68.7877 37.5895C68.5919 37.5895 68.4036 37.603 68.2259 37.6316V31.4203C68.4127 31.4142 68.5964 31.4112 68.7877 31.4112C75.582 31.4112 79.0853 35.1841 79.0853 42.4634V51.9973H82.1443C81.6894 50.5996 81.4605 48.9715 81.4605 47.1189V42.4814C81.4605 35.1947 84.9683 31.4142 91.8093 31.4142C98.6502 31.4142 102.122 35.1947 102.122 42.4814V47.1189C102.122 48.9609 101.896 50.58 101.444 51.9732C104.594 51.6976 107.067 49.0543 107.067 45.8296V14.3796C107.067 11.1595 104.601 8.51465 101.455 8.23601H101.456H101.458Z" fill="white"/>
<path d="M94.6949 47.9097V41.6923C94.6949 38.8728 93.7009 37.6016 91.8092 37.6016C89.9174 37.6016 88.8872 38.8728 88.8872 41.6923V47.9097C88.8872 50.684 89.8888 51.9612 91.7218 51.9989H91.8965C93.7295 51.9612 94.6949 50.6855 94.6949 47.9097Z" fill="white"/>
<path d="M75.6528 12.3026V18.5185C75.6528 21.3396 76.6845 22.6092 78.5748 22.6092C80.465 22.6092 81.4606 21.3396 81.4606 18.5185V12.3026C81.4606 9.4816 80.4635 8.21191 78.5748 8.21191C76.6861 8.21191 75.6528 9.4816 75.6528 12.3026Z" fill="white"/>
<path d="M101.458 8.23601C101.902 9.62318 102.123 11.2378 102.123 13.0753V28.798H94.7101V12.2846C94.7101 9.61264 93.814 8.32939 92.1045 8.21191H88.2111C88.6644 9.60661 88.8904 11.2378 88.8904 13.0903V17.7278C88.8904 24.9845 85.3825 28.798 78.5416 28.798C71.7006 28.798 68.2289 24.9829 68.2289 17.7278V13.0903C68.2289 11.2453 68.4549 9.62469 68.8992 8.23601C65.7498 8.51314 63.2827 11.158 63.2827 14.3796V45.8266C63.2827 49.2335 66.0435 51.9958 69.4519 51.9958H71.6735V41.6742C71.6735 38.8591 70.6764 37.5895 68.7877 37.5895C68.5919 37.5895 68.4036 37.603 68.2259 37.6316V31.4203C68.4127 31.4142 68.5964 31.4112 68.7877 31.4112C75.582 31.4112 79.0853 35.1841 79.0853 42.4634V51.9973H82.1443C81.6894 50.5996 81.4605 48.9715 81.4605 47.1189V42.4814C81.4605 35.1947 84.9683 31.4142 91.8093 31.4142C98.6502 31.4142 102.122 35.1947 102.122 42.4814V47.1189C102.122 48.9609 101.896 50.58 101.444 51.9732C104.594 51.6976 107.067 49.0543 107.067 45.8296V14.3796C107.067 11.1595 104.601 8.51465 101.455 8.23601H101.456H101.458Z" fill="white"/>
<path d="M94.6949 47.9097V41.6923C94.6949 38.8728 93.7009 37.6016 91.8092 37.6016C89.9174 37.6016 88.8872 38.8728 88.8872 41.6923V47.9097C88.8872 50.684 89.8888 51.9612 91.7218 51.9989H91.8965C93.7295 51.9612 94.6949 50.6855 94.6949 47.9097Z" fill="white"/>
<path d="M0 40.5082V51.9971H5.41915V39.9298C5.41915 37.8724 6.14662 36.9446 7.52626 36.9446C7.67085 36.9446 7.8064 36.9552 7.93744 36.9762V32.4367C7.80188 32.4322 7.66633 32.4307 7.52626 32.4307C2.55896 32.4307 0.00150616 35.1899 0.00150616 40.5082H0Z" fill="white"/>
<path d="M48.5328 32.4307C46.5221 32.4307 44.903 32.8795 43.6921 33.7606C43.6906 33.7606 43.6875 33.7651 43.686 33.7651C42.4736 32.8795 40.862 32.4307 38.8573 32.4307C36.8526 32.4307 35.2275 32.8795 34.0165 33.7606C32.8086 32.8795 31.197 32.4307 29.1968 32.4307C29.0598 32.4307 28.9212 32.4352 28.7856 32.4367V36.9762C28.9167 36.9567 29.0522 36.9446 29.1968 36.9446C30.578 36.9446 31.3039 37.8724 31.3039 39.9298V40.0277C31.2994 40.1904 31.2949 40.3515 31.2949 40.5202V51.9986H36.7201V39.9434C36.7201 37.8829 37.4747 36.9536 38.8558 36.9536C40.2369 36.9536 40.9674 37.8845 40.9674 39.9434V51.9986H46.3986V39.9434C46.3986 37.8829 47.1532 36.9536 48.5343 36.9536C49.9155 36.9536 50.646 37.8845 50.646 39.9434V51.9986H56.0711V40.5202C56.0711 35.1945 53.5092 32.4307 48.5343 32.4307H48.5328Z" fill="white"/>
<path d="M25.6139 47.5103H23.6965C24.0339 46.4831 24.2056 45.2812 24.2056 43.9091V40.5202C24.2056 35.2201 21.6436 32.4307 16.6447 32.4307C11.6458 32.4307 9.10791 35.2186 9.10791 40.5202V43.9091C9.10791 49.2318 11.6669 51.9941 16.6598 51.9986H16.6688L30.1052 51.9941L25.6169 47.5073H25.6154L25.6139 47.5103ZM14.5301 39.9434C14.5301 37.8829 15.2847 36.9536 16.6658 36.9536C18.0469 36.9536 18.7774 37.8845 18.7774 39.9434V44.4874C18.7774 46.5479 18.05 47.4771 16.6658 47.4771C15.2816 47.4771 14.5301 46.5463 14.5301 44.4874V39.9434Z" fill="white"/>
<path d="M49.911 7.7915V21.505C49.911 23.8426 49.0856 24.8969 47.5162 24.8969C47.352 24.8969 47.1984 24.8864 47.0508 24.8608V30.0193C47.2044 30.0239 47.3595 30.0284 47.5162 30.0284C53.1613 30.0284 56.0696 26.8926 56.0696 20.8499V7.79452H49.9125L49.911 7.7915Z" fill="white"/>
<path d="M15.2679 30.0269H15.2784C17.5603 30.0269 19.3963 29.5148 20.7744 28.5132C22.151 29.5163 23.9825 30.0269 26.2598 30.0269C28.5371 30.0269 30.3837 29.5193 31.7633 28.5147C31.7678 28.5132 31.7693 28.5087 31.7738 28.5057C33.1505 29.5118 34.9789 30.0269 37.2547 30.0269C42.9345 30.0269 45.8474 26.8564 45.8474 20.8348V16.9836C45.8474 10.9303 42.9345 7.7915 37.2834 7.7915C31.6323 7.7915 28.6907 10.9318 28.6907 16.9836V17.8692H28.6892V21.4915C28.6892 23.8336 27.8322 24.8894 26.2628 24.8894C24.6934 24.8894 23.8635 23.8321 23.8635 21.4915V16.9836C23.8635 10.9589 20.9506 7.7915 15.298 7.7915C9.64542 7.7915 6.7054 10.962 6.7054 16.9836V20.8348C6.7054 22.3937 6.9012 23.7583 7.28226 24.9255H5.10285L0 30.0224L15.2679 30.0269ZM34.8569 16.3269C34.8569 13.9848 35.7139 12.929 37.2834 12.929C38.8528 12.929 39.6812 13.9863 39.6812 16.3269V21.493C39.6812 23.8351 38.8528 24.8909 37.2834 24.8909C35.7139 24.8909 34.8569 23.8336 34.8569 21.493V16.3269ZM12.8701 16.3269C12.8701 13.9848 13.6985 12.929 15.2679 12.929C16.8373 12.929 17.6943 13.9863 17.6943 16.3269V21.493C17.6943 23.8351 16.8373 24.8909 15.2679 24.8909C13.6985 24.8909 12.8701 23.8336 12.8701 21.493V16.3269Z" fill="white"/>
<path d="M32.1819 5.27907C33.3808 6.47797 35.3252 6.47797 36.5256 5.27907L36.5437 5.261C36.8826 4.92211 37.1236 4.52148 37.2697 4.09523C37.4158 4.52148 37.6553 4.92061 37.9957 5.261L38.0137 5.27907C39.2126 6.47797 41.1571 6.47797 42.3575 5.27907L42.3756 5.261C43.5745 4.0621 43.5745 2.11765 42.3756 0.917248L42.3575 0.899174C41.1586 -0.299725 39.2141 -0.299725 38.0137 0.899174L37.9957 0.917248C37.6568 1.25613 37.4158 1.65677 37.2697 2.08301C37.1236 1.65677 36.8841 1.25764 36.5437 0.917248L36.5256 0.899174C35.3267 -0.299725 33.3823 -0.299725 32.1819 0.899174L32.1638 0.917248C30.9649 2.11615 30.9649 4.06059 32.1638 5.261L32.1819 5.27907Z" fill="white"/>
</g>
<defs>
<clipPath id="clip0_5650_504">
<rect width="107.067" height="52" fill="white"/>
</clipPath>
</defs>
</svg>
