<svg width="169" height="60" viewBox="0 0 169 60" fill="none" xmlns="http://www.w3.org/2000/svg">
<path d="M82.9533 3.2041L82.9096 29.7588L77.6189 35.1229L77.6143 6.14785L81.8111 3.80254C82.1064 3.63691 82.3049 3.44317 82.3861 3.20567H82.9533V3.2041Z" fill="#BBC3D0"/>
<path d="M90.6016 3.2041L90.5922 22.1307L85.3203 27.4572L85.3375 6.53691L89.1797 4.09472C89.5828 3.83847 89.9469 3.61348 90.0359 3.2041H90.6031H90.6016Z" fill="#BBC3D0"/>
<path d="M98.5344 3.2041C98.2969 3.68223 98.2922 4.24473 98.2906 4.89941L98.2672 14.5057L92.9844 19.8213L93.0453 7.10723C94.7281 5.65098 96.6031 4.71973 97.9688 3.2041H98.5359H98.5344Z" fill="#BBC3D0"/>
<path d="M69.9522 27.5465L69.9053 20.1449C71.66 18.9215 73.2568 17.6684 75.1756 16.623L75.1303 32.5137L69.9522 27.5465Z" fill="#BBC3D0"/>
<path d="M39.1309 43.9152V46.3949H38.7309C38.3949 46.3949 38.123 46.2027 37.9949 45.9309L37.5637 46.3949H33.4512V45.8668H37.9793C37.948 45.7871 37.9309 45.6902 37.9309 45.5949V43.9152C37.9309 42.0746 36.7621 41.9949 36.1871 41.9949H33.9465V41.4668H36.1871C37.9152 41.4668 39.1309 42.1871 39.1309 43.9152Z" fill="#BBC3D0"/>
<path d="M40.5723 39.5332L41.7879 38.8926V46.3973H40.5723V39.5332Z" fill="#BBC3D0"/>
<path d="M48.5547 43.9152V46.3949H48.1547C47.8188 46.3949 47.5469 46.2027 47.4187 45.9309L46.9875 46.3949H42.875V45.8668H47.4031C47.3719 45.7871 47.3547 45.6902 47.3547 45.5949V43.9152C47.3547 42.0746 46.1859 41.9949 45.6109 41.9949H43.3703V41.4668H45.6109C47.3391 41.4668 48.5547 42.1871 48.5547 43.9152Z" fill="#BBC3D0"/>
<path d="M51.7074 41.0996V45.9793C51.7074 47.5465 50.6668 48.6356 49.2277 48.8277L48.7637 48.348C49.3559 48.348 50.5074 47.9809 50.5074 45.9809V41.7402L51.7074 41.1012V41.0996Z" fill="#BBC3D0"/>
<path d="M62.0102 45.9637V46.2996C62.0102 46.348 61.9789 46.3949 61.9148 46.3949H60.9711C60.6352 46.3949 60.3633 46.2027 60.2352 45.9309L59.8039 46.3949H55.6914V45.8668H60.2195C60.1883 45.7871 60.1711 45.6902 60.1711 45.5949V43.9152C60.1711 42.0746 59.0023 41.9949 58.4273 41.9949H56.1867V41.4668H58.4273C60.1555 41.4668 61.3711 42.1871 61.3711 43.9152V45.8668H61.9148C61.9789 45.8668 62.0102 45.9152 62.0102 45.9621V45.9637Z" fill="#BBC3D0"/>
<path d="M65.9475 45.9641V46.3C65.9475 46.3484 65.9162 46.3953 65.8521 46.3953H64.5396C64.235 46.3953 63.9475 46.2031 63.8193 45.9312L63.3709 46.3953H61.9147C61.8506 46.3953 61.8193 46.3469 61.8193 46.3V45.9641C61.8193 45.9156 61.8506 45.8688 61.9147 45.8688H63.7865C63.7537 45.7891 63.7381 45.6922 63.7381 45.5969V41.7406L64.9537 41.1016V45.8703H65.849C65.9131 45.8703 65.9443 45.9188 65.9443 45.9656L65.9475 45.9641ZM62.7318 47.4516L63.5006 48.2031L62.7318 48.9547L61.9803 48.2031L62.7318 47.4516ZM64.3475 47.4516L65.1146 48.2031L64.3475 48.9547L63.5959 48.2031L64.3475 47.4516Z" fill="#BBC3D0"/>
<path d="M73.4203 45.9633V46.2992C73.4203 46.3477 73.3875 46.3945 73.325 46.3945H65.8531C65.7891 46.3945 65.7578 46.3461 65.7578 46.2992V45.9633C65.7578 45.9148 65.7891 45.868 65.8531 45.868H68.3969C67.6922 45.3727 67.2281 44.5711 67.2281 43.5477C67.2281 41.8195 68.5406 40.6992 70.1719 40.6992C71.5156 40.6992 72.6203 41.4508 73.0047 42.6508L71.9172 43.2273C71.7891 41.5477 70.7328 41.2273 70.1734 41.2273C69.5813 41.2273 68.4297 41.5633 68.4297 43.5477C68.4297 45.532 69.5813 45.868 70.1734 45.868H73.325C73.3891 45.868 73.4203 45.9164 73.4203 45.9633Z" fill="#BBC3D0"/>
<path d="M83.0367 41.0996V44.3637C83.0367 45.8684 82.3008 46.3949 80.5727 46.3949H79.2445L78.9086 46.0434C78.5086 46.284 77.9336 46.3949 77.1648 46.3949H75.8367L75.5008 46.0434C75.1008 46.284 74.5242 46.3949 73.757 46.3949H73.3258C73.2617 46.3949 73.2305 46.3465 73.2305 46.2996V45.9637C73.2305 45.9152 73.2617 45.8684 73.3258 45.8684H73.5664C74.3508 45.8684 75.007 45.7887 75.007 44.2684V41.7402L76.2227 41.1012V44.3652C76.2227 45.0527 76.0633 45.5496 75.7273 45.8699H76.9758C77.743 45.8699 78.4164 45.7902 78.4164 44.2699V41.7418L79.632 41.1027V44.3668C79.632 45.0543 79.4727 45.5512 79.1367 45.8715H80.3852C81.1695 45.8715 81.8258 45.7918 81.8258 44.2715V41.7434L83.0414 41.1043L83.0367 41.0996Z" fill="#BBC3D0"/>
<path d="M93.6277 45.9641V46.3C93.6277 46.3484 93.5949 46.3953 93.5324 46.3953H92.5887C92.2684 46.3953 91.9809 46.2031 91.8684 45.9312L91.4199 46.3953H90.0434C88.3949 46.3953 87.084 45.275 87.084 43.5469C87.084 41.8187 88.3965 40.6984 90.0434 40.6984C91.6902 40.6984 92.9871 41.8187 92.9871 43.5469V45.8672H93.5309C93.5949 45.8672 93.6262 45.9156 93.6262 45.9625L93.6277 45.9641ZM91.8356 45.8688C91.8043 45.7891 91.7871 45.6922 91.7871 45.5969V43.5484C91.7871 41.5641 90.6355 41.2281 90.0434 41.2281C89.4512 41.2281 88.2996 41.5641 88.2996 43.5484C88.2996 45.5328 89.4684 45.8688 90.0434 45.8688H91.8356ZM89.1793 40.0437L88.4277 39.2922L89.1793 38.5234L89.9465 39.2922L89.1793 40.0437ZM90.8121 40.0437L90.0606 39.2922L90.8121 38.5234L91.5637 39.2922L90.8121 40.0437Z" fill="#BBC3D0"/>
<path d="M97.8687 45.8684H100.684V46.3965H93.5328C93.4687 46.3965 93.4375 46.348 93.4375 46.3012V45.9652C93.4375 45.9168 93.4687 45.8699 93.5328 45.8699H96.0766C95.3719 45.3746 94.9078 44.573 94.9078 43.5496C94.9078 41.8215 96.2203 40.7012 97.8672 40.7012C99.1953 40.7012 100.298 41.4527 100.683 42.6527L99.5953 43.2293C99.4828 41.5496 98.4109 41.2293 97.8672 41.2293C97.275 41.2293 96.1234 41.5652 96.1234 43.5496C96.1234 45.534 97.275 45.8699 97.8672 45.8699L97.8687 45.8684Z" fill="#BBC3D0"/>
<path d="M108.013 45.9639V46.2998C108.013 46.3482 107.98 46.3951 107.917 46.3951H107.341C107.181 47.7389 106.205 48.6514 104.892 48.8264L104.428 48.3467C105.02 48.3467 106.172 47.9795 106.172 45.9795V45.9467L105.756 46.3951H104.428C102.78 46.3951 101.469 45.2748 101.469 43.5467C101.469 41.8186 102.781 40.6982 104.428 40.6982C106.075 40.6982 107.372 41.8186 107.372 43.5467V45.867H107.916C107.98 45.867 108.011 45.9154 108.011 45.9623L108.013 45.9639ZM106.172 45.8686V43.5482C106.172 41.5639 105.003 41.2279 104.428 41.2279C103.853 41.2279 102.684 41.5639 102.684 43.5482C102.684 45.5326 103.836 45.8686 104.428 45.8686H106.172Z" fill="#BBC3D0"/>
<path d="M116.253 45.9633V46.2992C116.253 46.3477 116.221 46.3945 116.157 46.3945H115.213C114.893 46.3945 114.606 46.2023 114.493 45.9305L114.045 46.3945H112.668C111.724 46.3945 110.892 46.0273 110.348 45.3867C110.188 46.0273 109.771 46.3945 108.796 46.3945H107.917C107.853 46.3945 107.821 46.3461 107.821 46.2992V45.9633C107.821 45.9148 107.853 45.868 107.917 45.868H108.796C109.709 45.868 109.724 45.468 109.709 44.6195V43.5477C109.709 41.8195 111.021 40.6992 112.67 40.6992C114.318 40.6992 115.613 41.8195 115.613 43.5477V45.868H116.157C116.221 45.868 116.253 45.9164 116.253 45.9633ZM114.46 45.868C114.428 45.7883 114.412 45.6914 114.412 45.5961V43.5477C114.412 41.5633 113.26 41.2273 112.668 41.2273C112.076 41.2273 110.924 41.5633 110.924 43.5477C110.924 45.532 112.093 45.868 112.668 45.868H114.46Z" fill="#BBC3D0"/>
<path d="M127.39 45.9637V46.2996C127.39 46.348 127.357 46.3949 127.294 46.3949H126.43C126.094 46.3949 125.807 46.2355 125.646 45.9309L125.197 46.3949H116.157C116.093 46.3949 116.062 46.3465 116.062 46.2996V45.9637C116.062 45.9152 116.093 45.8684 116.157 45.8684H125.613C125.213 45.1809 124.893 44.3168 124.493 43.4199C124.141 42.6355 123.596 41.9793 122.397 41.9793H117.021L117.533 41.4512H122.59C124.19 41.4512 125.197 42.1871 125.694 43.1637C126.222 44.2356 126.526 45.1152 126.799 45.6121C126.879 45.7887 127.007 45.8684 127.151 45.8684H127.294C127.358 45.8684 127.39 45.9168 127.39 45.9637ZM120.557 47.4512L121.324 48.2027L120.557 48.9543L119.805 48.2027L120.557 47.4512Z" fill="#BBC3D0"/>
<path d="M134.988 43.548V46.3965H134.588C134.268 46.3965 133.996 46.2043 133.868 45.9324L133.42 46.3965H132.043C131.099 46.3965 130.267 46.0293 129.723 45.3887C129.563 46.0293 129.146 46.3965 128.171 46.3965H127.292C127.228 46.3965 127.196 46.348 127.196 46.3012V45.9652C127.196 45.9168 127.228 45.8699 127.292 45.8699H128.171C129.084 45.8699 129.099 45.4699 129.084 44.6215V43.5496C129.084 41.8215 130.396 40.7012 132.045 40.7012C133.693 40.7012 134.988 41.8215 134.988 43.5496V43.548ZM133.837 45.8684C133.804 45.7887 133.788 45.6918 133.788 45.5965V43.548C133.788 41.5637 132.637 41.2277 132.045 41.2277C131.453 41.2277 130.301 41.5637 130.301 43.548C130.301 45.5324 131.47 45.8684 132.045 45.8684H133.837Z" fill="#BBC3D0"/>
<path d="M59.6837 53.3186C59.529 54.9514 58.004 55.8139 56.4962 55.9639C55.8056 56.0326 55.1259 55.9295 54.4665 55.7217C54.3556 55.6873 54.2899 55.5779 54.2899 55.4592V50.7311C54.1243 50.6795 53.8993 50.7764 53.8431 50.6592C53.8306 50.6342 53.8306 50.5342 53.8759 50.5342L56.9446 50.5529C57.4681 50.5561 57.9446 50.6967 58.4071 50.9061C59.3728 51.3436 59.7806 52.2951 59.6837 53.3186ZM58.0962 51.3639C57.1649 50.5764 56.3118 50.7826 55.1415 50.7623V55.5607C56.5946 56.0076 58.2821 55.5061 58.6712 53.9123C58.8759 53.0732 58.7556 51.9904 58.0962 51.3639Z" fill="#BBC3D0"/>
<path d="M100.093 55.0109C98.9477 56.0312 97.254 56.1891 95.8134 55.7422C95.7399 55.7188 95.5946 55.6578 95.5774 55.5672L95.568 50.7359C95.4587 50.6766 95.0915 50.775 95.0977 50.6328C95.0977 50.6047 95.1196 50.5312 95.1759 50.5312L98.168 50.55C98.7368 50.5531 99.2774 50.6969 99.7665 50.9484C100.518 51.3344 100.921 52.0406 100.966 52.8688C101.012 53.6984 100.723 54.4484 100.093 55.0109ZM100.021 53.4438C100.095 52.2828 99.7227 51.2766 98.5305 50.8922C97.8821 50.6734 97.1493 50.7844 96.429 50.7609V55.5563C96.8774 55.7281 97.3274 55.7234 97.7665 55.6953C99.0134 55.6172 99.9415 54.6813 100.021 53.4422V53.4438Z" fill="#BBC3D0"/>
<path d="M80.0079 55.1613C78.8297 56.0598 77.2547 56.1707 75.8563 55.7285C75.7266 55.6879 75.65 55.5816 75.65 55.4363L75.6454 50.7301C75.5047 50.6832 75.1907 50.7848 75.1954 50.6332C75.1969 50.5801 75.2329 50.5332 75.3063 50.5332L78.2672 50.552C78.7516 50.5551 79.2 50.6723 79.6297 50.8441C80.4454 51.1723 80.9501 51.8488 81.0469 52.7098C81.1563 53.6723 80.7891 54.5676 80.0079 55.1629V55.1613ZM80.1032 52.7566C80.0375 52.227 79.8438 51.7348 79.4532 51.3613C78.5454 50.5832 77.6407 50.7801 76.4985 50.7645V55.5316C76.711 55.666 76.9547 55.6629 77.1922 55.6973C77.8579 55.7926 78.7079 55.6035 79.2438 55.1738C79.9704 54.5895 80.2125 53.6504 80.1032 52.7582V52.7566Z" fill="#BBC3D0"/>
<path d="M87.3222 55.0141C86.1457 56.0406 84.4472 56.2 82.9925 55.725C82.9113 55.6984 82.8019 55.6266 82.8019 55.5297L82.7988 50.7313C82.6832 50.6828 82.3894 50.7609 82.3566 50.6672C82.3457 50.6391 82.3441 50.5312 82.4004 50.5312L85.4269 50.5516C85.9769 50.5547 86.491 50.6969 86.9707 50.9328C87.7597 51.3219 88.1754 52.0797 88.2004 52.9422C88.2222 53.75 87.941 54.4719 87.3222 55.0125V55.0141ZM87.2488 53.4781C87.3316 52.3219 86.9941 51.3156 85.8113 50.9078C85.6004 50.8344 85.3769 50.7656 85.1441 50.7656L83.6566 50.7609L83.6597 55.5469C84.0488 55.7313 84.641 55.725 85.0316 55.6938C86.2519 55.5953 87.1613 54.6938 87.2472 53.4766L87.2488 53.4781Z" fill="#BBC3D0"/>
<path d="M65.213 53.3398C65.2364 53.1508 65.8083 53.3492 66.327 52.732C66.5505 52.4664 66.6224 52.1226 66.5942 51.7883C66.5442 51.1711 66.1083 50.7555 65.4849 50.732C65.2005 50.7211 64.9145 50.7117 64.5958 50.7273V55.6742C64.7661 55.718 65.0489 55.6305 65.0895 55.7445C65.1005 55.7758 65.1052 55.868 65.0505 55.868H63.7942C63.7552 55.868 63.7239 55.7898 63.7239 55.7492V50.7352C63.602 50.6805 63.3505 50.7648 63.3099 50.6648C63.2989 50.6367 63.2942 50.5352 63.3442 50.5352L65.7895 50.5492C66.1302 50.5508 66.4458 50.6383 66.7442 50.768C67.1411 50.9398 67.3927 51.2773 67.4489 51.6664C67.5692 52.5055 66.8161 53.0477 66.027 53.2711C66.502 53.8742 66.9458 54.4258 67.4427 54.9648C67.6614 55.2023 67.8989 55.4039 68.1708 55.5664C68.4958 55.7617 68.6974 55.5086 68.763 55.6648C68.8239 55.8101 67.7911 56.1914 67.1239 55.6898C66.5552 55.2633 65.6255 54.0773 65.2349 53.468C65.2083 53.4273 65.2083 53.3742 65.213 53.3414V53.3398Z" fill="#BBC3D0"/>
<path d="M113.16 53.5004C113.101 53.4176 113.095 53.2691 113.192 53.2582C114.001 53.1691 114.571 52.6285 114.503 51.7863C114.454 51.1816 114.026 50.7676 113.42 50.7348C113.131 50.7191 112.849 50.7176 112.512 50.7238L112.507 55.6723C112.653 55.7191 112.959 55.6316 112.995 55.7441C113.006 55.7801 113.009 55.8676 112.953 55.8676H111.659L111.649 50.7441C111.524 50.6707 111.279 50.766 111.214 50.6629C111.198 50.6379 111.201 50.5332 111.248 50.5332L113.723 50.5504C114.309 50.5551 115.223 50.8598 115.328 51.5457C115.56 52.4645 114.746 53.0332 113.939 53.266C114.464 53.9504 114.97 54.5801 115.556 55.1613C116.373 55.9723 116.576 55.4832 116.662 55.6301C116.764 55.8066 115.859 56.1348 115.185 55.7832C114.579 55.466 113.589 54.1098 113.159 53.5004H113.16Z" fill="#BBC3D0"/>
<path d="M92.8512 55.3837C92.5731 54.8884 92.3824 54.3915 92.1543 53.8665H90.2121L89.3762 55.6602C89.5137 55.7399 89.7824 55.6009 89.8543 55.779C89.9199 55.9431 89.1059 55.8509 88.9121 55.8587L91.4793 50.6024C91.5059 50.5462 91.5309 50.5165 91.5637 50.5071C91.5996 50.4962 91.6949 50.479 91.7199 50.5384L93.2777 54.3118C93.4262 54.6727 93.5793 55.0056 93.7715 55.3306C94.0543 55.8071 94.3902 55.5243 94.4605 55.6321C94.573 55.8055 93.3731 56.3134 92.8512 55.3852V55.3837ZM91.9199 53.6102C91.9887 53.6102 92.0324 53.5884 92.0355 53.5462L91.2887 51.579L90.3434 53.6009L91.9184 53.6102H91.9199Z" fill="#BBC3D0"/>
<path d="M122.857 53.2109C122.857 54.7766 121.583 56.0469 120.011 56.0469C118.439 56.0469 117.166 54.7781 117.166 53.2109C117.166 51.6438 118.439 50.375 120.011 50.375C121.583 50.375 122.857 51.6438 122.857 53.2109ZM120.758 55.6281C121.213 55.4062 121.514 54.9953 121.682 54.5344C122.086 53.4203 122.038 51.4984 120.899 50.8391C120.1 50.3766 119.124 50.65 118.61 51.4031C118.239 51.9453 118.116 52.5813 118.113 53.2406C118.111 53.7641 118.169 54.2469 118.379 54.7219C118.779 55.6344 119.829 56.0812 120.758 55.6281Z" fill="#BBC3D0"/>
<path d="M72.643 54.7932L72.2445 53.8651L70.3102 53.862L69.4633 55.6698C69.7961 55.726 69.7445 55.612 69.9352 55.7542C70.1742 55.9323 69.068 55.8682 69.0039 55.8479L71.568 50.5979C71.6008 50.5307 71.6336 50.5042 71.6852 50.4963C71.7477 50.487 71.8039 50.5323 71.832 50.5995L72.3164 51.8104C72.7898 52.9917 73.2617 54.1557 73.8273 55.2885C74.0945 55.8229 74.5398 55.4932 74.5633 55.6604C74.5805 55.7838 73.7102 56.1885 73.1633 55.6604C72.9211 55.426 72.7789 55.1088 72.6414 54.7901L72.643 54.7932ZM70.5492 53.6104L72.143 53.5917L71.3789 51.576L70.4477 53.5417C70.4586 53.5838 70.4992 53.6104 70.5492 53.6088V53.6104Z" fill="#BBC3D0"/>
<path d="M108.752 55.5399C108.824 55.5133 108.943 55.4587 108.943 55.3868V53.7837C108.786 53.7149 108.508 53.8321 108.503 53.6665C108.503 53.6227 108.543 53.5758 108.61 53.5774L109.786 53.5915L109.794 55.2352C108.36 56.2696 105.872 56.3696 104.838 54.7493C104.525 54.2602 104.436 53.704 104.452 53.129C104.477 52.1883 104.947 51.3805 105.763 50.9118C106.846 50.2883 108.475 50.1852 109.4 51.118C109.521 51.2399 109.533 51.4399 109.444 51.568C109.355 51.6962 109.174 51.7508 109.022 51.6899C108.871 51.629 108.791 51.518 108.788 51.3727C108.786 51.2399 108.866 51.1258 109.018 51.0462C108.61 50.7727 108.141 50.6852 107.646 50.679C106.964 50.6712 106.335 50.9399 105.913 51.4758C105.539 51.9508 105.408 52.5274 105.408 53.129C105.408 53.7305 105.503 54.2712 105.813 54.7665C106.144 55.2962 106.661 55.6321 107.289 55.7055C107.78 55.7618 108.269 55.7133 108.749 55.5399H108.752Z" fill="#BBC3D0"/>
<path d="M50.275 53.1719L50.2828 55.6375L52.2125 55.6422L52.4937 55.0469C52.5203 54.9906 52.5703 54.9625 52.6093 54.95C52.6625 54.9344 52.7812 54.925 52.775 55.0125C52.7546 55.2484 52.6203 55.4328 52.5515 55.6516C52.5156 55.7109 52.4921 55.8656 52.389 55.8656H49.4296L49.4265 50.7313C49.2828 50.6938 49.1609 50.7328 49.025 50.7062C48.9687 50.6953 48.9593 50.5391 49.014 50.5391L52.2453 50.5312C52.339 50.5312 52.3984 50.5937 52.3921 50.6875C52.3796 50.9062 52.4187 51.1266 52.3734 51.3469C52.3593 51.4172 52.125 51.4266 52.1078 51.3563L52.0812 50.7688H50.2843L50.2796 52.8922L51.9781 52.9203C52.0453 52.9375 52.0421 53.1359 51.9781 53.1531L50.2781 53.1734L50.275 53.1719Z" fill="#BBC3D0"/>
<path d="M133.91 51.327C133.549 50.6238 132.61 50.7098 131.938 50.7348L131.935 55.6441C132.074 55.7738 132.597 55.5441 132.476 55.8598L131.086 55.8629L131.082 50.7301C130.952 50.6832 130.669 50.7676 130.633 50.6629C130.624 50.6348 130.621 50.5332 130.676 50.5332L133.293 50.5535C133.722 50.5566 134.14 50.6848 134.477 50.9207C134.776 51.1285 134.921 51.4238 134.971 51.766C135.155 53.0504 133.883 53.6504 132.749 53.6754C132.694 53.6754 132.649 53.6832 132.622 53.6473C132.388 53.3426 133.374 53.7348 133.882 52.8426C134.138 52.3926 134.158 51.8113 133.911 51.3285L133.91 51.327Z" fill="#BBC3D0"/>
<path d="M128.963 50.709L128.943 54.1902C128.94 54.7621 128.623 55.2746 128.159 55.5793C127.646 55.9152 126.985 56.0231 126.388 55.9606C125.393 55.8574 124.645 55.3324 124.577 54.2778L124.551 53.8668L124.543 50.734C124.427 50.6793 124.159 50.7668 124.134 50.6606C124.126 50.6278 124.121 50.5371 124.173 50.5371H125.393L125.41 54.2543C125.413 54.7778 125.704 55.2059 126.19 55.3699C126.76 55.5621 127.36 55.5481 127.921 55.3074C128.265 55.1606 128.606 54.8246 128.609 54.4184L128.635 50.5543C128.788 50.5293 129.323 50.5028 129.382 50.5762C129.404 50.6028 129.412 50.6778 129.362 50.6903C129.238 50.7231 129.131 50.6887 128.96 50.7106L128.963 50.709Z" fill="#BBC3D0"/>
<path d="M47.1181 53.156L45.4103 53.167L45.415 55.6389H47.3619C47.4587 55.4076 47.5228 55.1951 47.6572 55.0029C48.2119 54.6904 47.665 55.5686 47.6431 55.7592C47.6025 55.8373 47.5447 55.8748 47.4494 55.8732L44.5587 55.8654L44.5556 50.7311L44.154 50.7076C44.0962 50.7045 44.0869 50.5404 44.1431 50.5404L47.3759 50.5342C47.4447 50.5342 47.5212 50.5842 47.5197 50.656C47.515 50.8826 47.5509 51.1107 47.5009 51.3342C47.479 51.4295 47.304 51.4061 47.2337 51.3732L47.2119 50.767H45.415V52.8998L47.1103 52.9217C47.1744 52.9217 47.1697 53.1045 47.1181 53.1576V53.156Z" fill="#BBC3D0"/>
<path d="M37.103 54.5958C37.0452 55.2161 36.6217 55.677 36.0467 55.8661C35.1795 56.1505 34.2374 55.9551 33.5249 55.3942C33.4436 55.3301 33.4296 55.252 33.4827 55.1708C33.628 54.9489 34.0796 55.6286 35.0842 55.6848C35.4124 55.7036 35.7124 55.6676 35.9921 55.5192C36.3077 55.352 36.4749 55.0442 36.4202 54.677C36.3733 54.3676 36.1655 54.1161 35.9155 53.9301C35.3874 53.5364 34.8717 53.377 34.278 52.9739C33.6842 52.5708 33.4264 51.7598 33.803 51.102C33.9499 50.8458 34.2124 50.6723 34.4889 50.5708C35.1733 50.3208 35.9217 50.4098 36.528 50.802C36.6827 50.902 36.8171 51.0598 36.8249 51.238C36.8327 51.4161 36.6889 51.5505 36.5514 51.5755C36.378 51.6083 36.2311 51.5051 36.1764 51.3598C36.1171 51.1989 36.1999 51.0458 36.3561 50.9286C35.8796 50.6098 34.8202 50.5317 34.4186 50.9801C34.1483 51.2833 34.2217 51.7239 34.528 51.9926C35.1092 52.5051 35.8921 52.6411 36.5296 53.2083C36.9233 53.5583 37.1546 54.0333 37.103 54.5942V54.5958Z" fill="#BBC3D0"/>
<path d="M41.8211 55.3482C41.5523 54.8732 41.3742 54.3888 41.1523 53.8716L39.207 53.8638L38.3727 55.6576C38.5055 55.7107 38.6273 55.681 38.7633 55.6841C38.8367 55.6857 38.868 55.8482 38.8211 55.8529C38.532 55.8826 38.2305 55.8888 37.9102 55.8466L40.5055 50.5419C40.5414 50.4685 40.6883 50.4857 40.7164 50.5529L42.4023 54.606C42.5242 54.8982 42.6445 55.1622 42.8227 55.4122C43.0008 55.6622 43.1852 55.6076 43.457 55.6154C43.4805 55.6154 43.4977 55.6966 43.4711 55.7154C42.9273 56.0716 42.207 56.0247 41.8242 55.3497L41.8211 55.3482ZM41.0477 53.5966L40.2758 51.5779L39.332 53.606L41.0477 53.5966Z" fill="#BBC3D0"/>
</svg>
