<svg width="169" height="60" viewBox="0 0 169 60" fill="none" xmlns="http://www.w3.org/2000/svg">
<path d="M83.0783 3.9541L83.0346 30.5088L77.7439 35.8729L77.7393 6.89785L81.9361 4.55254C82.2314 4.38691 82.4299 4.19317 82.5111 3.95567H83.0783V3.9541Z" fill="#C7A55F"/>
<path d="M90.7266 3.9541L90.7172 22.8807L85.4453 28.2072L85.4625 7.28691L89.3047 4.84472C89.7078 4.58847 90.0719 4.36348 90.1609 3.9541H90.7281H90.7266Z" fill="#C7A55F"/>
<path d="M98.6594 3.9541C98.4219 4.43223 98.4172 4.99473 98.4156 5.64941L98.3922 15.2557L93.1094 20.5713L93.1703 7.85723C94.8531 6.40098 96.7281 5.46973 98.0938 3.9541H98.6609H98.6594Z" fill="#C7A55F"/>
<path d="M70.0772 28.2965L70.0303 20.8949C71.785 19.6715 73.3818 18.4184 75.3006 17.373L75.2553 33.2637L70.0772 28.2965Z" fill="#C7A55F"/>
<path d="M39.2559 44.6652V47.1449H38.8559C38.5199 47.1449 38.248 46.9527 38.1199 46.6809L37.6887 47.1449H33.5762V46.6168H38.1043C38.073 46.5371 38.0559 46.4402 38.0559 46.3449V44.6652C38.0559 42.8246 36.8871 42.7449 36.3121 42.7449H34.0715V42.2168H36.3121C38.0402 42.2168 39.2559 42.9371 39.2559 44.6652Z" fill="black"/>
<path d="M40.6973 40.2832L41.9129 39.6426V47.1473H40.6973V40.2832Z" fill="black"/>
<path d="M48.6797 44.6652V47.1449H48.2797C47.9438 47.1449 47.6719 46.9527 47.5437 46.6809L47.1125 47.1449H43V46.6168H47.5281C47.4969 46.5371 47.4797 46.4402 47.4797 46.3449V44.6652C47.4797 42.8246 46.3109 42.7449 45.7359 42.7449H43.4953V42.2168H45.7359C47.4641 42.2168 48.6797 42.9371 48.6797 44.6652Z" fill="black"/>
<path d="M51.8324 41.8496V46.7293C51.8324 48.2965 50.7918 49.3856 49.3527 49.5777L48.8887 49.098C49.4809 49.098 50.6324 48.7309 50.6324 46.7309V42.4902L51.8324 41.8512V41.8496Z" fill="black"/>
<path d="M62.1352 46.7137V47.0496C62.1352 47.098 62.1039 47.1449 62.0398 47.1449H61.0961C60.7602 47.1449 60.4883 46.9527 60.3602 46.6809L59.9289 47.1449H55.8164V46.6168H60.3445C60.3133 46.5371 60.2961 46.4402 60.2961 46.3449V44.6652C60.2961 42.8246 59.1273 42.7449 58.5523 42.7449H56.3117V42.2168H58.5523C60.2805 42.2168 61.4961 42.9371 61.4961 44.6652V46.6168H62.0398C62.1039 46.6168 62.1352 46.6652 62.1352 46.7121V46.7137Z" fill="black"/>
<path d="M66.0725 46.7141V47.05C66.0725 47.0984 66.0412 47.1453 65.9771 47.1453H64.6646C64.36 47.1453 64.0725 46.9531 63.9443 46.6812L63.4959 47.1453H62.0397C61.9756 47.1453 61.9443 47.0969 61.9443 47.05V46.7141C61.9443 46.6656 61.9756 46.6188 62.0397 46.6188H63.9115C63.8787 46.5391 63.8631 46.4422 63.8631 46.3469V42.4906L65.0787 41.8516V46.6203H65.974C66.0381 46.6203 66.0693 46.6688 66.0693 46.7156L66.0725 46.7141ZM62.8568 48.2016L63.6256 48.9531L62.8568 49.7047L62.1053 48.9531L62.8568 48.2016ZM64.4725 48.2016L65.2396 48.9531L64.4725 49.7047L63.7209 48.9531L64.4725 48.2016Z" fill="black"/>
<path d="M73.5453 46.7133V47.0492C73.5453 47.0977 73.5125 47.1445 73.45 47.1445H65.9781C65.9141 47.1445 65.8828 47.0961 65.8828 47.0492V46.7133C65.8828 46.6648 65.9141 46.618 65.9781 46.618H68.5219C67.8172 46.1227 67.3531 45.3211 67.3531 44.2977C67.3531 42.5695 68.6656 41.4492 70.2969 41.4492C71.6406 41.4492 72.7453 42.2008 73.1297 43.4008L72.0422 43.9773C71.9141 42.2977 70.8578 41.9773 70.2984 41.9773C69.7063 41.9773 68.5547 42.3133 68.5547 44.2977C68.5547 46.282 69.7063 46.618 70.2984 46.618H73.45C73.5141 46.618 73.5453 46.6664 73.5453 46.7133Z" fill="black"/>
<path d="M83.1617 41.8496V45.1137C83.1617 46.6184 82.4258 47.1449 80.6977 47.1449H79.3695L79.0336 46.7934C78.6336 47.034 78.0586 47.1449 77.2898 47.1449H75.9617L75.6258 46.7934C75.2258 47.034 74.6492 47.1449 73.882 47.1449H73.4508C73.3867 47.1449 73.3555 47.0965 73.3555 47.0496V46.7137C73.3555 46.6652 73.3867 46.6184 73.4508 46.6184H73.6914C74.4758 46.6184 75.132 46.5387 75.132 45.0184V42.4902L76.3477 41.8512V45.1152C76.3477 45.8027 76.1883 46.2996 75.8523 46.6199H77.1008C77.868 46.6199 78.5414 46.5402 78.5414 45.0199V42.4918L79.757 41.8527V45.1168C79.757 45.8043 79.5977 46.3012 79.2617 46.6215H80.5102C81.2945 46.6215 81.9508 46.5418 81.9508 45.0215V42.4934L83.1664 41.8543L83.1617 41.8496Z" fill="black"/>
<path d="M93.7527 46.7141V47.05C93.7527 47.0984 93.7199 47.1453 93.6574 47.1453H92.7137C92.3934 47.1453 92.1059 46.9531 91.9934 46.6812L91.5449 47.1453H90.1684C88.5199 47.1453 87.209 46.025 87.209 44.2969C87.209 42.5687 88.5215 41.4484 90.1684 41.4484C91.8152 41.4484 93.1121 42.5687 93.1121 44.2969V46.6172H93.6559C93.7199 46.6172 93.7512 46.6656 93.7512 46.7125L93.7527 46.7141ZM91.9606 46.6188C91.9293 46.5391 91.9121 46.4422 91.9121 46.3469V44.2984C91.9121 42.3141 90.7605 41.9781 90.1684 41.9781C89.5762 41.9781 88.4246 42.3141 88.4246 44.2984C88.4246 46.2828 89.5934 46.6188 90.1684 46.6188H91.9606ZM89.3043 40.7937L88.5527 40.0422L89.3043 39.2734L90.0715 40.0422L89.3043 40.7937ZM90.9371 40.7937L90.1856 40.0422L90.9371 39.2734L91.6887 40.0422L90.9371 40.7937Z" fill="black"/>
<path d="M97.9937 46.6184H100.809V47.1465H93.6578C93.5937 47.1465 93.5625 47.098 93.5625 47.0512V46.7152C93.5625 46.6668 93.5937 46.6199 93.6578 46.6199H96.2016C95.4969 46.1246 95.0328 45.323 95.0328 44.2996C95.0328 42.5715 96.3453 41.4512 97.9922 41.4512C99.3203 41.4512 100.423 42.2027 100.808 43.4027L99.7203 43.9793C99.6078 42.2996 98.5359 41.9793 97.9922 41.9793C97.4 41.9793 96.2484 42.3152 96.2484 44.2996C96.2484 46.284 97.4 46.6199 97.9922 46.6199L97.9937 46.6184Z" fill="black"/>
<path d="M108.138 46.7139V47.0498C108.138 47.0982 108.105 47.1451 108.042 47.1451H107.466C107.306 48.4889 106.33 49.4014 105.017 49.5764L104.553 49.0967C105.145 49.0967 106.297 48.7295 106.297 46.7295V46.6967L105.881 47.1451H104.553C102.905 47.1451 101.594 46.0248 101.594 44.2967C101.594 42.5686 102.906 41.4482 104.553 41.4482C106.2 41.4482 107.497 42.5686 107.497 44.2967V46.617H108.041C108.105 46.617 108.136 46.6654 108.136 46.7123L108.138 46.7139ZM106.297 46.6186V44.2982C106.297 42.3139 105.128 41.9779 104.553 41.9779C103.978 41.9779 102.809 42.3139 102.809 44.2982C102.809 46.2826 103.961 46.6186 104.553 46.6186H106.297Z" fill="black"/>
<path d="M116.378 46.7133V47.0492C116.378 47.0977 116.346 47.1445 116.282 47.1445H115.338C115.018 47.1445 114.731 46.9523 114.618 46.6805L114.17 47.1445H112.793C111.849 47.1445 111.017 46.7773 110.473 46.1367C110.313 46.7773 109.896 47.1445 108.921 47.1445H108.042C107.978 47.1445 107.946 47.0961 107.946 47.0492V46.7133C107.946 46.6648 107.978 46.618 108.042 46.618H108.921C109.834 46.618 109.849 46.218 109.834 45.3695V44.2977C109.834 42.5695 111.146 41.4492 112.795 41.4492C114.443 41.4492 115.738 42.5695 115.738 44.2977V46.618H116.282C116.346 46.618 116.378 46.6664 116.378 46.7133ZM114.585 46.618C114.553 46.5383 114.537 46.4414 114.537 46.3461V44.2977C114.537 42.3133 113.385 41.9773 112.793 41.9773C112.201 41.9773 111.049 42.3133 111.049 44.2977C111.049 46.282 112.218 46.618 112.793 46.618H114.585Z" fill="black"/>
<path d="M127.515 46.7137V47.0496C127.515 47.098 127.482 47.1449 127.419 47.1449H126.555C126.219 47.1449 125.932 46.9855 125.771 46.6809L125.322 47.1449H116.282C116.218 47.1449 116.187 47.0965 116.187 47.0496V46.7137C116.187 46.6652 116.218 46.6184 116.282 46.6184H125.738C125.338 45.9309 125.018 45.0668 124.618 44.1699C124.266 43.3855 123.721 42.7293 122.522 42.7293H117.146L117.658 42.2012H122.715C124.315 42.2012 125.322 42.9371 125.819 43.9137C126.347 44.9856 126.651 45.8652 126.924 46.3621C127.004 46.5387 127.132 46.6184 127.276 46.6184H127.419C127.483 46.6184 127.515 46.6668 127.515 46.7137ZM120.682 48.2012L121.449 48.9527L120.682 49.7043L119.93 48.9527L120.682 48.2012Z" fill="black"/>
<path d="M135.113 44.298V47.1465H134.713C134.393 47.1465 134.121 46.9543 133.993 46.6824L133.545 47.1465H132.168C131.224 47.1465 130.392 46.7793 129.848 46.1387C129.688 46.7793 129.271 47.1465 128.296 47.1465H127.417C127.353 47.1465 127.321 47.098 127.321 47.0512V46.7152C127.321 46.6668 127.353 46.6199 127.417 46.6199H128.296C129.209 46.6199 129.224 46.2199 129.209 45.3715V44.2996C129.209 42.5715 130.521 41.4512 132.17 41.4512C133.818 41.4512 135.113 42.5715 135.113 44.2996V44.298ZM133.962 46.6184C133.929 46.5387 133.913 46.4418 133.913 46.3465V44.298C133.913 42.3137 132.762 41.9777 132.17 41.9777C131.578 41.9777 130.426 42.3137 130.426 44.298C130.426 46.2824 131.595 46.6184 132.17 46.6184H133.962Z" fill="black"/>
<path d="M59.8087 54.0686C59.654 55.7014 58.129 56.5639 56.6212 56.7139C55.9306 56.7826 55.2509 56.6795 54.5915 56.4717C54.4806 56.4373 54.4149 56.3279 54.4149 56.2092V51.4811C54.2493 51.4295 54.0243 51.5264 53.9681 51.4092C53.9556 51.3842 53.9556 51.2842 54.0009 51.2842L57.0696 51.3029C57.5931 51.3061 58.0696 51.4467 58.5321 51.6561C59.4978 52.0936 59.9056 53.0451 59.8087 54.0686ZM58.2212 52.1139C57.2899 51.3264 56.4368 51.5326 55.2665 51.5123V56.3107C56.7196 56.7576 58.4071 56.2561 58.7962 54.6623C59.0009 53.8232 58.8806 52.7404 58.2212 52.1139Z" fill="black"/>
<path d="M100.218 55.7609C99.0727 56.7812 97.379 56.9391 95.9384 56.4922C95.8649 56.4688 95.7196 56.4078 95.7024 56.3172L95.693 51.4859C95.5837 51.4266 95.2165 51.525 95.2227 51.3828C95.2227 51.3547 95.2446 51.2812 95.3009 51.2812L98.293 51.3C98.8618 51.3031 99.4024 51.4469 99.8915 51.6984C100.643 52.0844 101.046 52.7906 101.091 53.6188C101.137 54.4484 100.848 55.1984 100.218 55.7609ZM100.146 54.1938C100.22 53.0328 99.8477 52.0266 98.6555 51.6422C98.0071 51.4234 97.2743 51.5344 96.554 51.5109V56.3063C97.0024 56.4781 97.4524 56.4734 97.8915 56.4453C99.1384 56.3672 100.066 55.4313 100.146 54.1922V54.1938Z" fill="black"/>
<path d="M80.1329 55.9113C78.9547 56.8098 77.3797 56.9207 75.9813 56.4785C75.8516 56.4379 75.775 56.3316 75.775 56.1863L75.7704 51.4801C75.6297 51.4332 75.3157 51.5348 75.3204 51.3832C75.3219 51.3301 75.3579 51.2832 75.4313 51.2832L78.3922 51.302C78.8766 51.3051 79.325 51.4223 79.7547 51.5941C80.5704 51.9223 81.0751 52.5988 81.1719 53.4598C81.2813 54.4223 80.9141 55.3176 80.1329 55.9129V55.9113ZM80.2282 53.5066C80.1625 52.977 79.9688 52.4848 79.5782 52.1113C78.6704 51.3332 77.7657 51.5301 76.6235 51.5145V56.2816C76.836 56.416 77.0797 56.4129 77.3172 56.4473C77.9829 56.5426 78.8329 56.3535 79.3688 55.9238C80.0954 55.3395 80.3375 54.4004 80.2282 53.5082V53.5066Z" fill="black"/>
<path d="M87.4472 55.7641C86.2707 56.7906 84.5722 56.95 83.1175 56.475C83.0363 56.4484 82.9269 56.3766 82.9269 56.2797L82.9238 51.4813C82.8082 51.4328 82.5144 51.5109 82.4816 51.4172C82.4707 51.3891 82.4691 51.2812 82.5254 51.2812L85.5519 51.3016C86.1019 51.3047 86.616 51.4469 87.0957 51.6828C87.8847 52.0719 88.3004 52.8297 88.3254 53.6922C88.3472 54.5 88.066 55.2219 87.4472 55.7625V55.7641ZM87.3738 54.2281C87.4566 53.0719 87.1191 52.0656 85.9363 51.6578C85.7254 51.5844 85.5019 51.5156 85.2691 51.5156L83.7816 51.5109L83.7847 56.2969C84.1738 56.4813 84.766 56.475 85.1566 56.4438C86.3769 56.3453 87.2863 55.4438 87.3722 54.2266L87.3738 54.2281Z" fill="black"/>
<path d="M65.338 54.0898C65.3614 53.9008 65.9333 54.0992 66.452 53.482C66.6755 53.2164 66.7474 52.8726 66.7192 52.5383C66.6692 51.9211 66.2333 51.5055 65.6099 51.482C65.3255 51.4711 65.0395 51.4617 64.7208 51.4773V56.4242C64.8911 56.468 65.1739 56.3805 65.2145 56.4945C65.2255 56.5258 65.2302 56.618 65.1755 56.618H63.9192C63.8802 56.618 63.8489 56.5398 63.8489 56.4992V51.4852C63.727 51.4305 63.4755 51.5148 63.4349 51.4148C63.4239 51.3867 63.4192 51.2852 63.4692 51.2852L65.9145 51.2992C66.2552 51.3008 66.5708 51.3883 66.8692 51.518C67.2661 51.6898 67.5177 52.0273 67.5739 52.4164C67.6942 53.2555 66.9411 53.7977 66.152 54.0211C66.627 54.6242 67.0708 55.1758 67.5677 55.7148C67.7864 55.9523 68.0239 56.1539 68.2958 56.3164C68.6208 56.5117 68.8224 56.2586 68.888 56.4148C68.9489 56.5601 67.9161 56.9414 67.2489 56.4398C66.6802 56.0133 65.7505 54.8273 65.3599 54.218C65.3333 54.1773 65.3333 54.1242 65.338 54.0914V54.0898Z" fill="black"/>
<path d="M113.285 54.2504C113.226 54.1676 113.22 54.0191 113.317 54.0082C114.126 53.9191 114.696 53.3785 114.628 52.5363C114.579 51.9316 114.151 51.5176 113.545 51.4848C113.256 51.4691 112.974 51.4676 112.637 51.4738L112.632 56.4223C112.778 56.4691 113.084 56.3816 113.12 56.4941C113.131 56.5301 113.134 56.6176 113.078 56.6176H111.784L111.774 51.4941C111.649 51.4207 111.404 51.516 111.339 51.4129C111.323 51.3879 111.326 51.2832 111.373 51.2832L113.848 51.3004C114.434 51.3051 115.348 51.6098 115.453 52.2957C115.685 53.2145 114.871 53.7832 114.064 54.016C114.589 54.7004 115.095 55.3301 115.681 55.9113C116.498 56.7223 116.701 56.2332 116.787 56.3801C116.889 56.5566 115.984 56.8848 115.31 56.5332C114.704 56.216 113.714 54.8598 113.284 54.2504H113.285Z" fill="black"/>
<path d="M92.9762 56.1337C92.6981 55.6384 92.5074 55.1415 92.2793 54.6165H90.3371L89.5012 56.4102C89.6387 56.4899 89.9074 56.3509 89.9793 56.529C90.0449 56.6931 89.2309 56.6009 89.0371 56.6087L91.6043 51.3524C91.6309 51.2962 91.6559 51.2665 91.6887 51.2571C91.7246 51.2462 91.8199 51.229 91.8449 51.2884L93.4027 55.0618C93.5512 55.4227 93.7043 55.7556 93.8965 56.0806C94.1793 56.5571 94.5152 56.2743 94.5855 56.3821C94.698 56.5555 93.4981 57.0634 92.9762 56.1352V56.1337ZM92.0449 54.3602C92.1137 54.3602 92.1574 54.3384 92.1605 54.2962L91.4137 52.329L90.4684 54.3509L92.0434 54.3602H92.0449Z" fill="black"/>
<path d="M122.982 53.9609C122.982 55.5266 121.708 56.7969 120.136 56.7969C118.564 56.7969 117.291 55.5281 117.291 53.9609C117.291 52.3938 118.564 51.125 120.136 51.125C121.708 51.125 122.982 52.3938 122.982 53.9609ZM120.883 56.3781C121.338 56.1562 121.639 55.7453 121.807 55.2844C122.211 54.1703 122.163 52.2484 121.024 51.5891C120.225 51.1266 119.249 51.4 118.735 52.1531C118.364 52.6953 118.241 53.3313 118.238 53.9906C118.236 54.5141 118.294 54.9969 118.504 55.4719C118.904 56.3844 119.954 56.8312 120.883 56.3781Z" fill="black"/>
<path d="M72.768 55.5442L72.3695 54.6161L70.4352 54.6129L69.5883 56.4208C69.9211 56.477 69.8695 56.3629 70.0602 56.5051C70.2992 56.6833 69.193 56.6192 69.1289 56.5989L71.693 51.3489C71.7258 51.2817 71.7586 51.2551 71.8102 51.2473C71.8727 51.2379 71.9289 51.2833 71.957 51.3504L72.4414 52.5614C72.9148 53.7426 73.3867 54.9067 73.9523 56.0395C74.2195 56.5739 74.6648 56.2442 74.6883 56.4114C74.7055 56.5348 73.8352 56.9395 73.2883 56.4114C73.0461 56.177 72.9039 55.8598 72.7664 55.5411L72.768 55.5442ZM70.6742 54.3614L72.268 54.3426L71.5039 52.327L70.5727 54.2926C70.5836 54.3348 70.6242 54.3614 70.6742 54.3598V54.3614Z" fill="black"/>
<path d="M108.877 56.2899C108.949 56.2633 109.068 56.2087 109.068 56.1368V54.5337C108.911 54.4649 108.633 54.5821 108.628 54.4165C108.628 54.3727 108.668 54.3258 108.735 54.3274L109.911 54.3415L109.919 55.9852C108.485 57.0196 105.997 57.1196 104.963 55.4993C104.65 55.0102 104.561 54.454 104.577 53.879C104.602 52.9383 105.072 52.1305 105.888 51.6618C106.971 51.0383 108.6 50.9352 109.525 51.868C109.646 51.9899 109.658 52.1899 109.569 52.318C109.48 52.4462 109.299 52.5008 109.147 52.4399C108.996 52.379 108.916 52.268 108.913 52.1227C108.911 51.9899 108.991 51.8758 109.143 51.7962C108.735 51.5227 108.266 51.4352 107.771 51.429C107.089 51.4212 106.46 51.6899 106.038 52.2258C105.664 52.7008 105.533 53.2774 105.533 53.879C105.533 54.4805 105.628 55.0212 105.938 55.5165C106.269 56.0462 106.786 56.3821 107.414 56.4555C107.905 56.5118 108.394 56.4633 108.874 56.2899H108.877Z" fill="black"/>
<path d="M50.4 53.9219L50.4078 56.3875L52.3375 56.3922L52.6187 55.7969C52.6453 55.7406 52.6953 55.7125 52.7343 55.7C52.7875 55.6844 52.9062 55.675 52.9 55.7625C52.8796 55.9984 52.7453 56.1828 52.6765 56.4016C52.6406 56.4609 52.6171 56.6156 52.514 56.6156H49.5546L49.5515 51.4813C49.4078 51.4438 49.2859 51.4828 49.15 51.4562C49.0937 51.4453 49.0843 51.2891 49.139 51.2891L52.3703 51.2812C52.464 51.2812 52.5234 51.3437 52.5171 51.4375C52.5046 51.6562 52.5437 51.8766 52.4984 52.0969C52.4843 52.1672 52.25 52.1766 52.2328 52.1063L52.2062 51.5188H50.4093L50.4046 53.6422L52.1031 53.6703C52.1703 53.6875 52.1671 53.8859 52.1031 53.9031L50.4031 53.9234L50.4 53.9219Z" fill="black"/>
<path d="M134.035 52.077C133.674 51.3738 132.735 51.4598 132.063 51.4848L132.06 56.3941C132.199 56.5238 132.722 56.2941 132.601 56.6098L131.211 56.6129L131.207 51.4801C131.077 51.4332 130.794 51.5176 130.758 51.4129C130.749 51.3848 130.746 51.2832 130.801 51.2832L133.418 51.3035C133.847 51.3066 134.265 51.4348 134.602 51.6707C134.901 51.8785 135.046 52.1738 135.096 52.516C135.28 53.8004 134.008 54.4004 132.874 54.4254C132.819 54.4254 132.774 54.4332 132.747 54.3973C132.513 54.0926 133.499 54.4848 134.007 53.5926C134.263 53.1426 134.283 52.5613 134.036 52.0785L134.035 52.077Z" fill="black"/>
<path d="M129.088 51.459L129.068 54.9402C129.065 55.5121 128.748 56.0246 128.284 56.3293C127.771 56.6652 127.11 56.7731 126.513 56.7106C125.518 56.6074 124.77 56.0824 124.702 55.0278L124.676 54.6168L124.668 51.484C124.552 51.4293 124.284 51.5168 124.259 51.4106C124.251 51.3778 124.246 51.2871 124.298 51.2871H125.518L125.535 55.0043C125.538 55.5278 125.829 55.9559 126.315 56.1199C126.885 56.3121 127.485 56.2981 128.046 56.0574C128.39 55.9106 128.731 55.5746 128.734 55.1684L128.76 51.3043C128.913 51.2793 129.448 51.2528 129.507 51.3262C129.529 51.3528 129.537 51.4278 129.487 51.4403C129.363 51.4731 129.256 51.4387 129.085 51.4606L129.088 51.459Z" fill="black"/>
<path d="M47.2431 53.906L45.5353 53.917L45.54 56.3889H47.4869C47.5837 56.1576 47.6478 55.9451 47.7822 55.7529C48.3369 55.4404 47.79 56.3186 47.7681 56.5092C47.7275 56.5873 47.6697 56.6248 47.5744 56.6232L44.6837 56.6154L44.6806 51.4811L44.279 51.4576C44.2212 51.4545 44.2119 51.2904 44.2681 51.2904L47.5009 51.2842C47.5697 51.2842 47.6462 51.3342 47.6447 51.406C47.64 51.6326 47.6759 51.8607 47.6259 52.0842C47.604 52.1795 47.429 52.1561 47.3587 52.1232L47.3369 51.517H45.54V53.6498L47.2353 53.6717C47.2994 53.6717 47.2947 53.8545 47.2431 53.9076V53.906Z" fill="black"/>
<path d="M37.228 55.3458C37.1702 55.9661 36.7467 56.427 36.1717 56.6161C35.3045 56.9005 34.3624 56.7051 33.6499 56.1442C33.5686 56.0801 33.5546 56.002 33.6077 55.9208C33.753 55.6989 34.2046 56.3786 35.2092 56.4348C35.5374 56.4536 35.8374 56.4176 36.1171 56.2692C36.4327 56.102 36.5999 55.7942 36.5452 55.427C36.4983 55.1176 36.2905 54.8661 36.0405 54.6801C35.5124 54.2864 34.9967 54.127 34.403 53.7239C33.8092 53.3208 33.5514 52.5098 33.928 51.852C34.0749 51.5958 34.3374 51.4223 34.6139 51.3208C35.2983 51.0708 36.0467 51.1598 36.653 51.552C36.8077 51.652 36.9421 51.8098 36.9499 51.988C36.9577 52.1661 36.8139 52.3005 36.6764 52.3255C36.503 52.3583 36.3561 52.2551 36.3014 52.1098C36.2421 51.9489 36.3249 51.7958 36.4811 51.6786C36.0046 51.3598 34.9452 51.2817 34.5436 51.7301C34.2733 52.0333 34.3467 52.4739 34.653 52.7426C35.2342 53.2551 36.0171 53.3911 36.6546 53.9583C37.0483 54.3083 37.2796 54.7833 37.228 55.3442V55.3458Z" fill="black"/>
<path d="M41.9461 56.0982C41.6773 55.6232 41.4992 55.1388 41.2773 54.6216L39.332 54.6138L38.4977 56.4076C38.6305 56.4607 38.7523 56.431 38.8883 56.4341C38.9617 56.4357 38.993 56.5982 38.9461 56.6029C38.657 56.6326 38.3555 56.6388 38.0352 56.5966L40.6305 51.2919C40.6664 51.2185 40.8133 51.2357 40.8414 51.3029L42.5273 55.356C42.6492 55.6482 42.7695 55.9122 42.9477 56.1622C43.1258 56.4122 43.3102 56.3576 43.582 56.3654C43.6055 56.3654 43.6227 56.4466 43.5961 56.4654C43.0523 56.8216 42.332 56.7747 41.9492 56.0997L41.9461 56.0982ZM41.1727 54.3466L40.4008 52.3279L39.457 54.356L41.1727 54.3466Z" fill="black"/>
</svg>
