<svg width="169" height="60" viewBox="0 0 169 60" fill="none" xmlns="http://www.w3.org/2000/svg">
<g clip-path="url(#clip0_5868_2452)">
<path d="M104.673 6.32695L97.5762 13.4035L97.5824 22.9926L86.5512 22.9754V9.18008H83.3934L80.948 11.6191V22.9738L71.0137 22.991V7.76914H67.8559L65.4105 10.2082V22.9973L55.6184 22.991L50.3105 28.302H118.315V6.32695L104.675 6.32227L104.673 6.32695ZM112.703 22.991H103.203V15.8129L107.232 11.6363H112.703V22.991Z" fill="#BBC3D0"/>
<path d="M97.5777 35.9658V59.2205H112.223L118.304 53.1393V35.9674H97.5762L97.5777 35.9658ZM112.698 50.7127L109.27 54.2658H103.201V40.9314H112.696V50.7143L112.698 50.7127Z" fill="#BBC3D0"/>
<path d="M84.332 42.1352L78.1586 35.9648H71.9961L81.443 45.4117L81.4945 45.4195V56.782L83.9383 59.2211H87.1336V45.4195L87.182 45.4117L87.8867 44.7086L96.6305 35.9648H90.5055L84.332 42.1352Z" fill="#BBC3D0"/>
<path d="M71.0371 54.2383V42.0492L71.0168 42.0289V35.9648H64.934L64.9387 35.9695L50.3105 35.9648V53.1273L56.3934 59.2102H77.4199L74.1449 54.2383H71.0387H71.0371ZM65.409 54.2383H59.4137L55.9324 50.8805V40.9477H65.409V54.2383Z" fill="#BBC3D0"/>
<path d="M118.314 -0.157227H111.186L105.857 5.15527H118.304L118.314 -0.157227Z" fill="#BBC3D0"/>
<path d="M86.552 29.4775H79.4238L74.0957 34.79H86.5426L86.552 29.4775Z" fill="#BBC3D0"/>
</g>
<defs>
<clipPath id="clip0_5868_2452">
<rect width="169" height="60" fill="white"/>
</clipPath>
</defs>
</svg>
