<svg width="169" height="60" viewBox="0 0 169 60" fill="none" xmlns="http://www.w3.org/2000/svg">
<path d="M136.685 36.6203C135.199 35.1828 134.316 34.2062 134.316 34.2062C136.204 25.0484 132.245 21.9891 129.362 19.2016C128.824 18.6859 126.182 16.1359 125.009 15L120.96 18.9875C121.98 20.0047 127.265 25.1281 128.38 26.2078C130.637 28.3922 131.601 30.3703 131.312 34.7703C131.127 37.6219 129.513 40.1078 129.513 40.1078L128.984 39.575C129.176 38.7891 129.321 38.05 129.441 37.3906C130.02 34.8891 130.252 30.3375 127.024 27.2234L119.635 20.1219C118.51 21.1156 117.193 22.9969 116.463 24.9203C115.348 27.875 114.021 33.1734 118.262 37.2562C118.318 37.3125 123.168 41.95 123.948 42.7047C120.663 53.2141 112.496 54.4047 112.496 54.4047C120.776 54.4047 124.285 50.0672 126.776 45.4375C128.518 47.1219 136.173 54.5172 136.173 54.5172C137.298 53.5328 138.759 51.7922 139.49 49.8625C140.605 46.9078 141.634 41.4031 136.687 36.6297V36.6219L136.685 36.6203ZM125.071 35.7469C121.723 32.5063 120.413 31.2437 120.084 30.9328C117.57 28.5016 118.196 26.675 118.196 26.675C118.47 26.9375 118.751 27.1984 119.032 27.4531C121.112 29.4625 121.94 30.2484 121.94 30.2484C123.337 31.6063 124.92 33.6719 125.08 35.5391C125.08 35.6109 125.08 35.6812 125.073 35.7531V35.7453L125.071 35.7469ZM137.737 48.0594C136.355 46.725 133.593 44.0484 130.654 41.2047L131.682 39.7187C131.682 39.7187 134.14 42.0781 135.93 43.8094C138.155 45.9625 137.818 47.6938 137.737 48.0516V48.0594Z" fill="#BBC3D0"/>
<path d="M111.593 53.659C111.593 53.659 111.552 53.5715 111.544 53.4606V53.3496C111.511 53.1668 111.472 53.0949 111.344 53.0715C111.488 53.0231 111.569 52.9121 111.569 52.7543C111.569 52.6277 111.521 52.5324 111.416 52.4762C111.352 52.4293 111.272 52.4199 111.15 52.4199H110.557V53.6746H110.725V53.134H111.063C111.143 53.134 111.199 53.134 111.239 53.1496C111.329 53.1809 111.368 53.2684 111.375 53.4277V53.5309C111.375 53.6027 111.391 53.6496 111.416 53.673H111.608L111.593 53.6574V53.659ZM111.286 52.9606C111.238 52.9918 111.174 52.9996 111.046 52.9918H110.724V52.5621H111.093C111.302 52.5621 111.389 52.6262 111.389 52.7762C111.389 52.8637 111.357 52.9184 111.293 52.959H111.285L111.286 52.9606Z" fill="#BBC3D0"/>
<path d="M125.711 4.5459L121.271 8.83496L125.711 13.124L130.161 8.83496L125.711 4.5459Z" fill="#BBC3D0"/>
<path d="M111.03 51.6807C110.25 51.6807 109.625 52.2916 109.625 53.0385C109.625 53.7854 110.259 54.4041 111.03 54.4041C111.8 54.4041 112.444 53.7932 112.444 53.0385C112.444 52.2838 111.809 51.6807 111.03 51.6807ZM111.03 54.2853C110.323 54.2853 109.753 53.7291 109.753 53.0463C109.753 52.3635 110.323 51.8072 111.03 51.8072C111.736 51.8072 112.314 52.3635 112.314 53.0463C112.314 53.7291 111.744 54.2853 111.03 54.2853Z" fill="#BBC3D0"/>
<path d="M33.5461 37.5664V43.3414L29.193 37.5664H28.2852V45.0008H29.2883V39.2258L33.6414 45.0008H34.557V37.5664H33.5445H33.5461Z" fill="#BBC3D0"/>
<path d="M43.0957 39.3531C42.7504 38.7656 42.2848 38.3047 41.6988 37.9625C41.0973 37.6047 40.4457 37.4297 39.7551 37.4297C39.0645 37.4297 38.4051 37.6047 37.8035 37.9625C37.2254 38.2969 36.7676 38.7641 36.4145 39.3531C36.0613 39.9562 35.8848 40.6 35.8848 41.2906C35.8848 41.9813 36.0613 42.625 36.4145 43.2281C36.7598 43.8078 37.2254 44.2688 37.8113 44.6109C38.4129 44.9688 39.0645 45.1437 39.7473 45.1437C40.4301 45.1437 41.0879 44.9688 41.691 44.6109C42.277 44.2688 42.7426 43.8078 43.0879 43.2281C43.441 42.625 43.6176 41.9813 43.6176 41.2906C43.6176 40.6 43.441 39.9562 43.0879 39.3531H43.0957ZM41.8582 43.2453C41.2957 43.8891 40.5973 44.2141 39.7457 44.2141C39.0145 44.2141 38.3801 43.9594 37.8426 43.4516C37.2082 42.8719 36.8941 42.1484 36.8941 41.2906C36.8941 40.5359 37.1348 39.8844 37.6254 39.3281C38.1957 38.6844 38.902 38.3672 39.7457 38.3672C40.4848 38.3672 41.1191 38.6141 41.6566 39.1141C42.291 39.6938 42.5957 40.4172 42.5957 41.2906C42.5957 42.0297 42.3551 42.6813 41.8488 43.2453H41.8566H41.8582Z" fill="#BBC3D0"/>
<path d="M51.2617 37.5664L48.6039 42.2695L45.9461 37.5664H44.918V45.0008H45.9227V39.3773L48.1867 43.3805H49.0227L51.2867 39.393V45.0086H52.2914V37.5742H51.2633V37.5664H51.2617Z" fill="#BBC3D0"/>
<path d="M61.951 37.5664L60.2244 43.4367L58.5213 37.5664H57.6385L55.9354 43.4367L54.2166 37.5664H53.165L55.4463 45.0008H56.426L58.0807 39.3539L59.7432 45.0008H60.7229L62.9963 37.5664H61.9525H61.951Z" fill="#BBC3D0"/>
<path d="M72.2559 43.1975C71.8871 43.5631 71.5496 43.8256 71.2199 43.9756C70.898 44.135 70.5293 44.2131 70.1121 44.2131C69.3652 44.2131 68.723 43.9584 68.184 43.4662C67.5496 42.8943 67.2371 42.1709 67.2371 41.2896C67.2371 40.5271 67.4777 39.8678 67.9684 39.3193C68.5387 38.6834 69.2527 38.3662 70.1199 38.3662C70.5371 38.3662 70.9074 38.4381 71.2199 38.5881C71.5418 38.7318 71.8699 38.9928 72.2152 39.3584L72.9137 38.6756C72.4715 38.2381 72.0309 37.9131 71.5887 37.7225C71.1543 37.524 70.6652 37.4209 70.1184 37.4209C69.4121 37.4209 68.7449 37.5959 68.1434 37.9537C67.5574 38.2881 67.0918 38.7475 66.7465 39.3365C66.3934 39.924 66.2168 40.5756 66.2168 41.2912C66.2168 42.0068 66.3934 42.6412 66.7465 43.2459C67.0918 43.8256 67.5574 44.2865 68.1434 44.6287C68.7543 44.9787 69.4199 45.1521 70.1277 45.1521C70.673 45.1521 71.1637 45.049 71.6059 44.8506C72.048 44.6521 72.498 44.3178 72.9465 43.8818L72.248 43.199H72.2559V43.1975Z" fill="#BBC3D0"/>
<path d="M77.467 37.5664H76.2139L73.3467 45.0008H74.3904L75.1451 42.9914H78.4936L79.2639 45.0008H80.3248L77.4576 37.5664H77.4654H77.467ZM75.5076 42.0789L76.8248 38.5758L78.1576 42.0789H75.5076Z" fill="#BBC3D0"/>
<path d="M85.226 38.7336C85.0416 38.3602 84.7682 38.0664 84.415 37.8758C84.0463 37.6695 83.5244 37.5586 82.8338 37.5586H81.2275V44.993H82.2307V42.0539H82.8244C83.515 42.0539 84.0369 41.9508 84.4072 41.7367C84.7119 41.5695 84.9525 41.3242 85.1385 41.0133C85.3557 40.6477 85.4682 40.243 85.4682 39.7977C85.4682 39.4086 85.3791 39.0586 85.2197 38.7258L85.2275 38.7336H85.226ZM84.3182 40.5055C84.2135 40.7039 84.0697 40.8633 83.8838 40.9664C83.6588 41.093 83.3463 41.157 82.9369 41.157H82.2385V38.4805H82.9369C83.3541 38.4805 83.676 38.5445 83.901 38.6711C84.2947 38.8852 84.4869 39.2664 84.4869 39.8148C84.4869 40.0695 84.4385 40.2992 84.326 40.4977L84.3182 40.5055Z" fill="#BBC3D0"/>
<path d="M86.4951 37.5664V45.0008H87.4998V37.5664H86.4951Z" fill="#BBC3D0"/>
<path d="M88.3809 37.5664V38.4961H90.2918V45.0023H91.3043V38.4961H93.2152V37.5664H88.3809Z" fill="#BBC3D0"/>
<path d="M96.8391 37.5664H95.5859L92.7188 45.0008H93.7703L94.525 42.9914H97.8734L98.6437 45.0008H99.7047L96.8375 37.5664H96.8391ZM94.8719 42.0789L96.1891 38.5758L97.5219 42.0789H94.8719Z" fill="#BBC3D0"/>
<path d="M101.608 44.0805V37.5664H100.604V45.0008H104.474V44.0789H101.607L101.608 44.0805Z" fill="#BBC3D0"/>
<path d="M36.0752 29.7812V31.0594H38.4924V29.7812H36.0752Z" fill="#BBC3D0"/>
<path d="M38.1562 29.7812V31.0594H38.6141V29.7812H38.1562Z" fill="#BBC3D0"/>
<path d="M38.2686 29.7812V31.0594H40.6857V29.7812H38.2686Z" fill="#BBC3D0"/>
<path d="M36.0754 29.7812C35.5535 29.7812 35.1363 29.6297 34.8223 29.3359C34.4691 28.9859 34.2926 28.4625 34.2926 27.7719V23.3H32.9035V24.0156H31.8441C30.8238 24.0156 29.9973 24.2781 29.3457 24.8094C28.591 25.4203 28.2129 26.2875 28.2129 27.4063C28.2129 28.3594 28.4691 29.1297 28.9832 29.7172C29.5379 30.3531 30.277 30.6703 31.191 30.6703C32.0504 30.6703 32.7738 30.3922 33.3832 29.8359C33.9207 30.6625 34.7723 31.075 35.9363 31.075H36.4176V29.7969H36.0723V29.7812H36.0754ZM31.266 29.4156C30.7848 29.4156 30.3988 29.2484 30.1176 28.9234C29.7801 28.5578 29.6191 28.0344 29.6191 27.3594C29.6191 26.7312 29.7879 26.2391 30.1176 25.8906C30.5191 25.4609 31.1129 25.2547 31.8926 25.2547H32.9051V27.9719C32.9051 28.2578 32.9285 28.5047 32.9691 28.7187C32.4145 29.1875 31.8363 29.4172 31.2582 29.4172H31.266V29.4156ZM30.7598 21.0516C30.5832 20.8844 30.3738 20.8047 30.1332 20.8047C29.8926 20.8047 29.6832 20.8922 29.5066 21.0516C29.3301 21.2109 29.241 21.4016 29.241 21.6156C29.241 21.8297 29.3301 22.0281 29.5066 22.1953C29.6832 22.3625 29.8926 22.4328 30.1332 22.4328C30.3738 22.4328 30.5832 22.3531 30.7598 22.1953C30.9363 22.0281 31.0254 21.8375 31.0254 21.6156C31.0254 21.3938 30.9363 21.2188 30.7598 21.0516ZM32.8316 21.0437C32.6551 20.8766 32.4457 20.8063 32.2051 20.8063C31.9645 20.8063 31.7551 20.8937 31.5785 21.0531C31.3941 21.2203 31.3129 21.4031 31.3129 21.6172C31.3129 21.8313 31.402 22.0297 31.5785 22.1969C31.7551 22.3641 31.9566 22.4344 32.2051 22.4344C32.4535 22.4344 32.6551 22.3547 32.8316 22.1969C33.0082 22.0297 33.0973 21.8391 33.0973 21.6172C33.0973 21.3953 33.0082 21.2047 32.8316 21.0531V21.0453V21.0437Z" fill="#BBC3D0"/>
<path d="M45.6893 29.7805C45.1596 29.7805 44.7502 29.6289 44.4361 29.3352C44.0752 28.9852 43.8986 28.4617 43.8986 27.7711V24.3945H42.4611V27.7711C42.4611 28.3742 42.3252 28.843 42.0439 29.193C41.7393 29.5898 41.2814 29.7805 40.6705 29.7805H40.333V31.0586H40.8064C41.8424 31.0586 42.6377 30.7258 43.1752 30.057C43.7127 30.7242 44.5002 31.0586 45.5361 31.0586H46.0096V29.7805H45.6721H45.6877H45.6893ZM42.5252 32.5133C42.3486 32.3461 42.1471 32.2664 41.8986 32.2664C41.6502 32.2664 41.4486 32.3461 41.2721 32.5133C41.0955 32.6805 41.0064 32.8711 41.0064 33.0852C41.0064 33.2992 41.0955 33.482 41.2721 33.6492C41.4486 33.8164 41.658 33.8961 41.8986 33.8961C42.1393 33.8961 42.3486 33.8164 42.5252 33.6492C42.7096 33.482 42.7908 33.2992 42.7908 33.0852C42.7908 32.8711 42.7018 32.6727 42.5252 32.5133ZM44.5971 32.5133C44.4205 32.3461 44.2111 32.2664 43.9705 32.2664C43.7299 32.2664 43.5205 32.3461 43.3439 32.5133C43.1674 32.6805 43.0783 32.8711 43.0783 33.0852C43.0783 33.2992 43.1674 33.482 43.3439 33.6492C43.5205 33.8164 43.7299 33.8961 43.9705 33.8961C44.2111 33.8961 44.4205 33.8164 44.5971 33.6586C44.7736 33.4992 44.8627 33.3086 44.8627 33.0867C44.8627 32.8648 44.7736 32.6742 44.5971 32.5148V32.5133Z" fill="#BBC3D0"/>
<path d="M47.7941 20.5201V27.7717C47.7941 28.3826 47.6582 28.8592 47.377 29.1936C47.0645 29.5826 46.6145 29.781 46.027 29.781H45.6895V31.0592H46.1473C47.0066 31.0592 47.7051 30.8373 48.2348 30.4076C48.8848 29.8592 49.2145 29.0498 49.2145 27.9686V20.5186H47.7926L47.7941 20.5201Z" fill="#BBC3D0"/>
<path d="M55.4543 29.7814C54.7793 29.7814 54.3059 29.6393 54.0246 29.3533C53.7762 29.0752 53.6465 28.5908 53.6465 27.908V20.5127H52.209V28.3049C52.209 29.1471 52.4418 29.8064 52.9074 30.283C53.4371 30.7986 54.1996 31.0611 55.2043 31.0611H55.8387V29.783H55.4449H55.4527L55.4543 29.7814Z" fill="#BBC3D0"/>
<path d="M65.9602 29.7816C64.8195 29.7816 64.2492 29.0832 64.2492 27.677C64.2492 27.066 64.1602 26.5332 63.993 26.0723C63.7602 25.516 63.4227 25.0785 62.9805 24.7613C62.4508 24.3645 61.8164 24.1738 61.0617 24.1738C60.3945 24.1738 59.8242 24.3254 59.3273 24.6191C58.7898 24.9441 58.3961 25.4379 58.1461 26.0723C57.9617 26.5176 57.8727 27.0488 57.8727 27.677C57.8727 29.0832 57.3023 29.7816 56.1539 29.7816H55.5039V31.0598H56.3961C57.3273 31.0598 58.0508 30.7582 58.557 30.1535C59.1273 30.916 59.9633 31.2973 61.0555 31.2973C62.1477 31.2973 62.9992 30.916 63.5523 30.1535C64.0664 30.7566 64.7898 31.0598 65.7133 31.0598H66.6211V29.7816H65.9539H65.9617H65.9602ZM62.3461 29.416C62.0164 29.8285 61.5914 30.0363 61.0773 30.0363C60.6195 30.0363 60.2336 29.877 59.9133 29.5754C59.4883 29.1551 59.2789 28.5191 59.2789 27.677C59.2789 27.0176 59.4148 26.4848 59.6961 26.0879C60.0008 25.6426 60.4586 25.4207 61.0695 25.4207C61.607 25.4207 62.0258 25.5957 62.3227 25.9441C62.6758 26.3332 62.8523 26.9129 62.8523 27.6676C62.8523 28.4223 62.6836 29.002 62.3539 29.4066L62.3461 29.4145V29.416Z" fill="#BBC3D0"/>
<path d="M68.3996 20.5201V27.7717C68.3996 28.3826 68.2543 28.8592 67.9824 29.1936C67.6699 29.5826 67.2121 29.781 66.6324 29.781H66.2949V31.0592H66.7527C67.6121 31.0592 68.3027 30.8373 68.8402 30.4076C69.4902 29.8592 69.8199 29.0498 69.8199 27.9686V20.5186H68.398L68.3996 20.5201Z" fill="#BBC3D0"/>
<path d="M72.8174 20.5195V31.0602H74.2549V20.5195H72.8174Z" fill="#BBC3D0"/>
<path d="M87.1457 29.7816V26.8988C87.1457 26.1285 86.9129 25.5082 86.4551 25.0238C85.9332 24.4676 85.1863 24.1895 84.2301 24.1895C83.2738 24.1895 82.5676 24.4676 82.0051 25.016C81.3629 25.627 81.041 26.477 81.041 27.566C81.041 28.5598 81.3066 29.3613 81.8285 29.9566C82.4394 30.6551 83.3457 31.0051 84.5348 31.0129C84.8004 31.0207 85.1926 31.0285 85.716 31.0285C85.6832 31.6004 85.5066 32.0379 85.1863 32.3473C84.8332 32.6816 84.3504 32.8551 83.7488 32.8551C83.2113 32.8551 82.641 32.7113 82.0301 32.4098L81.6363 33.5066C82.4316 33.8957 83.202 34.0941 83.9332 34.0941C84.7926 34.0941 85.491 33.8723 86.0457 33.4426C86.7035 32.9098 87.066 32.1238 87.1223 31.0676H88.9691V29.7895H87.1379L87.1457 29.7816ZM85.7395 29.7816H84.6238C84.0223 29.7816 83.5238 29.6145 83.1379 29.3051C82.6723 28.916 82.4316 28.3285 82.4316 27.5504C82.4316 26.9473 82.5676 26.4457 82.8332 26.0816C83.1379 25.6441 83.6035 25.4223 84.2223 25.4223C85.2426 25.4223 85.7488 25.9551 85.7488 27.0113V29.7988L85.741 29.7832L85.7395 29.7816Z" fill="#BBC3D0"/>
<path d="M99.0871 29.7816C97.9465 29.7816 97.3684 29.0832 97.3684 27.677C97.3684 27.066 97.2793 26.5332 97.1121 26.0723C96.8871 25.516 96.5418 25.0785 96.0996 24.7613C95.5699 24.3645 94.9355 24.1738 94.1809 24.1738C93.5137 24.1738 92.9449 24.3254 92.4543 24.6191C91.9168 24.9441 91.523 25.4379 91.2652 26.0723C91.0809 26.5176 90.9918 27.0488 90.9918 27.677C90.9918 29.0832 90.4215 29.7816 89.2809 29.7816H88.6309V31.0598H89.523C90.4621 31.0598 91.1777 30.7582 91.684 30.1535C92.2543 30.916 93.0887 31.2973 94.1809 31.2973C95.273 31.2973 96.1246 30.916 96.6793 30.1535C97.1934 30.7566 97.9168 31.0598 98.8402 31.0598H99.748V29.7816H99.0809H99.0887H99.0871ZM95.473 29.416C95.1434 29.8285 94.7262 30.0363 94.2043 30.0363C93.7465 30.0363 93.3605 29.877 93.0402 29.5754C92.623 29.1551 92.4059 28.5191 92.4059 27.677C92.4059 27.0176 92.5418 26.4848 92.8152 26.0879C93.1199 25.6426 93.5855 25.4207 94.1887 25.4207C94.7262 25.4207 95.1449 25.5957 95.4418 25.9441C95.8027 26.3332 95.9793 26.9129 95.9793 27.6676C95.9793 28.4223 95.8105 29.002 95.4809 29.4066L95.473 29.4145V29.416Z" fill="#BBC3D0"/>
<path d="M101.538 24.3959V27.7725C101.538 28.3756 101.402 28.8443 101.121 29.1943C100.816 29.5912 100.359 29.7818 99.7477 29.7818H99.4102V31.06H99.8836C100.751 31.06 101.449 30.8381 101.971 30.4084C102.638 29.86 102.966 29.0506 102.966 27.9693V24.3943H101.529H101.537L101.538 24.3959ZM102.838 21.7756C102.654 21.6084 102.452 21.5381 102.204 21.5381C101.979 21.5381 101.779 21.6178 101.593 21.7756C101.416 21.9428 101.327 22.1334 101.327 22.3553C101.327 22.5772 101.416 22.7521 101.593 22.9193C101.777 23.0865 101.971 23.1662 102.204 23.1662C102.437 23.1662 102.654 23.0787 102.838 22.9193C103.015 22.7521 103.104 22.5693 103.104 22.3553C103.104 22.1412 103.015 21.9428 102.838 21.7756Z" fill="#BBC3D0"/>
</svg>
