<svg width="169" height="60" viewBox="0 0 169 60" fill="none" xmlns="http://www.w3.org/2000/svg">
<g clip-path="url(#clip0_5865_951)">
<path d="M81.1178 46.3344C81.7256 46.3609 81.9553 45.9781 81.9568 45.4813L81.9693 39.3172C82.735 39.25 83.3912 39.2484 84.1584 39.3203L84.1428 46.3641C84.1428 46.9891 83.8631 47.6547 83.3459 47.9563C82.8287 48.2578 82.2522 48.3422 81.6022 48.3422L55.0928 48.3375C53.7787 48.3375 52.9756 47.3719 52.974 46.2672L52.96 40.5844C53.7115 40.4578 54.4334 40.4625 55.2006 40.5844L55.2334 45.7078C55.235 46.0438 55.4928 46.3156 55.8459 46.3156L64.6209 46.3234C65.0646 46.3234 65.3303 46.0281 65.3318 45.5953L65.349 39.3266C66.0975 39.2484 66.8068 39.2453 67.5553 39.3266L67.5693 45.7063C67.5693 46.0516 67.835 46.3219 68.1725 46.3219L71.4037 46.3187C71.685 46.3187 71.9584 46.0875 71.9615 45.8031L72.0131 40.8469C72.7834 40.8297 73.4287 40.7938 74.1506 40.8703L74.1834 45.7047C74.185 46.0578 74.4975 46.325 74.835 46.325L76.41 46.3219C76.7553 46.3219 77.0053 46.0578 77.0068 45.7078L77.0412 40.8516C77.7928 40.8188 78.4412 40.8047 79.1631 40.8641L79.1693 45.6062C79.1693 46.5562 80.1834 46.2969 81.124 46.3375L81.1178 46.3344Z" fill="#28326E"/>
<path d="M100.901 39.9641C101.317 39.9641 101.61 40.2375 101.612 40.5953L101.628 45.6797C101.628 46.0422 101.937 46.3109 102.287 46.3109H105.965C106.373 46.3109 106.637 45.9766 106.637 45.5875L106.648 39.9344C106.648 39.5578 106.959 39.3203 107.315 39.3203L114.845 39.3141C115.262 39.3141 115.628 39.5937 115.628 40.0344V47.5953C115.628 47.9641 115.331 48.2734 114.967 48.275L108.588 48.3062L88.8666 48.3375C88.2588 48.3375 87.626 48.1484 87.2447 47.7562C86.8166 47.3156 86.6807 46.6594 86.6807 46.0312V34.7687C87.4385 34.6875 88.14 34.6812 88.9197 34.7703L88.9354 45.6984C88.9354 46.0922 89.2385 46.3156 89.6291 46.3141L98.7354 46.3109C99.1869 46.3109 99.4354 46.0219 99.4354 45.5953L99.4307 42.4766C99.4307 42.1375 99.2104 41.8719 98.8494 41.8703L94.4463 41.8484C93.7963 41.8453 94.0572 40.7797 94.0697 40.2375L98.7979 34.7031C99.3979 35.0609 99.8932 35.5094 100.395 36.0141L97.4822 39.4656C97.401 39.5625 97.3963 39.6797 97.4119 39.7453C97.4385 39.8578 97.5682 39.9734 97.7338 39.9734L100.906 39.9625L100.901 39.9641ZM113.631 41.1672H108.615V46.3484H113.631V41.1672Z" fill="#28326E"/>
<path d="M95.4355 18.5983L95.4543 27.1295C95.4574 28.5342 94.4668 29.6592 93.0574 29.828L73.7277 29.8014C72.5012 29.7999 71.3434 28.692 71.3418 27.4639L71.3105 8.14672C71.4168 6.72016 72.5293 5.69047 73.9543 5.69829L82.1402 5.74047L76.6105 10.9702L76.6059 24.0139C76.6059 24.3561 76.8559 24.5233 77.1824 24.4998L90.1652 24.4936L95.4371 18.5967L95.4355 18.5983Z" fill="#28326E"/>
<path d="M100.744 12.4406L95.4436 18.4266L95.4076 5.75313L82.1592 5.7125L87.542 0.365624L98.1764 0.351562C99.5482 0.485938 100.579 1.4375 100.74 2.80156L100.745 12.4391L100.744 12.4406Z" fill="#52B5C3"/>
<path d="M57.4912 57.1339L56.0068 59.5526C55.8615 59.7901 55.4193 59.7261 55.2756 59.5136C54.7615 58.7511 54.4506 57.9589 53.8178 57.1479L53.7037 60.2995C53.4584 60.3292 53.16 60.3886 52.96 60.2386V55.8323C53.1131 55.5839 53.6709 55.4432 53.835 55.712L55.6959 58.7729L57.3553 55.8807C57.4631 55.6917 57.6162 55.6011 57.7881 55.5901C57.9365 55.5807 58.31 55.6104 58.31 55.8698L58.3287 60.2354C58.1506 60.4057 57.8147 60.3292 57.5912 60.2729L57.4912 57.1339Z" fill="#52B5C3"/>
<path d="M115.581 58.173C115.569 58.1293 115.961 60.3277 115.17 60.3262L111.872 60.3184C111.589 60.3184 111.397 60.1105 111.398 59.8293L111.405 56.0387C111.405 55.7512 111.739 55.5652 112.003 55.5652L115.033 55.5605C115.181 55.5605 115.477 55.6574 115.483 55.8324C115.505 56.3777 115.581 56.9434 115.464 57.4652C115.394 57.784 115.503 57.898 115.581 58.173ZM114.698 57.5621C114.752 56.9965 114.813 56.5777 114.638 56.1606C113.827 56.134 113.103 56.1152 112.309 56.1699C112.138 56.6402 112.141 57.1262 112.291 57.5902C113.122 57.6434 113.88 57.6902 114.698 57.5605V57.5621ZM114.806 59.7605C114.858 59.1746 114.883 58.7246 114.789 58.2277C113.927 58.1762 113.127 58.1652 112.278 58.2324C112.144 58.7496 112.169 59.2355 112.253 59.7605C113.116 59.834 113.923 59.834 114.806 59.7605Z" fill="#52B5C3"/>
<path d="M78.0451 60.2655C77.8311 60.3265 77.3592 60.4358 77.1686 60.253C76.7498 59.928 75.7404 58.0952 75.3467 58.1405C75.2107 58.1562 75.0639 58.2312 74.9654 58.3858C74.567 59.0171 74.3092 58.1671 74.3014 60.278C74.0436 60.3374 73.767 60.378 73.5029 60.2687L73.5264 55.6343C73.6889 55.5046 74.2201 55.4843 74.2732 55.664C74.4467 56.2483 74.1842 57.4499 74.4529 57.6046C74.5701 57.6718 74.7607 57.6702 74.8873 57.553L76.9561 55.6312C77.1592 55.4421 77.6654 55.5218 77.8717 55.6593C77.192 56.2937 76.5811 56.8171 76.0076 57.4812L78.0436 60.2655H78.0451Z" fill="#52B5C3"/>
<path d="M105.558 60.1474C104.427 60.5412 103.044 60.4896 102.009 59.8583C101.837 59.7537 102.269 59.2521 102.467 59.349C103.277 59.749 104.156 60.0052 105.012 59.6833C105.333 59.563 105.545 59.274 105.534 58.9943C105.522 58.6755 105.273 58.4365 104.93 58.3755L103.144 58.0615C102.603 57.9662 102.206 57.5537 102.147 57.0615C102.083 56.5255 102.347 55.999 102.891 55.7521C103.872 55.3083 105.098 55.4349 106.036 55.9521C105.769 57.1052 104.964 55.6177 103.391 56.2349C103.134 56.3365 102.958 56.638 102.975 56.863C102.994 57.1099 103.208 57.3865 103.489 57.4412L105.428 57.8177C105.975 57.924 106.367 58.3849 106.381 58.888C106.395 59.3912 106.17 59.9349 105.558 60.1474Z" fill="#52B5C3"/>
<path d="M96.018 60.1589C94.482 60.6823 91.8539 60.1511 92.6867 59.4698C92.8211 59.3605 93.0289 59.3401 93.232 59.4511C94.357 60.0589 96.0805 59.9308 96.0273 58.9823C95.9773 58.0855 94.4336 58.3979 93.443 57.9776C92.9539 57.7698 92.6211 57.3698 92.6336 56.8745C92.6742 55.2042 95.4336 55.2558 96.4976 55.9214C96.3976 57.1339 95.6523 55.7167 94.007 56.1823C93.6664 56.2792 93.4773 56.5683 93.4883 56.873C93.4992 57.1776 93.7726 57.4183 94.1164 57.4792L95.8008 57.7729C96.3805 57.8745 96.8117 58.2542 96.8742 58.8276C96.9289 59.337 96.6633 59.9401 96.018 60.1605V60.1589Z" fill="#52B5C3"/>
<path d="M86.3777 59.2752C85.5699 59.2564 84.759 59.1783 83.9902 59.3033C83.684 59.4064 83.684 59.9486 83.5059 60.1751C83.3059 60.4267 82.9027 60.3423 82.623 60.2736L84.4824 56.2173C84.6027 55.9533 84.7027 55.722 84.959 55.672C85.2152 55.622 85.584 55.6283 85.7199 55.9267L87.709 60.2736C87.484 60.3033 87.1293 60.4283 86.9293 60.2611C86.6637 60.0392 86.6605 59.6548 86.3777 59.2752ZM86.1012 58.5658C85.7168 57.8361 85.6074 57.197 85.1121 56.6345L84.234 58.6002C84.8996 58.6502 85.4402 58.7158 86.1012 58.5658Z" fill="#52B5C3"/>
<path d="M67.098 59.2952C66.4574 59.0717 65.7887 59.2608 65.1715 59.1983C64.3262 59.1108 64.4496 60.2327 64.0605 60.2905C63.8465 60.3217 63.5184 60.3842 63.3965 60.1733L65.3027 56.0467C65.4215 55.7905 65.5887 55.6389 65.798 55.6202C66.0621 55.5967 66.3637 55.6499 66.4887 55.928L68.448 60.253C68.1668 60.3358 67.8512 60.3749 67.6574 60.2233C67.4027 60.0233 67.4324 59.4733 67.098 59.2967V59.2952ZM66.8621 58.5608C66.5043 57.8436 66.3574 57.2655 65.9059 56.5905C65.4824 57.2624 65.234 57.9139 64.9684 58.5858C65.6887 58.6061 66.2043 58.6514 66.8621 58.5608Z" fill="#52B5C3"/>
<path d="M61.4056 52.0675C60.6571 52.2081 59.9571 52.1143 59.154 52.1237C59.0103 51.419 59.0603 50.73 59.1196 49.9987C59.9087 49.9987 60.615 49.9347 61.3821 50.0347C61.4665 50.7034 61.4306 51.3112 61.404 52.069L61.4056 52.0675Z" fill="#28326E"/>
</g>
<defs>
<clipPath id="clip0_5865_951">
<rect width="169" height="60" fill="white"/>
</clipPath>
</defs>
</svg>
