<svg width="169" height="60" viewBox="0 0 169 60" fill="none" xmlns="http://www.w3.org/2000/svg">
<path d="M85.5705 43.6137H83.4205L79.2314 37.1199L79.3252 43.6137H77.5127V34.4355H79.658L83.833 40.9356L83.7674 34.4355H85.5705V43.6137Z" fill="black"/>
<path d="M89.834 34.4355H88.0215V43.6137H89.834V34.4355Z" fill="black"/>
<path d="M109.802 36.1465H104.281V37.973H107.986L107.972 39.6777H104.281V41.9074H109.802V43.6137H102.477V34.4355H109.802V36.1465Z" fill="black"/>
<path d="M133.608 43.6137H131.462L127.273 37.1199L127.367 43.6137H125.555V34.4355H127.7L131.875 40.9356L131.809 34.4355H133.608V43.6137Z" fill="black"/>
<path d="M143.345 36.1465H137.823V37.973H141.532L141.542 39.6777H137.823V41.9074H143.345V43.6137H136.024V34.4355H143.345V36.1465Z" fill="black"/>
<path d="M141.105 26.9758H138.271C137.032 26.9758 136.02 25.968 136.02 24.7242V16.1289H137.721V24.7242C137.721 25.0258 137.97 25.2758 138.273 25.2758H141.107C141.409 25.2758 141.659 25.0273 141.659 24.7242V20.0023H143.36V24.7242C143.36 25.9633 142.352 26.9758 141.109 26.9758" fill="black"/>
<path d="M131.585 26.9764H117.685C116.446 26.9764 115.434 25.9686 115.434 24.7248V20.0029H117.135V24.7248C117.135 25.0264 117.384 25.2764 117.687 25.2764H131.587C131.888 25.2764 132.138 25.0279 132.138 24.7248V20.0029H133.84V24.7248C133.84 25.9639 132.832 26.9764 131.588 26.9764" fill="black"/>
<path d="M114.227 27.5281C112.624 27.5281 111.317 26.2219 111.317 24.6187V20.5859H113.019V24.6187C113.019 25.2844 113.561 25.8266 114.227 25.8266C114.892 25.8266 115.435 25.2844 115.435 24.6187H117.136C117.136 26.2219 115.83 27.5281 114.227 27.5281Z" fill="black"/>
<path d="M110.112 26.9646C108.509 26.9646 107.203 25.6584 107.203 24.0553V21.1318H108.905V24.0553C108.905 24.7209 109.447 25.2631 110.112 25.2631C110.778 25.2631 111.32 24.7209 111.32 24.0553H113.022C113.022 25.6584 111.716 26.9646 110.112 26.9646Z" fill="black"/>
<path d="M104.188 30.0785C101.585 30.0785 99.4707 27.9598 99.4707 25.3613C99.4707 23.8957 100.136 22.5363 101.296 21.6348L102.339 22.977C101.597 23.5551 101.171 24.4207 101.171 25.3629C101.171 27.0285 102.525 28.3785 104.186 28.3785C105.847 28.3785 107.202 27.0238 107.202 25.3629V22.5285H108.904V25.3629C108.904 27.966 106.789 30.0801 104.186 30.0801" fill="black"/>
<path d="M82.2299 30.0783C79.6268 30.0783 77.5127 27.9596 77.5127 25.3611C77.5127 23.8955 78.1783 22.5361 79.3377 21.6346L80.3814 22.9768C79.6393 23.5549 79.2127 24.4205 79.2127 25.3627C79.2127 27.0283 80.5674 28.3783 82.2283 28.3783C83.8893 28.3783 85.2439 27.0236 85.2439 25.3627V20.0049H86.9455V25.3627C86.9455 27.9658 84.8314 30.0799 82.2283 30.0799" fill="black"/>
<path d="M92.3893 21.6422C91.3893 21.6422 90.5814 22.4547 90.5814 23.45C90.5814 24.4453 91.3939 25.2578 92.3893 25.2578C93.3846 25.2578 94.1971 24.4453 94.1971 23.45C94.1971 22.4547 93.3846 21.6422 92.3893 21.6422ZM92.3893 26.9641C90.4518 26.9641 88.8799 25.3922 88.8799 23.4547C88.8799 21.5172 90.4518 19.9453 92.3893 19.9453C94.3268 19.9453 95.8986 21.5219 95.8986 23.4547C95.8986 25.3875 94.3268 26.9641 92.3893 26.9641Z" fill="black"/>
<path d="M90.2344 30.0949V28.3934C92.8641 28.3934 94.2016 27.0605 94.2016 24.4262V23.5684H95.9031V24.4262C95.9031 27.9762 93.7844 30.0949 90.2344 30.0949Z" fill="black"/>
<path d="M131.235 28.1367H129.596V29.7758H131.235V28.1367Z" fill="black"/>
<path d="M83.0297 17.5186H81.3906V19.1576H83.0297V17.5186Z" fill="black"/>
<path d="M133.839 28.1367H132.2V29.7758H133.839V28.1367Z" fill="black"/>
<path d="M143.327 17.1816H141.688V18.8207H143.327V17.1816Z" fill="black"/>
<path d="M118.816 35.993C117.155 35.993 115.804 37.343 115.804 39.0055C115.804 40.668 117.154 42.018 118.816 42.018C120.479 42.018 121.829 40.668 121.829 39.0055C121.829 37.343 120.479 35.993 118.816 35.993ZM118.816 43.718C116.218 43.718 114.104 41.6039 114.104 39.0055C114.104 36.407 116.218 34.293 118.816 34.293C121.414 34.293 123.529 36.407 123.529 39.0055C123.529 41.6039 121.414 43.718 118.816 43.718Z" fill="black"/>
<path d="M96.5611 43.718C93.9627 43.718 91.8486 41.6039 91.8486 39.0055C91.8486 36.407 93.9627 34.293 96.5611 34.293C98.0455 34.293 99.458 35.0039 100.341 36.1945L98.9768 37.2117C98.3986 36.4383 97.5205 35.9945 96.5596 35.9945C94.8986 35.9945 93.5471 37.3445 93.5471 39.007C93.5471 40.6695 94.8971 42.0195 96.5596 42.0195C97.5986 42.0195 98.5502 41.4961 99.1096 40.6164L100.549 41.5273C99.6783 42.9039 98.1893 43.7211 96.5643 43.7211" fill="black"/>
<path d="M46.1275 9.76465C34.7604 9.76465 25.5166 19.0084 25.5166 30.3756C25.5166 41.7428 34.7604 50.9865 46.1275 50.9865C57.4947 50.9865 66.7385 41.7381 66.7385 30.3756C66.7385 19.0131 57.49 9.76465 46.1275 9.76465ZM46.1275 48.5881C36.0838 48.5881 27.915 40.4146 27.915 30.3756C27.915 20.3365 36.0838 12.1631 46.1275 12.1631C56.1713 12.1631 64.34 20.3365 64.34 30.3756C64.34 40.4146 56.1713 48.5881 46.1275 48.5881Z" fill="black"/>
<path d="M55.9504 19.4131V36.399L41.3582 21.8115H38.8348V24.335H36.3066V19.4131L42.3707 19.4162L53.5519 30.5975V19.4131H55.9504Z" fill="black"/>
<path d="M53.4441 36.416H55.9504V41.3379H49.9176L38.7051 30.127V41.3379H36.3066V24.3379L50.9176 38.9441H53.4441V36.416Z" fill="black"/>
<path d="M55.9674 36.4156H55.9502V36.3984L55.9674 36.4156Z" fill="black"/>
</svg>
