<svg width="169" height="60" viewBox="0 0 169 60" fill="none" xmlns="http://www.w3.org/2000/svg">
<path d="M85.4455 42.7699H83.2955L79.1064 36.2762L79.2002 42.7699H77.3877V33.5918H79.533L83.708 40.0918L83.6424 33.5918H85.4455V42.7699Z" fill="#BBC3D0"/>
<path d="M89.709 33.5918H87.8965V42.7699H89.709V33.5918Z" fill="#BBC3D0"/>
<path d="M109.677 35.3027H104.156V37.1293H107.861L107.847 38.834H104.156V41.0637H109.677V42.7699H102.352V33.5918H109.677V35.3027Z" fill="#BBC3D0"/>
<path d="M133.483 42.7699H131.337L127.148 36.2762L127.242 42.7699H125.43V33.5918H127.575L131.75 40.0918L131.684 33.5918H133.483V42.7699Z" fill="#BBC3D0"/>
<path d="M143.22 35.3027H137.698V37.1293H141.407L141.417 38.834H137.698V41.0637H143.22V42.7699H135.899V33.5918H143.22V35.3027Z" fill="#BBC3D0"/>
<path d="M140.98 26.132H138.146C136.907 26.132 135.895 25.1242 135.895 23.8805V15.2852H137.596V23.8805C137.596 24.182 137.845 24.432 138.148 24.432H140.982C141.284 24.432 141.534 24.1836 141.534 23.8805V19.1586H143.235V23.8805C143.235 25.1195 142.227 26.132 140.984 26.132" fill="#BBC3D0"/>
<path d="M131.46 26.1336H117.56C116.321 26.1336 115.309 25.1258 115.309 23.882V19.1602H117.01V23.882C117.01 24.1836 117.259 24.4336 117.562 24.4336H131.462C131.763 24.4336 132.013 24.1852 132.013 23.882V19.1602H133.715V23.882C133.715 25.1211 132.707 26.1336 131.463 26.1336" fill="#BBC3D0"/>
<path d="M114.102 26.6844C112.499 26.6844 111.192 25.3781 111.192 23.775V19.7422H112.894V23.775C112.894 24.4406 113.436 24.9828 114.102 24.9828C114.767 24.9828 115.31 24.4406 115.31 23.775H117.011C117.011 25.3781 115.705 26.6844 114.102 26.6844Z" fill="#BBC3D0"/>
<path d="M109.987 26.1209C108.384 26.1209 107.078 24.8146 107.078 23.2115V20.2881H108.78V23.2115C108.78 23.8771 109.322 24.4193 109.987 24.4193C110.653 24.4193 111.195 23.8771 111.195 23.2115H112.897C112.897 24.8146 111.591 26.1209 109.987 26.1209Z" fill="#BBC3D0"/>
<path d="M104.063 29.2348C101.46 29.2348 99.3457 27.116 99.3457 24.5176C99.3457 23.052 100.011 21.6926 101.171 20.791L102.214 22.1332C101.472 22.7113 101.046 23.577 101.046 24.5191C101.046 26.1848 102.4 27.5348 104.061 27.5348C105.722 27.5348 107.077 26.1801 107.077 24.5191V21.6848H108.779V24.5191C108.779 27.1223 106.664 29.2363 104.061 29.2363" fill="#BBC3D0"/>
<path d="M82.1049 29.2346C79.5018 29.2346 77.3877 27.1158 77.3877 24.5174C77.3877 23.0518 78.0533 21.6924 79.2127 20.7908L80.2564 22.133C79.5143 22.7111 79.0877 23.5768 79.0877 24.5189C79.0877 26.1846 80.4424 27.5346 82.1033 27.5346C83.7643 27.5346 85.1189 26.1799 85.1189 24.5189V19.1611H86.8205V24.5189C86.8205 27.1221 84.7064 29.2361 82.1033 29.2361" fill="#BBC3D0"/>
<path d="M92.2643 20.7984C91.2643 20.7984 90.4564 21.6109 90.4564 22.6062C90.4564 23.6016 91.2689 24.4141 92.2643 24.4141C93.2596 24.4141 94.0721 23.6016 94.0721 22.6062C94.0721 21.6109 93.2596 20.7984 92.2643 20.7984ZM92.2643 26.1203C90.3268 26.1203 88.7549 24.5484 88.7549 22.6109C88.7549 20.6734 90.3268 19.1016 92.2643 19.1016C94.2018 19.1016 95.7736 20.6781 95.7736 22.6109C95.7736 24.5437 94.2018 26.1203 92.2643 26.1203Z" fill="#BBC3D0"/>
<path d="M90.1094 29.2512V27.5496C92.7391 27.5496 94.0766 26.2168 94.0766 23.5824V22.7246H95.7781V23.5824C95.7781 27.1324 93.6594 29.2512 90.1094 29.2512Z" fill="#BBC3D0"/>
<path d="M131.11 27.293H129.471V28.932H131.11V27.293Z" fill="#BBC3D0"/>
<path d="M82.9047 16.6748H81.2656V18.3139H82.9047V16.6748Z" fill="#BBC3D0"/>
<path d="M133.714 27.293H132.075V28.932H133.714V27.293Z" fill="#BBC3D0"/>
<path d="M143.202 16.3379H141.562V17.977H143.202V16.3379Z" fill="#BBC3D0"/>
<path d="M118.691 35.1492C117.03 35.1492 115.679 36.4992 115.679 38.1617C115.679 39.8242 117.029 41.1742 118.691 41.1742C120.354 41.1742 121.704 39.8242 121.704 38.1617C121.704 36.4992 120.354 35.1492 118.691 35.1492ZM118.691 42.8742C116.093 42.8742 113.979 40.7602 113.979 38.1617C113.979 35.5633 116.093 33.4492 118.691 33.4492C121.289 33.4492 123.404 35.5633 123.404 38.1617C123.404 40.7602 121.289 42.8742 118.691 42.8742Z" fill="#BBC3D0"/>
<path d="M96.4361 42.8742C93.8377 42.8742 91.7236 40.7602 91.7236 38.1617C91.7236 35.5633 93.8377 33.4492 96.4361 33.4492C97.9205 33.4492 99.333 34.1602 100.216 35.3508L98.8518 36.368C98.2736 35.5945 97.3955 35.1508 96.4346 35.1508C94.7736 35.1508 93.4221 36.5008 93.4221 38.1633C93.4221 39.8258 94.7721 41.1758 96.4346 41.1758C97.4736 41.1758 98.4252 40.6523 98.9846 39.7727L100.424 40.6836C99.5533 42.0602 98.0643 42.8773 96.4393 42.8773" fill="#BBC3D0"/>
<path d="M46.0025 8.9209C34.6354 8.9209 25.3916 18.1646 25.3916 29.5318C25.3916 40.899 34.6354 50.1428 46.0025 50.1428C57.3697 50.1428 66.6135 40.8943 66.6135 29.5318C66.6135 18.1693 57.365 8.9209 46.0025 8.9209ZM46.0025 47.7443C35.9588 47.7443 27.79 39.5709 27.79 29.5318C27.79 19.4928 35.9588 11.3193 46.0025 11.3193C56.0463 11.3193 64.215 19.4928 64.215 29.5318C64.215 39.5709 56.0463 47.7443 46.0025 47.7443Z" fill="#BBC3D0"/>
<path d="M55.8254 18.5693V35.5553L41.2332 20.9678H38.7098V23.4912H36.1816V18.5693L42.2457 18.5725L53.4269 29.7537V18.5693H55.8254Z" fill="#BBC3D0"/>
<path d="M53.3191 35.5723H55.8254V40.4941H49.7926L38.5801 29.2832V40.4941H36.1816V23.4941L50.7926 38.1004H53.3191V35.5723Z" fill="#BBC3D0"/>
<path d="M55.8424 35.5719H55.8252V35.5547L55.8424 35.5719Z" fill="#BBC3D0"/>
</svg>
