<svg width="169" height="60" viewBox="0 0 169 60" fill="none" xmlns="http://www.w3.org/2000/svg">
<g clip-path="url(#clip0_5865_845)">
<path d="M104.798 7.1707L97.7012 14.2473L97.7074 23.8363L86.6762 23.8191V10.0238H83.5184L81.073 12.4629V23.8176L71.1387 23.8348V8.61289H67.9809L65.5355 11.052V23.841L55.7434 23.8348L50.4355 29.1457H118.44V7.1707L104.8 7.16602L104.798 7.1707ZM112.828 23.8348H103.328V16.6566L107.357 12.4801H112.828V23.8348Z" fill="#000F44"/>
<path d="M97.7027 36.8096V60.0643H112.348L118.429 53.983V36.8111H97.7012L97.7027 36.8096ZM112.823 51.5564L109.395 55.1096H103.326V41.7752H112.821V51.558L112.823 51.5564Z" fill="#000F44"/>
<path d="M84.457 42.9789L78.2836 36.8086H72.1211L81.568 46.2555L81.6195 46.2633V57.6258L84.0633 60.0648H87.2586V46.2633L87.307 46.2555L88.0117 45.5523L96.7555 36.8086H90.6305L84.457 42.9789Z" fill="#000F44"/>
<path d="M71.1621 55.082V42.893L71.1418 42.8727V36.8086H65.059L65.0637 36.8133L50.4355 36.8086V53.9711L56.5184 60.0539H77.5449L74.2699 55.082H71.1637H71.1621ZM65.534 55.082H59.5387L56.0574 51.7242V41.7914H65.534V55.082Z" fill="#000F44"/>
<path d="M118.439 0.686523H111.311L105.982 5.99902H118.429L118.439 0.686523Z" fill="#000F44"/>
<path d="M86.677 30.3213H79.5488L74.2207 35.6338H86.6676L86.677 30.3213Z" fill="#000F44"/>
</g>
<defs>
<clipPath id="clip0_5865_845">
<rect width="169" height="60" fill="white"/>
</clipPath>
</defs>
</svg>
