<svg width="169" height="60" viewBox="0 0 169 60" fill="none" xmlns="http://www.w3.org/2000/svg">
<g clip-path="url(#clip0_5868_2396)">
<path d="M80.9928 45.5844C81.6006 45.6109 81.8303 45.2281 81.8318 44.7313L81.8443 38.5672C82.61 38.5 83.2662 38.4984 84.0334 38.5703L84.0178 45.6141C84.0178 46.2391 83.7381 46.9047 83.2209 47.2063C82.7037 47.5078 82.1272 47.5922 81.4772 47.5922L54.9678 47.5875C53.6537 47.5875 52.8506 46.6219 52.849 45.5172L52.835 39.8344C53.5865 39.7078 54.3084 39.7125 55.0756 39.8344L55.1084 44.9578C55.11 45.2938 55.3678 45.5656 55.7209 45.5656L64.4959 45.5734C64.9396 45.5734 65.2053 45.2781 65.2068 44.8453L65.224 38.5766C65.9725 38.4984 66.6818 38.4953 67.4303 38.5766L67.4443 44.9563C67.4443 45.3016 67.71 45.5719 68.0475 45.5719L71.2787 45.5687C71.56 45.5687 71.8334 45.3375 71.8365 45.0531L71.8881 40.0969C72.6584 40.0797 73.3037 40.0438 74.0256 40.1203L74.0584 44.9547C74.06 45.3078 74.3725 45.575 74.71 45.575L76.285 45.5719C76.6303 45.5719 76.8803 45.3078 76.8818 44.9578L76.9162 40.1016C77.6678 40.0688 78.3162 40.0547 79.0381 40.1141L79.0443 44.8562C79.0443 45.8062 80.0584 45.5469 80.999 45.5875L80.9928 45.5844Z" fill="#BBC3D0"/>
<path d="M100.776 39.2141C101.192 39.2141 101.485 39.4875 101.487 39.8453L101.503 44.9297C101.503 45.2922 101.812 45.5609 102.162 45.5609H105.84C106.248 45.5609 106.512 45.2266 106.512 44.8375L106.523 39.1844C106.523 38.8078 106.834 38.5703 107.19 38.5703L114.72 38.5641C115.137 38.5641 115.503 38.8437 115.503 39.2844V46.8453C115.503 47.2141 115.206 47.5234 114.842 47.525L108.463 47.5562L88.7416 47.5875C88.1338 47.5875 87.501 47.3984 87.1197 47.0062C86.6916 46.5656 86.5557 45.9094 86.5557 45.2812V34.0187C87.3135 33.9375 88.015 33.9312 88.7947 34.0203L88.8104 44.9484C88.8104 45.3422 89.1135 45.5656 89.5041 45.5641L98.6104 45.5609C99.0619 45.5609 99.3104 45.2719 99.3104 44.8453L99.3057 41.7266C99.3057 41.3875 99.0854 41.1219 98.7244 41.1203L94.3213 41.0984C93.6713 41.0953 93.9322 40.0297 93.9447 39.4875L98.6729 33.9531C99.2729 34.3109 99.7682 34.7594 100.27 35.2641L97.3572 38.7156C97.276 38.8125 97.2713 38.9297 97.2869 38.9953C97.3135 39.1078 97.4432 39.2234 97.6088 39.2234L100.781 39.2125L100.776 39.2141ZM113.506 40.4172H108.49V45.5984H113.506V40.4172Z" fill="#BBC3D0"/>
<path d="M95.3105 17.8483L95.3293 26.3795C95.3324 27.7842 94.3418 28.9092 92.9324 29.078L73.6027 29.0514C72.3762 29.0499 71.2184 27.942 71.2168 26.7139L71.1855 7.39672C71.2918 5.97016 72.4043 4.94047 73.8293 4.94829L82.0152 4.99047L76.4855 10.2202L76.4809 23.2639C76.4809 23.6061 76.7309 23.7733 77.0574 23.7498L90.0402 23.7436L95.3121 17.8467L95.3105 17.8483Z" fill="#BBC3D0"/>
<path d="M100.619 11.6906L95.3186 17.6766L95.2826 5.00313L82.0342 4.9625L87.417 -0.384376L98.0514 -0.398438C99.4232 -0.264062 100.454 0.687499 100.615 2.05156L100.62 11.6891L100.619 11.6906Z" fill="#BBC3D0"/>
<path d="M57.3662 56.3839L55.8818 58.8026C55.7365 59.0401 55.2943 58.9761 55.1506 58.7636C54.6365 58.0011 54.3256 57.2089 53.6928 56.3979L53.5787 59.5495C53.3334 59.5792 53.035 59.6386 52.835 59.4886V55.0823C52.9881 54.8339 53.5459 54.6932 53.71 54.962L55.5709 58.0229L57.2303 55.1307C57.3381 54.9417 57.4912 54.8511 57.6631 54.8401C57.8115 54.8307 58.185 54.8604 58.185 55.1198L58.2037 59.4854C58.0256 59.6557 57.6897 59.5792 57.4662 59.5229L57.3662 56.3839Z" fill="#BBC3D0"/>
<path d="M115.456 57.423C115.444 57.3793 115.836 59.5777 115.045 59.5762L111.747 59.5684C111.464 59.5684 111.272 59.3605 111.273 59.0793L111.28 55.2887C111.28 55.0012 111.614 54.8152 111.878 54.8152L114.908 54.8105C115.056 54.8105 115.352 54.9074 115.358 55.0824C115.38 55.6277 115.456 56.1934 115.339 56.7152C115.269 57.034 115.378 57.148 115.456 57.423ZM114.573 56.8121C114.627 56.2465 114.688 55.8277 114.513 55.4106C113.702 55.384 112.978 55.3652 112.184 55.4199C112.013 55.8902 112.016 56.3762 112.166 56.8402C112.997 56.8934 113.755 56.9402 114.573 56.8105V56.8121ZM114.681 59.0105C114.733 58.4246 114.758 57.9746 114.664 57.4777C113.802 57.4262 113.002 57.4152 112.153 57.4824C112.019 57.9996 112.044 58.4855 112.128 59.0105C112.991 59.084 113.798 59.084 114.681 59.0105Z" fill="#BBC3D0"/>
<path d="M77.9201 59.5155C77.7061 59.5765 77.2342 59.6858 77.0436 59.503C76.6248 59.178 75.6154 57.3452 75.2217 57.3905C75.0857 57.4062 74.9389 57.4812 74.8404 57.6358C74.442 58.2671 74.1842 57.4171 74.1764 59.528C73.9186 59.5874 73.642 59.628 73.3779 59.5187L73.4014 54.8843C73.5639 54.7546 74.0951 54.7343 74.1482 54.914C74.3217 55.4983 74.0592 56.6999 74.3279 56.8546C74.4451 56.9218 74.6357 56.9202 74.7623 56.803L76.8311 54.8812C77.0342 54.6921 77.5404 54.7718 77.7467 54.9093C77.067 55.5437 76.4561 56.0671 75.8826 56.7312L77.9186 59.5155H77.9201Z" fill="#BBC3D0"/>
<path d="M105.433 59.3974C104.302 59.7912 102.919 59.7396 101.884 59.1083C101.712 59.0037 102.144 58.5021 102.342 58.599C103.152 58.999 104.031 59.2552 104.887 58.9333C105.208 58.813 105.42 58.524 105.409 58.2443C105.397 57.9255 105.148 57.6865 104.805 57.6255L103.019 57.3115C102.478 57.2162 102.081 56.8037 102.022 56.3115C101.958 55.7755 102.222 55.249 102.766 55.0021C103.747 54.5583 104.973 54.6849 105.911 55.2021C105.644 56.3552 104.839 54.8677 103.266 55.4849C103.009 55.5865 102.833 55.888 102.85 56.113C102.869 56.3599 103.083 56.6365 103.364 56.6912L105.303 57.0677C105.85 57.174 106.242 57.6349 106.256 58.138C106.27 58.6412 106.045 59.1849 105.433 59.3974Z" fill="#BBC3D0"/>
<path d="M95.893 59.4089C94.357 59.9323 91.7289 59.4011 92.5617 58.7198C92.6961 58.6105 92.9039 58.5901 93.107 58.7011C94.232 59.3089 95.9555 59.1808 95.9023 58.2323C95.8523 57.3355 94.3086 57.6479 93.318 57.2276C92.8289 57.0198 92.4961 56.6198 92.5086 56.1245C92.5492 54.4542 95.3086 54.5058 96.3726 55.1714C96.2726 56.3839 95.5273 54.9667 93.882 55.4323C93.5414 55.5292 93.3523 55.8183 93.3633 56.123C93.3742 56.4276 93.6476 56.6683 93.9914 56.7292L95.6758 57.0229C96.2555 57.1245 96.6867 57.5042 96.7492 58.0776C96.8039 58.587 96.5383 59.1901 95.893 59.4105V59.4089Z" fill="#BBC3D0"/>
<path d="M86.2527 58.5252C85.4449 58.5064 84.634 58.4283 83.8652 58.5533C83.559 58.6564 83.559 59.1986 83.3809 59.4251C83.1809 59.6767 82.7777 59.5923 82.498 59.5236L84.3574 55.4673C84.4777 55.2033 84.5777 54.972 84.834 54.922C85.0902 54.872 85.459 54.8783 85.5949 55.1767L87.584 59.5236C87.359 59.5533 87.0043 59.6783 86.8043 59.5111C86.5387 59.2892 86.5355 58.9048 86.2527 58.5252ZM85.9762 57.8158C85.5918 57.0861 85.4824 56.447 84.9871 55.8845L84.109 57.8502C84.7746 57.9002 85.3152 57.9658 85.9762 57.8158Z" fill="#BBC3D0"/>
<path d="M66.973 58.5452C66.3324 58.3217 65.6637 58.5108 65.0465 58.4483C64.2012 58.3608 64.3246 59.4827 63.9355 59.5405C63.7215 59.5717 63.3934 59.6342 63.2715 59.4233L65.1777 55.2967C65.2965 55.0405 65.4637 54.8889 65.673 54.8702C65.9371 54.8467 66.2387 54.8999 66.3637 55.178L68.323 59.503C68.0418 59.5858 67.7262 59.6249 67.5324 59.4733C67.2777 59.2733 67.3074 58.7233 66.973 58.5467V58.5452ZM66.7371 57.8108C66.3793 57.0936 66.2324 56.5155 65.7809 55.8405C65.3574 56.5124 65.109 57.1639 64.8434 57.8358C65.5637 57.8561 66.0793 57.9014 66.7371 57.8108Z" fill="#BBC3D0"/>
<path d="M61.2806 51.3175C60.5321 51.4581 59.8321 51.3643 59.029 51.3737C58.8853 50.669 58.9353 49.98 58.9946 49.2487C59.7837 49.2487 60.49 49.1847 61.2571 49.2847C61.3415 49.9534 61.3056 50.5612 61.279 51.319L61.2806 51.3175Z" fill="#BBC3D0"/>
</g>
<defs>
<clipPath id="clip0_5868_2396">
<rect width="169" height="60" fill="white"/>
</clipPath>
</defs>
</svg>
