<svg width="169" height="60" viewBox="0 0 169 60" fill="none" xmlns="http://www.w3.org/2000/svg">
<path d="M136.81 37.4641C135.324 36.0266 134.441 35.05 134.441 35.05C136.329 25.8922 132.37 22.8328 129.487 20.0453C128.949 19.5297 126.307 16.9797 125.134 15.8438L121.085 19.8312C122.105 20.8484 127.39 25.9719 128.505 27.0516C130.762 29.2359 131.726 31.2141 131.437 35.6141C131.252 38.4656 129.638 40.9516 129.638 40.9516L129.109 40.4188C129.301 39.6328 129.446 38.8937 129.566 38.2344C130.145 35.7328 130.377 31.1812 127.149 28.0672L119.76 20.9656C118.635 21.9594 117.318 23.8406 116.588 25.7641C115.473 28.7187 114.146 34.0172 118.387 38.1C118.443 38.1562 123.293 42.7937 124.073 43.5484C120.788 54.0578 112.621 55.2484 112.621 55.2484C120.901 55.2484 124.41 50.9109 126.901 46.2812C128.643 47.9656 136.298 55.3609 136.298 55.3609C137.423 54.3766 138.884 52.6359 139.615 50.7062C140.73 47.7516 141.759 42.2469 136.812 37.4734V37.4656L136.81 37.4641ZM125.196 36.5906C121.848 33.35 120.538 32.0875 120.209 31.7766C117.695 29.3453 118.321 27.5187 118.321 27.5187C118.595 27.7812 118.876 28.0422 119.157 28.2969C121.237 30.3063 122.065 31.0922 122.065 31.0922C123.462 32.45 125.045 34.5156 125.205 36.3828C125.205 36.4547 125.205 36.525 125.198 36.5969V36.5891L125.196 36.5906ZM137.862 48.9031C136.48 47.5687 133.718 44.8922 130.779 42.0484L131.807 40.5625C131.807 40.5625 134.265 42.9219 136.055 44.6531C138.28 46.8062 137.943 48.5375 137.862 48.8953V48.9031Z" fill="#4C4A27"/>
<path d="M111.718 54.5027C111.718 54.5027 111.677 54.4152 111.669 54.3043V54.1934C111.636 54.0105 111.597 53.9387 111.469 53.9152C111.613 53.8668 111.694 53.7559 111.694 53.598C111.694 53.4715 111.646 53.3762 111.541 53.3199C111.477 53.2731 111.397 53.2637 111.275 53.2637H110.682V54.5184H110.85V53.9777H111.188C111.268 53.9777 111.324 53.9777 111.364 53.9934C111.454 54.0246 111.493 54.1121 111.5 54.2715V54.3746C111.5 54.4465 111.516 54.4934 111.541 54.5168H111.733L111.718 54.5012V54.5027ZM111.411 53.8043C111.363 53.8356 111.299 53.8434 111.171 53.8356H110.849V53.4059H111.218C111.427 53.4059 111.514 53.4699 111.514 53.6199C111.514 53.7074 111.482 53.7621 111.418 53.8027H111.41L111.411 53.8043Z" fill="#152A54"/>
<path d="M125.836 5.38965L121.396 9.67871L125.836 13.9678L130.286 9.67871L125.836 5.38965Z" fill="#9E9070"/>
<path d="M111.155 52.5244C110.375 52.5244 109.75 53.1354 109.75 53.8822C109.75 54.6291 110.384 55.2479 111.155 55.2479C111.925 55.2479 112.569 54.6369 112.569 53.8822C112.569 53.1275 111.934 52.5244 111.155 52.5244ZM111.155 55.1291C110.448 55.1291 109.878 54.5729 109.878 53.89C109.878 53.2072 110.448 52.651 111.155 52.651C111.861 52.651 112.439 53.2072 112.439 53.89C112.439 54.5729 111.869 55.1291 111.155 55.1291Z" fill="#9E9070"/>
<path d="M33.6711 38.4102V44.1852L29.318 38.4102H28.4102V45.8445H29.4133V40.0695L33.7664 45.8445H34.682V38.4102H33.6695H33.6711Z" fill="#A08A59"/>
<path d="M43.2207 40.1969C42.8754 39.6094 42.4098 39.1484 41.8238 38.8063C41.2223 38.4484 40.5707 38.2734 39.8801 38.2734C39.1895 38.2734 38.5301 38.4484 37.9285 38.8063C37.3504 39.1406 36.8926 39.6078 36.5395 40.1969C36.1863 40.8 36.0098 41.4438 36.0098 42.1344C36.0098 42.825 36.1863 43.4687 36.5395 44.0719C36.8848 44.6516 37.3504 45.1125 37.9363 45.4547C38.5379 45.8125 39.1895 45.9875 39.8723 45.9875C40.5551 45.9875 41.2129 45.8125 41.816 45.4547C42.402 45.1125 42.8676 44.6516 43.2129 44.0719C43.566 43.4687 43.7426 42.825 43.7426 42.1344C43.7426 41.4438 43.566 40.8 43.2129 40.1969H43.2207ZM41.9832 44.0891C41.4207 44.7328 40.7223 45.0578 39.8707 45.0578C39.1395 45.0578 38.5051 44.8031 37.9676 44.2953C37.3332 43.7156 37.0191 42.9922 37.0191 42.1344C37.0191 41.3797 37.2598 40.7281 37.7504 40.1719C38.3207 39.5281 39.027 39.2109 39.8707 39.2109C40.6098 39.2109 41.2441 39.4578 41.7816 39.9578C42.416 40.5375 42.7207 41.2609 42.7207 42.1344C42.7207 42.8734 42.4801 43.525 41.9738 44.0891H41.9816H41.9832Z" fill="#A08A59"/>
<path d="M51.3867 38.4102L48.7289 43.1133L46.0711 38.4102H45.043V45.8445H46.0477V40.2211L48.3117 44.2242H49.1477L51.4117 40.2367V45.8523H52.4164V38.418H51.3883V38.4102H51.3867Z" fill="#A08A59"/>
<path d="M62.076 38.4102L60.3494 44.2805L58.6463 38.4102H57.7635L56.0604 44.2805L54.3416 38.4102H53.29L55.5713 45.8445H56.551L58.2057 40.1977L59.8682 45.8445H60.8479L63.1213 38.4102H62.0775H62.076Z" fill="#A08A59"/>
<path d="M72.3809 44.0412C72.0121 44.4068 71.6746 44.6693 71.3449 44.8193C71.023 44.9787 70.6543 45.0568 70.2371 45.0568C69.4902 45.0568 68.848 44.8021 68.309 44.31C67.6746 43.7381 67.3621 43.0146 67.3621 42.1334C67.3621 41.3709 67.6027 40.7115 68.0934 40.1631C68.6637 39.5272 69.3777 39.21 70.2449 39.21C70.6621 39.21 71.0324 39.2818 71.3449 39.4318C71.6668 39.5756 71.9949 39.8365 72.3402 40.2022L73.0387 39.5193C72.5965 39.0818 72.1559 38.7568 71.7137 38.5662C71.2793 38.3678 70.7902 38.2646 70.2434 38.2646C69.5371 38.2646 68.8699 38.4397 68.2684 38.7975C67.6824 39.1318 67.2168 39.5912 66.8715 40.1803C66.5184 40.7678 66.3418 41.4193 66.3418 42.135C66.3418 42.8506 66.5184 43.485 66.8715 44.0897C67.2168 44.6693 67.6824 45.1303 68.2684 45.4725C68.8793 45.8225 69.5449 45.9959 70.2527 45.9959C70.798 45.9959 71.2887 45.8928 71.7309 45.6943C72.173 45.4959 72.623 45.1615 73.0715 44.7256L72.373 44.0428H72.3809V44.0412Z" fill="#A08A59"/>
<path d="M77.592 38.4102H76.3389L73.4717 45.8445H74.5154L75.2701 43.8352H78.6186L79.3889 45.8445H80.4498L77.5826 38.4102H77.5904H77.592ZM75.6326 42.9227L76.9498 39.4195L78.2826 42.9227H75.6326Z" fill="#A08A59"/>
<path d="M85.351 39.5764C85.1666 39.2029 84.8932 38.9092 84.54 38.7186C84.1713 38.5123 83.6494 38.4014 82.9588 38.4014H81.3525V45.8357H82.3557V42.8967H82.9494C83.64 42.8967 84.1619 42.7936 84.5322 42.5795C84.8369 42.4123 85.0775 42.167 85.2635 41.8561C85.4807 41.4904 85.5932 41.0857 85.5932 40.6404C85.5932 40.2514 85.5041 39.9014 85.3447 39.5686L85.3525 39.5764H85.351ZM84.4432 41.3482C84.3385 41.5467 84.1947 41.7061 84.0088 41.8092C83.7838 41.9357 83.4713 41.9998 83.0619 41.9998H82.3635V39.3232H83.0619C83.4791 39.3232 83.801 39.3873 84.026 39.5139C84.4197 39.7279 84.6119 40.1092 84.6119 40.6576C84.6119 40.9123 84.5635 41.142 84.451 41.3404L84.4432 41.3482Z" fill="#A08A59"/>
<path d="M86.6201 38.4102V45.8445H87.6248V38.4102H86.6201Z" fill="#A08A59"/>
<path d="M88.5059 38.4102V39.3398H90.4168V45.8461H91.4293V39.3398H93.3402V38.4102H88.5059Z" fill="#A08A59"/>
<path d="M96.9641 38.4102H95.7109L92.8438 45.8445H93.8953L94.65 43.8352H97.9984L98.7687 45.8445H99.8297L96.9625 38.4102H96.9641ZM94.9969 42.9227L96.3141 39.4195L97.6469 42.9227H94.9969Z" fill="#A08A59"/>
<path d="M101.733 44.9242V38.4102H100.729V45.8445H104.599V44.9227H101.732L101.733 44.9242Z" fill="#A08A59"/>
<path d="M36.2002 30.625V31.9031H38.6174V30.625H36.2002Z" fill="#152A54"/>
<path d="M38.2812 30.625V31.9031H38.7391V30.625H38.2812Z" fill="#152A54"/>
<path d="M38.3936 30.625V31.9031H40.8107V30.625H38.3936Z" fill="#152A54"/>
<path d="M36.2004 30.625C35.6785 30.625 35.2613 30.4734 34.9473 30.1797C34.5941 29.8297 34.4176 29.3062 34.4176 28.6156V24.1438H33.0285V24.8594H31.9691C30.9488 24.8594 30.1223 25.1219 29.4707 25.6531C28.716 26.2641 28.3379 27.1313 28.3379 28.25C28.3379 29.2031 28.5941 29.9734 29.1082 30.5609C29.6629 31.1969 30.402 31.5141 31.316 31.5141C32.1754 31.5141 32.8988 31.2359 33.5082 30.6797C34.0457 31.5063 34.8973 31.9188 36.0613 31.9188H36.5426V30.6406H36.1973V30.625H36.2004ZM31.391 30.2594C30.9098 30.2594 30.5238 30.0922 30.2426 29.7672C29.9051 29.4016 29.7441 28.8781 29.7441 28.2031C29.7441 27.575 29.9129 27.0828 30.2426 26.7344C30.6441 26.3047 31.2379 26.0984 32.0176 26.0984H33.0301V28.8156C33.0301 29.1016 33.0535 29.3484 33.0941 29.5625C32.5395 30.0312 31.9613 30.2609 31.3832 30.2609H31.391V30.2594ZM30.8848 21.8953C30.7082 21.7281 30.4988 21.6484 30.2582 21.6484C30.0176 21.6484 29.8082 21.7359 29.6316 21.8953C29.4551 22.0547 29.366 22.2453 29.366 22.4594C29.366 22.6734 29.4551 22.8719 29.6316 23.0391C29.8082 23.2062 30.0176 23.2766 30.2582 23.2766C30.4988 23.2766 30.7082 23.1969 30.8848 23.0391C31.0613 22.8719 31.1504 22.6813 31.1504 22.4594C31.1504 22.2375 31.0613 22.0625 30.8848 21.8953ZM32.9566 21.8875C32.7801 21.7203 32.5707 21.65 32.3301 21.65C32.0895 21.65 31.8801 21.7375 31.7035 21.8969C31.5191 22.0641 31.4379 22.2469 31.4379 22.4609C31.4379 22.675 31.527 22.8734 31.7035 23.0406C31.8801 23.2078 32.0816 23.2781 32.3301 23.2781C32.5785 23.2781 32.7801 23.1984 32.9566 23.0406C33.1332 22.8734 33.2223 22.6828 33.2223 22.4609C33.2223 22.2391 33.1332 22.0484 32.9566 21.8969V21.8891V21.8875Z" fill="#474328"/>
<path d="M45.8143 30.6242C45.2846 30.6242 44.8752 30.4727 44.5611 30.1789C44.2002 29.8289 44.0236 29.3055 44.0236 28.6148V25.2383H42.5861V28.6148C42.5861 29.218 42.4502 29.6867 42.1689 30.0367C41.8643 30.4336 41.4064 30.6242 40.7955 30.6242H40.458V31.9023H40.9314C41.9674 31.9023 42.7627 31.5695 43.3002 30.9008C43.8377 31.568 44.6252 31.9023 45.6611 31.9023H46.1346V30.6242H45.7971H45.8127H45.8143ZM42.6502 33.357C42.4736 33.1898 42.2721 33.1102 42.0236 33.1102C41.7752 33.1102 41.5736 33.1898 41.3971 33.357C41.2205 33.5242 41.1314 33.7148 41.1314 33.9289C41.1314 34.143 41.2205 34.3258 41.3971 34.493C41.5736 34.6602 41.783 34.7398 42.0236 34.7398C42.2643 34.7398 42.4736 34.6602 42.6502 34.493C42.8346 34.3258 42.9158 34.143 42.9158 33.9289C42.9158 33.7148 42.8268 33.5164 42.6502 33.357ZM44.7221 33.357C44.5455 33.1898 44.3361 33.1102 44.0955 33.1102C43.8549 33.1102 43.6455 33.1898 43.4689 33.357C43.2924 33.5242 43.2033 33.7148 43.2033 33.9289C43.2033 34.143 43.2924 34.3258 43.4689 34.493C43.6455 34.6602 43.8549 34.7398 44.0955 34.7398C44.3361 34.7398 44.5455 34.6602 44.7221 34.5023C44.8986 34.343 44.9877 34.1523 44.9877 33.9305C44.9877 33.7086 44.8986 33.518 44.7221 33.3586V33.357Z" fill="#474328"/>
<path d="M47.9191 21.3639V28.6154C47.9191 29.2264 47.7832 29.7029 47.502 30.0373C47.1895 30.4264 46.7395 30.6248 46.152 30.6248H45.8145V31.9029H46.2723C47.1316 31.9029 47.8301 31.6811 48.3598 31.2514C49.0098 30.7029 49.3395 29.8936 49.3395 28.8123V21.3623H47.9176L47.9191 21.3639Z" fill="#474328"/>
<path d="M55.5793 30.6252C54.9043 30.6252 54.4309 30.483 54.1496 30.1971C53.9012 29.9189 53.7715 29.4346 53.7715 28.7518V21.3564H52.334V29.1486C52.334 29.9908 52.5668 30.6502 53.0324 31.1268C53.5621 31.6424 54.3246 31.9049 55.3293 31.9049H55.9637V30.6268H55.5699H55.5777L55.5793 30.6252Z" fill="#474328"/>
<path d="M66.0852 30.6254C64.9445 30.6254 64.3742 29.927 64.3742 28.5207C64.3742 27.9098 64.2852 27.377 64.118 26.916C63.8852 26.3598 63.5477 25.9223 63.1055 25.6051C62.5758 25.2082 61.9414 25.0176 61.1867 25.0176C60.5195 25.0176 59.9492 25.1691 59.4523 25.4629C58.9148 25.7879 58.5211 26.2816 58.2711 26.916C58.0867 27.3613 57.9977 27.8926 57.9977 28.5207C57.9977 29.927 57.4273 30.6254 56.2789 30.6254H55.6289V31.9035H56.5211C57.4523 31.9035 58.1758 31.602 58.682 30.9973C59.2523 31.7598 60.0883 32.141 61.1805 32.141C62.2727 32.141 63.1242 31.7598 63.6773 30.9973C64.1914 31.6004 64.9148 31.9035 65.8383 31.9035H66.7461V30.6254H66.0789H66.0867H66.0852ZM62.4711 30.2598C62.1414 30.6723 61.7164 30.8801 61.2023 30.8801C60.7445 30.8801 60.3586 30.7207 60.0383 30.4191C59.6133 29.9988 59.4039 29.3629 59.4039 28.5207C59.4039 27.8613 59.5398 27.3285 59.8211 26.9316C60.1258 26.4863 60.5836 26.2645 61.1945 26.2645C61.732 26.2645 62.1508 26.4395 62.4477 26.7879C62.8008 27.177 62.9773 27.7566 62.9773 28.5113C62.9773 29.266 62.8086 29.8457 62.4789 30.2504L62.4711 30.2582V30.2598Z" fill="#474328"/>
<path d="M68.5246 21.3639V28.6154C68.5246 29.2264 68.3793 29.7029 68.1074 30.0373C67.7949 30.4264 67.3371 30.6248 66.7574 30.6248H66.4199V31.9029H66.8777C67.7371 31.9029 68.4277 31.6811 68.9652 31.2514C69.6152 30.7029 69.9449 29.8936 69.9449 28.8123V21.3623H68.523L68.5246 21.3639Z" fill="#474328"/>
<path d="M72.9424 21.3633V31.9039H74.3799V21.3633H72.9424Z" fill="#474328"/>
<path d="M87.2707 30.6254V27.7426C87.2707 26.9723 87.0379 26.352 86.5801 25.8676C86.0582 25.3113 85.3113 25.0332 84.3551 25.0332C83.3988 25.0332 82.6926 25.3113 82.1301 25.8598C81.4879 26.4707 81.166 27.3207 81.166 28.4098C81.166 29.4035 81.4316 30.2051 81.9535 30.8004C82.5644 31.4988 83.4707 31.8488 84.6598 31.8566C84.9254 31.8645 85.3176 31.8723 85.841 31.8723C85.8082 32.4441 85.6316 32.8816 85.3113 33.191C84.9582 33.5254 84.4754 33.6988 83.8738 33.6988C83.3363 33.6988 82.766 33.5551 82.1551 33.2535L81.7613 34.3504C82.5566 34.7395 83.327 34.9379 84.0582 34.9379C84.9176 34.9379 85.616 34.716 86.1707 34.2863C86.8285 33.7535 87.191 32.9676 87.2473 31.9113H89.0941V30.6332H87.2629L87.2707 30.6254ZM85.8645 30.6254H84.7488C84.1473 30.6254 83.6488 30.4582 83.2629 30.1488C82.7973 29.7598 82.5566 29.1723 82.5566 28.3941C82.5566 27.791 82.6926 27.2895 82.9582 26.9254C83.2629 26.4879 83.7285 26.266 84.3473 26.266C85.3676 26.266 85.8738 26.7988 85.8738 27.8551V30.6426L85.866 30.627L85.8645 30.6254Z" fill="#474328"/>
<path d="M99.2121 30.6254C98.0715 30.6254 97.4934 29.927 97.4934 28.5207C97.4934 27.9098 97.4043 27.377 97.2371 26.916C97.0121 26.3598 96.6668 25.9223 96.2246 25.6051C95.6949 25.2082 95.0605 25.0176 94.3059 25.0176C93.6387 25.0176 93.0699 25.1691 92.5793 25.4629C92.0418 25.7879 91.648 26.2816 91.3902 26.916C91.2059 27.3613 91.1168 27.8926 91.1168 28.5207C91.1168 29.927 90.5465 30.6254 89.4059 30.6254H88.7559V31.9035H89.648C90.5871 31.9035 91.3027 31.602 91.809 30.9973C92.3793 31.7598 93.2137 32.141 94.3059 32.141C95.398 32.141 96.2496 31.7598 96.8043 30.9973C97.3184 31.6004 98.0418 31.9035 98.9652 31.9035H99.873V30.6254H99.2059H99.2137H99.2121ZM95.598 30.2598C95.2684 30.6723 94.8512 30.8801 94.3293 30.8801C93.8715 30.8801 93.4855 30.7207 93.1652 30.4191C92.748 29.9988 92.5309 29.3629 92.5309 28.5207C92.5309 27.8613 92.6668 27.3285 92.9402 26.9316C93.2449 26.4863 93.7105 26.2645 94.3137 26.2645C94.8512 26.2645 95.2699 26.4395 95.5668 26.7879C95.9277 27.177 96.1043 27.7566 96.1043 28.5113C96.1043 29.266 95.9355 29.8457 95.6059 30.2504L95.598 30.2582V30.2598Z" fill="#474328"/>
<path d="M101.663 25.2396V28.6162C101.663 29.2193 101.527 29.6881 101.246 30.0381C100.941 30.435 100.484 30.6256 99.8727 30.6256H99.5352V31.9037H100.009C100.876 31.9037 101.574 31.6818 102.096 31.2521C102.763 30.7037 103.091 29.8943 103.091 28.8131V25.2381H101.654H101.662L101.663 25.2396ZM102.963 22.6193C102.779 22.4521 102.577 22.3818 102.329 22.3818C102.104 22.3818 101.904 22.4615 101.718 22.6193C101.541 22.7865 101.452 22.9772 101.452 23.199C101.452 23.4209 101.541 23.5959 101.718 23.7631C101.902 23.9303 102.096 24.01 102.329 24.01C102.562 24.01 102.779 23.9225 102.963 23.7631C103.14 23.5959 103.229 23.4131 103.229 23.199C103.229 22.985 103.14 22.7865 102.963 22.6193Z" fill="#474328"/>
</svg>
