<svg width="187" height="187" viewBox="0 0 187 187" fill="none" xmlns="http://www.w3.org/2000/svg">
<path opacity="0.3" d="M141.584 15.5587H45.1195C41.6824 15.5587 38.896 18.3451 38.896 21.7822V149.364C38.896 152.801 41.6824 155.588 45.1195 155.588H141.584C145.021 155.588 147.807 152.801 147.807 149.364V21.7822C147.807 18.3451 145.021 15.5587 141.584 15.5587Z" stroke="white" stroke-width="2.33381"/>
<path opacity="0.3" d="M113.578 7.77942H73.1249C71.4064 7.77942 70.0132 9.1726 70.0132 10.8912V17.1147C70.0132 18.8332 71.4064 20.2264 73.1249 20.2264H113.578C115.296 20.2264 116.689 18.8332 116.689 17.1147V10.8912C116.689 9.1726 115.296 7.77942 113.578 7.77942Z" fill="white"/>
<path opacity="0.25" d="M66.9016 108.911H54.4546V140.029H66.9016V108.911Z" fill="white"/>
<path opacity="0.25" d="M87.1282 85.5731H74.6812V140.029H87.1282V85.5731Z" fill="white"/>
<path opacity="0.25" d="M107.354 93.3525H94.9072V140.029H107.354V93.3525Z" fill="white"/>
<path opacity="0.25" d="M127.581 70.0144H115.134V140.029H127.581V70.0144Z" fill="white"/>
<path opacity="0.3" d="M54.4546 62.2351L70.0133 49.7881L85.5721 54.4557L101.131 38.8969L116.69 46.6763L132.248 31.1176" stroke="white" stroke-width="2.33381"/>
<path opacity="0.3" d="M54.4545 65.3468C56.1731 65.3468 57.5663 63.9536 57.5663 62.235C57.5663 60.5165 56.1731 59.1233 54.4545 59.1233C52.736 59.1233 51.3428 60.5165 51.3428 62.235C51.3428 63.9536 52.736 65.3468 54.4545 65.3468Z" fill="white"/>
<path opacity="0.3" d="M70.0136 52.8998C71.7322 52.8998 73.1254 51.5066 73.1254 49.788C73.1254 48.0694 71.7322 46.6763 70.0136 46.6763C68.295 46.6763 66.9019 48.0694 66.9019 49.788C66.9019 51.5066 68.295 52.8998 70.0136 52.8998Z" fill="white"/>
<path opacity="0.3" d="M85.5722 57.5674C87.2908 57.5674 88.684 56.1742 88.684 54.4556C88.684 52.7371 87.2908 51.3439 85.5722 51.3439C83.8536 51.3439 82.4604 52.7371 82.4604 54.4556C82.4604 56.1742 83.8536 57.5674 85.5722 57.5674Z" fill="white"/>
<path opacity="0.3" d="M101.131 42.0087C102.849 42.0087 104.243 40.6155 104.243 38.8969C104.243 37.1783 102.849 35.7852 101.131 35.7852C99.4122 35.7852 98.019 37.1783 98.019 38.8969C98.019 40.6155 99.4122 42.0087 101.131 42.0087Z" fill="white"/>
<path opacity="0.3" d="M116.69 49.7881C118.408 49.7881 119.802 48.3949 119.802 46.6763C119.802 44.9578 118.408 43.5646 116.69 43.5646C114.971 43.5646 113.578 44.9578 113.578 46.6763C113.578 48.3949 114.971 49.7881 116.69 49.7881Z" fill="white"/>
<path opacity="0.3" d="M132.248 34.2292C133.967 34.2292 135.36 32.8361 135.36 31.1175C135.36 29.3989 133.967 28.0057 132.248 28.0057C130.53 28.0057 129.137 29.3989 129.137 31.1175C129.137 32.8361 130.53 34.2292 132.248 34.2292Z" fill="white"/>
<path opacity="0.3" d="M132.249 150.92C142.56 150.92 150.919 142.561 150.919 132.249C150.919 121.938 142.56 113.579 132.249 113.579C121.937 113.579 113.578 121.938 113.578 132.249C113.578 142.561 121.937 150.92 132.249 150.92Z" stroke="white" stroke-width="2.33381"/>
<path opacity="0.3" d="M146.251 146.252L163.366 163.367" stroke="white" stroke-width="3.11175"/>
</svg>
