<svg width="200" height="200" viewBox="0 0 200 200" fill="none" xmlns="http://www.w3.org/2000/svg">
<g opacity="0.1">
<path d="M87 70H43C41.3431 70 40 71.3431 40 73V127C40 128.657 41.3431 130 43 130H87C88.6569 130 90 128.657 90 127V73C90 71.3431 88.6569 70 87 70Z" stroke="white" stroke-width="5"/>
<path d="M50 80H80" stroke="white" stroke-width="5"/>
<path d="M50 90H80" stroke="white" stroke-width="5"/>
<path d="M50 100H80" stroke="white" stroke-width="5"/>
<path d="M50 110H70" stroke="white" stroke-width="5"/>
<path d="M95 100H115H95Z" fill="white"/>
<path d="M95 100H115" stroke="white" stroke-width="5"/>
<g opacity="0.6">
<path d="M105 90V110V90Z" fill="white"/>
<path d="M105 90V110" stroke="white" stroke-width="5"/>
</g>
<path d="M95 103C96.6569 103 98 101.657 98 100C98 98.3431 96.6569 97 95 97C93.3431 97 92 98.3431 92 100C92 101.657 93.3431 103 95 103Z" fill="white"/>
<path d="M105 92C106.105 92 107 91.1046 107 90C107 88.8954 106.105 88 105 88C103.895 88 103 88.8954 103 90C103 91.1046 103.895 92 105 92Z" fill="white"/>
<path d="M105 112C106.105 112 107 111.105 107 110C107 108.895 106.105 108 105 108C103.895 108 103 108.895 103 110C103 111.105 103.895 112 105 112Z" fill="white"/>
<path d="M157 80H123C121.343 80 120 81.3431 120 83V117C120 118.657 121.343 120 123 120H157C158.657 120 160 118.657 160 117V83C160 81.3431 158.657 80 157 80Z" stroke="white" stroke-width="5"/>
<path d="M140 98C141.657 98 143 96.6569 143 95C143 93.3431 141.657 92 140 92C138.343 92 137 93.3431 137 95C137 96.6569 138.343 98 140 98Z" fill="white"/>
<path d="M140 108C141.657 108 143 106.657 143 105C143 103.343 141.657 102 140 102C138.343 102 137 103.343 137 105C137 106.657 138.343 108 140 108Z" fill="white"/>
<path d="M130 95H135" stroke="white" stroke-width="5"/>
<path d="M130 105H135" stroke="white" stroke-width="5"/>
<path d="M145 95H150" stroke="white" stroke-width="5"/>
<path d="M145 105H150" stroke="white" stroke-width="5"/>
<path opacity="0.5" d="M60 60.0001C73.3333 46.6667 86.6667 43.3334 100 50.0001C113.333 56.6667 126.667 56.6667 140 50.0001" stroke="white" stroke-width="5"/>
<path opacity="0.5" d="M70 140C83.3333 146.667 96.6667 148.333 110 145C123.333 141.667 135 141.667 145 145" stroke="white" stroke-width="5"/>
</g>
</svg>
