<svg width="200" height="200" viewBox="0 0 200 200" fill="none" xmlns="http://www.w3.org/2000/svg">
<g opacity="0.1">
<path d="M100 160C133.137 160 160 133.137 160 100C160 66.8629 133.137 40 100 40C66.8629 40 40 66.8629 40 100C40 133.137 66.8629 160 100 160Z" stroke="white" stroke-width="9"/>
<path d="M100 145C124.853 145 145 124.853 145 100C145 75.1472 124.853 55 100 55C75.1472 55 55 75.1472 55 100C55 124.853 75.1472 145 100 145Z" stroke="white" stroke-width="9"/>
<path d="M100 130C133.137 130 160 116.569 160 100C160 83.4315 133.137 70 100 70C66.8629 70 40 83.4315 40 100C40 116.569 66.8629 130 100 130Z" stroke="white" stroke-width="9"/>
<path d="M100 160C116.569 160 130 133.137 130 100C130 66.8629 116.569 40 100 40C83.4315 40 70 66.8629 70 100C70 133.137 83.4315 160 100 160Z" stroke="white" stroke-width="9"/>
<path d="M40 100H160" stroke="white" stroke-width="9"/>
<path d="M100 44C102.209 44 104 42.2091 104 40C104 37.7909 102.209 36 100 36C97.7909 36 96 37.7909 96 40C96 42.2091 97.7909 44 100 44Z" fill="white"/>
<path d="M100 164C102.209 164 104 162.209 104 160C104 157.791 102.209 156 100 156C97.7909 156 96 157.791 96 160C96 162.209 97.7909 164 100 164Z" fill="white"/>
<path d="M40 104C42.2091 104 44 102.209 44 100C44 97.7909 42.2091 96 40 96C37.7909 96 36 97.7909 36 100C36 102.209 37.7909 104 40 104Z" fill="white"/>
<path d="M160 104C162.209 104 164 102.209 164 100C164 97.7909 162.209 96 160 96C157.791 96 156 97.7909 156 100C156 102.209 157.791 104 160 104Z" fill="white"/>
<path d="M70 63C71.6569 63 73 61.6569 73 60C73 58.3431 71.6569 57 70 57C68.3431 57 67 58.3431 67 60C67 61.6569 68.3431 63 70 63Z" fill="white"/>
<path d="M130 63C131.657 63 133 61.6569 133 60C133 58.3431 131.657 57 130 57C128.343 57 127 58.3431 127 60C127 61.6569 128.343 63 130 63Z" fill="white"/>
<path d="M70 143C71.6569 143 73 141.657 73 140C73 138.343 71.6569 137 70 137C68.3431 137 67 138.343 67 140C67 141.657 68.3431 143 70 143Z" fill="white"/>
<path d="M130 143C131.657 143 133 141.657 133 140C133 138.343 131.657 137 130 137C128.343 137 127 138.343 127 140C127 141.657 128.343 143 130 143Z" fill="white"/>
<path opacity="0.6" d="M70 60C90 73.3333 110 73.3333 130 60" stroke="white" stroke-width="9"/>
<path opacity="0.6" d="M70 140C90 126.667 110 126.667 130 140" stroke="white" stroke-width="9"/>
<path opacity="0.6" d="M40 100C50 86.6667 60 73.3333 70 60" stroke="white" stroke-width="9"/>
<path opacity="0.6" d="M160 100C150 86.6667 140 73.3333 130 60" stroke="white" stroke-width="9"/>
</g>
</svg>
