<svg width="606" height="404" viewBox="0 0 606 404" fill="none" xmlns="http://www.w3.org/2000/svg">
<g opacity="0.4">
<g clip-path="url(#clip0_5842_9190)">
<rect x="0.107447" y="0.107447" width="50.2851" height="201.785" stroke="#36C9CB" stroke-width="0.214894"/>
<rect x="50.6074" y="0.107447" width="50.2851" height="201.785" stroke="#36C9CB" stroke-width="0.214894"/>
<rect x="101.107" y="0.107447" width="50.2851" height="201.785" stroke="#36C9CB" stroke-width="0.214894"/>
<rect x="151.607" y="0.107447" width="50.2851" height="201.785" stroke="#36C9CB" stroke-width="0.214894"/>
<rect x="201.893" y="0.107447" width="50.2851" height="201.785" transform="rotate(90 201.893 0.107447)" stroke="#36C9CB" stroke-width="0.214894"/>
<rect x="201.893" y="50.6074" width="50.2851" height="201.785" transform="rotate(90 201.893 50.6074)" stroke="#36C9CB" stroke-width="0.214894"/>
<rect x="201.893" y="101.107" width="50.2851" height="201.785" transform="rotate(90 201.893 101.107)" stroke="#36C9CB" stroke-width="0.214894"/>
<rect x="201.893" y="151.607" width="50.2851" height="201.785" transform="rotate(90 201.893 151.607)" stroke="#36C9CB" stroke-width="0.214894"/>
</g>
<g clip-path="url(#clip1_5842_9190)">
<rect x="202.107" y="0.107447" width="50.2851" height="201.785" stroke="#36C9CB" stroke-width="0.214894"/>
<rect x="252.607" y="0.107447" width="50.2851" height="201.785" stroke="#36C9CB" stroke-width="0.214894"/>
<rect x="303.107" y="0.107447" width="50.2851" height="201.785" stroke="#36C9CB" stroke-width="0.214894"/>
<rect x="353.607" y="0.107447" width="50.2851" height="201.785" stroke="#36C9CB" stroke-width="0.214894"/>
<rect x="403.893" y="0.107447" width="50.2851" height="201.785" transform="rotate(90 403.893 0.107447)" stroke="#36C9CB" stroke-width="0.214894"/>
<rect x="403.893" y="50.6074" width="50.2851" height="201.785" transform="rotate(90 403.893 50.6074)" stroke="#36C9CB" stroke-width="0.214894"/>
<rect x="403.893" y="101.107" width="50.2851" height="201.785" transform="rotate(90 403.893 101.107)" stroke="#36C9CB" stroke-width="0.214894"/>
<rect x="403.893" y="151.607" width="50.2851" height="201.785" transform="rotate(90 403.893 151.607)" stroke="#36C9CB" stroke-width="0.214894"/>
</g>
<g clip-path="url(#clip2_5842_9190)">
<rect x="0.107447" y="202.107" width="50.2851" height="201.785" stroke="#36C9CB" stroke-width="0.214894"/>
<rect x="50.6074" y="202.107" width="50.2851" height="201.785" stroke="#36C9CB" stroke-width="0.214894"/>
<rect x="101.107" y="202.107" width="50.2851" height="201.785" stroke="#36C9CB" stroke-width="0.214894"/>
<rect x="151.607" y="202.107" width="50.2851" height="201.785" stroke="#36C9CB" stroke-width="0.214894"/>
<rect x="201.893" y="202.107" width="50.2851" height="201.785" transform="rotate(90 201.893 202.107)" stroke="#36C9CB" stroke-width="0.214894"/>
<rect x="201.893" y="252.607" width="50.2851" height="201.785" transform="rotate(90 201.893 252.607)" stroke="#36C9CB" stroke-width="0.214894"/>
<rect x="201.893" y="303.107" width="50.2851" height="201.785" transform="rotate(90 201.893 303.107)" stroke="#36C9CB" stroke-width="0.214894"/>
<rect x="201.893" y="353.607" width="50.2851" height="201.785" transform="rotate(90 201.893 353.607)" stroke="#36C9CB" stroke-width="0.214894"/>
</g>
<g clip-path="url(#clip3_5842_9190)">
<rect x="202.107" y="202.107" width="50.2851" height="201.785" stroke="#36C9CB" stroke-width="0.214894"/>
<rect x="252.607" y="202.107" width="50.2851" height="201.785" stroke="#36C9CB" stroke-width="0.214894"/>
<rect x="303.107" y="202.107" width="50.2851" height="201.785" stroke="#36C9CB" stroke-width="0.214894"/>
<rect x="353.607" y="202.107" width="50.2851" height="201.785" stroke="#36C9CB" stroke-width="0.214894"/>
<rect x="403.893" y="202.107" width="50.2851" height="201.785" transform="rotate(90 403.893 202.107)" stroke="#36C9CB" stroke-width="0.214894"/>
<rect x="403.893" y="252.607" width="50.2851" height="201.785" transform="rotate(90 403.893 252.607)" stroke="#36C9CB" stroke-width="0.214894"/>
<rect x="403.893" y="303.107" width="50.2851" height="201.785" transform="rotate(90 403.893 303.107)" stroke="#36C9CB" stroke-width="0.214894"/>
<rect x="403.893" y="353.607" width="50.2851" height="201.785" transform="rotate(90 403.893 353.607)" stroke="#36C9CB" stroke-width="0.214894"/>
</g>
<g clip-path="url(#clip4_5842_9190)">
<rect x="404.107" y="202.107" width="50.2851" height="201.785" stroke="#36C9CB" stroke-width="0.214894"/>
<rect x="454.607" y="202.107" width="50.2851" height="201.785" stroke="#36C9CB" stroke-width="0.214894"/>
<rect x="505.107" y="202.107" width="50.2851" height="201.785" stroke="#36C9CB" stroke-width="0.214894"/>
<rect x="555.607" y="202.107" width="50.2851" height="201.785" stroke="#36C9CB" stroke-width="0.214894"/>
<rect x="605.893" y="202.107" width="50.2851" height="201.785" transform="rotate(90 605.893 202.107)" stroke="#36C9CB" stroke-width="0.214894"/>
<rect x="605.893" y="252.607" width="50.2851" height="201.785" transform="rotate(90 605.893 252.607)" stroke="#36C9CB" stroke-width="0.214894"/>
<rect x="605.893" y="303.107" width="50.2851" height="201.785" transform="rotate(90 605.893 303.107)" stroke="#36C9CB" stroke-width="0.214894"/>
<rect x="605.893" y="353.607" width="50.2851" height="201.785" transform="rotate(90 605.893 353.607)" stroke="#36C9CB" stroke-width="0.214894"/>
</g>
<g clip-path="url(#clip5_5842_9190)">
<rect x="404.107" y="0.107447" width="50.2851" height="201.785" stroke="#36C9CB" stroke-width="0.214894"/>
<rect x="454.607" y="0.107447" width="50.2851" height="201.785" stroke="#36C9CB" stroke-width="0.214894"/>
<rect x="505.107" y="0.107447" width="50.2851" height="201.785" stroke="#36C9CB" stroke-width="0.214894"/>
<rect x="555.607" y="0.107447" width="50.2851" height="201.785" stroke="#36C9CB" stroke-width="0.214894"/>
<rect x="605.893" y="0.107447" width="50.2851" height="201.785" transform="rotate(90 605.893 0.107447)" stroke="#36C9CB" stroke-width="0.214894"/>
<rect x="605.893" y="50.6074" width="50.2851" height="201.785" transform="rotate(90 605.893 50.6074)" stroke="#36C9CB" stroke-width="0.214894"/>
<rect x="605.893" y="101.107" width="50.2851" height="201.785" transform="rotate(90 605.893 101.107)" stroke="#36C9CB" stroke-width="0.214894"/>
<rect x="605.893" y="151.607" width="50.2851" height="201.785" transform="rotate(90 605.893 151.607)" stroke="#36C9CB" stroke-width="0.214894"/>
</g>
</g>
<defs>
<clipPath id="clip0_5842_9190">
<rect width="202" height="202" rx="69" fill="white"/>
</clipPath>
<clipPath id="clip1_5842_9190">
<rect x="202" width="202" height="202" rx="69" fill="white"/>
</clipPath>
<clipPath id="clip2_5842_9190">
<rect y="202" width="202" height="202" rx="69" fill="white"/>
</clipPath>
<clipPath id="clip3_5842_9190">
<rect x="202" y="202" width="202" height="202" rx="69" fill="white"/>
</clipPath>
<clipPath id="clip4_5842_9190">
<rect x="404" y="202" width="202" height="202" rx="69" fill="white"/>
</clipPath>
<clipPath id="clip5_5842_9190">
<rect x="404" width="202" height="202" rx="69" fill="white"/>
</clipPath>
</defs>
</svg>
