<svg width="370" height="467" viewBox="0 0 370 467" fill="none" xmlns="http://www.w3.org/2000/svg">
<g opacity="0.6" clip-path="url(#clip0_5736_8943)">
<rect width="370" height="467" fill="white" fill-opacity="0.02"/>
<g clip-path="url(#clip1_5736_8943)">
<g opacity="0.6">
<path opacity="0.6" d="M185 455C209.853 455 230 434.853 230 410C230 385.147 209.853 365 185 365C160.147 365 140 385.147 140 410C140 434.853 160.147 455 185 455Z" stroke="#8391A6" stroke-width="2.5"/>
<path d="M183 427.72C177.52 427.72 173.46 425.82 170.82 422.02C168.18 418.22 166.86 412.9 166.86 406.06C166.86 399.22 168.18 393.9 170.82 390.1C173.46 386.3 177.52 384.4 183 384.4C188.48 384.4 192.54 386.3 195.18 390.1C197.82 393.9 199.14 399.22 199.14 406.06C199.14 412.9 197.82 418.22 195.18 422.02C192.54 425.82 188.48 427.72 183 427.72ZM183 420.1C185.4 420.1 187.06 419.22 187.98 417.46C188.9 415.7 189.36 413.22 189.36 410.02V402.1C189.36 398.9 188.9 396.42 187.98 394.66C187.06 392.9 185.4 392.02 183 392.02C180.6 392.02 178.94 392.9 178.02 394.66C177.1 396.42 176.64 398.9 176.64 402.1V410.02C176.64 413.22 177.1 415.7 178.02 417.46C178.94 419.22 180.6 420.1 183 420.1Z" fill="#8391A6"/>
<path opacity="0.3" d="M145 402C146.105 402 147 401.105 147 400C147 398.895 146.105 398 145 398C143.895 398 143 398.895 143 400C143 401.105 143.895 402 145 402Z" fill="#8391A6"/>
<path opacity="0.3" d="M225 402C226.105 402 227 401.105 227 400C227 398.895 226.105 398 225 398C223.895 398 223 398.895 223 400C223 401.105 223.895 402 225 402Z" fill="#8391A6"/>
<path opacity="0.3" d="M160 441.5C160.828 441.5 161.5 440.828 161.5 440C161.5 439.172 160.828 438.5 160 438.5C159.172 438.5 158.5 439.172 158.5 440C158.5 440.828 159.172 441.5 160 441.5Z" fill="#8391A6"/>
<path opacity="0.3" d="M210 441.5C210.828 441.5 211.5 440.828 211.5 440C211.5 439.172 210.828 438.5 210 438.5C209.172 438.5 208.5 439.172 208.5 440C208.5 440.828 209.172 441.5 210 441.5Z" fill="#8391A6"/>
</g>
<g opacity="0.4">
<path d="M185 365V290" stroke="url(#paint0_linear_5736_8943)" stroke-width="2"/>
<path d="M175 350L165 300" stroke="url(#paint1_linear_5736_8943)" stroke-width="2"/>
<path d="M195 350L205 300" stroke="url(#paint2_linear_5736_8943)" stroke-width="2"/>
</g>
<path opacity="0.62" d="M185 357C186.105 357 187 356.105 187 355C187 353.895 186.105 353 185 353C183.895 353 183 353.895 183 355C183 356.105 183.895 357 185 357Z" fill="#36C9CB"/>
<path opacity="0.596" d="M175 342.5C176.381 342.5 177.5 341.381 177.5 340C177.5 338.619 176.381 337.5 175 337.5C173.619 337.5 172.5 338.619 172.5 340C172.5 341.381 173.619 342.5 175 342.5Z" fill="#36C9CB"/>
<path opacity="0.534783" d="M195 342.5C196.381 342.5 197.5 341.381 197.5 340C197.5 338.619 196.381 337.5 195 337.5C193.619 337.5 192.5 338.619 192.5 340C192.5 341.381 193.619 342.5 195 342.5Z" fill="#36C9CB"/>
<path opacity="0.55" d="M185 322C186.105 322 187 321.105 187 320C187 318.895 186.105 318 185 318C183.895 318 183 318.895 183 320C183 321.105 183.895 322 185 322Z" fill="#36C9CB"/>
<g opacity="0.75">
<path opacity="0.6" d="M205 230H165V285H205V230Z" stroke="#36C9CB" stroke-width="2.5"/>
<path d="M182.64 274V266.74H193.92V238.66H193.38L184.86 249.82L179.1 245.32L189.12 232.12H202.92V266.74H211.8V274H182.64Z" fill="#36C9CB"/>
<path opacity="0.6" d="M150 243C151.657 243 153 241.657 153 240C153 238.343 151.657 237 150 237C148.343 237 147 238.343 147 240C147 241.657 148.343 243 150 243Z" fill="#36C9CB"/>
<path opacity="0.6" d="M220 243C221.657 243 223 241.657 223 240C223 238.343 221.657 237 220 237C218.343 237 217 238.343 217 240C217 241.657 218.343 243 220 243Z" fill="#36C9CB"/>
<path opacity="0.6" d="M150 277.5C151.381 277.5 152.5 276.381 152.5 275C152.5 273.619 151.381 272.5 150 272.5C148.619 272.5 147.5 273.619 147.5 275C147.5 276.381 148.619 277.5 150 277.5Z" fill="#62C4AA"/>
<path opacity="0.6" d="M220 277.5C221.381 277.5 222.5 276.381 222.5 275C222.5 273.619 221.381 272.5 220 272.5C218.619 272.5 217.5 273.619 217.5 275C217.5 276.381 218.619 277.5 220 277.5Z" fill="#62C4AA"/>
<path opacity="0.7" d="M185 224C186.105 224 187 223.105 187 222C187 220.895 186.105 220 185 220C183.895 220 183 220.895 183 222C183 223.105 183.895 224 185 224Z" fill="#36C9CB"/>
</g>
<g opacity="0.4">
<path d="M164.2 215.168C163.033 215.168 162.179 214.725 161.638 213.838C161.106 212.951 160.84 211.71 160.84 210.114C160.84 208.518 161.106 207.277 161.638 206.39C162.179 205.503 163.033 205.06 164.2 205.06C165.367 205.06 166.216 205.503 166.748 206.39C167.289 207.277 167.56 208.518 167.56 210.114C167.56 211.71 167.289 212.951 166.748 213.838C166.216 214.725 165.367 215.168 164.2 215.168ZM164.2 214.146C164.583 214.146 164.909 214.067 165.18 213.908C165.451 213.749 165.67 213.525 165.838 213.236C166.006 212.947 166.127 212.606 166.202 212.214C166.286 211.822 166.328 211.388 166.328 210.912V209.316C166.328 208.84 166.286 208.406 166.202 208.014C166.127 207.622 166.006 207.281 165.838 206.992C165.67 206.703 165.451 206.479 165.18 206.32C164.909 206.161 164.583 206.082 164.2 206.082C163.817 206.082 163.491 206.161 163.22 206.32C162.949 206.479 162.73 206.703 162.562 206.992C162.394 207.281 162.268 207.622 162.184 208.014C162.109 208.406 162.072 208.84 162.072 209.316V210.912C162.072 211.388 162.109 211.822 162.184 212.214C162.268 212.606 162.394 212.947 162.562 213.236C162.73 213.525 162.949 213.749 163.22 213.908C163.491 214.067 163.817 214.146 164.2 214.146Z" fill="#62C4AA"/>
<path d="M201.232 215V213.964H203.962V206.096H203.864L201.4 208.392L200.714 207.65L203.304 205.228H205.138V213.964H207.658V215H201.232Z" fill="#62C4AA"/>
<path d="M146.232 195V193.964H148.962V186.096H148.864L146.4 188.392L145.714 187.65L148.304 185.228H150.138V193.964H152.658V195H146.232Z" fill="#62C4AA"/>
<path d="M219.2 195.168C218.033 195.168 217.179 194.725 216.638 193.838C216.106 192.951 215.84 191.71 215.84 190.114C215.84 188.518 216.106 187.277 216.638 186.39C217.179 185.503 218.033 185.06 219.2 185.06C220.367 185.06 221.216 185.503 221.748 186.39C222.289 187.277 222.56 188.518 222.56 190.114C222.56 191.71 222.289 192.951 221.748 193.838C221.216 194.725 220.367 195.168 219.2 195.168ZM219.2 194.146C219.583 194.146 219.909 194.067 220.18 193.908C220.451 193.749 220.67 193.525 220.838 193.236C221.006 192.947 221.127 192.606 221.202 192.214C221.286 191.822 221.328 191.388 221.328 190.912V189.316C221.328 188.84 221.286 188.406 221.202 188.014C221.127 187.622 221.006 187.281 220.838 186.992C220.67 186.703 220.451 186.479 220.18 186.32C219.909 186.161 219.583 186.082 219.2 186.082C218.817 186.082 218.491 186.161 218.22 186.32C217.949 186.479 217.73 186.703 217.562 186.992C217.394 187.281 217.268 187.622 217.184 188.014C217.109 188.406 217.072 188.84 217.072 189.316V190.912C217.072 191.388 217.109 191.822 217.184 192.214C217.268 192.606 217.394 192.947 217.562 193.236C217.73 193.525 217.949 193.749 218.22 193.908C218.491 194.067 218.817 194.146 219.2 194.146Z" fill="#62C4AA"/>
<path d="M174.2 180.168C173.033 180.168 172.179 179.725 171.638 178.838C171.106 177.951 170.84 176.71 170.84 175.114C170.84 173.518 171.106 172.277 171.638 171.39C172.179 170.503 173.033 170.06 174.2 170.06C175.367 170.06 176.216 170.503 176.748 171.39C177.289 172.277 177.56 173.518 177.56 175.114C177.56 176.71 177.289 177.951 176.748 178.838C176.216 179.725 175.367 180.168 174.2 180.168ZM174.2 179.146C174.583 179.146 174.909 179.067 175.18 178.908C175.451 178.749 175.67 178.525 175.838 178.236C176.006 177.947 176.127 177.606 176.202 177.214C176.286 176.822 176.328 176.388 176.328 175.912V174.316C176.328 173.84 176.286 173.406 176.202 173.014C176.127 172.622 176.006 172.281 175.838 171.992C175.67 171.703 175.451 171.479 175.18 171.32C174.909 171.161 174.583 171.082 174.2 171.082C173.817 171.082 173.491 171.161 173.22 171.32C172.949 171.479 172.73 171.703 172.562 171.992C172.394 172.281 172.268 172.622 172.184 173.014C172.109 173.406 172.072 173.84 172.072 174.316V175.912C172.072 176.388 172.109 176.822 172.184 177.214C172.268 177.606 172.394 177.947 172.562 178.236C172.73 178.525 172.949 178.749 173.22 178.908C173.491 179.067 173.817 179.146 174.2 179.146Z" fill="#62C4AA"/>
<path d="M191.232 180V178.964H193.962V171.096H193.864L191.4 173.392L190.714 172.65L193.304 170.228H195.138V178.964H197.658V180H191.232Z" fill="#62C4AA"/>
</g>
<g opacity="0.5">
<path d="M185 230V160" stroke="#62C4AA" stroke-width="1.5"/>
<path d="M165 235L140 160" stroke="#62C4AA" stroke-width="1.5"/>
<path d="M205 235L230 160" stroke="#62C4AA" stroke-width="1.5"/>
<path d="M150 250L100 170" stroke="#62C4AA" stroke-width="1.5"/>
<path d="M220 250L270 170" stroke="#62C4AA" stroke-width="1.5"/>
<path d="M175 230L155 165" stroke="#62C4AA" stroke-width="1.5"/>
<path d="M195 230L215 165" stroke="#62C4AA" stroke-width="1.5"/>
</g>
<path opacity="0.65" d="M100 174C102.209 174 104 172.209 104 170C104 167.791 102.209 166 100 166C97.7909 166 96 167.791 96 170C96 172.209 97.7909 174 100 174Z" fill="#36C9CB"/>
<path opacity="0.7" d="M140 164.5C142.485 164.5 144.5 162.485 144.5 160C144.5 157.515 142.485 155.5 140 155.5C137.515 155.5 135.5 157.515 135.5 160C135.5 162.485 137.515 164.5 140 164.5Z" fill="#62C4AA"/>
<path opacity="0.7" d="M155 169C157.209 169 159 167.209 159 165C159 162.791 157.209 161 155 161C152.791 161 151 162.791 151 165C151 167.209 152.791 169 155 169Z" fill="#36C9CB"/>
<path opacity="0.75" d="M185 165C187.761 165 190 162.761 190 160C190 157.239 187.761 155 185 155C182.239 155 180 157.239 180 160C180 162.761 182.239 165 185 165Z" fill="#36C9CB"/>
<path opacity="0.7" d="M215 169C217.209 169 219 167.209 219 165C219 162.791 217.209 161 215 161C212.791 161 211 162.791 211 165C211 167.209 212.791 169 215 169Z" fill="#62C4AA"/>
<path opacity="0.7" d="M230 164.5C232.485 164.5 234.5 162.485 234.5 160C234.5 157.515 232.485 155.5 230 155.5C227.515 155.5 225.5 157.515 225.5 160C225.5 162.485 227.515 164.5 230 164.5Z" fill="#36C9CB"/>
<path opacity="0.65" d="M270 174C272.209 174 274 172.209 274 170C274 167.791 272.209 166 270 166C267.791 166 266 167.791 266 170C266 172.209 267.791 174 270 174Z" fill="#62C4AA"/>
<g opacity="0.4">
<path d="M100 170L140 160L155 165" stroke="#36C9CB"/>
<path d="M155 165L185 160L215 165" stroke="#36C9CB"/>
<path d="M215 165L230 160L270 170" stroke="#36C9CB"/>
<path d="M140 160H185H230" stroke="#36C9CB"/>
<path d="M100 170C128 143.333 156.333 126.667 185 120" stroke="#36C9CB"/>
<path d="M270 170C242 143.333 213.667 126.667 185 120" stroke="#36C9CB"/>
</g>
<g opacity="0.9">
<path d="M185 140C218.137 140 245 113.137 245 80C245 46.8629 218.137 20 185 20C151.863 20 125 46.8629 125 80C125 113.137 151.863 140 185 140Z" fill="url(#paint3_radial_5736_8943)"/>
<path d="M187.35 96L184.85 87.7H173.2L170.7 96H163L174.5 61.1H183.9L195.25 96H187.35ZM179.1 68H178.85L175 81.25H183L179.1 68ZM198.729 96V89.95H203.229V67.15H198.729V61.1H215.329V67.15H210.829V89.95H215.329V96H198.729Z" fill="#62C4AA"/>
<path opacity="0.6" d="M185 115C204.33 115 220 99.33 220 80C220 60.67 204.33 45 185 45C165.67 45 150 60.67 150 80C150 99.33 165.67 115 185 115Z" stroke="#36C9CB" stroke-width="2"/>
<path opacity="0.4" d="M185 130C212.614 130 235 107.614 235 80C235 52.3858 212.614 30 185 30C157.386 30 135 52.3858 135 80C135 107.614 157.386 130 185 130Z" stroke="#62C4AA" stroke-width="1.5" stroke-dasharray="5 5"/>
<g opacity="0.5">
<path d="M185 45V30" stroke="#36C9CB" stroke-width="1.2"/>
<path d="M210 60L230 45" stroke="#36C9CB" stroke-width="1.2"/>
<path d="M210 100L230 115" stroke="#36C9CB" stroke-width="1.2"/>
<path d="M160 100L140 115" stroke="#36C9CB" stroke-width="1.2"/>
<path d="M160 60L140 45" stroke="#36C9CB" stroke-width="1.2"/>
</g>
<path opacity="0.8" d="M185 35C187.761 35 190 32.7614 190 30C190 27.2386 187.761 25 185 25C182.239 25 180 27.2386 180 30C180 32.7614 182.239 35 185 35Z" fill="#62C4AA"/>
<path opacity="0.75" d="M230 49.5C232.485 49.5 234.5 47.4853 234.5 45C234.5 42.5147 232.485 40.5 230 40.5C227.515 40.5 225.5 42.5147 225.5 45C225.5 47.4853 227.515 49.5 230 49.5Z" fill="#36C9CB"/>
<path opacity="0.75" d="M230 119.5C232.485 119.5 234.5 117.485 234.5 115C234.5 112.515 232.485 110.5 230 110.5C227.515 110.5 225.5 112.515 225.5 115C225.5 117.485 227.515 119.5 230 119.5Z" fill="#62C4AA"/>
<path opacity="0.75" d="M140 119.5C142.485 119.5 144.5 117.485 144.5 115C144.5 112.515 142.485 110.5 140 110.5C137.515 110.5 135.5 112.515 135.5 115C135.5 117.485 137.515 119.5 140 119.5Z" fill="#36C9CB"/>
<path opacity="0.75" d="M140 49.5C142.485 49.5 144.5 47.4853 144.5 45C144.5 42.5147 142.485 40.5 140 40.5C137.515 40.5 135.5 42.5147 135.5 45C135.5 47.4853 137.515 49.5 140 49.5Z" fill="#62C4AA"/>
<path opacity="0.933333" d="M185 88C189.418 88 193 84.4183 193 80C193 75.5817 189.418 72 185 72C180.582 72 177 75.5817 177 80C177 84.4183 180.582 88 185 88Z" fill="#36C9CB"/>
</g>
<path opacity="0.8" d="M185 22.5C186.381 22.5 187.5 21.3807 187.5 20C187.5 18.6193 186.381 17.5 185 17.5C183.619 17.5 182.5 18.6193 182.5 20C182.5 21.3807 183.619 22.5 185 22.5Z" fill="#62C4AA"/>
<path opacity="0.75" d="M240 37C241.105 37 242 36.1046 242 35C242 33.8954 241.105 33 240 33C238.895 33 238 33.8954 238 35C238 36.1046 238.895 37 240 37Z" fill="#62C4AA"/>
<path opacity="0.75" d="M245 82.5C246.381 82.5 247.5 81.3807 247.5 80C247.5 78.6193 246.381 77.5 245 77.5C243.619 77.5 242.5 78.6193 242.5 80C242.5 81.3807 243.619 82.5 245 82.5Z" fill="#62C4AA"/>
<path opacity="0.75" d="M240 127C241.105 127 242 126.105 242 125C242 123.895 241.105 123 240 123C238.895 123 238 123.895 238 125C238 126.105 238.895 127 240 127Z" fill="#62C4AA"/>
<path opacity="0.75" d="M130 127C131.105 127 132 126.105 132 125C132 123.895 131.105 123 130 123C128.895 123 128 123.895 128 125C128 126.105 128.895 127 130 127Z" fill="#62C4AA"/>
<path opacity="0.75" d="M125 82.5C126.381 82.5 127.5 81.3807 127.5 80C127.5 78.6193 126.381 77.5 125 77.5C123.619 77.5 122.5 78.6193 122.5 80C122.5 81.3807 123.619 82.5 125 82.5Z" fill="#62C4AA"/>
<path opacity="0.75" d="M130 37C131.105 37 132 36.1046 132 35C132 33.8954 131.105 33 130 33C128.895 33 128 33.8954 128 35C128 36.1046 128.895 37 130 37Z" fill="#62C4AA"/>
<path opacity="0.7" d="M165 20C166.105 20 167 19.1046 167 18C167 16.8954 166.105 16 165 16C163.895 16 163 16.8954 163 18C163 19.1046 163.895 20 165 20Z" fill="#62C4AA"/>
<path opacity="0.7" d="M205 20C206.105 20 207 19.1046 207 18C207 16.8954 206.105 16 205 16C203.895 16 203 16.8954 203 18C203 19.1046 203.895 20 205 20Z" fill="#62C4AA"/>
<g opacity="0.6">
<path d="M185 30V15" stroke="#36C9CB" stroke-width="1.5"/>
<path d="M212 52L225 40" stroke="#36C9CB" stroke-width="1.5"/>
<path d="M220 80H235" stroke="#36C9CB" stroke-width="1.5"/>
<path d="M212 108L225 120" stroke="#36C9CB" stroke-width="1.5"/>
<path d="M158 108L145 120" stroke="#36C9CB" stroke-width="1.5"/>
<path d="M150 80H135" stroke="#36C9CB" stroke-width="1.5"/>
<path d="M158 52L145 40" stroke="#36C9CB" stroke-width="1.5"/>
</g>
<g opacity="0.2">
<path d="M53.6 381.144C52.6 381.144 51.868 380.764 51.404 380.004C50.948 379.244 50.72 378.18 50.72 376.812C50.72 375.444 50.948 374.38 51.404 373.62C51.868 372.86 52.6 372.48 53.6 372.48C54.6 372.48 55.328 372.86 55.784 373.62C56.248 374.38 56.48 375.444 56.48 376.812C56.48 378.18 56.248 379.244 55.784 380.004C55.328 380.764 54.6 381.144 53.6 381.144ZM53.6 380.268C53.928 380.268 54.208 380.2 54.44 380.064C54.672 379.928 54.86 379.736 55.004 379.488C55.148 379.24 55.252 378.948 55.316 378.612C55.388 378.276 55.424 377.904 55.424 377.496V376.128C55.424 375.72 55.388 375.348 55.316 375.012C55.252 374.676 55.148 374.384 55.004 374.136C54.86 373.888 54.672 373.696 54.44 373.56C54.208 373.424 53.928 373.356 53.6 373.356C53.272 373.356 52.992 373.424 52.76 373.56C52.528 373.696 52.34 373.888 52.196 374.136C52.052 374.384 51.944 374.676 51.872 375.012C51.808 375.348 51.776 375.72 51.776 376.128V377.496C51.776 377.904 51.808 378.276 51.872 378.612C51.944 378.948 52.052 379.24 52.196 379.488C52.34 379.736 52.528 379.928 52.76 380.064C52.992 380.2 53.272 380.268 53.6 380.268Z" fill="#8391A6"/>
<path d="M311.056 371V370.112H313.396V363.368H313.312L311.2 365.336L310.612 364.7L312.832 362.624H314.404V370.112H316.564V371H311.056Z" fill="#8391A6"/>
<path d="M71.056 311V310.112H73.396V303.368H73.312L71.2 305.336L70.612 304.7L72.832 302.624H74.404V310.112H76.564V311H71.056Z" fill="#8391A6"/>
<path d="M293.6 321.144C292.6 321.144 291.868 320.764 291.404 320.004C290.948 319.244 290.72 318.18 290.72 316.812C290.72 315.444 290.948 314.38 291.404 313.62C291.868 312.86 292.6 312.48 293.6 312.48C294.6 312.48 295.328 312.86 295.784 313.62C296.248 314.38 296.48 315.444 296.48 316.812C296.48 318.18 296.248 319.244 295.784 320.004C295.328 320.764 294.6 321.144 293.6 321.144ZM293.6 320.268C293.928 320.268 294.208 320.2 294.44 320.064C294.672 319.928 294.86 319.736 295.004 319.488C295.148 319.24 295.252 318.948 295.316 318.612C295.388 318.276 295.424 317.904 295.424 317.496V316.128C295.424 315.72 295.388 315.348 295.316 315.012C295.252 314.676 295.148 314.384 295.004 314.136C294.86 313.888 294.672 313.696 294.44 313.56C294.208 313.424 293.928 313.356 293.6 313.356C293.272 313.356 292.992 313.424 292.76 313.56C292.528 313.696 292.34 313.888 292.196 314.136C292.052 314.384 291.944 314.676 291.872 315.012C291.808 315.348 291.776 315.72 291.776 316.128V317.496C291.776 317.904 291.808 318.276 291.872 318.612C291.944 318.948 292.052 319.24 292.196 319.488C292.34 319.736 292.528 319.928 292.76 320.064C292.992 320.2 293.272 320.268 293.6 320.268Z" fill="#8391A6"/>
<path d="M43.6 221.144C42.6 221.144 41.868 220.764 41.404 220.004C40.948 219.244 40.72 218.18 40.72 216.812C40.72 215.444 40.948 214.38 41.404 213.62C41.868 212.86 42.6 212.48 43.6 212.48C44.6 212.48 45.328 212.86 45.784 213.62C46.248 214.38 46.48 215.444 46.48 216.812C46.48 218.18 46.248 219.244 45.784 220.004C45.328 220.764 44.6 221.144 43.6 221.144ZM43.6 220.268C43.928 220.268 44.208 220.2 44.44 220.064C44.672 219.928 44.86 219.736 45.004 219.488C45.148 219.24 45.252 218.948 45.316 218.612C45.388 218.276 45.424 217.904 45.424 217.496V216.128C45.424 215.72 45.388 215.348 45.316 215.012C45.252 214.676 45.148 214.384 45.004 214.136C44.86 213.888 44.672 213.696 44.44 213.56C44.208 213.424 43.928 213.356 43.6 213.356C43.272 213.356 42.992 213.424 42.76 213.56C42.528 213.696 42.34 213.888 42.196 214.136C42.052 214.384 41.944 214.676 41.872 215.012C41.808 215.348 41.776 215.72 41.776 216.128V217.496C41.776 217.904 41.808 218.276 41.872 218.612C41.944 218.948 42.052 219.24 42.196 219.488C42.34 219.736 42.528 219.928 42.76 220.064C42.992 220.2 43.272 220.268 43.6 220.268Z" fill="#8391A6"/>
<path d="M321.056 211V210.112H323.396V203.368H323.312L321.2 205.336L320.612 204.7L322.832 202.624H324.404V210.112H326.564V211H321.056Z" fill="#8391A6"/>
<path d="M61.056 141V140.112H63.396V133.368H63.312L61.2 135.336L60.612 134.7L62.832 132.624H64.404V140.112H66.564V141H61.056Z" fill="#8391A6"/>
<path d="M303.6 151.144C302.6 151.144 301.868 150.764 301.404 150.004C300.948 149.244 300.72 148.18 300.72 146.812C300.72 145.444 300.948 144.38 301.404 143.62C301.868 142.86 302.6 142.48 303.6 142.48C304.6 142.48 305.328 142.86 305.784 143.62C306.248 144.38 306.48 145.444 306.48 146.812C306.48 148.18 306.248 149.244 305.784 150.004C305.328 150.764 304.6 151.144 303.6 151.144ZM303.6 150.268C303.928 150.268 304.208 150.2 304.44 150.064C304.672 149.928 304.86 149.736 305.004 149.488C305.148 149.24 305.252 148.948 305.316 148.612C305.388 148.276 305.424 147.904 305.424 147.496V146.128C305.424 145.72 305.388 145.348 305.316 145.012C305.252 144.676 305.148 144.384 305.004 144.136C304.86 143.888 304.672 143.696 304.44 143.56C304.208 143.424 303.928 143.356 303.6 143.356C303.272 143.356 302.992 143.424 302.76 143.56C302.528 143.696 302.34 143.888 302.196 144.136C302.052 144.384 301.944 144.676 301.872 145.012C301.808 145.348 301.776 145.72 301.776 146.128V147.496C301.776 147.904 301.808 148.276 301.872 148.612C301.944 148.948 302.052 149.24 302.196 149.488C302.34 149.736 302.528 149.928 302.76 150.064C302.992 150.2 303.272 150.268 303.6 150.268Z" fill="#8391A6"/>
<path d="M83.6 71.144C82.6 71.144 81.868 70.764 81.404 70.004C80.948 69.244 80.72 68.18 80.72 66.812C80.72 65.444 80.948 64.38 81.404 63.62C81.868 62.86 82.6 62.48 83.6 62.48C84.6 62.48 85.328 62.86 85.784 63.62C86.248 64.38 86.48 65.444 86.48 66.812C86.48 68.18 86.248 69.244 85.784 70.004C85.328 70.764 84.6 71.144 83.6 71.144ZM83.6 70.268C83.928 70.268 84.208 70.2 84.44 70.064C84.672 69.928 84.86 69.736 85.004 69.488C85.148 69.24 85.252 68.948 85.316 68.612C85.388 68.276 85.424 67.904 85.424 67.496V66.128C85.424 65.72 85.388 65.348 85.316 65.012C85.252 64.676 85.148 64.384 85.004 64.136C84.86 63.888 84.672 63.696 84.44 63.56C84.208 63.424 83.928 63.356 83.6 63.356C83.272 63.356 82.992 63.424 82.76 63.56C82.528 63.696 82.34 63.888 82.196 64.136C82.052 64.384 81.944 64.676 81.872 65.012C81.808 65.348 81.776 65.72 81.776 66.128V67.496C81.776 67.904 81.808 68.276 81.872 68.612C81.944 68.948 82.052 69.24 82.196 69.488C82.34 69.736 82.528 69.928 82.76 70.064C82.992 70.2 83.272 70.268 83.6 70.268Z" fill="#8391A6"/>
<path d="M281.056 61V60.112H283.396V53.368H283.312L281.2 55.336L280.612 54.7L282.832 52.624H284.404V60.112H286.564V61H281.056Z" fill="#8391A6"/>
</g>
<path opacity="0.15" d="M200 360H170V610H200V360Z" fill="url(#paint4_linear_5736_8943)"/>
</g>
</g>
<defs>
<linearGradient id="paint0_linear_5736_8943" x1="nan" y1="nan" x2="nan" y2="nan" gradientUnits="userSpaceOnUse">
<stop stop-color="#8391A6" stop-opacity="0.5"/>
<stop offset="0.5" stop-color="#36C9CB" stop-opacity="0.7"/>
<stop offset="1" stop-color="#62C4AA" stop-opacity="0.9"/>
</linearGradient>
<linearGradient id="paint1_linear_5736_8943" x1="665" y1="5300" x2="665" y2="300" gradientUnits="userSpaceOnUse">
<stop stop-color="#8391A6" stop-opacity="0.5"/>
<stop offset="0.5" stop-color="#36C9CB" stop-opacity="0.7"/>
<stop offset="1" stop-color="#62C4AA" stop-opacity="0.9"/>
</linearGradient>
<linearGradient id="paint2_linear_5736_8943" x1="695" y1="5300" x2="695" y2="300" gradientUnits="userSpaceOnUse">
<stop stop-color="#8391A6" stop-opacity="0.5"/>
<stop offset="0.5" stop-color="#36C9CB" stop-opacity="0.7"/>
<stop offset="1" stop-color="#62C4AA" stop-opacity="0.9"/>
</linearGradient>
<radialGradient id="paint3_radial_5736_8943" cx="0" cy="0" r="1" gradientUnits="userSpaceOnUse" gradientTransform="translate(185 80) scale(60)">
<stop stop-color="#36C9CB" stop-opacity="0.7"/>
<stop offset="1" stop-color="#36C9CB" stop-opacity="0"/>
</radialGradient>
<linearGradient id="paint4_linear_5736_8943" x1="1670" y1="25360" x2="1670" y2="360" gradientUnits="userSpaceOnUse">
<stop stop-color="#8391A6" stop-opacity="0.5"/>
<stop offset="0.5" stop-color="#36C9CB" stop-opacity="0.7"/>
<stop offset="1" stop-color="#62C4AA" stop-opacity="0.9"/>
</linearGradient>
<clipPath id="clip0_5736_8943">
<rect width="370" height="467" fill="white"/>
</clipPath>
<clipPath id="clip1_5736_8943">
<rect width="370" height="467" fill="white"/>
</clipPath>
</defs>
</svg>
