<svg width="297" height="375" viewBox="0 0 297 375" fill="none" xmlns="http://www.w3.org/2000/svg">
<g clip-path="url(#clip0_5735_7827)">
<rect width="296.657" height="374.429" fill="white" fill-opacity="0.02"/>
<g clip-path="url(#clip1_5735_7827)">
<path d="M148.328 256.568C210.321 256.568 260.577 206.312 260.577 144.319C260.577 82.3259 210.321 32.0705 148.328 32.0705C86.335 32.0705 36.0796 82.3259 36.0796 144.319C36.0796 206.312 86.335 256.568 148.328 256.568Z" fill="url(#paint0_radial_5735_7827)"/>
<path d="M147.526 165.982C141.668 165.982 137.328 163.951 134.505 159.889C131.683 155.826 130.272 150.139 130.272 142.827C130.272 135.515 131.683 129.828 134.505 125.765C137.328 121.703 141.668 119.672 147.526 119.672C153.385 119.672 157.725 121.703 160.547 125.765C163.369 129.828 164.78 135.515 164.78 142.827C164.78 150.139 163.369 155.826 160.547 159.889C157.725 163.951 153.385 165.982 147.526 165.982ZM147.526 157.836C150.092 157.836 151.867 156.895 152.85 155.014C153.834 153.132 154.325 150.481 154.325 147.06V138.594C154.325 135.173 153.834 132.521 152.85 130.64C151.867 128.759 150.092 127.818 147.526 127.818C144.961 127.818 143.186 128.759 142.203 130.64C141.219 132.521 140.727 135.173 140.727 138.594V147.06C140.727 150.481 141.219 153.132 142.203 155.014C143.186 156.895 144.961 157.836 147.526 157.836Z" fill="#8391A6" fill-opacity="0.4"/>
<path opacity="0.3" d="M148.328 144.319C167.036 133.629 181.735 133.629 192.426 144.319C203.116 155.009 211.134 165.7 216.479 176.39" stroke="#36C9CB" stroke-width="1.20266" stroke-dasharray="3.21 3.21"/>
<path opacity="0.3" d="M148.328 144.319C129.62 133.629 114.921 133.629 104.231 144.319C93.5402 155.009 85.5224 165.7 80.1772 176.39" stroke="#62C4AA" stroke-width="1.20266" stroke-dasharray="3.21 3.21"/>
<path opacity="0.3" d="M148.328 144.319C156.346 165.7 156.346 184.408 148.328 200.443C140.311 216.479 136.302 229.842 136.302 240.532" stroke="#36C9CB" stroke-width="1.20266" stroke-dasharray="3.21 3.21"/>
<path d="M174.392 107.568V119.23H171.926V109.908H171.858L169.187 111.582V109.396L172.074 107.568H174.392Z" fill="#62C4AA"/>
<path d="M129.793 119.486C128.813 119.483 127.971 119.241 127.264 118.763C126.562 118.285 126.021 117.592 125.642 116.685C125.266 115.777 125.08 114.686 125.084 113.41C125.084 112.139 125.271 111.055 125.647 110.159C126.027 109.263 126.568 108.582 127.27 108.115C127.976 107.644 128.817 107.408 129.793 107.408C130.768 107.408 131.607 107.644 132.31 108.115C133.016 108.585 133.559 109.269 133.938 110.165C134.318 111.057 134.506 112.139 134.502 113.41C134.502 114.69 134.312 115.783 133.933 116.69C133.557 117.598 133.018 118.291 132.315 118.769C131.613 119.247 130.772 119.486 129.793 119.486ZM129.793 117.442C130.461 117.442 130.994 117.106 131.393 116.434C131.792 115.762 131.989 114.754 131.985 113.41C131.985 112.526 131.894 111.789 131.712 111.201C131.533 110.613 131.279 110.17 130.949 109.874C130.622 109.578 130.237 109.43 129.793 109.43C129.128 109.43 128.597 109.762 128.198 110.427C127.8 111.091 127.599 112.086 127.595 113.41C127.595 114.306 127.684 115.054 127.862 115.654C128.045 116.25 128.301 116.698 128.631 116.998C128.961 117.294 129.349 117.442 129.793 117.442Z" fill="#36C9CB"/>
<path d="M181.807 145.418V155.914H179.588V147.524H179.527L177.123 149.031V147.063L179.721 145.418H181.807Z" fill="#62C4AA"/>
<path d="M121.223 156.144C120.342 156.141 119.583 155.924 118.948 155.493C118.316 155.063 117.829 154.439 117.487 153.623C117.149 152.806 116.982 151.824 116.985 150.676C116.985 149.531 117.154 148.556 117.492 147.749C117.834 146.943 118.321 146.33 118.953 145.91C119.589 145.486 120.345 145.274 121.223 145.274C122.102 145.274 122.857 145.486 123.489 145.91C124.124 146.333 124.613 146.948 124.954 147.755C125.296 148.557 125.465 149.531 125.462 150.676C125.462 151.827 125.291 152.811 124.949 153.628C124.611 154.444 124.126 155.068 123.494 155.498C122.862 155.929 122.105 156.144 121.223 156.144ZM121.223 154.304C121.825 154.304 122.305 154.002 122.664 153.397C123.022 152.792 123.2 151.885 123.197 150.676C123.197 149.88 123.115 149.217 122.951 148.687C122.79 148.158 122.561 147.76 122.264 147.493C121.97 147.227 121.623 147.093 121.223 147.093C120.626 147.093 120.147 147.392 119.788 147.99C119.43 148.588 119.249 149.483 119.245 150.676C119.245 151.482 119.325 152.155 119.486 152.695C119.65 153.231 119.881 153.635 120.178 153.905C120.475 154.171 120.824 154.304 121.223 154.304Z" fill="#36C9CB"/>
<path d="M211.675 121.064V135.059H208.717V123.872H208.635L205.43 125.881V123.257L208.894 121.064H211.675Z" fill="#62C4AA"/>
<path d="M94.8163 135.366C93.641 135.361 92.6296 135.072 91.7823 134.498C90.9395 133.924 90.2904 133.093 89.8348 132.004C89.3838 130.915 89.1606 129.606 89.1652 128.075C89.1652 126.549 89.3907 125.248 89.8417 124.173C90.2972 123.098 90.9464 122.28 91.7891 121.72C92.6365 121.155 93.6455 120.873 94.8163 120.873C95.9871 120.873 96.9939 121.155 97.8366 121.72C98.684 122.285 99.3354 123.105 99.791 124.18C100.247 125.25 100.472 126.549 100.467 128.075C100.467 129.61 100.24 130.922 99.7841 132.011C99.3331 133.1 98.6862 133.931 97.8435 134.505C97.0007 135.079 95.9916 135.366 94.8163 135.366ZM94.8163 132.913C95.6181 132.913 96.2581 132.51 96.7365 131.703C97.2148 130.897 97.4517 129.688 97.4471 128.075C97.4471 127.013 97.3378 126.13 97.1191 125.424C96.905 124.717 96.5998 124.187 96.2035 123.831C95.8117 123.476 95.3493 123.298 94.8163 123.298C94.0191 123.298 93.3813 123.697 92.903 124.494C92.4246 125.291 92.1832 126.485 92.1786 128.075C92.1786 129.15 92.2857 130.047 92.4998 130.767C92.7185 131.482 93.026 132.02 93.4223 132.38C93.8186 132.735 94.2833 132.913 94.8163 132.913Z" fill="#36C9CB"/>
<path d="M223.1 158.914V171.742H220.388V161.488H220.312L217.375 163.33V160.924L220.551 158.914H223.1Z" fill="#36C9CB"/>
<path d="M78.2294 172.024C77.152 172.02 76.2249 171.754 75.4482 171.228C74.6757 170.702 74.0806 169.94 73.663 168.942C73.2496 167.944 73.045 166.743 73.0491 165.34C73.0491 163.941 73.2558 162.749 73.6693 161.764C74.0869 160.778 74.6819 160.029 75.4545 159.515C76.2312 158.997 77.1561 158.738 78.2294 158.738C79.3026 158.738 80.2254 158.997 80.998 159.515C81.7747 160.033 82.3719 160.784 82.7895 161.77C83.207 162.751 83.4138 163.941 83.4096 165.34C83.4096 166.748 83.2008 167.95 82.7832 168.948C82.3698 169.946 81.7768 170.708 81.0043 171.235C80.2317 171.761 79.3067 172.024 78.2294 172.024ZM78.2294 169.775C78.9643 169.775 79.551 169.406 79.9895 168.666C80.428 167.927 80.6451 166.819 80.6409 165.34C80.6409 164.367 80.5407 163.557 80.3403 162.91C80.144 162.263 79.8642 161.776 79.5009 161.45C79.1418 161.125 78.7179 160.962 78.2294 160.962C77.4986 160.962 76.9139 161.327 76.4755 162.058C76.037 162.789 75.8157 163.883 75.8115 165.34C75.8115 166.326 75.9096 167.148 76.1059 167.808C76.3063 168.464 76.5882 168.957 76.9515 169.287C77.3148 169.612 77.7408 169.775 78.2294 169.775Z" fill="#62C4AA"/>
<path d="M166.374 179.728V191.39H163.908V182.068H163.84L161.169 183.742V181.556L164.056 179.728H166.374Z" fill="#62C4AA"/>
<path d="M133.802 191.646C132.822 191.642 131.979 191.401 131.273 190.923C130.571 190.445 130.03 189.752 129.65 188.844C129.275 187.937 129.089 186.846 129.092 185.57C129.092 184.298 129.28 183.215 129.656 182.319C130.036 181.423 130.577 180.741 131.279 180.274C131.985 179.804 132.826 179.568 133.802 179.568C134.777 179.568 135.616 179.804 136.319 180.274C137.025 180.745 137.568 181.428 137.947 182.324C138.327 183.216 138.515 184.298 138.511 185.57C138.511 186.85 138.321 187.943 137.941 188.85C137.566 189.757 137.027 190.45 136.324 190.929C135.622 191.407 134.781 191.646 133.802 191.646ZM133.802 189.602C134.47 189.602 135.003 189.266 135.402 188.594C135.8 187.922 135.998 186.914 135.994 185.57C135.994 184.686 135.903 183.949 135.721 183.361C135.542 182.772 135.288 182.33 134.958 182.034C134.631 181.738 134.246 181.59 133.802 181.59C133.137 181.59 132.606 181.922 132.207 182.586C131.809 183.251 131.607 184.245 131.604 185.57C131.604 186.466 131.693 187.214 131.871 187.814C132.053 188.41 132.31 188.858 132.64 189.158C132.97 189.454 133.357 189.602 133.802 189.602Z" fill="#36C9CB"/>
<path d="M245.949 141.409V151.905H243.73V143.515H243.669L241.265 145.022V143.054L243.863 141.409H245.949Z" fill="#36C9CB"/>
<path d="M53.0726 152.135C52.1911 152.132 51.4326 151.915 50.7971 151.484C50.165 151.054 49.6781 150.43 49.3364 149.614C48.9982 148.797 48.8308 147.815 48.8342 146.667C48.8342 145.522 49.0033 144.547 49.3416 143.741C49.6832 142.934 50.1701 142.321 50.8022 141.901C51.4377 141.477 52.1945 141.265 53.0726 141.265C53.9506 141.265 54.7057 141.477 55.3378 141.901C55.9733 142.324 56.4619 142.939 56.8035 143.746C57.1452 144.549 57.3143 145.522 57.3109 146.667C57.3109 147.818 57.1401 148.802 56.7984 149.619C56.4602 150.436 55.975 151.059 55.3429 151.49C54.7108 151.92 53.9541 152.135 53.0726 152.135ZM53.0726 150.295C53.6739 150.295 54.1539 149.993 54.5127 149.388C54.8714 148.784 55.0491 147.876 55.0457 146.667C55.0457 145.871 54.9637 145.208 54.7997 144.678C54.6391 144.149 54.4102 143.751 54.1129 143.484C53.8191 143.218 53.4723 143.085 53.0726 143.085C52.4746 143.085 51.9963 143.384 51.6376 143.981C51.2788 144.579 51.0977 145.475 51.0943 146.667C51.0943 147.473 51.1746 148.146 51.3352 148.686C51.4992 149.223 51.7298 149.626 52.0271 149.896C52.3243 150.162 52.6728 150.295 53.0726 150.295Z" fill="#62C4AA"/>
<path d="M254.569 187.745V199.408H252.104V190.086H252.035L249.365 191.76V189.573L252.252 187.745H254.569Z" fill="#62C4AA"/>
<path d="M41.5975 199.664C40.618 199.66 39.7753 199.419 39.0692 198.941C38.3669 198.462 37.8259 197.77 37.4463 196.862C37.0704 195.955 36.8844 194.863 36.8882 193.588C36.8882 192.316 37.0761 191.232 37.4519 190.336C37.8316 189.44 38.3725 188.759 39.0749 188.292C39.781 187.821 40.6218 187.586 41.5975 187.586C42.5731 187.586 43.4121 187.821 44.1144 188.292C44.8205 188.763 45.3634 189.446 45.743 190.342C46.1227 191.234 46.3106 192.316 46.3068 193.588C46.3068 194.867 46.117 195.961 45.7373 196.868C45.3615 197.775 44.8224 198.468 44.1201 198.946C43.4178 199.425 42.5769 199.664 41.5975 199.664ZM41.5975 197.62C42.2656 197.62 42.799 197.284 43.1976 196.612C43.5962 195.94 43.7936 194.932 43.7898 193.588C43.7898 192.703 43.6987 191.967 43.5165 191.378C43.3381 190.79 43.0837 190.348 42.7535 190.052C42.427 189.756 42.0417 189.608 41.5975 189.608C40.9331 189.608 40.4017 189.94 40.003 190.604C39.6044 191.268 39.4032 192.263 39.3994 193.588C39.3994 194.484 39.4887 195.232 39.6671 195.832C39.8493 196.428 40.1055 196.875 40.4358 197.175C40.7661 197.472 41.1533 197.62 41.5975 197.62Z" fill="#36C9CB"/>
<path d="M183.011 219.047V231.875H180.299V221.621H180.224L177.286 223.463V221.057L180.462 219.047H183.011Z" fill="#36C9CB"/>
<path d="M118.318 232.157C117.241 232.153 116.314 231.888 115.537 231.361C114.765 230.835 114.169 230.073 113.752 229.075C113.338 228.077 113.134 226.877 113.138 225.473C113.138 224.074 113.345 222.882 113.758 221.897C114.176 220.911 114.771 220.162 115.543 219.648C116.32 219.13 117.245 218.871 118.318 218.871C119.391 218.871 120.314 219.13 121.087 219.648C121.864 220.166 122.461 220.917 122.878 221.903C123.296 222.884 123.503 224.074 123.498 225.473C123.498 226.881 123.29 228.083 122.872 229.081C122.459 230.079 121.866 230.842 121.093 231.368C120.321 231.894 119.396 232.157 118.318 232.157ZM118.318 229.908C119.053 229.908 119.64 229.539 120.078 228.8C120.517 228.06 120.734 226.952 120.73 225.473C120.73 224.5 120.63 223.69 120.429 223.043C120.233 222.396 119.953 221.909 119.59 221.584C119.231 221.258 118.807 221.095 118.318 221.095C117.587 221.095 117.003 221.46 116.564 222.191C116.126 222.922 115.905 224.016 115.9 225.473C115.9 226.459 115.999 227.282 116.195 227.941C116.395 228.597 116.677 229.09 117.04 229.42C117.404 229.745 117.83 229.908 118.318 229.908Z" fill="#62C4AA"/>
<path d="M269.401 175.249V184.579H267.428V177.122H267.373L265.237 178.461V176.712L267.547 175.249H269.401Z" fill="#36C9CB"/>
<path d="M24.4583 184.784C23.6747 184.781 23.0005 184.588 22.4356 184.206C21.8738 183.823 21.441 183.269 21.1373 182.543C20.8366 181.817 20.6878 180.944 20.6908 179.923C20.6908 178.906 20.8412 178.039 21.1418 177.322C21.4455 176.606 21.8783 176.06 22.4402 175.687C23.005 175.31 23.6777 175.122 24.4583 175.122C25.2388 175.122 25.91 175.31 26.4718 175.687C27.0367 176.063 27.471 176.61 27.7747 177.327C28.0784 178.04 28.2287 178.906 28.2257 179.923C28.2257 180.947 28.0738 181.822 27.7701 182.547C27.4695 183.273 27.0382 183.828 26.4764 184.21C25.9145 184.593 25.2418 184.784 24.4583 184.784ZM24.4583 183.149C24.9928 183.149 25.4195 182.88 25.7384 182.342C26.0573 181.805 26.2152 180.999 26.2121 179.923C26.2121 179.216 26.1393 178.627 25.9935 178.156C25.8507 177.685 25.6473 177.331 25.383 177.094C25.1219 176.858 24.8136 176.739 24.4583 176.739C23.9268 176.739 23.5016 177.005 23.1827 177.536C22.8638 178.068 22.7029 178.864 22.6998 179.923C22.6998 180.64 22.7712 181.238 22.9139 181.718C23.0597 182.195 23.2647 182.554 23.5289 182.793C23.7932 183.03 24.1029 183.149 24.4583 183.149Z" fill="#62C4AA"/>
<path d="M261.985 221.586V232.082H259.766V223.693H259.704L257.301 225.199V223.231L259.899 221.586H261.985Z" fill="#62C4AA"/>
<path d="M33.0281 232.313C32.1466 232.309 31.3881 232.092 30.7526 231.662C30.1205 231.231 29.6337 230.608 29.292 229.791C28.9538 228.975 28.7863 227.992 28.7898 226.844C28.7898 225.7 28.9589 224.724 29.2971 223.918C29.6388 223.112 30.1257 222.498 30.7578 222.078C31.3933 221.655 32.15 221.443 33.0281 221.443C33.9062 221.443 34.6613 221.655 35.2934 222.078C35.9289 222.502 36.4174 223.117 36.7591 223.923C37.1008 224.726 37.2699 225.7 37.2665 226.844C37.2665 227.996 37.0956 228.98 36.754 229.796C36.4157 230.613 35.9306 231.237 35.2985 231.667C34.6664 232.098 33.9096 232.313 33.0281 232.313ZM33.0281 230.473C33.6295 230.473 34.1095 230.171 34.4682 229.566C34.827 228.961 35.0047 228.054 35.0012 226.844C35.0012 226.048 34.9192 225.386 34.7552 224.856C34.5947 224.326 34.3657 223.928 34.0685 223.662C33.7747 223.395 33.4279 223.262 33.0281 223.262C32.4302 223.262 31.9519 223.561 31.5931 224.159C31.2344 224.757 31.0533 225.652 31.0499 226.844C31.0499 227.651 31.1302 228.324 31.2908 228.864C31.4548 229.4 31.6854 229.803 31.9826 230.073C32.2799 230.34 32.6284 230.473 33.0281 230.473Z" fill="#36C9CB"/>
<path d="M198.445 259.905V271.567H195.979V262.246H195.911L193.24 263.92V261.733L196.127 259.905H198.445Z" fill="#36C9CB"/>
<path d="M101.731 271.824C100.751 271.82 99.9086 271.579 99.2025 271.1C98.5002 270.622 97.9592 269.929 97.5796 269.022C97.2037 268.115 97.0177 267.023 97.0215 265.748C97.0215 264.476 97.2094 263.392 97.5852 262.496C97.9649 261.6 98.5058 260.919 99.2082 260.452C99.9143 259.981 100.755 259.746 101.731 259.746C102.706 259.746 103.545 259.981 104.248 260.452C104.954 260.923 105.497 261.606 105.876 262.502C106.256 263.394 106.444 264.476 106.44 265.748C106.44 267.027 106.25 268.12 105.871 269.028C105.495 269.935 104.956 270.628 104.253 271.106C103.551 271.584 102.71 271.824 101.731 271.824ZM101.731 269.779C102.399 269.779 102.932 269.443 103.331 268.771C103.73 268.1 103.927 267.092 103.923 265.748C103.923 264.863 103.832 264.127 103.65 263.538C103.471 262.95 103.217 262.508 102.887 262.211C102.56 261.915 102.175 261.767 101.731 261.767C101.066 261.767 100.535 262.099 100.136 262.764C99.7377 263.428 99.5365 264.423 99.5327 265.748C99.5327 266.644 99.622 267.391 99.8004 267.991C99.9826 268.587 100.239 269.035 100.569 269.335C100.899 269.631 101.287 269.779 101.731 269.779Z" fill="#62C4AA"/>
<path d="M155.551 241.33V255.325H152.592V244.139H152.51L149.305 246.148V243.524L152.77 241.33H155.551Z" fill="#62C4AA"/>
<path d="M276.817 208.09V216.254H275.091V209.729H275.043L273.174 210.9V209.37L275.194 208.09H276.817Z" fill="#8391A6"/>
<path d="M15.8889 216.433C15.2033 216.43 14.6133 216.262 14.1191 215.927C13.6275 215.592 13.2488 215.107 12.983 214.472C12.7199 213.837 12.5897 213.073 12.5924 212.18C12.5924 211.29 12.7239 210.531 12.987 209.904C13.2528 209.277 13.6314 208.8 14.1231 208.473C14.6173 208.143 15.2059 207.979 15.8889 207.979C16.5718 207.979 17.1591 208.143 17.6508 208.473C18.145 208.802 18.525 209.281 18.7908 209.908C19.0565 210.532 19.1881 211.29 19.1854 212.18C19.1854 213.076 19.0525 213.841 18.7868 214.476C18.5237 215.111 18.1464 215.596 17.6547 215.931C17.1631 216.266 16.5745 216.433 15.8889 216.433ZM15.8889 215.002C16.3566 215.002 16.73 214.767 17.009 214.297C17.288 213.826 17.4262 213.121 17.4235 212.18C17.4235 211.561 17.3598 211.045 17.2322 210.633C17.1073 210.221 16.9293 209.912 16.6981 209.705C16.4695 209.497 16.1998 209.394 15.8889 209.394C15.4239 209.394 15.0518 209.626 14.7728 210.091C14.4938 210.556 14.3529 211.253 14.3503 212.18C14.3503 212.807 14.4127 213.331 14.5376 213.751C14.6652 214.168 14.8445 214.481 15.0757 214.691C15.3069 214.899 15.578 215.002 15.8889 215.002Z" fill="#8391A6"/>
<path d="M252.965 272.979C252.181 272.976 251.507 272.784 250.942 272.401C250.38 272.018 249.947 271.464 249.644 270.738C249.343 270.012 249.194 269.139 249.197 268.119C249.197 267.101 249.348 266.234 249.648 265.518C249.952 264.801 250.385 264.256 250.947 263.882C251.511 263.505 252.184 263.317 252.965 263.317C253.745 263.317 254.416 263.505 254.978 263.882C255.543 264.259 255.977 264.805 256.281 265.522C256.585 266.236 256.735 267.101 256.732 268.119C256.732 269.142 256.58 270.017 256.276 270.743C255.976 271.469 255.545 272.023 254.983 272.405C254.421 272.788 253.748 272.979 252.965 272.979ZM252.965 271.344C253.499 271.344 253.926 271.075 254.245 270.538C254.564 270 254.722 269.194 254.718 268.119C254.718 267.411 254.646 266.822 254.5 266.351C254.357 265.88 254.154 265.527 253.889 265.29C253.628 265.053 253.32 264.934 252.965 264.934C252.433 264.934 252.008 265.2 251.689 265.732C251.37 266.263 251.209 267.059 251.206 268.119C251.206 268.835 251.278 269.434 251.42 269.914C251.566 270.39 251.771 270.749 252.035 270.989C252.3 271.226 252.609 271.344 252.965 271.344Z" fill="#8391A6"/>
<path d="M40.8948 263.445V272.774H38.9222V265.317H38.8676L36.731 266.656V264.907L39.0407 263.445H40.8948Z" fill="#8391A6"/>
<path d="M213.879 301.764V312.26H211.659V303.87H211.598L209.194 305.377V303.409L211.793 301.764H213.879Z" fill="#8391A6"/>
<path d="M85.1434 312.49C84.2619 312.487 83.5034 312.27 82.8679 311.839C82.2358 311.409 81.7489 310.785 81.4072 309.969C81.069 309.152 80.9016 308.17 80.905 307.022C80.905 305.877 81.0741 304.902 81.4124 304.096C81.754 303.289 82.2409 302.676 82.873 302.256C83.5085 301.832 84.2653 301.62 85.1434 301.62C86.0214 301.62 86.7765 301.832 87.4086 302.256C88.0441 302.679 88.5327 303.294 88.8743 304.101C89.216 304.904 89.3851 305.877 89.3817 307.022C89.3817 308.173 89.2109 309.157 88.8692 309.974C88.531 310.791 88.0458 311.414 87.4137 311.845C86.7816 312.275 86.0249 312.49 85.1434 312.49ZM85.1434 310.65C85.7447 310.65 86.2247 310.348 86.5835 309.743C86.9422 309.139 87.1199 308.231 87.1165 307.022C87.1165 306.226 87.0345 305.563 86.8705 305.033C86.7099 304.504 86.481 304.106 86.1837 303.839C85.8899 303.573 85.5431 303.44 85.1434 303.44C84.5454 303.44 84.0671 303.739 83.7084 304.336C83.3496 304.934 83.1685 305.83 83.1651 307.022C83.1651 307.828 83.2454 308.501 83.406 309.041C83.57 309.578 83.8006 309.981 84.0979 310.251C84.3951 310.517 84.7436 310.65 85.1434 310.65Z" fill="#8391A6"/>
<path d="M165.17 295.516V304.845H163.198V297.388H163.143L161.006 298.727V296.978L163.316 295.516H165.17Z" fill="#36C9CB"/>
<path d="M132.698 305.05C131.914 305.047 131.24 304.855 130.675 304.472C130.114 304.089 129.681 303.535 129.377 302.809C129.076 302.083 128.928 301.21 128.931 300.19C128.931 299.172 129.081 298.305 129.382 297.589C129.685 296.872 130.118 296.327 130.68 295.953C131.245 295.576 131.917 295.388 132.698 295.388C133.479 295.388 134.15 295.576 134.712 295.953C135.276 296.33 135.711 296.876 136.014 297.593C136.318 298.307 136.468 299.172 136.465 300.19C136.465 301.213 136.314 302.088 136.01 302.814C135.709 303.54 135.278 304.094 134.716 304.476C134.154 304.859 133.482 305.05 132.698 305.05ZM132.698 303.415C133.233 303.415 133.659 303.146 133.978 302.609C134.297 302.071 134.455 301.265 134.452 300.19C134.452 299.482 134.379 298.893 134.233 298.422C134.09 297.951 133.887 297.598 133.623 297.361C133.362 297.124 133.053 297.005 132.698 297.005C132.167 297.005 131.741 297.271 131.422 297.803C131.104 298.334 130.943 299.13 130.94 300.19C130.94 300.906 131.011 301.505 131.154 301.985C131.299 302.461 131.504 302.82 131.769 303.06C132.033 303.297 132.343 303.415 132.698 303.415Z" fill="#62C4AA"/>
<path d="M228.359 344.717C227.674 344.715 227.084 344.546 226.589 344.211C226.098 343.876 225.719 343.391 225.453 342.756C225.19 342.121 225.06 341.357 225.063 340.464C225.063 339.574 225.194 338.815 225.457 338.188C225.723 337.561 226.102 337.084 226.593 336.757C227.088 336.427 227.676 336.263 228.359 336.263C229.042 336.263 229.629 336.427 230.121 336.757C230.615 337.086 230.995 337.565 231.261 338.192C231.527 338.816 231.658 339.574 231.656 340.464C231.656 341.36 231.523 342.125 231.257 342.76C230.994 343.395 230.617 343.88 230.125 344.215C229.633 344.55 229.045 344.717 228.359 344.717ZM228.359 343.286C228.827 343.286 229.2 343.051 229.479 342.581C229.758 342.11 229.896 341.405 229.894 340.464C229.894 339.845 229.83 339.329 229.702 338.917C229.578 338.506 229.399 338.196 229.168 337.989C228.94 337.781 228.67 337.678 228.359 337.678C227.894 337.678 227.522 337.91 227.243 338.375C226.964 338.84 226.823 339.537 226.82 340.464C226.82 341.091 226.883 341.615 227.008 342.035C227.135 342.452 227.315 342.765 227.546 342.975C227.777 343.183 228.048 343.286 228.359 343.286Z" fill="#8391A6"/>
<path d="M68.3549 336.374V344.538H66.6289V338.013H66.5811L64.7116 339.184V337.654L66.7326 336.374H68.3549Z" fill="#8391A6"/>
<path d="M154.347 316.029V327.692H151.881V318.37H151.813L149.142 320.044V317.857L152.03 316.029H154.347Z" fill="#36C9CB"/>
<path opacity="0.7" d="M148.328 147.526C150.099 147.526 151.535 146.09 151.535 144.319C151.535 142.548 150.099 141.112 148.328 141.112C146.557 141.112 145.121 142.548 145.121 144.319C145.121 146.09 146.557 147.526 148.328 147.526Z" fill="#62C4AA"/>
<path opacity="0.5" d="M168.373 134.297C169.48 134.297 170.377 133.399 170.377 132.292C170.377 131.185 169.48 130.288 168.373 130.288C167.266 130.288 166.368 131.185 166.368 132.292C166.368 133.399 167.266 134.297 168.373 134.297Z" fill="#62C4AA"/>
<path opacity="0.4" d="M204.453 141.914C205.338 141.914 206.056 141.196 206.056 140.31C206.056 139.424 205.338 138.707 204.453 138.707C203.567 138.707 202.849 139.424 202.849 140.31C202.849 141.196 203.567 141.914 204.453 141.914Z" fill="#62C4AA"/>
<path opacity="0.3" d="M240.532 157.548C241.196 157.548 241.735 157.01 241.735 156.346C241.735 155.681 241.196 155.143 240.532 155.143C239.868 155.143 239.33 155.681 239.33 156.346C239.33 157.01 239.868 157.548 240.532 157.548Z" fill="#62C4AA"/>
<path opacity="0.5" d="M128.284 134.297C129.391 134.297 130.288 133.399 130.288 132.292C130.288 131.185 129.391 130.288 128.284 130.288C127.177 130.288 126.279 131.185 126.279 132.292C126.279 133.399 127.177 134.297 128.284 134.297Z" fill="#62C4AA"/>
<path opacity="0.4" d="M88.1949 141.914C89.0805 141.914 89.7984 141.196 89.7984 140.31C89.7984 139.424 89.0805 138.707 88.1949 138.707C87.3092 138.707 86.5913 139.424 86.5913 140.31C86.5913 141.196 87.3092 141.914 88.1949 141.914Z" fill="#62C4AA"/>
<path opacity="0.3" d="M48.1065 157.548C48.7707 157.548 49.3091 157.01 49.3091 156.346C49.3091 155.681 48.7707 155.143 48.1065 155.143C47.4423 155.143 46.9038 155.681 46.9038 156.346C46.9038 157.01 47.4423 157.548 48.1065 157.548Z" fill="#62C4AA"/>
<path opacity="0.5" d="M148.328 178.394C149.435 178.394 150.333 177.497 150.333 176.39C150.333 175.283 149.435 174.386 148.328 174.386C147.221 174.386 146.324 175.283 146.324 176.39C146.324 177.497 147.221 178.394 148.328 178.394Z" fill="#62C4AA"/>
<path opacity="0.4" d="M148.328 226.1C149.214 226.1 149.932 225.382 149.932 224.496C149.932 223.611 149.214 222.893 148.328 222.893C147.443 222.893 146.725 223.611 146.725 224.496C146.725 225.382 147.443 226.1 148.328 226.1Z" fill="#62C4AA"/>
<path opacity="0.3" d="M148.328 273.806C148.992 273.806 149.531 273.267 149.531 272.603C149.531 271.939 148.992 271.4 148.328 271.4C147.664 271.4 147.125 271.939 147.125 272.603C147.125 273.267 147.664 273.806 148.328 273.806Z" fill="#62C4AA"/>
<g opacity="0.1">
<path d="M0 144.319H296.657" stroke="#8391A6" stroke-width="0.400888"/>
<path d="M148.328 -0.000961304V374.428" stroke="#8391A6" stroke-width="0.400888"/>
<path d="M148.328 208.461C183.753 208.461 212.47 179.743 212.47 144.319C212.47 108.894 183.753 80.1766 148.328 80.1766C112.903 80.1766 84.186 108.894 84.186 144.319C84.186 179.743 112.903 208.461 148.328 208.461Z" stroke="#8391A6" stroke-width="0.400888"/>
<path d="M148.328 264.585C214.75 264.585 268.595 210.74 268.595 144.319C268.595 77.8973 214.75 24.0523 148.328 24.0523C81.9071 24.0523 28.062 77.8973 28.062 144.319C28.062 210.74 81.9071 264.585 148.328 264.585Z" stroke="#8391A6" stroke-width="0.400888"/>
</g>
</g>
</g>
<defs>
<radialGradient id="paint0_radial_5735_7827" cx="0" cy="0" r="1" gradientUnits="userSpaceOnUse" gradientTransform="translate(11260.9 9011.95) scale(112.249)">
<stop stop-color="#36C9CB" stop-opacity="0.4"/>
<stop offset="1" stop-color="#36C9CB" stop-opacity="0"/>
</radialGradient>
<clipPath id="clip0_5735_7827">
<rect width="296.657" height="374.429" fill="white"/>
</clipPath>
<clipPath id="clip1_5735_7827">
<rect width="296.657" height="374.429" fill="white"/>
</clipPath>
</defs>
</svg>
