<svg width="200" height="200" viewBox="0 0 200 200" fill="none" xmlns="http://www.w3.org/2000/svg">
<g opacity="0.1">
<path d="M85 120C104.33 120 120 104.33 120 85C120 65.67 104.33 50 85 50C65.67 50 50 65.67 50 85C50 104.33 65.67 120 85 120Z" stroke="white" stroke-width="8"/>
<path d="M112 112L140 140" stroke="white" stroke-width="8"/>
<path d="M85 92C91.6274 92 97 86.6274 97 80C97 73.3726 91.6274 68 85 68C78.3726 68 73 73.3726 73 80C73 86.6274 78.3726 92 85 92Z" fill="white"/>
<path d="M77 80C78.1046 80 79 79.1046 79 78C79 76.8954 78.1046 76 77 76C75.8954 76 75 76.8954 75 78C75 79.1046 75.8954 80 77 80Z" fill="#F5F5F5"/>
<path d="M93 80C94.1046 80 95 79.1046 95 78C95 76.8954 94.1046 76 93 76C91.8954 76 91 76.8954 91 78C91 79.1046 91.8954 80 93 80Z" fill="#F5F5F5"/>
<path d="M70 85L65 90M70 90L65 95" stroke="white" stroke-width="4"/>
<path d="M100 85L105 90M100 90L105 95" stroke="white" stroke-width="4"/>
<path opacity="0.4" d="M100 40L135 52V85C135 101.667 123.333 118.333 100 135" stroke="white" stroke-width="6"/>
</g>
</svg>
