<svg width="285" height="221" viewBox="0 0 285 221" fill="none" xmlns="http://www.w3.org/2000/svg">
<mask id="path-1-inside-1_5804_962" fill="white">
<path d="M212.496 5.89985C212.496 2.64145 215.138 0 218.396 0H279.106C282.364 0 285.006 2.64145 285.006 5.89985V54.0819C285.006 57.3403 282.364 59.9818 279.106 59.9818H218.396C215.138 59.9818 212.496 57.3403 212.496 54.0819V5.89985Z"/>
</mask>
<path d="M212.496 5.89985C212.496 2.64145 215.138 0 218.396 0H279.106C282.364 0 285.006 2.64145 285.006 5.89985V54.0819C285.006 57.3403 282.364 59.9818 279.106 59.9818H218.396C215.138 59.9818 212.496 57.3403 212.496 54.0819V5.89985Z" fill="#EBECEE" fill-opacity="0.23"/>
<path d="M218.396 0V0.491654H279.106V0V-0.491654H218.396V0ZM285.006 5.89985H284.514V54.0819H285.006H285.497V5.89985H285.006ZM279.106 59.9818V59.4901H218.396V59.9818V60.4734H279.106V59.9818ZM212.496 54.0819H212.988V5.89985H212.496H212.004V54.0819H212.496ZM218.396 59.9818V59.4901C215.409 59.4901 212.988 57.0688 212.988 54.0819H212.496H212.004C212.004 57.6119 214.866 60.4734 218.396 60.4734V59.9818ZM285.006 54.0819H284.514C284.514 57.0688 282.093 59.4901 279.106 59.4901V59.9818V60.4734C282.636 60.4734 285.497 57.6119 285.497 54.0819H285.006ZM279.106 0V0.491654C282.093 0.491654 284.514 2.91299 284.514 5.89985H285.006H285.497C285.497 2.36992 282.636 -0.491654 279.106 -0.491654V0ZM218.396 0V-0.491654C214.866 -0.491654 212.004 2.36992 212.004 5.89985H212.496H212.988C212.988 2.91299 215.409 0.491654 218.396 0.491654V0Z" fill="#756CEA" fill-opacity="0.15" mask="url(#path-1-inside-1_5804_962)"/>
<rect width="175.52" height="17.6995" transform="translate(109.485 77.9817)" fill="#EBECEE" fill-opacity="0.17"/>
<g opacity="0.9">
<rect width="285.006" height="17.6995" transform="translate(0 123.681)" fill="#EBECEE" fill-opacity="0.17"/>
</g>
<rect width="103.739" height="7.37481" transform="translate(181.267 155.381)" fill="#EBECEE" fill-opacity="0.17"/>
<rect width="92.9226" height="7.37481" transform="translate(192.083 171.605)" fill="#EBECEE" fill-opacity="0.17"/>
<rect width="101.772" height="7.37481" transform="translate(183.233 187.83)" fill="#EBECEE" fill-opacity="0.17"/>
</svg>
