<svg width="548" height="441" viewBox="0 0 548 441" fill="none" xmlns="http://www.w3.org/2000/svg">
<g opacity="0.6">
<path d="M201.859 226.364C201.859 186.55 234.135 154.274 273.95 154.274C313.764 154.274 346.04 186.55 346.04 226.364C346.04 266.179 313.764 298.455 273.95 298.455C234.135 298.455 201.859 266.179 201.859 226.364Z" fill="url(#paint0_radial_5878_1554)"/>
</g>
<path opacity="0.5" d="M273.95 294.85C311.774 294.85 342.436 264.188 342.436 226.364C342.436 188.541 311.774 157.878 273.95 157.878C236.126 157.878 205.464 188.541 205.464 226.364C205.464 264.188 236.126 294.85 273.95 294.85Z" stroke="#62C4AA" stroke-width="1.08136" stroke-dasharray="5.77 2.88"/>
<path opacity="0.7" d="M273.95 273.223C299.829 273.223 320.809 252.244 320.809 226.364C320.809 200.485 299.829 179.506 273.95 179.506C248.07 179.506 227.091 200.485 227.091 226.364C227.091 252.244 248.07 273.223 273.95 273.223Z" stroke="#36C9CB" stroke-width="1.44181"/>
<path opacity="0.8" d="M273.95 201.133L295.577 214.109V238.62L273.95 251.596L252.323 238.62V214.109L273.95 201.133Z" fill="#36C9CB" fill-opacity="0.1" stroke="#36C9CB" stroke-width="1.44181"/>
<g opacity="0.9">
<path d="M269.625 226.364C269.625 223.976 271.561 222.039 273.95 222.039C276.339 222.039 278.275 223.976 278.275 226.364C278.275 228.753 276.339 230.69 273.95 230.69C271.561 230.69 269.625 228.753 269.625 226.364Z" fill="#62C4AA"/>
</g>
<path opacity="0.5" d="M273.95 226.364V168.692" stroke="#36C9CB" stroke-width="1.08136"/>
<path opacity="0.5" d="M273.95 226.364L317.204 183.11" stroke="#36C9CB" stroke-width="1.08136"/>
<path opacity="0.5" d="M273.95 226.364H331.622" stroke="#36C9CB" stroke-width="1.08136"/>
<path opacity="0.5" d="M273.95 226.364L317.204 269.619" stroke="#36C9CB" stroke-width="1.08136"/>
<path opacity="0.5" d="M273.95 226.364V284.037" stroke="#36C9CB" stroke-width="1.08136"/>
<path opacity="0.5" d="M273.95 226.364L230.695 269.619" stroke="#36C9CB" stroke-width="1.08136"/>
<path opacity="0.5" d="M273.95 226.364H216.277" stroke="#36C9CB" stroke-width="1.08136"/>
<path opacity="0.5" d="M273.95 226.364L230.695 183.11" stroke="#36C9CB" stroke-width="1.08136"/>
<path opacity="0.8" d="M273.95 172.296C275.94 172.296 277.554 170.683 277.554 168.692C277.554 166.701 275.94 165.087 273.95 165.087C271.959 165.087 270.345 166.701 270.345 168.692C270.345 170.683 271.959 172.296 273.95 172.296Z" fill="#62C4AA"/>
<path opacity="0.8" d="M317.204 186.714C319.195 186.714 320.809 185.101 320.809 183.11C320.809 181.119 319.195 179.505 317.204 179.505C315.213 179.505 313.6 181.119 313.6 183.11C313.6 185.101 315.213 186.714 317.204 186.714Z" fill="#36C9CB"/>
<path opacity="0.8" d="M331.622 229.969C333.613 229.969 335.227 228.355 335.227 226.364C335.227 224.374 333.613 222.76 331.622 222.76C329.631 222.76 328.018 224.374 328.018 226.364C328.018 228.355 329.631 229.969 331.622 229.969Z" fill="#62C4AA"/>
<path opacity="0.8" d="M317.204 273.223C319.195 273.223 320.809 271.609 320.809 269.619C320.809 267.628 319.195 266.014 317.204 266.014C315.213 266.014 313.6 267.628 313.6 269.619C313.6 271.609 315.213 273.223 317.204 273.223Z" fill="#36C9CB"/>
<path opacity="0.8" d="M273.95 287.641C275.94 287.641 277.554 286.028 277.554 284.037C277.554 282.046 275.94 280.432 273.95 280.432C271.959 280.432 270.345 282.046 270.345 284.037C270.345 286.028 271.959 287.641 273.95 287.641Z" fill="#62C4AA"/>
<path opacity="0.8" d="M230.695 273.223C232.686 273.223 234.3 271.609 234.3 269.619C234.3 267.628 232.686 266.014 230.695 266.014C228.705 266.014 227.091 267.628 227.091 269.619C227.091 271.609 228.705 273.223 230.695 273.223Z" fill="#36C9CB"/>
<path opacity="0.8" d="M216.277 229.969C218.268 229.969 219.882 228.355 219.882 226.364C219.882 224.374 218.268 222.76 216.277 222.76C214.287 222.76 212.673 224.374 212.673 226.364C212.673 228.355 214.287 229.969 216.277 229.969Z" fill="#62C4AA"/>
<path opacity="0.8" d="M230.695 186.714C232.686 186.714 234.3 185.101 234.3 183.11C234.3 181.119 232.686 179.505 230.695 179.505C228.705 179.505 227.091 181.119 227.091 183.11C227.091 185.101 228.705 186.714 230.695 186.714Z" fill="#36C9CB"/>
<path opacity="0.7" d="M99.3382 72.3506H60.4093C59.2149 72.3506 58.2466 73.3189 58.2466 74.5133V81.0015C58.2466 82.1959 59.2149 83.1642 60.4093 83.1642H99.3382C100.533 83.1642 101.501 82.1959 101.501 81.0015V74.5133C101.501 73.3189 100.533 72.3506 99.3382 72.3506Z" stroke="#36C9CB" stroke-width="1.44181"/>
<path opacity="0.7" d="M99.3382 85.3269H60.4093C59.2149 85.3269 58.2466 86.2952 58.2466 87.4896V93.9778C58.2466 95.1722 59.2149 96.1405 60.4093 96.1405H99.3382C100.533 96.1405 101.501 95.1722 101.501 93.9778V87.4896C101.501 86.2952 100.533 85.3269 99.3382 85.3269Z" stroke="#36C9CB" stroke-width="1.44181"/>
<path opacity="0.7" d="M99.3382 98.3032H60.4093C59.2149 98.3032 58.2466 99.2715 58.2466 100.466V106.954C58.2466 108.149 59.2149 109.117 60.4093 109.117H99.3382C100.533 109.117 101.501 108.149 101.501 106.954V100.466C101.501 99.2715 100.533 98.3032 99.3382 98.3032Z" stroke="#36C9CB" stroke-width="1.44181"/>
<path opacity="0.8" d="M63.2928 78.8387C63.89 78.8387 64.3741 78.3546 64.3741 77.7574C64.3741 77.1602 63.89 76.676 63.2928 76.676C62.6956 76.676 62.2114 77.1602 62.2114 77.7574C62.2114 78.3546 62.6956 78.8387 63.2928 78.8387Z" fill="#36C9CB"/>
<path opacity="0.8" d="M63.2928 91.8151C63.89 91.8151 64.3741 91.3309 64.3741 90.7337C64.3741 90.1365 63.89 89.6523 63.2928 89.6523C62.6956 89.6523 62.2114 90.1365 62.2114 90.7337C62.2114 91.3309 62.6956 91.8151 63.2928 91.8151Z" fill="#36C9CB"/>
<path opacity="0.8" d="M63.2928 104.791C63.89 104.791 64.3741 104.307 64.3741 103.71C64.3741 103.113 63.89 102.629 63.2928 102.629C62.6956 102.629 62.2114 103.113 62.2114 103.71C62.2114 104.307 62.6956 104.791 63.2928 104.791Z" fill="#36C9CB"/>
<path opacity="0.6" d="M114.477 57.9319C115.672 57.9319 116.64 56.9636 116.64 55.7692C116.64 54.5747 115.672 53.6064 114.477 53.6064C113.283 53.6064 112.314 54.5747 112.314 55.7692C112.314 56.9636 113.283 57.9319 114.477 57.9319Z" fill="#62C4AA"/>
<path opacity="0.6" d="M435.438 113.932H453.461V95.9089H471.483" stroke="#36C9CB" stroke-width="1.44181"/>
<path opacity="0.6" d="M435.438 113.931H453.461V131.954H471.483" stroke="#36C9CB" stroke-width="1.44181"/>
<path opacity="0.6" d="M471.483 95.9089H485.902V113.932H471.483" stroke="#62C4AA" stroke-width="1.44181"/>
<path opacity="0.6" d="M471.483 131.954H485.902V113.931H471.483" stroke="#62C4AA" stroke-width="1.44181"/>
<path opacity="0.7" d="M435.438 116.815C437.031 116.815 438.322 115.524 438.322 113.931C438.322 112.339 437.031 111.048 435.438 111.048C433.846 111.048 432.555 112.339 432.555 113.931C432.555 115.524 433.846 116.815 435.438 116.815Z" fill="#36C9CB"/>
<path opacity="0.7" d="M453.461 98.0715C454.655 98.0715 455.623 97.1032 455.623 95.9088C455.623 94.7144 454.655 93.7461 453.461 93.7461C452.266 93.7461 451.298 94.7144 451.298 95.9088C451.298 97.1032 452.266 98.0715 453.461 98.0715Z" fill="#36C9CB"/>
<path opacity="0.7" d="M453.461 134.117C454.655 134.117 455.623 133.149 455.623 131.954C455.623 130.76 454.655 129.792 453.461 129.792C452.266 129.792 451.298 130.76 451.298 131.954C451.298 133.149 452.266 134.117 453.461 134.117Z" fill="#36C9CB"/>
<path opacity="0.7" d="M471.483 116.815C473.076 116.815 474.367 115.524 474.367 113.931C474.367 112.339 473.076 111.048 471.483 111.048C469.891 111.048 468.6 112.339 468.6 113.931C468.6 115.524 469.891 116.815 471.483 116.815Z" fill="#62C4AA"/>
<path opacity="0.7" d="M485.902 116.815C487.494 116.815 488.785 115.524 488.785 113.931C488.785 112.339 487.494 111.048 485.902 111.048C484.309 111.048 483.018 112.339 483.018 113.931C483.018 115.524 484.309 116.815 485.902 116.815Z" fill="#62C4AA"/>
<path opacity="0.6" d="M58.3936 355.987C65.6026 346.375 72.8117 346.375 80.0207 355.987C87.2298 365.599 94.4388 365.599 101.648 355.987C108.857 346.375 116.066 346.375 123.275 355.987" stroke="#36C9CB" stroke-width="1.80226"/>
<path opacity="0.5" d="M58.3936 363.196C65.6026 353.584 72.8117 353.584 80.0207 363.196C87.2298 372.808 94.4388 372.808 101.648 363.196C108.857 353.584 116.066 353.584 123.275 363.196" stroke="#36C9CB" stroke-width="1.44181"/>
<path opacity="0.4" d="M58.3936 370.406C65.6026 360.794 72.8117 360.794 80.0207 370.406C87.2298 380.018 94.4388 380.018 101.648 370.406C108.857 360.794 116.066 360.794 123.275 370.406" stroke="#36C9CB" stroke-width="1.08136"/>
<path opacity="0.7" d="M58.3937 358.15C59.5881 358.15 60.5564 357.182 60.5564 355.987C60.5564 354.793 59.5881 353.825 58.3937 353.825C57.1992 353.825 56.231 354.793 56.231 355.987C56.231 357.182 57.1992 358.15 58.3937 358.15Z" fill="#36C9CB"/>
<path opacity="0.7" d="M80.0206 358.15C81.2151 358.15 82.1833 357.182 82.1833 355.987C82.1833 354.793 81.2151 353.825 80.0206 353.825C78.8262 353.825 77.8579 354.793 77.8579 355.987C77.8579 357.182 78.8262 358.15 80.0206 358.15Z" fill="#36C9CB"/>
<path opacity="0.7" d="M101.648 358.15C102.843 358.15 103.811 357.182 103.811 355.987C103.811 354.793 102.843 353.825 101.648 353.825C100.454 353.825 99.4854 354.793 99.4854 355.987C99.4854 357.182 100.454 358.15 101.648 358.15Z" fill="#36C9CB"/>
<path opacity="0.7" d="M123.275 358.15C124.469 358.15 125.438 357.182 125.438 355.987C125.438 354.793 124.469 353.825 123.275 353.825C122.081 353.825 121.112 354.793 121.112 355.987C121.112 357.182 122.081 358.15 123.275 358.15Z" fill="#62C4AA"/>
<path opacity="0.6" d="M468.025 337.125L493.257 351.543V373.17L468.025 387.588L442.793 373.17V351.543L468.025 337.125Z" stroke="#62C4AA" stroke-width="1.44181"/>
<path opacity="0.7" d="M468.025 344.334L486.048 353.706V371.008L468.025 380.38L450.002 371.008V353.706L468.025 344.334Z" stroke="#36C9CB" stroke-width="1.44181"/>
<path opacity="0.8" d="M468.026 368.124C471.211 368.124 473.793 365.542 473.793 362.357C473.793 359.172 471.211 356.59 468.026 356.59C464.84 356.59 462.258 359.172 462.258 362.357C462.258 365.542 464.84 368.124 468.026 368.124Z" fill="#62C4AA" fill-opacity="0.3" stroke="#62C4AA" stroke-width="1.08136"/>
<path opacity="0.7" d="M468.026 339.288C469.22 339.288 470.188 338.32 470.188 337.125C470.188 335.931 469.22 334.962 468.026 334.962C466.831 334.962 465.863 335.931 465.863 337.125C465.863 338.32 466.831 339.288 468.026 339.288Z" fill="#62C4AA"/>
<path opacity="0.7" d="M493.257 353.706C494.451 353.706 495.42 352.738 495.42 351.543C495.42 350.349 494.451 349.38 493.257 349.38C492.063 349.38 491.094 350.349 491.094 351.543C491.094 352.738 492.063 353.706 493.257 353.706Z" fill="#36C9CB"/>
<path opacity="0.7" d="M493.257 375.333C494.451 375.333 495.42 374.365 495.42 373.171C495.42 371.976 494.451 371.008 493.257 371.008C492.063 371.008 491.094 371.976 491.094 373.171C491.094 374.365 492.063 375.333 493.257 375.333Z" fill="#62C4AA"/>
<path opacity="0.7" d="M468.026 389.751C469.22 389.751 470.188 388.783 470.188 387.588C470.188 386.394 469.22 385.426 468.026 385.426C466.831 385.426 465.863 386.394 465.863 387.588C465.863 388.783 466.831 389.751 468.026 389.751Z" fill="#36C9CB"/>
<path opacity="0.7" d="M442.794 375.333C443.988 375.333 444.956 374.365 444.956 373.171C444.956 371.976 443.988 371.008 442.794 371.008C441.599 371.008 440.631 371.976 440.631 373.171C440.631 374.365 441.599 375.333 442.794 375.333Z" fill="#62C4AA"/>
<path opacity="0.7" d="M442.794 353.706C443.988 353.706 444.956 352.738 444.956 351.543C444.956 350.349 443.988 349.38 442.794 349.38C441.599 349.38 440.631 350.349 440.631 351.543C440.631 352.738 441.599 353.706 442.794 353.706Z" fill="#36C9CB"/>
<path opacity="0.5" d="M129.769 86.5095C177.829 124.958 225.89 171.576 273.95 226.365" stroke="url(#paint1_linear_5878_1554)" stroke-width="1.08136"/>
<path opacity="0.5" d="M418.131 100.928C370.071 139.376 322.011 181.189 273.95 226.365" stroke="url(#paint2_linear_5878_1554)" stroke-width="1.08136"/>
<path opacity="0.5" d="M144.187 382.081C192.247 329.214 235.502 277.309 273.95 226.365" stroke="url(#paint3_linear_5878_1554)" stroke-width="1.08136"/>
<path opacity="0.5" d="M403.713 389.29C355.653 331.617 312.398 277.309 273.95 226.365" stroke="url(#paint4_linear_5878_1554)" stroke-width="1.08136"/>
<g opacity="0.3">
<path d="M137.67 167.453V166.867H139.216V162.41H139.161L137.765 163.71L137.377 163.29L138.844 161.918H139.882V166.867H141.31V167.453H137.67ZM145.98 167.549C145.319 167.549 144.836 167.297 144.529 166.795C144.228 166.293 144.077 165.59 144.077 164.686C144.077 163.782 144.228 163.079 144.529 162.576C144.836 162.074 145.319 161.823 145.98 161.823C146.641 161.823 147.122 162.074 147.423 162.576C147.73 163.079 147.883 163.782 147.883 164.686C147.883 165.59 147.73 166.293 147.423 166.795C147.122 167.297 146.641 167.549 145.98 167.549ZM145.98 166.97C146.197 166.97 146.382 166.925 146.535 166.835C146.689 166.745 146.813 166.618 146.908 166.454C147.003 166.29 147.072 166.097 147.114 165.875C147.162 165.653 147.185 165.407 147.185 165.138V164.234C147.185 163.964 147.162 163.718 147.114 163.496C147.072 163.274 147.003 163.081 146.908 162.917C146.813 162.754 146.689 162.627 146.535 162.537C146.382 162.447 146.197 162.402 145.98 162.402C145.763 162.402 145.578 162.447 145.425 162.537C145.272 162.627 145.147 162.754 145.052 162.917C144.957 163.081 144.886 163.274 144.838 163.496C144.796 163.718 144.775 163.964 144.775 164.234V165.138C144.775 165.407 144.796 165.653 144.838 165.875C144.886 166.097 144.957 166.29 145.052 166.454C145.147 166.618 145.272 166.745 145.425 166.835C145.578 166.925 145.763 166.97 145.98 166.97ZM150.928 167.453V166.867H152.474V162.41H152.419L151.023 163.71L150.635 163.29L152.102 161.918H153.14V166.867H154.568V167.453H150.928ZM157.557 167.453V166.867H159.103V162.41H159.048L157.652 163.71L157.263 163.29L158.73 161.918H159.769V166.867H161.197V167.453H157.557Z" fill="#36C9CB"/>
</g>
<g opacity="0.3">
<path d="M388.655 277.897C387.994 277.897 387.51 277.646 387.204 277.144C386.902 276.642 386.752 275.939 386.752 275.035C386.752 274.131 386.902 273.428 387.204 272.925C387.51 272.423 387.994 272.172 388.655 272.172C389.316 272.172 389.797 272.423 390.098 272.925C390.405 273.428 390.558 274.131 390.558 275.035C390.558 275.939 390.405 276.642 390.098 277.144C389.797 277.646 389.316 277.897 388.655 277.897ZM388.655 277.319C388.872 277.319 389.057 277.274 389.21 277.184C389.363 277.094 389.488 276.967 389.583 276.803C389.678 276.639 389.747 276.446 389.789 276.224C389.836 276.002 389.86 275.756 389.86 275.487V274.583C389.86 274.313 389.836 274.067 389.789 273.845C389.747 273.623 389.678 273.43 389.583 273.266C389.488 273.102 389.363 272.976 389.21 272.886C389.057 272.796 388.872 272.751 388.655 272.751C388.438 272.751 388.253 272.796 388.1 272.886C387.946 272.976 387.822 273.102 387.727 273.266C387.632 273.43 387.561 273.623 387.513 273.845C387.471 274.067 387.45 274.313 387.45 274.583V275.487C387.45 275.756 387.471 276.002 387.513 276.224C387.561 276.446 387.632 276.639 387.727 276.803C387.822 276.967 387.946 277.094 388.1 277.184C388.253 277.274 388.438 277.319 388.655 277.319ZM393.603 277.802V277.215H395.149V272.759H395.094L393.698 274.059L393.309 273.639L394.776 272.267H395.815V277.215H397.243V277.802H393.603ZM401.913 277.897C401.252 277.897 400.768 277.646 400.462 277.144C400.16 276.642 400.01 275.939 400.01 275.035C400.01 274.131 400.16 273.428 400.462 272.925C400.768 272.423 401.252 272.172 401.913 272.172C402.574 272.172 403.055 272.423 403.356 272.925C403.663 273.428 403.816 274.131 403.816 275.035C403.816 275.939 403.663 276.642 403.356 277.144C403.055 277.646 402.574 277.897 401.913 277.897ZM401.913 277.319C402.13 277.319 402.315 277.274 402.468 277.184C402.621 277.094 402.745 276.967 402.841 276.803C402.936 276.639 403.004 276.446 403.047 276.224C403.094 276.002 403.118 275.756 403.118 275.487V274.583C403.118 274.313 403.094 274.067 403.047 273.845C403.004 273.623 402.936 273.43 402.841 273.266C402.745 273.102 402.621 272.976 402.468 272.886C402.315 272.796 402.13 272.751 401.913 272.751C401.696 272.751 401.511 272.796 401.358 272.886C401.204 272.976 401.08 273.102 400.985 273.266C400.89 273.43 400.818 273.623 400.771 273.845C400.729 274.067 400.707 274.313 400.707 274.583V275.487C400.707 275.756 400.729 276.002 400.771 276.224C400.818 276.446 400.89 276.639 400.985 276.803C401.08 276.967 401.204 277.094 401.358 277.184C401.511 277.274 401.696 277.319 401.913 277.319ZM406.861 277.802V277.215H408.407V272.759H408.351L406.956 274.059L406.567 273.639L408.034 272.267H409.073V277.215H410.5V277.802H406.861Z" fill="#62C4AA"/>
</g>
<path opacity="0.6" d="M107.629 247.31C109.221 247.31 110.512 246.019 110.512 244.426C110.512 242.834 109.221 241.543 107.629 241.543C106.036 241.543 104.745 242.834 104.745 244.426C104.745 246.019 106.036 247.31 107.629 247.31Z" fill="#36C9CB"/>
<path opacity="0.65" d="M419.432 227.761C420.825 227.761 421.955 226.632 421.955 225.238C421.955 223.845 420.825 222.715 419.432 222.715C418.038 222.715 416.909 223.845 416.909 225.238C416.909 226.632 418.038 227.761 419.432 227.761Z" fill="#62C4AA"/>
<path opacity="0.55" d="M159.894 258.259C161.089 258.259 162.057 257.291 162.057 256.097C162.057 254.902 161.089 253.934 159.894 253.934C158.7 253.934 157.731 254.902 157.731 256.097C157.731 257.291 158.7 258.259 159.894 258.259Z" fill="#36C9CB"/>
<path opacity="0.6" d="M387.284 230.375C388.479 230.375 389.447 229.407 389.447 228.212C389.447 227.018 388.479 226.05 387.284 226.05C386.09 226.05 385.122 227.018 385.122 228.212C385.122 229.407 386.09 230.375 387.284 230.375Z" fill="#62C4AA"/>
<defs>
<radialGradient id="paint0_radial_5878_1554" cx="0" cy="0" r="1" gradientUnits="userSpaceOnUse" gradientTransform="translate(273.95 226.364) rotate(-90) scale(101.951)">
<stop stop-color="#36C9CB" stop-opacity="0.4"/>
<stop offset="0.5" stop-color="#62C4AA" stop-opacity="0.2"/>
<stop offset="0.7" stop-color="#36C9CB" stop-opacity="0"/>
</radialGradient>
<linearGradient id="paint1_linear_5878_1554" x1="129.769" y1="86.5095" x2="14547.9" y2="86.5095" gradientUnits="userSpaceOnUse">
<stop stop-color="#36C9CB" stop-opacity="0.3"/>
<stop offset="1" stop-color="#62C4AA" stop-opacity="0.3"/>
</linearGradient>
<linearGradient id="paint2_linear_5878_1554" x1="273.95" y1="100.928" x2="14692.1" y2="100.928" gradientUnits="userSpaceOnUse">
<stop stop-color="#36C9CB" stop-opacity="0.3"/>
<stop offset="1" stop-color="#62C4AA" stop-opacity="0.3"/>
</linearGradient>
<linearGradient id="paint3_linear_5878_1554" x1="144.187" y1="226.365" x2="144.187" y2="15797.9" gradientUnits="userSpaceOnUse">
<stop stop-color="#62C4AA" stop-opacity="0.3"/>
<stop offset="1" stop-color="#36C9CB" stop-opacity="0.3"/>
</linearGradient>
<linearGradient id="paint4_linear_5878_1554" x1="273.95" y1="226.365" x2="273.95" y2="16518.8" gradientUnits="userSpaceOnUse">
<stop stop-color="#62C4AA" stop-opacity="0.3"/>
<stop offset="1" stop-color="#36C9CB" stop-opacity="0.3"/>
</linearGradient>
</defs>
</svg>
