<svg width="246" height="246" viewBox="0 0 246 246" fill="none" xmlns="http://www.w3.org/2000/svg">
<path opacity="0.15" d="M61.4863 71.7343C102.477 58.0706 122.973 51.2388 122.973 51.2388C122.973 51.2388 143.468 58.0706 184.459 71.7343V174.212C143.468 160.548 122.973 153.716 122.973 153.716C122.973 153.716 102.477 160.548 61.4863 174.212V71.7343Z" fill="#F4F4F4"/>
<path opacity="0.3" d="M122.974 51.2388V153.716" stroke="#F4F4F4" stroke-width="2.04955"/>
<path opacity="0.25" d="M81.981 92.2297H102.476" stroke="#F4F4F4" stroke-width="2.04955"/>
<path opacity="0.25" d="M81.981 106.577H102.476" stroke="#F4F4F4" stroke-width="2.04955"/>
<path opacity="0.25" d="M81.981 120.923H102.476" stroke="#F4F4F4" stroke-width="2.04955"/>
<path opacity="0.25" d="M143.472 92.2297H163.968" stroke="#F4F4F4" stroke-width="2.04955"/>
<path opacity="0.25" d="M143.472 106.577H163.968" stroke="#F4F4F4" stroke-width="2.04955"/>
<path opacity="0.25" d="M143.472 120.923H163.968" stroke="#F4F4F4" stroke-width="2.04955"/>
<path opacity="0.3" d="M100.431 180.36H32.7961C31.6642 180.36 30.7466 181.278 30.7466 182.41V194.707C30.7466 195.839 31.6642 196.757 32.7961 196.757H100.431C101.563 196.757 102.481 195.839 102.481 194.707V182.41C102.481 181.278 101.563 180.36 100.431 180.36Z" fill="white" stroke="#F4F4F4" stroke-width="2.04955"/>
<path opacity="0.3" d="M96.3281 163.964H38.9407C37.8087 163.964 36.8911 164.881 36.8911 166.013V178.311C36.8911 179.443 37.8087 180.36 38.9407 180.36H96.3281C97.46 180.36 98.3776 179.443 98.3776 178.311V166.013C98.3776 164.881 97.46 163.964 96.3281 163.964Z" fill="white" stroke="#F4F4F4" stroke-width="2.04955"/>
<path opacity="0.3" d="M194.709 57.3875C203.765 57.3875 211.106 50.0466 211.106 40.9911C211.106 31.9356 203.765 24.5947 194.709 24.5947C185.654 24.5947 178.313 31.9356 178.313 40.9911C178.313 50.0466 185.654 57.3875 194.709 57.3875Z" stroke="#F4F4F4" stroke-width="3.07433"/>
<path opacity="0.3" d="M184.461 57.3877V65.5859H204.957V57.3877" stroke="#F4F4F4" stroke-width="2.04955"/>
<path opacity="0.3" d="M194.707 20.4957V14.347" stroke="#F4F4F4" stroke-width="2.04955"/>
<path opacity="0.3" d="M215.205 30.7433L219.304 26.6442" stroke="#F4F4F4" stroke-width="2.04955"/>
<path opacity="0.3" d="M174.21 30.7433L170.111 26.6442" stroke="#F4F4F4" stroke-width="2.04955"/>
<path opacity="0.3" d="M143.472 184.459L163.968 204.955L174.215 194.707L153.72 174.212L143.472 184.459Z" fill="#F4F4F4" stroke="#F4F4F4" stroke-width="2.04955"/>
<path opacity="0.25" d="M165.309 171.313L156.613 162.618L145.019 174.212L153.715 182.907L165.309 171.313Z" fill="#F4F4F4"/>
</svg>
