<svg preserveAspectRatio="none" width="100%" height="100%" overflow="visible" style="display: block;" viewBox="0 0 36 36" fill="none" xmlns="http://www.w3.org/2000/svg">
<g id="icon" filter="url(#filter0_i_0_23)">
<rect width="36" height="36" rx="10" fill="var(--fill-0, #2E2D2D)"/>
<path id="Vector" d="M18 10C19.2573 10 19.8853 10 20.276 10.3907C20.6667 10.7813 20.6667 11.4093 20.6667 12.6667V23.3333C20.6667 24.5907 20.6667 25.2187 20.276 25.6093C19.8853 26 19.2573 26 18 26M18 10C16.7427 10 16.1147 10 15.724 10.3907C15.3333 10.7813 15.3333 11.4093 15.3333 12.6667V23.3333C15.3333 24.5907 15.3333 25.2187 15.724 25.6093C16.1147 26 16.7427 26 18 26M18 10V6M18 26V30M27.3333 8.66667C28.5907 8.66667 29.2187 8.66667 29.6093 9.05733C30 9.448 30 10.076 30 11.3333V14C30 15.2573 30 15.8853 29.6093 16.276C29.2187 16.6667 28.5907 16.6667 27.3333 16.6667M27.3333 8.66667C26.076 8.66667 25.448 8.66667 25.0573 9.05733C24.6667 9.448 24.6667 10.076 24.6667 11.3333V14C24.6667 15.2573 24.6667 15.8853 25.0573 16.276C25.448 16.6667 26.076 16.6667 27.3333 16.6667M27.3333 8.66667V6M27.3333 16.6667V19.3333M8.66667 15.3333C9.924 15.3333 10.552 15.3333 10.9427 15.724C11.3333 16.1147 11.3333 16.7427 11.3333 18V20.6667C11.3333 21.924 11.3333 22.552 10.9427 22.9427C10.552 23.3333 9.924 23.3333 8.66667 23.3333M8.66667 15.3333C7.40933 15.3333 6.78133 15.3333 6.39067 15.724C6 16.1147 6 16.7427 6 18V20.6667C6 21.924 6 22.552 6.39067 22.9427C6.78133 23.3333 7.40933 23.3333 8.66667 23.3333M8.66667 15.3333V12.6667M8.66667 23.3333V26" stroke="var(--stroke-0, #0D99FF)" stroke-width="1.5" stroke-linecap="round" stroke-linejoin="round"/>
</g>
<defs>
<filter id="filter0_i_0_23" x="0" y="0" width="40" height="40" filterUnits="userSpaceOnUse" color-interpolation-filters="sRGB">
<feFlood flood-opacity="0" result="BackgroundImageFix"/>
<feBlend mode="normal" in="SourceGraphic" in2="BackgroundImageFix" result="shape"/>
<feColorMatrix in="SourceAlpha" type="matrix" values="0 0 0 0 0 0 0 0 0 0 0 0 0 0 0 0 0 0 127 0" result="hardAlpha"/>
<feOffset dx="8" dy="8"/>
<feGaussianBlur stdDeviation="2"/>
<feComposite in2="hardAlpha" operator="arithmetic" k2="-1" k3="1"/>
<feColorMatrix type="matrix" values="0 0 0 0 0.00480769 0 0 0 0 0.00466901 0 0 0 0 0.00466901 0 0 0 0.25 0"/>
<feBlend mode="normal" in2="shape" result="effect1_innerShadow_0_23"/>
</filter>
</defs>
</svg>
