<svg preserveAspectRatio="none" width="100%" height="100%" overflow="visible" style="display: block;" viewBox="0 0 36 36" fill="none" xmlns="http://www.w3.org/2000/svg">
<g id="icon" filter="url(#filter0_i_0_21)">
<rect width="36" height="36" rx="10" fill="var(--fill-0, #2E2D2D)"/>
<path id="Vector" d="M13.8581 21.7162C11.675 21.7162 9.8195 20.9523 8.2917 19.4245C6.7639 17.8967 6 16.0412 6 13.8581C6 13.5409 6.02191 13.2232 6.06572 12.9051C6.10954 12.5879 6.17145 12.2788 6.25146 11.9779C6.31623 11.7769 6.41481 11.6307 6.54721 11.5392C6.68056 11.4478 6.83581 11.3783 7.01298 11.3306C7.19014 11.283 7.36445 11.2844 7.5359 11.3349C7.70735 11.3845 7.86117 11.4773 7.99738 11.6135L11.8578 15.4183L15.4183 11.8578L11.6407 8.05167C11.5054 7.91642 11.4125 7.75688 11.3621 7.57304C11.3116 7.38921 11.3102 7.21014 11.3578 7.03584C11.4054 6.86153 11.4797 6.70818 11.5807 6.57578C11.6816 6.44339 11.8236 6.3448 12.0064 6.28003C12.3065 6.18097 12.6122 6.10954 12.9237 6.06572C13.2351 6.02191 13.5466 6 13.8581 6C16.0402 6 17.8957 6.7639 19.4245 8.2917C20.9532 9.8195 21.7171 11.675 21.7162 13.8581C21.7162 14.5153 21.65 15.1201 21.5176 15.6726C21.3861 16.225 21.1885 16.7489 20.9246 17.2442L29.2385 25.5409C29.7462 26.0438 30 26.6591 30 27.3868C30 28.1145 29.7481 28.7322 29.2442 29.2399C28.7413 29.7466 28.125 30 27.3954 30C26.6658 30 26.0476 29.7438 25.5409 29.2313L17.2428 20.9246C16.7113 21.1704 16.1693 21.3637 15.6169 21.5047C15.0644 21.6457 14.4782 21.7162 13.8581 21.7162ZM13.8581 20.2874C14.4886 20.2874 15.1197 20.1969 15.7512 20.016C16.3827 19.835 16.9665 19.5507 17.5028 19.163L26.5682 28.2284C26.7968 28.457 27.072 28.5698 27.394 28.567C27.7159 28.5641 27.9907 28.4484 28.2184 28.2198C28.4479 27.9912 28.5627 27.7159 28.5627 27.394C28.5627 27.072 28.4484 26.7968 28.2198 26.5682L19.1544 17.5128C19.5278 16.9994 19.8097 16.4274 20.0002 15.7969C20.1907 15.1663 20.286 14.5201 20.286 13.8581C20.286 12.1179 19.6126 10.5577 18.2657 9.17752C16.9189 7.79736 15.1911 7.23824 13.0823 7.50018L16.6327 11.0506C16.8632 11.2811 16.9784 11.5502 16.9784 11.8578C16.9784 12.1655 16.8632 12.4351 16.6327 12.6665L12.6651 16.6327C12.4346 16.8642 12.1655 16.9799 11.8578 16.9799C11.5502 16.9799 11.2806 16.8642 11.0492 16.6327L7.50018 13.0837C7.29253 15.3935 7.88784 17.1713 9.28611 18.4172C10.6853 19.664 12.2093 20.2874 13.8581 20.2874Z" fill="var(--fill-0, #0D99FF)"/>
</g>
<defs>
<filter id="filter0_i_0_21" x="0" y="0" width="40" height="40" filterUnits="userSpaceOnUse" color-interpolation-filters="sRGB">
<feFlood flood-opacity="0" result="BackgroundImageFix"/>
<feBlend mode="normal" in="SourceGraphic" in2="BackgroundImageFix" result="shape"/>
<feColorMatrix in="SourceAlpha" type="matrix" values="0 0 0 0 0 0 0 0 0 0 0 0 0 0 0 0 0 0 127 0" result="hardAlpha"/>
<feOffset dx="8" dy="8"/>
<feGaussianBlur stdDeviation="2"/>
<feComposite in2="hardAlpha" operator="arithmetic" k2="-1" k3="1"/>
<feColorMatrix type="matrix" values="0 0 0 0 0.00480769 0 0 0 0 0.00466901 0 0 0 0 0.00466901 0 0 0 0.25 0"/>
<feBlend mode="normal" in2="shape" result="effect1_innerShadow_0_21"/>
</filter>
</defs>
</svg>
