<svg preserveAspectRatio="none" width="100%" height="100%" overflow="visible" style="display: block;" viewBox="0 0 412 521" fill="none" xmlns="http://www.w3.org/2000/svg">
<g id="group_Group">
<path id="element_Vector" d="M317.155 1L231.266 309.175L1.00464 179.13" stroke="var(--stroke-0, #02070E)" stroke-opacity="0.15" stroke-width="0.393478"/>
<path id="element_Vector_2" d="M400.639 496.842L1.00172 178.13L316.657 2.00163L56.6781 519.024L408.065 207.323L400.639 496.842Z" stroke="var(--stroke-0, #02070E)" stroke-opacity="0.15" stroke-width="0.393478"/>
<path id="element_Vector_3" d="M229.765 308.179L401.639 495.84L317.658 2.00005" stroke="var(--stroke-0, #02070E)" stroke-opacity="0.15" stroke-width="0.393478"/>
<path id="element_Vector_4" d="M400.642 497.342L53.1843 520.531L228.265 308.181" stroke="var(--stroke-0, #02070E)" stroke-opacity="0.15" stroke-width="0.393478"/>
<path id="element_Vector_5" d="M316.657 1.50318L44.7454 300.046L397.638 495.849" stroke="var(--stroke-0, #02070E)" stroke-opacity="0.15" stroke-width="0.393478"/>
<path id="element_Vector_6" d="M408.557 203.822C407.177 203.824 406.06 204.946 406.062 206.327C406.065 207.707 407.187 208.824 408.567 208.822C409.948 208.819 411.065 207.697 411.062 206.317C411.06 204.936 409.938 203.819 408.557 203.822Z" fill="var(--fill-0, #0EEFB2)"/>
<path id="element_Vector_7" d="M46.7405 297.541C45.3598 297.544 44.2427 298.665 44.2454 300.046C44.2482 301.427 45.3697 302.544 46.7505 302.541C48.1313 302.539 49.2484 301.417 49.2456 300.036C49.2429 298.655 48.1213 297.538 46.7405 297.541Z" fill="var(--fill-0, #33373F)"/>
<path id="element_Vector_8" d="M229.76 306.179C228.379 306.181 227.262 307.303 227.265 308.684C227.267 310.065 228.389 311.182 229.77 311.179C231.151 311.176 232.268 310.055 232.265 308.674C232.262 307.293 231.141 306.176 229.76 306.179Z" fill="var(--fill-0, #33373F)"/>
<path id="element_Vector_9" d="M3.5001 176.625C2.11933 176.627 1.00223 177.749 1.00497 179.13C1.00772 180.511 2.12928 181.628 3.51005 181.625C4.89082 181.622 6.00792 180.501 6.00518 179.12C6.00243 177.739 4.88087 176.622 3.5001 176.625Z" fill="var(--fill-0, #D9D9D9)"/>
</g>
</svg>
