<svg width="397" height="208" viewBox="0 0 397 208" fill="none" xmlns="http://www.w3.org/2000/svg">
<g opacity="0.8">
<path d="M68.1018 128.182H42.5188L40.1788 133.716H65.7668L68.1018 128.182Z" fill="#58C2C3"/>
<path d="M87.8638 148.019H59.7298L63.8978 138.143H38.3068L34.1308 148.019V173.365H87.8638V205.555H115.238V173.365H128.417V148.019H115.238V138.143H87.8638V148.019Z" fill="#58C2C3"/>
<path d="M115.238 128.182H87.8638V133.716H115.238V128.182Z" fill="#58C2C3"/>
<path d="M179.362 128.182H151.482V133.716H179.362V128.182Z" fill="#58C2C3"/>
<path d="M236.137 128.182H208.257V133.716H236.137V128.182Z" fill="#58C2C3"/>
<path d="M208.257 164.748C208.257 177.421 202.681 182.237 193.809 182.237C184.938 182.237 179.361 177.421 179.361 164.748V138.143H151.481V162.973C151.481 191.36 166.435 207.582 193.808 207.582C221.181 207.582 236.135 191.361 236.135 162.973V138.143H208.255V164.748H208.257Z" fill="#58C2C3"/>
<path d="M341.323 128.182H313.949V133.716H341.323V128.182Z" fill="#58C2C3"/>
<path d="M89.7668 138.142H117.142V133.715H89.7668V138.142ZM153.386 138.142H181.266V133.715H153.386V138.142ZM40.2098 138.142H65.8018L67.6698 133.715H42.0818L40.2098 138.142ZM315.852 133.715V138.142H343.227V133.715H315.852ZM266.296 138.142H291.888L293.756 133.715H268.168L266.296 138.142ZM210.161 138.142H238.041V133.715H210.161V138.142Z" fill="#58C2C3"/>
<path d="M313.949 148.019H285.816L289.984 138.143H264.392L260.216 148.019V173.365H313.949V205.555H341.323V173.365H354.502V148.019H341.323V138.143H313.949V148.019Z" fill="#58C2C3"/>
<path d="M268.604 128.182L266.264 133.716H291.852L294.188 128.182H268.604Z" fill="#58C2C3"/>
<path d="M38.9359 129.347H64.5199L73.1618 108.871H47.5938L38.9359 129.347ZM84.2808 129.347H111.655V108.871H84.2808V129.347ZM147.899 129.347H175.779V108.871H147.899V129.347ZM310.366 108.871V129.347H337.74V108.871H310.366ZM265.021 129.347H290.605L299.247 108.871H273.679L265.021 129.347ZM204.674 129.347H232.554V108.871H204.674V129.347Z" fill="#58C2C3"/>
<path d="M115.238 28.1332H84.8218L77.3278 45.8582H115.238V28.1332Z" fill="#58C2C3"/>
<path d="M73.8178 45.8579L67.8308 60.0169H111.728V45.8579H73.8178Z" fill="#58C2C3"/>
<path d="M51.1768 107.705H76.7438L87.8638 81.358V107.705H115.238V60.016H71.3408L51.1768 107.705Z" fill="#58C2C3"/>
<path d="M153.202 45.8579C151.086 49.9829 149.607 54.7189 148.773 60.0169H177.156C179.289 53.9469 183.941 51.4509 190.3 51.4509C196.66 51.4509 201.312 53.9459 203.444 60.0169H231.826C230.992 54.7189 229.513 49.9819 227.397 45.8579H153.202Z" fill="#58C2C3"/>
<path d="M151.482 70.712V107.704H179.362V68.939C179.362 65.351 179.823 62.413 180.666 60.016H152.283C151.757 63.361 151.482 66.925 151.482 70.712Z" fill="#58C2C3"/>
<path d="M208.257 68.939V107.705H236.137V70.713C236.137 66.925 235.862 63.361 235.336 60.016H206.954C207.796 62.413 208.257 65.351 208.257 68.939Z" fill="#58C2C3"/>
<path d="M193.81 26.1039C175.874 26.1039 163.272 33.0689 156.713 45.8569H230.908C224.348 33.0699 211.745 26.1039 193.81 26.1039Z" fill="#58C2C3"/>
<path d="M277.262 107.705H302.83L313.949 81.358V107.705H341.323V60.016H297.426L277.262 107.705Z" fill="#58C2C3"/>
<path d="M299.903 45.8579L293.916 60.0169H337.814V45.8579H299.903Z" fill="#58C2C3"/>
<path d="M341.323 28.1332H310.908L303.413 45.8582H341.323V28.1332Z" fill="#58C2C3"/>
</g>
<g opacity="0.8">
<path d="M68.1018 128.182H42.5188L40.1788 133.716H65.7668L68.1018 128.182Z" fill="#58C2C3"/>
<path d="M87.8638 148.019H59.7298L63.8978 138.143H38.3068L34.1308 148.019V173.365H87.8638V205.555H115.238V173.365H128.417V148.019H115.238V138.143H87.8638V148.019Z" fill="#58C2C3"/>
<path d="M115.238 128.182H87.8638V133.716H115.238V128.182Z" fill="#58C2C3"/>
<path d="M179.362 128.182H151.482V133.716H179.362V128.182Z" fill="#58C2C3"/>
<path d="M236.137 128.182H208.257V133.716H236.137V128.182Z" fill="#58C2C3"/>
<path d="M208.257 164.748C208.257 177.421 202.681 182.237 193.809 182.237C184.938 182.237 179.361 177.421 179.361 164.748V138.143H151.481V162.973C151.481 191.36 166.435 207.582 193.808 207.582C221.181 207.582 236.135 191.361 236.135 162.973V138.143H208.255V164.748H208.257Z" fill="#58C2C3"/>
<path d="M341.323 128.182H313.949V133.716H341.323V128.182Z" fill="#58C2C3"/>
<path d="M89.7668 138.142H117.142V133.715H89.7668V138.142ZM153.386 138.142H181.266V133.715H153.386V138.142ZM40.2098 138.142H65.8018L67.6698 133.715H42.0818L40.2098 138.142ZM315.852 133.715V138.142H343.227V133.715H315.852ZM266.296 138.142H291.888L293.756 133.715H268.168L266.296 138.142ZM210.161 138.142H238.041V133.715H210.161V138.142Z" fill="#58C2C3"/>
<path d="M313.949 148.019H285.816L289.984 138.143H264.392L260.216 148.019V173.365H313.949V205.555H341.323V173.365H354.502V148.019H341.323V138.143H313.949V148.019Z" fill="#58C2C3"/>
<path d="M268.604 128.182L266.264 133.716H291.852L294.188 128.182H268.604Z" fill="#58C2C3"/>
<path d="M38.9359 129.347H64.5199L73.1618 108.871H47.5938L38.9359 129.347ZM84.2808 129.347H111.655V108.871H84.2808V129.347ZM147.899 129.347H175.779V108.871H147.899V129.347ZM310.366 108.871V129.347H337.74V108.871H310.366ZM265.021 129.347H290.605L299.247 108.871H273.679L265.021 129.347ZM204.674 129.347H232.554V108.871H204.674V129.347Z" fill="#58C2C3"/>
<path d="M115.238 28.1332H84.8218L77.3278 45.8582H115.238V28.1332Z" fill="#58C2C3"/>
<path d="M73.8178 45.8579L67.8308 60.0169H111.728V45.8579H73.8178Z" fill="#58C2C3"/>
<path d="M51.1768 107.705H76.7438L87.8638 81.358V107.705H115.238V60.016H71.3408L51.1768 107.705Z" fill="#58C2C3"/>
<path d="M153.202 45.8579C151.086 49.9829 149.607 54.7189 148.773 60.0169H177.156C179.289 53.9469 183.941 51.4509 190.3 51.4509C196.66 51.4509 201.312 53.9459 203.444 60.0169H231.826C230.992 54.7189 229.513 49.9819 227.397 45.8579H153.202Z" fill="#58C2C3"/>
<path d="M151.482 70.712V107.704H179.362V68.939C179.362 65.351 179.823 62.413 180.666 60.016H152.283C151.757 63.361 151.482 66.925 151.482 70.712Z" fill="#58C2C3"/>
<path d="M208.257 68.939V107.705H236.137V70.713C236.137 66.925 235.862 63.361 235.336 60.016H206.954C207.796 62.413 208.257 65.351 208.257 68.939Z" fill="#58C2C3"/>
<path d="M193.81 26.1039C175.874 26.1039 163.272 33.0689 156.713 45.8569H230.908C224.348 33.0699 211.745 26.1039 193.81 26.1039Z" fill="#58C2C3"/>
<path d="M277.262 107.705H302.83L313.949 81.358V107.705H341.323V60.016H297.426L277.262 107.705Z" fill="#58C2C3"/>
<path d="M299.903 45.8579L293.916 60.0169H337.814V45.8579H299.903Z" fill="#58C2C3"/>
<path d="M341.323 28.1332H310.908L303.413 45.8582H341.323V28.1332Z" fill="#58C2C3"/>
</g>
<path d="M329.15 184.067H256.351V189.896H329.15V184.067Z" fill="#4F90D0"/>
<path d="M316.323 187.58H295.359V196.045H316.323V187.58Z" fill="#5DB6B5"/>
<path d="M165.381 112.719H92.5817V118.548H165.381V112.719Z" fill="#4F90D0"/>
<path d="M152.554 116.233H131.59V124.697H152.554V116.233Z" fill="#5DB6B5"/>
<path d="M52.9577 170.481H13.0417V173.677H52.9577V170.481Z" fill="#4F90D0"/>
<path d="M45.9238 172.407H34.4297V177.048H45.9238V172.407Z" fill="#5DB6B5"/>
<path d="M381.707 74.4086H355.954V79.9926H381.707V74.4086Z" fill="#4F90D0"/>
<path d="M396.83 77.0512H371.077V82.6352H396.83V77.0512Z" fill="#5DB6B5"/>
<path d="M151.649 3.643L285.455 3.643V0L151.649 0V3.643Z" fill="#4F90D0"/>
<path d="M141.681 7.19183L157.721 7.19183V1.60783L141.681 1.60783V7.19183Z" fill="#5DB6B5"/>
<path d="M9.96793 84.4145L124.537 84.4145V80.7725L9.96793 80.7725V84.4145Z" fill="#5DB6B5"/>
<path d="M-1.90735e-05 87.9614H16.04V82.3774H-1.90735e-05V87.9614Z" fill="#4F90D0"/>
</svg>
