<svg width="200" height="200" viewBox="0 0 200 200" fill="none" xmlns="http://www.w3.org/2000/svg">
<g opacity="0.1">
<path d="M100 140C122.091 140 140 122.091 140 100C140 77.9086 122.091 60 100 60C77.9086 60 60 77.9086 60 100C60 122.091 77.9086 140 100 140Z" stroke="white" stroke-width="8"/>
<path d="M100 115C108.284 115 115 108.284 115 100C115 91.7157 108.284 85 100 85C91.7157 85 85 91.7157 85 100C85 108.284 91.7157 115 100 115Z" stroke="white" stroke-width="8"/>
<path d="M105 50H95V70H105V50Z" fill="white"/>
<path d="M100 51C103.314 51 106 48.3137 106 45C106 41.6863 103.314 39 100 39C96.6863 39 94 41.6863 94 45C94 48.3137 96.6863 51 100 51Z" fill="white"/>
<path d="M145.801 79.3302L140.801 70.6699L123.481 80.6699L128.481 89.3302L145.801 79.3302Z" fill="white"/>
<path d="M142.435 75.5001C144.092 78.3699 147.762 79.3531 150.631 77.6963C153.501 76.0394 154.484 72.3699 152.828 69.5001C151.171 66.6304 147.501 65.6471 144.631 67.304C141.762 68.9608 140.778 72.6304 142.435 75.5001Z" fill="white"/>
<path d="M140.801 129.33L145.801 120.67L128.481 110.67L123.481 119.33L140.801 129.33Z" fill="white"/>
<path d="M142.435 124.5C140.778 127.37 141.762 131.039 144.631 132.696C147.501 134.353 151.171 133.37 152.828 130.5C154.484 127.63 153.501 123.961 150.631 122.304C147.762 120.647 144.092 121.63 142.435 124.5Z" fill="white"/>
<path d="M95 150H105V130H95V150Z" fill="white"/>
<path d="M100 149C96.6863 149 94 151.686 94 155C94 158.314 96.6863 161 100 161C103.314 161 106 158.314 106 155C106 151.686 103.314 149 100 149Z" fill="white"/>
<path d="M54.1987 120.67L59.1987 129.33L76.5192 119.33L71.5192 110.67L54.1987 120.67Z" fill="white"/>
<path d="M57.5647 124.5C55.9078 121.63 52.2383 120.647 49.3685 122.304C46.4988 123.961 45.5155 127.63 47.1724 130.5C48.8292 133.37 52.4988 134.353 55.3685 132.696C58.2383 131.039 59.2215 127.37 57.5647 124.5Z" fill="white"/>
<path d="M59.1987 70.6698L54.1987 79.3301L71.5192 89.3301L76.5192 80.6698L59.1987 70.6698Z" fill="white"/>
<path d="M57.5647 75.4999C59.2215 72.6301 58.2383 68.9606 55.3685 67.3037C52.4988 65.6469 48.8292 66.6301 47.1724 69.4999C45.5155 72.3696 46.4988 76.0392 49.3685 77.696C52.2383 79.3529 55.9078 78.3696 57.5647 75.4999Z" fill="white"/>
<path d="M50 100H35H50ZM150 100H165H150ZM100 50V35V50ZM100 150V165V150Z" fill="white"/>
<path d="M50 100H35M150 100H165M100 50V35M100 150V165" stroke="white" stroke-width="8"/>
<path d="M40 95H30V105H40V95Z" fill="white"/>
<path d="M170 95H160V105H170V95Z" fill="white"/>
<path d="M105 30H95V40H105V30Z" fill="white"/>
<path d="M105 160H95V170H105V160Z" fill="white"/>
</g>
</svg>
