<svg width="438" height="251" viewBox="0 0 438 251" fill="none" xmlns="http://www.w3.org/2000/svg">
<g opacity="0.3">
<g clip-path="url(#clip0_5489_6530)">
<g clip-path="url(#clip1_5489_6530)">
<g clip-path="url(#clip2_5489_6530)">
<mask id="mask0_5489_6530" style="mask-type:luminance" maskUnits="userSpaceOnUse" x="-55" y="0" width="547" height="251">
<path d="M491.553 0H-54.2129V250.8H491.553V0Z" fill="white"/>
</mask>
<g mask="url(#mask0_5489_6530)">
<mask id="mask1_5489_6530" style="mask-type:alpha" maskUnits="userSpaceOnUse" x="-55" y="0" width="547" height="251">
<path d="M491.553 250.8H-54.2129V-1.52588e-05H491.553V250.8Z" fill="url(#paint0_linear_5489_6530)"/>
</mask>
<g mask="url(#mask1_5489_6530)">
<mask id="mask2_5489_6530" style="mask-type:alpha" maskUnits="userSpaceOnUse" x="-99" y="-116" width="866" height="415">
<path d="M510.033 134.107L510.138 133.544C510.552 130.936 509.704 128.156 507.77 125.392C501.599 116.54 484.343 107.725 461.368 104.244L-36.9352 43.6594C-58.8323 41.5718 -76.1247 43.7929 -85.1289 48.3872C-89.0104 50.3585 -91.3449 52.7729 -91.8483 55.4739L-91.868 55.5795C-92.4962 59.3406 -89.5893 63.6241 -82.3291 68.0453L212.242 247.307C236.911 262.319 284.911 269.863 299.129 260.742L502.86 142.065C507.052 139.797 509.363 137.069 510.033 134.107Z" stroke="#02FFA3" stroke-width="0.69088" stroke-miterlimit="10"/>
<path opacity="0.32" d="M511.551 125.969L511.656 125.406C512.07 122.797 511.223 120.018 509.289 117.254C503.118 108.402 485.862 99.5873 462.886 96.1061L-35.4167 35.5216C-57.3137 33.4341 -74.6062 35.6551 -83.6104 40.2494C-87.4918 42.2207 -89.8263 44.6351 -90.3297 47.3361L-90.3495 47.4417C-90.9776 51.2028 -88.0707 55.4863 -80.8106 59.9074L213.761 239.169C238.429 254.181 286.429 261.726 300.647 252.604L504.378 133.927C508.57 131.659 510.881 128.931 511.551 125.969Z" stroke="#02FFA3" stroke-width="0.69088" stroke-miterlimit="10"/>
<path opacity="0.32" d="M513.248 117.62L513.353 117.057C513.766 114.448 512.919 111.668 510.985 108.904C504.815 100.053 487.558 91.2376 464.583 87.7563L-33.7204 27.1719C-55.6175 25.0844 -72.9099 27.3054 -81.9141 31.8997C-85.7956 33.871 -88.13 36.2854 -88.6335 38.9865L-88.6532 39.092C-89.2814 42.8531 -86.3744 47.1366 -79.1143 51.5578L215.457 230.819C240.125 245.831 288.126 253.376 302.344 244.255L506.074 125.577C510.266 123.309 512.578 120.581 513.248 117.62Z" stroke="#02FFA3" stroke-width="0.69088" stroke-miterlimit="10"/>
<path opacity="0.32" d="M514.762 108.733L514.867 108.17C515.281 105.562 514.433 102.781 512.499 100.018C506.329 91.1658 489.072 82.3507 466.097 78.8695L-32.2062 18.2853C-54.1033 16.1978 -71.3957 18.4188 -80.3999 23.0131C-84.2814 24.9844 -86.6159 27.3988 -87.1193 30.0999L-87.139 30.2054C-87.7672 33.9665 -84.8603 38.25 -77.6002 42.6712L216.971 221.933C241.64 236.945 289.639 244.49 303.858 235.368L507.589 116.691C511.78 114.422 514.092 111.694 514.762 108.733Z" stroke="#02FFA3" stroke-width="0.69088" stroke-miterlimit="10"/>
<path d="M503.873 167.153L503.978 166.59C504.391 163.981 503.544 161.201 501.61 158.438C495.44 149.586 478.183 140.771 455.208 137.289L-43.0954 76.7054C-64.9924 74.6179 -82.2849 76.8389 -91.2891 81.4335C-95.1705 83.4044 -97.505 85.8185 -98.0085 88.5198L-98.0282 88.6254C-98.6564 92.3867 -95.7495 96.67 -88.4893 101.091L206.083 280.353C230.75 295.365 278.751 302.91 292.968 293.789L496.7 175.111C500.892 172.843 503.203 170.114 503.873 167.153Z" stroke="#02FFA3" stroke-width="0.69088" stroke-miterlimit="10"/>
<path d="M505.389 159.025L505.494 158.461C505.907 155.852 505.059 153.073 503.125 150.309C496.955 141.457 479.699 132.642 456.723 129.161L-41.5798 68.5766C-63.4768 66.4891 -80.7693 68.7102 -89.7735 73.3045C-93.655 75.2758 -95.9895 77.6901 -96.4929 80.3908L-96.5125 80.4965C-97.1407 84.2577 -94.2339 88.541 -86.9737 92.9624L207.598 272.224C232.266 287.236 280.267 294.781 294.484 285.66L498.216 166.982C502.407 164.714 504.718 161.986 505.389 159.025Z" stroke="#02FFA3" stroke-width="0.69088" stroke-miterlimit="10"/>
<path d="M507.088 149.915L507.193 149.352C507.606 146.744 506.759 143.964 504.825 141.2C498.654 132.348 481.398 123.533 458.422 120.052L-39.8806 59.4677C-61.7776 57.3802 -79.0701 59.6013 -88.0743 64.1956C-91.9558 66.1668 -94.2903 68.5812 -94.7937 71.2823L-94.8133 71.3879C-95.4415 75.149 -92.5347 79.4326 -85.2745 83.854L209.297 263.115C233.965 278.128 281.966 285.671 296.183 276.55L499.915 157.874C504.106 155.605 506.417 152.877 507.088 149.915Z" stroke="#02FFA3" stroke-width="0.69088" stroke-miterlimit="10"/>
<path d="M508.603 141.778L508.708 141.215C509.122 138.606 508.275 135.826 506.341 133.062C500.17 124.211 482.914 115.395 459.938 111.914L-38.3649 51.3298C-60.262 49.2423 -77.5544 51.4633 -86.5586 56.0576C-90.4401 58.0289 -92.7746 60.4432 -93.278 63.1443L-93.2977 63.2499C-93.9259 67.011 -91.019 71.2945 -83.7588 75.7156L210.813 254.977C235.481 269.989 283.481 277.534 297.699 268.413L501.43 149.735C505.622 147.467 507.933 144.739 508.603 141.778Z" stroke="#02FFA3" stroke-width="0.69088" stroke-miterlimit="10"/>
<path d="M752.811 193.657L752.984 192.471C753.15 190.333 752.456 188.005 750.831 185.549C749.688 183.835 748.079 182.052 745.973 180.231L522.146 -13.2087C503.398 -29.4097 450.961 -33.7334 428.25 -21.1542L191.349 117.49L190.508 117.982C187.638 119.785 186.142 121.772 185.835 123.861C184.313 134.203 212.024 146.847 246.525 149.862L708.099 204.157C733.11 207.973 750.784 202.703 752.811 193.657Z" stroke="#02FFA3" stroke-width="0.69088" stroke-miterlimit="10"/>
<path d="M754.16 184.476L754.333 183.29C754.499 181.152 753.805 178.825 752.18 176.369C751.037 174.654 749.428 172.871 747.322 171.05L523.494 -22.3895C504.746 -38.5906 452.309 -42.9142 429.598 -30.335L192.697 108.309L191.857 108.801C188.986 110.604 187.49 112.591 187.183 114.681C185.661 125.022 213.372 137.666 247.873 140.681L709.447 194.976C734.458 198.792 752.133 193.523 754.16 184.476Z" stroke="#02FFA3" stroke-width="0.69088" stroke-miterlimit="10"/>
<path d="M750.122 211.905L750.295 210.719C750.461 208.58 749.767 206.254 748.142 203.798C746.999 202.083 745.39 200.299 743.292 198.479L519.458 5.03947C500.711 -11.1616 448.274 -15.4852 425.562 -2.90595L188.662 135.739L187.821 136.23C184.95 138.033 183.455 140.02 183.147 142.11C181.625 152.452 209.336 165.096 243.838 168.11L705.411 222.405C730.423 226.221 748.095 220.952 750.122 211.905Z" stroke="#02FFA3" stroke-width="0.69088" stroke-miterlimit="10"/>
<path d="M751.478 202.734L751.652 201.547C751.809 199.409 751.123 197.082 749.491 194.626C748.355 192.912 746.746 191.128 744.64 189.307L520.81 -4.13205C502.062 -20.3331 449.625 -24.6568 426.915 -12.0776L190.014 126.567L189.173 127.059C186.303 128.861 184.807 130.848 184.5 132.938C182.978 143.28 210.689 155.924 245.19 158.939L706.763 213.234C731.775 217.049 749.451 211.78 751.478 202.734Z" stroke="#02FFA3" stroke-width="0.69088" stroke-miterlimit="10"/>
<path d="M758.205 156.966L758.387 155.779C758.545 153.641 757.858 151.314 756.226 148.858C755.082 147.144 753.473 145.36 751.376 143.54L527.544 -49.9001C508.796 -66.1012 456.358 -70.4248 433.647 -57.8456L196.747 80.7986L195.906 81.2899C193.036 83.0929 191.54 85.0803 191.233 87.1703C189.711 97.5123 217.422 110.156 251.923 113.17L713.497 167.466C738.504 171.281 756.179 166.012 758.205 156.966Z" stroke="#02FFA3" stroke-width="0.69088" stroke-miterlimit="10"/>
<path d="M759.554 147.783L759.735 146.597C759.893 144.458 759.207 142.131 757.574 139.675C756.431 137.96 754.822 136.176 752.724 134.357L528.891 -59.0831C510.144 -75.2843 457.706 -79.6077 434.995 -67.0286L198.095 71.6159L197.254 72.1073C194.383 73.9102 192.888 75.8973 192.58 77.9869C191.058 88.3289 218.769 100.973 253.271 103.987L714.845 158.282C739.853 162.099 757.527 156.829 759.554 147.783Z" stroke="#02FFA3" stroke-width="0.69088" stroke-miterlimit="10"/>
<path d="M755.524 175.214L755.698 174.028C755.855 171.889 755.169 169.562 753.544 167.106C752.401 165.392 750.792 163.608 748.686 161.788L524.857 -31.6518C506.109 -47.853 453.672 -52.1765 430.961 -39.5973L194.061 99.0471L193.219 99.5384C190.349 101.341 188.853 103.329 188.546 105.418C187.024 115.76 214.735 128.404 249.237 131.418L710.81 185.713C735.823 189.53 753.497 184.26 755.524 175.214Z" stroke="#02FFA3" stroke-width="0.69088" stroke-miterlimit="10"/>
<path d="M756.873 166.04L757.046 164.854C757.212 162.716 756.518 160.389 754.893 157.933C753.75 156.218 752.141 154.434 750.035 152.614L526.208 -40.8257C507.46 -57.0267 455.023 -61.3504 432.312 -48.7712L195.412 89.8731L194.57 90.3645C191.7 92.1674 190.204 94.1549 189.897 96.2441C188.375 106.586 216.086 119.23 250.588 122.244L712.161 176.54C737.171 180.356 754.846 175.087 756.873 166.04Z" stroke="#02FFA3" stroke-width="0.69088" stroke-miterlimit="10"/>
<path opacity="0.52" d="M763.419 123.418L763.592 122.231C763.758 120.093 763.064 117.766 761.439 115.31C760.296 113.596 758.687 111.812 756.589 109.992L532.755 -83.4486C514.007 -99.6496 461.57 -103.973 438.858 -91.3937L201.959 47.2509L201.117 47.7422C198.246 49.5451 196.751 51.5323 196.444 53.6219C194.922 63.9638 222.633 76.6079 257.134 79.6219L718.708 133.917C743.718 137.733 761.392 132.464 763.419 123.418Z" stroke="#02FFA3" stroke-width="0.69088" stroke-miterlimit="10"/>
<path opacity="0.5" d="M764.775 114.981L764.949 113.795C765.107 111.656 764.42 109.329 762.788 106.873C761.652 105.158 760.035 103.375 757.938 101.555L534.106 -91.8851C515.358 -108.086 462.921 -112.41 440.209 -99.8303L203.309 38.8141L202.468 39.3054C199.598 41.1084 198.102 43.0956 197.795 45.1852C196.273 55.5271 223.984 68.1713 258.485 71.1854L720.059 125.48C745.074 129.297 762.741 124.027 764.775 114.981Z" stroke="#02FFA3" stroke-width="0.69088" stroke-miterlimit="10"/>
<path opacity="0.32" d="M766.076 106.875L766.25 105.689C766.408 103.55 765.722 101.223 764.097 98.7671C762.953 97.0525 761.344 95.2685 759.239 93.449L535.41 -99.9911C516.662 -116.192 464.225 -120.516 441.514 -107.937L204.614 30.7078L203.773 31.1992C200.902 33.0021 199.406 34.9893 199.099 37.0789C197.577 47.4208 225.289 60.0649 259.79 63.0792L721.363 117.374C746.375 121.19 764.05 115.921 766.076 106.875Z" stroke="#02FFA3" stroke-width="0.69088" stroke-miterlimit="10"/>
<path d="M760.737 139.796L760.91 138.61C761.068 136.471 760.382 134.144 758.749 131.688C757.614 129.974 756.005 128.19 753.899 126.37L530.07 -67.07C511.322 -83.2711 458.885 -87.5947 436.173 -75.0155L199.273 63.6291L198.432 64.1204C195.561 65.9233 194.066 67.9105 193.759 70.0001C192.236 80.342 219.947 92.9861 254.449 96.0004L716.023 150.295C741.036 154.112 758.71 148.842 760.737 139.796Z" stroke="#02FFA3" stroke-width="0.69088" stroke-miterlimit="10"/>
<path d="M762.086 130.624L762.259 129.438C762.417 127.3 761.731 124.973 760.098 122.517C758.963 120.802 757.354 119.019 755.248 117.199L531.418 -76.2415C512.67 -92.4427 460.233 -96.7662 437.522 -84.1868L200.621 54.4576L199.78 54.9489C196.91 56.7518 195.414 58.739 195.107 60.8287C193.585 71.1706 221.296 83.8145 255.797 86.8288L717.371 141.124C742.385 144.94 760.059 139.67 762.086 130.624Z" stroke="#02FFA3" stroke-width="0.69088" stroke-miterlimit="10"/>
</mask>
<g mask="url(#mask2_5489_6530)">
<path d="M491.553 250.8H-54.2129V-1.52588e-05H491.553V250.8Z" fill="url(#paint1_linear_5489_6530)"/>
</g>
</g>
</g>
</g>
</g>
</g>
</g>
<defs>
<linearGradient id="paint0_linear_5489_6530" x1="218.67" y1="-1.52588e-05" x2="218.67" y2="250.8" gradientUnits="userSpaceOnUse">
<stop offset="0.17" stop-opacity="0"/>
<stop offset="1" stop-opacity="0.7"/>
</linearGradient>
<linearGradient id="paint1_linear_5489_6530" x1="218.67" y1="250.8" x2="218.67" y2="-1.52588e-05" gradientUnits="userSpaceOnUse">
<stop stop-color="#3A43F2"/>
<stop offset="1" stop-color="#00FFA3"/>
</linearGradient>
<clipPath id="clip0_5489_6530">
<rect width="437.34" height="250.8" fill="white"/>
</clipPath>
<clipPath id="clip1_5489_6530">
<rect width="437.34" height="250.8" fill="white"/>
</clipPath>
<clipPath id="clip2_5489_6530">
<rect width="545.766" height="250.8" fill="white" transform="translate(-54.2129)"/>
</clipPath>
</defs>
</svg>
