<svg width="200" height="200" viewBox="0 0 200 200" fill="none" xmlns="http://www.w3.org/2000/svg">
<g opacity="0.1">
<path d="M148 40H52C50.8954 40 50 40.8954 50 42V68C50 69.1046 50.8954 70 52 70H148C149.105 70 150 69.1046 150 68V42C150 40.8954 149.105 40 148 40Z" stroke="white" stroke-width="8"/>
<path d="M60 50H80" stroke="white" stroke-width="8"/>
<path d="M60 60H80" stroke="white" stroke-width="8"/>
<path d="M135 58C136.657 58 138 56.6569 138 55C138 53.3431 136.657 52 135 52C133.343 52 132 53.3431 132 55C132 56.6569 133.343 58 135 58Z" fill="white"/>
<path d="M125 58C126.657 58 128 56.6569 128 55C128 53.3431 126.657 52 125 52C123.343 52 122 53.3431 122 55C122 56.6569 123.343 58 125 58Z" stroke="white" stroke-width="8"/>
<path d="M148 80H52C50.8954 80 50 80.8954 50 82V108C50 109.105 50.8954 110 52 110H148C149.105 110 150 109.105 150 108V82C150 80.8954 149.105 80 148 80Z" stroke="white" stroke-width="8"/>
<path d="M60 90H80" stroke="white" stroke-width="8"/>
<path d="M60 100H80" stroke="white" stroke-width="8"/>
<path d="M135 98C136.657 98 138 96.6569 138 95C138 93.3431 136.657 92 135 92C133.343 92 132 93.3431 132 95C132 96.6569 133.343 98 135 98Z" fill="white"/>
<path d="M125 98C126.657 98 128 96.6569 128 95C128 93.3431 126.657 92 125 92C123.343 92 122 93.3431 122 95C122 96.6569 123.343 98 125 98Z" fill="white"/>
<path d="M148 120H52C50.8954 120 50 120.895 50 122V148C50 149.105 50.8954 150 52 150H148C149.105 150 150 149.105 150 148V122C150 120.895 149.105 120 148 120Z" stroke="white" stroke-width="8"/>
<path d="M60 130H80" stroke="white" stroke-width="8"/>
<path d="M60 140H80" stroke="white" stroke-width="8"/>
<path d="M135 138C136.657 138 138 136.657 138 135C138 133.343 136.657 132 135 132C133.343 132 132 133.343 132 135C132 136.657 133.343 138 135 138Z" fill="white"/>
<path d="M125 138C126.657 138 128 136.657 128 135C128 133.343 126.657 132 125 132C123.343 132 122 133.343 122 135C122 136.657 123.343 138 125 138Z" stroke="white" stroke-width="8"/>
<g opacity="0.6">
<path d="M100 35V40V35ZM100 75V80V75ZM100 115V120V115Z" fill="white"/>
<path d="M100 35V40M100 75V80M100 115V120" stroke="white" stroke-width="8"/>
</g>
<path opacity="0.4" d="M152 30H48C46.3431 30 45 31.3431 45 33V157C45 158.657 46.3431 160 48 160H152C153.657 160 155 158.657 155 157V33C155 31.3431 153.657 30 152 30Z" stroke="white" stroke-width="8"/>
</g>
</svg>
