<svg width="99" height="101" viewBox="0 0 99 101" fill="none" xmlns="http://www.w3.org/2000/svg">
<rect width="98.857" height="100.8" rx="12" fill="white" fill-opacity="0.4"/>
<path fill-rule="evenodd" clip-rule="evenodd" d="M52.6494 82.6119C54.2931 80.9364 55.9547 78.2755 57.2217 75.0415C60.5687 75.4064 63.7472 75.9536 66.6242 76.6734C62.613 79.596 57.7412 81.787 52.6494 82.6119ZM47.6527 83.0184C45.0413 83.0184 42.3368 79.9331 40.2132 74.8056C45.1617 74.416 50.1336 74.4273 55.0803 74.8393C52.9567 79.945 50.2621 83.0184 47.6527 83.0184ZM28.5761 76.5941C31.7017 75.8522 34.8733 75.3197 38.0698 74.9999C39.3388 78.2557 41.0083 80.9305 42.658 82.6119C37.5205 81.7811 32.6111 79.5604 28.5761 76.5941ZM74.2799 68.9483C72.6903 71.2147 70.8216 73.2718 68.7181 75.0713C65.4901 74.1691 61.8476 73.485 57.9792 73.0448C58.4114 71.7501 58.806 70.378 59.155 68.9483H57.0354C56.6785 70.3304 56.2898 71.6311 55.8715 72.8287C53.0675 72.5785 50.2537 72.4535 47.4386 72.454C44.7003 72.454 42.0136 72.567 39.4181 72.7871C38.9836 71.5239 38.6019 70.2433 38.274 68.9483H36.1524C36.4994 70.3561 36.8841 71.7104 37.3123 72.9893C33.432 73.4097 29.7856 74.0799 26.4862 74.982C24.4239 73.2045 22.5903 71.1778 21.0275 68.9483H18.5292C24.6898 78.5571 35.4426 84.9377 47.6527 84.9377C59.8648 84.9377 70.6196 78.5571 76.7782 68.9483H74.2799ZM57.2376 25.8004C55.9646 22.5466 54.2991 19.8718 52.6474 18.1884C57.7849 19.0212 62.6943 21.2399 66.7293 24.2082C63.6046 24.9505 60.4335 25.4824 57.2376 25.8004ZM47.8668 26.2802C45.2773 26.2802 42.7155 26.1692 40.2251 25.963C42.3487 20.8573 45.0433 17.7839 47.6527 17.7839C50.266 17.7839 52.9686 20.8691 55.0942 25.9967C52.6896 26.1838 50.2787 26.2784 47.8668 26.2802ZM38.0856 25.7588C34.918 25.4268 31.7761 24.883 28.6812 24.1309C32.6944 21.2042 37.5661 19.0132 42.658 18.1904C41.0143 19.8639 39.3507 22.5268 38.0856 25.7588ZM47.6527 15.8625C35.4426 15.8625 24.6898 22.2432 18.5292 31.8519H21.0275C22.6187 29.5869 24.4871 27.5299 26.5893 25.729C29.8173 26.6312 33.4597 27.3153 37.3282 27.7574C36.8803 29.1056 36.4881 30.4716 36.1524 31.8519H38.274C38.6269 30.4719 39.0156 29.1692 39.4359 27.9716C44.909 28.457 50.4137 28.4716 55.8893 28.0152C56.2997 29.2009 56.6824 30.4878 57.0334 31.8519H59.155C58.8232 30.4913 58.4369 29.1446 57.997 27.8149C61.8754 27.3906 65.5218 26.7204 68.8192 25.8202C70.8831 27.596 72.7174 29.6222 74.2799 31.8519H76.7782C70.6196 22.2432 59.8648 15.8625 47.6527 15.8625ZM41.0162 59.411C44.7697 59.411 46.2945 58.5604 46.2945 57.0336C46.2945 52.0766 27.202 57.8525 27.202 44.6014C27.202 37.8678 32.9046 34.8222 41.2264 34.8222C43.2469 34.8222 45.2654 35.0343 47.9224 35.3516H55.1477V44.3536H47.9224V42.4382C46.8596 41.8731 44.3454 41.2683 41.7241 41.2683C38.3573 41.2683 37.0486 42.2617 37.0486 43.5386C37.0486 48.8149 56.3176 42.7574 56.3176 55.9391C56.3176 61.3958 52.6672 65.8571 41.7241 65.8571C39.7036 65.8571 37.2985 65.647 34.6415 65.3258H27.4142V56.3278H34.6415V58.2412C35.7023 58.8083 38.1828 59.411 41.0162 59.411ZM5.94824 57.9497H10.8002V42.8546H5.94824V35.4131H25.2529V42.8546H20.399V57.9497H25.2529V65.3872H5.94824V57.9497ZM73.915 58.8063C70.1338 58.8063 67.7346 56.3991 67.7346 50.3397C67.7346 44.2822 70.1338 41.8731 73.915 41.8731C77.6903 41.8731 80.0915 44.2822 80.0915 50.3397C80.0915 56.3991 77.6903 58.8063 73.915 58.8063ZM73.9983 34.8222C64.4332 34.8222 57.5985 40.384 57.5985 50.3397C57.5985 60.2954 64.4332 65.8571 73.9983 65.8571C83.5594 65.8571 90.3962 60.2954 90.3962 50.3397C90.3962 40.384 83.5594 34.8222 73.9983 34.8222Z" fill="#0A0C1A"/>
</svg>
