<svg width="274" height="265" viewBox="0 0 274 265" fill="none" xmlns="http://www.w3.org/2000/svg">
<g clip-path="url(#clip0_5590_983)">
<g clip-path="url(#clip1_5590_983)">
<path d="M136.785 218.795C214.105 218.795 276.785 156.115 276.785 78.795C276.785 1.47518 214.105 -61.205 136.785 -61.205C59.4653 -61.205 -3.21484 1.47518 -3.21484 78.795C-3.21484 156.115 59.4653 218.795 136.785 218.795Z" fill="url(#paint0_radial_5590_983)"/>
<path d="M135.785 101.755C128.478 101.755 123.065 99.2217 119.545 94.155C116.025 89.0884 114.265 81.995 114.265 72.875C114.265 63.755 116.025 56.6617 119.545 51.595C123.065 46.5284 128.478 43.995 135.785 43.995C143.092 43.995 148.505 46.5284 152.025 51.595C155.545 56.6617 157.305 63.755 157.305 72.875C157.305 81.995 155.545 89.0884 152.025 94.155C148.505 99.2217 143.092 101.755 135.785 101.755ZM135.785 91.595C138.985 91.595 141.198 90.4217 142.425 88.075C143.652 85.7284 144.265 82.4217 144.265 78.155V67.595C144.265 63.3284 143.652 60.0217 142.425 57.675C141.198 55.3284 138.985 54.155 135.785 54.155C132.585 54.155 130.372 55.3284 129.145 57.675C127.918 60.0217 127.305 63.3284 127.305 67.595V78.155C127.305 82.4217 127.918 85.7284 129.145 88.075C130.372 90.4217 132.585 91.595 135.785 91.595Z" fill="#8391A6" fill-opacity="0.4"/>
<path opacity="0.3" d="M136.785 78.795C160.118 65.4617 178.452 65.4617 191.785 78.795C205.118 92.1284 215.118 105.462 221.785 118.795" stroke="#36C9CB" stroke-width="1.5" stroke-dasharray="4 4"/>
<path opacity="0.3" d="M136.785 78.795C113.452 65.4617 95.1185 65.4617 81.7852 78.795C68.4518 92.1284 58.4518 105.462 51.7852 118.795" stroke="#62C4AA" stroke-width="1.5" stroke-dasharray="4 4"/>
<path opacity="0.3" d="M136.785 78.795C146.785 105.462 146.785 128.795 136.785 148.795C126.785 168.795 121.785 185.462 121.785 198.795" stroke="#36C9CB" stroke-width="1.5" stroke-dasharray="4 4"/>
<path d="M163.665 49.795V47.375H167.425V38.015H167.245L164.405 41.735L162.485 40.235L165.825 35.835H170.425V47.375H173.385V49.795H163.665Z" fill="#62C4AA"/>
<path d="M112.785 50.035C110.958 50.035 109.605 49.4017 108.725 48.135C107.845 46.8684 107.405 45.095 107.405 42.815C107.405 40.535 107.845 38.7617 108.725 37.495C109.605 36.2284 110.958 35.595 112.785 35.595C114.612 35.595 115.965 36.2284 116.845 37.495C117.725 38.7617 118.165 40.535 118.165 42.815C118.165 45.095 117.725 46.8684 116.845 48.135C115.965 49.4017 114.612 50.035 112.785 50.035ZM112.785 47.495C113.585 47.495 114.138 47.2017 114.445 46.615C114.752 46.0284 114.905 45.2017 114.905 44.135V41.495C114.905 40.4284 114.752 39.6017 114.445 39.015C114.138 38.4284 113.585 38.135 112.785 38.135C111.985 38.135 111.432 38.4284 111.125 39.015C110.818 39.6017 110.665 40.4284 110.665 41.495V44.135C110.665 45.2017 110.818 46.0284 111.125 46.615C111.432 47.2017 111.985 47.495 112.785 47.495Z" fill="#36C9CB"/>
<path d="M173.477 93.795V91.617H176.861V83.193H176.699L174.143 86.541L172.415 85.191L175.421 81.231H179.561V91.617H182.225V93.795H173.477Z" fill="#62C4AA"/>
<path d="M102.185 94.011C100.541 94.011 99.3232 93.441 98.5312 92.301C97.7392 91.161 97.3432 89.565 97.3432 87.513C97.3432 85.461 97.7392 83.865 98.5312 82.725C99.3232 81.585 100.541 81.015 102.185 81.015C103.829 81.015 105.047 81.585 105.839 82.725C106.631 83.865 107.027 85.461 107.027 87.513C107.027 89.565 106.631 91.161 105.839 92.301C105.047 93.441 103.829 94.011 102.185 94.011ZM102.185 91.725C102.905 91.725 103.403 91.461 103.679 90.933C103.955 90.405 104.093 89.661 104.093 88.701V86.325C104.093 85.365 103.955 84.621 103.679 84.093C103.403 83.565 102.905 83.301 102.185 83.301C101.465 83.301 100.967 83.565 100.691 84.093C100.415 84.621 100.277 85.365 100.277 86.325V88.701C100.277 89.661 100.415 90.405 100.691 90.933C100.967 91.461 101.465 91.725 102.185 91.725Z" fill="#36C9CB"/>
<path d="M209.041 69.795V66.891H213.553V55.659H213.337L209.929 60.123L207.625 58.323L211.633 53.043H217.153V66.891H220.705V69.795H209.041Z" fill="#62C4AA"/>
<path d="M68.9852 70.083C66.7932 70.083 65.1692 69.323 64.1132 67.803C63.0572 66.283 62.5292 64.155 62.5292 61.419C62.5292 58.683 63.0572 56.555 64.1132 55.035C65.1692 53.515 66.7932 52.755 68.9852 52.755C71.1772 52.755 72.8012 53.515 73.8572 55.035C74.9132 56.555 75.4412 58.683 75.4412 61.419C75.4412 64.155 74.9132 66.283 73.8572 67.803C72.8012 69.323 71.1772 70.083 68.9852 70.083ZM68.9852 67.035C69.9452 67.035 70.6092 66.683 70.9772 65.979C71.3452 65.275 71.5292 64.283 71.5292 63.003V59.835C71.5292 58.555 71.3452 57.563 70.9772 56.859C70.6092 56.155 69.9452 55.803 68.9852 55.803C68.0252 55.803 67.3612 56.155 66.9932 56.859C66.6252 57.563 66.4412 58.555 66.4412 59.835V63.003C66.4412 64.283 66.6252 65.275 66.9932 65.979C67.3612 66.683 68.0252 67.035 68.9852 67.035Z" fill="#36C9CB"/>
<path d="M223.853 114.795V112.133H227.989V101.837H227.791L224.667 105.929L222.555 104.279L226.229 99.439H231.289V112.133H234.545V114.795H223.853Z" fill="#36C9CB"/>
<path d="M48.3852 115.059C46.3758 115.059 44.8872 114.362 43.9192 112.969C42.9512 111.576 42.4672 109.625 42.4672 107.117C42.4672 104.609 42.9512 102.658 43.9192 101.265C44.8872 99.8717 46.3758 99.175 48.3852 99.175C50.3945 99.175 51.8832 99.8717 52.8512 101.265C53.8192 102.658 54.3032 104.609 54.3032 107.117C54.3032 109.625 53.8192 111.576 52.8512 112.969C51.8832 114.362 50.3945 115.059 48.3852 115.059ZM48.3852 112.265C49.2652 112.265 49.8738 111.942 50.2112 111.297C50.5485 110.652 50.7172 109.742 50.7172 108.569V105.665C50.7172 104.492 50.5485 103.582 50.2112 102.937C49.8738 102.292 49.2652 101.969 48.3852 101.969C47.5052 101.969 46.8965 102.292 46.5592 102.937C46.2218 103.582 46.0532 104.492 46.0532 105.665V108.569C46.0532 109.742 46.2218 110.652 46.5592 111.297C46.8965 111.942 47.5052 112.265 48.3852 112.265Z" fill="#62C4AA"/>
<path d="M153.665 139.795V137.375H157.425V128.015H157.245L154.405 131.735L152.485 130.235L155.825 125.835H160.425V137.375H163.385V139.795H153.665Z" fill="#62C4AA"/>
<path d="M117.785 140.035C115.958 140.035 114.605 139.402 113.725 138.135C112.845 136.868 112.405 135.095 112.405 132.815C112.405 130.535 112.845 128.762 113.725 127.495C114.605 126.228 115.958 125.595 117.785 125.595C119.612 125.595 120.965 126.228 121.845 127.495C122.725 128.762 123.165 130.535 123.165 132.815C123.165 135.095 122.725 136.868 121.845 138.135C120.965 139.402 119.612 140.035 117.785 140.035ZM117.785 137.495C118.585 137.495 119.138 137.202 119.445 136.615C119.752 136.028 119.905 135.202 119.905 134.135V131.495C119.905 130.428 119.752 129.602 119.445 129.015C119.138 128.428 118.585 128.135 117.785 128.135C116.985 128.135 116.432 128.428 116.125 129.015C115.818 129.602 115.665 130.428 115.665 131.495V134.135C115.665 135.202 115.818 136.028 116.125 136.615C116.432 137.202 116.985 137.495 117.785 137.495Z" fill="#36C9CB"/>
<path d="M253.477 88.795V86.617H256.861V78.193H256.699L254.143 81.541L252.415 80.191L255.421 76.231H259.561V86.617H262.225V88.795H253.477Z" fill="#36C9CB"/>
<path d="M17.1852 89.011C15.5412 89.011 14.3232 88.441 13.5312 87.301C12.7392 86.161 12.3432 84.565 12.3432 82.513C12.3432 80.461 12.7392 78.865 13.5312 77.725C14.3232 76.585 15.5412 76.015 17.1852 76.015C18.8292 76.015 20.0472 76.585 20.8392 77.725C21.6312 78.865 22.0272 80.461 22.0272 82.513C22.0272 84.565 21.6312 86.161 20.8392 87.301C20.0472 88.441 18.8292 89.011 17.1852 89.011ZM17.1852 86.725C17.9052 86.725 18.4032 86.461 18.6792 85.933C18.9552 85.405 19.0932 84.661 19.0932 83.701V81.325C19.0932 80.365 18.9552 79.621 18.6792 79.093C18.4032 78.565 17.9052 78.301 17.1852 78.301C16.4652 78.301 15.9672 78.565 15.6912 79.093C15.4152 79.621 15.2772 80.365 15.2772 81.325V83.701C15.2772 84.661 15.4152 85.405 15.6912 85.933C15.9672 86.461 16.4652 86.725 17.1852 86.725Z" fill="#62C4AA"/>
<path d="M263.665 149.795V147.375H267.425V138.015H267.245L264.405 141.735L262.485 140.235L265.825 135.835H270.425V147.375H273.385V149.795H263.665Z" fill="#62C4AA"/>
<path d="M2.78516 150.035C0.95849 150.035 -0.394844 149.402 -1.27484 148.135C-2.15484 146.868 -2.59484 145.095 -2.59484 142.815C-2.59484 140.535 -2.15484 138.762 -1.27484 137.495C-0.394844 136.228 0.95849 135.595 2.78516 135.595C4.61182 135.595 5.96516 136.228 6.84516 137.495C7.72516 138.762 8.16516 140.535 8.16516 142.815C8.16516 145.095 7.72516 146.868 6.84516 148.135C5.96516 149.402 4.61182 150.035 2.78516 150.035ZM2.78516 147.495C3.58516 147.495 4.13849 147.202 4.44516 146.615C4.75182 146.028 4.90516 145.202 4.90516 144.135V141.495C4.90516 140.428 4.75182 139.602 4.44516 139.015C4.13849 138.428 3.58516 138.135 2.78516 138.135C1.98516 138.135 1.43182 138.428 1.12516 139.015C0.81849 139.602 0.665156 140.428 0.665156 141.495V144.135C0.665156 145.202 0.81849 146.028 1.12516 146.615C1.43182 147.202 1.98516 147.495 2.78516 147.495Z" fill="#36C9CB"/>
<path d="M173.853 189.795V187.133H177.989V176.837H177.791L174.667 180.929L172.555 179.279L176.229 174.439H181.289V187.133H184.545V189.795H173.853Z" fill="#36C9CB"/>
<path d="M98.3852 190.059C96.3758 190.059 94.8872 189.362 93.9192 187.969C92.9512 186.576 92.4672 184.625 92.4672 182.117C92.4672 179.609 92.9512 177.658 93.9192 176.265C94.8872 174.872 96.3758 174.175 98.3852 174.175C100.394 174.175 101.883 174.872 102.851 176.265C103.819 177.658 104.303 179.609 104.303 182.117C104.303 184.625 103.819 186.576 102.851 187.969C101.883 189.362 100.394 190.059 98.3852 190.059ZM98.3852 187.265C99.2652 187.265 99.8738 186.942 100.211 186.297C100.548 185.652 100.717 184.742 100.717 183.569V180.665C100.717 179.492 100.548 178.582 100.211 177.937C99.8738 177.292 99.2652 176.969 98.3852 176.969C97.5052 176.969 96.8965 177.292 96.5592 177.937C96.2218 178.582 96.0532 179.492 96.0532 180.665V183.569C96.0532 184.742 96.2218 185.652 96.5592 186.297C96.8965 186.942 97.5052 187.265 98.3852 187.265Z" fill="#62C4AA"/>
<path d="M273.477 188.795V186.617H276.861V178.193H276.699L274.143 181.541L272.415 180.191L275.421 176.231H279.561V186.617H282.225V188.795H273.477Z" fill="#62C4AA"/>
<path d="M193.665 239.795V237.375H197.425V228.015H197.245L194.405 231.735L192.485 230.235L195.825 225.835H200.425V237.375H203.385V239.795H193.665Z" fill="#36C9CB"/>
<path d="M77.7852 240.035C75.9585 240.035 74.6052 239.402 73.7252 238.135C72.8452 236.868 72.4052 235.095 72.4052 232.815C72.4052 230.535 72.8452 228.762 73.7252 227.495C74.6052 226.228 75.9585 225.595 77.7852 225.595C79.6118 225.595 80.9652 226.228 81.8452 227.495C82.7252 228.762 83.1652 230.535 83.1652 232.815C83.1652 235.095 82.7252 236.868 81.8452 238.135C80.9652 239.402 79.6118 240.035 77.7852 240.035ZM77.7852 237.495C78.5852 237.495 79.1385 237.202 79.4452 236.615C79.7518 236.028 79.9052 235.202 79.9052 234.135V231.495C79.9052 230.428 79.7518 229.602 79.4452 229.015C79.1385 228.428 78.5852 228.135 77.7852 228.135C76.9852 228.135 76.4318 228.428 76.1252 229.015C75.8185 229.602 75.6652 230.428 75.6652 231.495V234.135C75.6652 235.202 75.8185 236.028 76.1252 236.615C76.4318 237.202 76.9852 237.495 77.7852 237.495Z" fill="#62C4AA"/>
<path d="M139.041 219.795V216.891H143.553V205.659H143.337L139.929 210.123L137.625 208.323L141.633 203.043H147.153V216.891H150.705V219.795H139.041Z" fill="#62C4AA"/>
<path d="M266.585 239.987C265.124 239.987 264.041 239.48 263.337 238.467C262.633 237.454 262.281 236.035 262.281 234.211C262.281 232.387 262.633 230.968 263.337 229.955C264.041 228.942 265.124 228.435 266.585 228.435C268.046 228.435 269.129 228.942 269.833 229.955C270.537 230.968 270.889 232.387 270.889 234.211C270.889 236.035 270.537 237.454 269.833 238.467C269.129 239.48 268.046 239.987 266.585 239.987ZM266.585 237.955C267.225 237.955 267.668 237.72 267.913 237.251C268.158 236.782 268.281 236.12 268.281 235.267V233.155C268.281 232.302 268.158 231.64 267.913 231.171C267.668 230.702 267.225 230.467 266.585 230.467C265.945 230.467 265.502 230.702 265.257 231.171C265.012 231.64 264.889 232.302 264.889 233.155V235.267C264.889 236.12 265.012 236.782 265.257 237.251C265.502 237.72 265.945 237.955 266.585 237.955Z" fill="#8391A6"/>
<path d="M-1.71084 239.795V237.859H1.29716V230.371H1.15316L-1.11884 233.347L-2.65484 232.147L0.0171564 228.627H3.69716V237.859H6.06516V239.795H-1.71084Z" fill="#8391A6"/>
<path opacity="0.7" d="M136.785 82.795C138.994 82.795 140.785 81.0042 140.785 78.795C140.785 76.5859 138.994 74.795 136.785 74.795C134.576 74.795 132.785 76.5859 132.785 78.795C132.785 81.0042 134.576 82.795 136.785 82.795Z" fill="#62C4AA"/>
<path opacity="0.5" d="M161.785 66.295C163.166 66.295 164.285 65.1758 164.285 63.795C164.285 62.4143 163.166 61.295 161.785 61.295C160.404 61.295 159.285 62.4143 159.285 63.795C159.285 65.1758 160.404 66.295 161.785 66.295Z" fill="#62C4AA"/>
<path opacity="0.4" d="M206.785 75.795C207.89 75.795 208.785 74.8996 208.785 73.795C208.785 72.6905 207.89 71.795 206.785 71.795C205.681 71.795 204.785 72.6905 204.785 73.795C204.785 74.8996 205.681 75.795 206.785 75.795Z" fill="#62C4AA"/>
<path opacity="0.3" d="M251.785 95.295C252.614 95.295 253.285 94.6235 253.285 93.795C253.285 92.9666 252.614 92.295 251.785 92.295C250.957 92.295 250.285 92.9666 250.285 93.795C250.285 94.6235 250.957 95.295 251.785 95.295Z" fill="#62C4AA"/>
<path opacity="0.5" d="M111.785 66.295C113.166 66.295 114.285 65.1758 114.285 63.795C114.285 62.4143 113.166 61.295 111.785 61.295C110.404 61.295 109.285 62.4143 109.285 63.795C109.285 65.1758 110.404 66.295 111.785 66.295Z" fill="#62C4AA"/>
<path opacity="0.4" d="M61.7852 75.795C62.8897 75.795 63.7852 74.8996 63.7852 73.795C63.7852 72.6905 62.8897 71.795 61.7852 71.795C60.6806 71.795 59.7852 72.6905 59.7852 73.795C59.7852 74.8996 60.6806 75.795 61.7852 75.795Z" fill="#62C4AA"/>
<path opacity="0.3" d="M11.7852 95.295C12.6136 95.295 13.2852 94.6235 13.2852 93.795C13.2852 92.9666 12.6136 92.295 11.7852 92.295C10.9567 92.295 10.2852 92.9666 10.2852 93.795C10.2852 94.6235 10.9567 95.295 11.7852 95.295Z" fill="#62C4AA"/>
<path opacity="0.5" d="M136.785 121.295C138.166 121.295 139.285 120.176 139.285 118.795C139.285 117.414 138.166 116.295 136.785 116.295C135.404 116.295 134.285 117.414 134.285 118.795C134.285 120.176 135.404 121.295 136.785 121.295Z" fill="#62C4AA"/>
<path opacity="0.4" d="M136.785 180.795C137.89 180.795 138.785 179.9 138.785 178.795C138.785 177.69 137.89 176.795 136.785 176.795C135.681 176.795 134.785 177.69 134.785 178.795C134.785 179.9 135.681 180.795 136.785 180.795Z" fill="#62C4AA"/>
<path opacity="0.3" d="M136.785 240.295C137.614 240.295 138.285 239.623 138.285 238.795C138.285 237.967 137.614 237.295 136.785 237.295C135.957 237.295 135.285 237.967 135.285 238.795C135.285 239.623 135.957 240.295 136.785 240.295Z" fill="#62C4AA"/>
<g opacity="0.1">
<path d="M-48.2148 78.795H321.785" stroke="#8391A6" stroke-width="0.5"/>
<path d="M136.785 -101.205V365.795" stroke="#8391A6" stroke-width="0.5"/>
<path d="M136.785 158.795C180.968 158.795 216.785 122.978 216.785 78.795C216.785 34.6123 180.968 -1.20496 136.785 -1.20496C92.6024 -1.20496 56.7852 34.6123 56.7852 78.795C56.7852 122.978 92.6024 158.795 136.785 158.795Z" stroke="#8391A6" stroke-width="0.5"/>
<path d="M136.785 228.795C219.628 228.795 286.785 161.638 286.785 78.795C286.785 -4.04767 219.628 -71.205 136.785 -71.205C53.9424 -71.205 -13.2148 -4.04767 -13.2148 78.795C-13.2148 161.638 53.9424 228.795 136.785 228.795Z" stroke="#8391A6" stroke-width="0.5"/>
</g>
</g>
</g>
<defs>
<radialGradient id="paint0_radial_5590_983" cx="0" cy="0" r="1" gradientUnits="userSpaceOnUse" gradientTransform="translate(13996.8 11138.8) scale(140)">
<stop stop-color="#36C9CB" stop-opacity="0.4"/>
<stop offset="1" stop-color="#36C9CB" stop-opacity="0"/>
</radialGradient>
<clipPath id="clip0_5590_983">
<rect width="273.98" height="264.59" fill="white" transform="translate(-0.205078)"/>
</clipPath>
<clipPath id="clip1_5590_983">
<rect width="370" height="467" fill="white" transform="translate(-48.2148 -101.205)"/>
</clipPath>
</defs>
</svg>
