<svg width="485" height="265" viewBox="0 0 485 265" fill="none" xmlns="http://www.w3.org/2000/svg">
<g opacity="0.3" clip-path="url(#clip0_5590_965)">
<g opacity="0.4">
<path d="M259.578 280L234.578 220" stroke="#36C9CB" stroke-width="1.5"/>
<path d="M259.578 280L269.578 230" stroke="#36C9CB" stroke-width="1.5"/>
<path d="M289.578 290L299.578 240" stroke="#36C9CB" stroke-width="1.5"/>
<path d="M309.578 290L299.578 240" stroke="#36C9CB" stroke-width="1.5"/>
<path d="M339.578 280L329.578 230" stroke="#36C9CB" stroke-width="1.5"/>
<path d="M339.578 280L364.578 220" stroke="#36C9CB" stroke-width="1.5"/>
</g>
<path opacity="0.65" d="M238.82 220L234.578 215.757L230.335 220L234.578 224.243L238.82 220Z" fill="#36C9CB"/>
<path opacity="0.65" d="M273.82 230L269.578 225.757L265.335 230L269.578 234.243L273.82 230Z" fill="#62C4AA"/>
<path opacity="0.7" d="M299.578 246C302.891 246 305.578 243.314 305.578 240C305.578 236.686 302.891 234 299.578 234C296.264 234 293.578 236.686 293.578 240C293.578 243.314 296.264 246 299.578 246Z" fill="#36C9CB"/>
<path opacity="0.65" d="M333.82 230L329.578 225.757L325.335 230L329.578 234.243L333.82 230Z" fill="#62C4AA"/>
<path opacity="0.65" d="M368.82 220L364.578 215.757L360.335 220L364.578 224.243L368.82 220Z" fill="#36C9CB"/>
<g opacity="0.5">
<path d="M234.578 220C214.578 193.333 197.911 166.667 184.578 140" stroke="#62C4AA" stroke-width="1.2"/>
<path d="M234.578 220C227.911 193.333 221.244 170 214.578 150" stroke="#62C4AA" stroke-width="1.2"/>
<path d="M269.578 230C259.578 203.333 251.244 180 244.578 160" stroke="#62C4AA" stroke-width="1.2"/>
<path d="M299.578 240C292.911 213.333 287.911 190 284.578 170" stroke="#62C4AA" stroke-width="1.2"/>
<path d="M299.578 240C299.578 213.333 299.578 190 299.578 170" stroke="#62C4AA" stroke-width="1.2"/>
<path d="M299.578 240C306.244 213.333 311.244 190 314.578 170" stroke="#62C4AA" stroke-width="1.2"/>
<path d="M329.578 230C339.578 203.333 347.911 180 354.578 160" stroke="#62C4AA" stroke-width="1.2"/>
<path d="M364.578 220C371.244 193.333 377.911 170 384.578 150" stroke="#62C4AA" stroke-width="1.2"/>
<path d="M364.578 220C384.578 193.333 401.244 166.667 414.578 140" stroke="#62C4AA" stroke-width="1.2"/>
</g>
<path opacity="0.7" d="M184.578 143C186.234 143 187.578 141.657 187.578 140C187.578 138.343 186.234 137 184.578 137C182.921 137 181.578 138.343 181.578 140C181.578 141.657 182.921 143 184.578 143Z" fill="#36C9CB"/>
<path opacity="0.72" d="M214.578 153.5C216.511 153.5 218.078 151.933 218.078 150C218.078 148.067 216.511 146.5 214.578 146.5C212.645 146.5 211.078 148.067 211.078 150C211.078 151.933 212.645 153.5 214.578 153.5Z" fill="#62C4AA"/>
<path opacity="0.75" d="M244.578 164C246.787 164 248.578 162.209 248.578 160C248.578 157.791 246.787 156 244.578 156C242.368 156 240.578 157.791 240.578 160C240.578 162.209 242.368 164 244.578 164Z" fill="#36C9CB"/>
<path opacity="0.78" d="M284.578 174.5C287.063 174.5 289.078 172.485 289.078 170C289.078 167.515 287.063 165.5 284.578 165.5C282.092 165.5 280.078 167.515 280.078 170C280.078 172.485 282.092 174.5 284.578 174.5Z" fill="#62C4AA"/>
<path opacity="0.8" d="M299.578 175C302.339 175 304.578 172.761 304.578 170C304.578 167.239 302.339 165 299.578 165C296.816 165 294.578 167.239 294.578 170C294.578 172.761 296.816 175 299.578 175Z" fill="#36C9CB"/>
<path opacity="0.78" d="M314.578 174.5C317.063 174.5 319.078 172.485 319.078 170C319.078 167.515 317.063 165.5 314.578 165.5C312.092 165.5 310.078 167.515 310.078 170C310.078 172.485 312.092 174.5 314.578 174.5Z" fill="#62C4AA"/>
<path opacity="0.75" d="M354.578 164C356.787 164 358.578 162.209 358.578 160C358.578 157.791 356.787 156 354.578 156C352.368 156 350.578 157.791 350.578 160C350.578 162.209 352.368 164 354.578 164Z" fill="#36C9CB"/>
<path opacity="0.72" d="M384.578 153.5C386.511 153.5 388.078 151.933 388.078 150C388.078 148.067 386.511 146.5 384.578 146.5C382.645 146.5 381.078 148.067 381.078 150C381.078 151.933 382.645 153.5 384.578 153.5Z" fill="#62C4AA"/>
<path opacity="0.7" d="M414.578 143C416.234 143 417.578 141.657 417.578 140C417.578 138.343 416.234 137 414.578 137C412.921 137 411.578 138.343 411.578 140C411.578 141.657 412.921 143 414.578 143Z" fill="#36C9CB"/>
<path opacity="0.8" d="M174.578 112.5C175.958 112.5 177.078 111.381 177.078 110C177.078 108.619 175.958 107.5 174.578 107.5C173.197 107.5 172.078 108.619 172.078 110C172.078 111.381 173.197 112.5 174.578 112.5Z" fill="#36C9CB"/>
<path opacity="0.75" d="M204.578 122C205.682 122 206.578 121.105 206.578 120C206.578 118.895 205.682 118 204.578 118C203.473 118 202.578 118.895 202.578 120C202.578 121.105 203.473 122 204.578 122Z" fill="#36C9CB"/>
<path opacity="0.8" d="M234.578 132.5C235.958 132.5 237.078 131.381 237.078 130C237.078 128.619 235.958 127.5 234.578 127.5C233.197 127.5 232.078 128.619 232.078 130C232.078 131.381 233.197 132.5 234.578 132.5Z" fill="#36C9CB"/>
<path opacity="0.85" d="M274.578 143C276.234 143 277.578 141.657 277.578 140C277.578 138.343 276.234 137 274.578 137C272.921 137 271.578 138.343 271.578 140C271.578 141.657 272.921 143 274.578 143Z" fill="#36C9CB"/>
<path opacity="0.9" d="M299.578 148.5C301.511 148.5 303.078 146.933 303.078 145C303.078 143.067 301.511 141.5 299.578 141.5C297.645 141.5 296.078 143.067 296.078 145C296.078 146.933 297.645 148.5 299.578 148.5Z" fill="#36C9CB"/>
<path opacity="0.85" d="M324.578 143C326.234 143 327.578 141.657 327.578 140C327.578 138.343 326.234 137 324.578 137C322.921 137 321.578 138.343 321.578 140C321.578 141.657 322.921 143 324.578 143Z" fill="#36C9CB"/>
<path opacity="0.8" d="M364.578 132.5C365.958 132.5 367.078 131.381 367.078 130C367.078 128.619 365.958 127.5 364.578 127.5C363.197 127.5 362.078 128.619 362.078 130C362.078 131.381 363.197 132.5 364.578 132.5Z" fill="#36C9CB"/>
<path opacity="0.75" d="M394.578 122C395.682 122 396.578 121.105 396.578 120C396.578 118.895 395.682 118 394.578 118C393.473 118 392.578 118.895 392.578 120C392.578 121.105 393.473 122 394.578 122Z" fill="#36C9CB"/>
<path opacity="0.8" d="M424.578 112.5C425.958 112.5 427.078 111.381 427.078 110C427.078 108.619 425.958 107.5 424.578 107.5C423.197 107.5 422.078 108.619 422.078 110C422.078 111.381 423.197 112.5 424.578 112.5Z" fill="#36C9CB"/>
<path opacity="0.7" d="M164.578 82C165.682 82 166.578 81.1046 166.578 80C166.578 78.8954 165.682 78 164.578 78C163.473 78 162.578 78.8954 162.578 80C162.578 81.1046 163.473 82 164.578 82Z" fill="#62C4AA"/>
<path opacity="0.65" d="M189.578 91.5C190.406 91.5 191.078 90.8284 191.078 90C191.078 89.1716 190.406 88.5 189.578 88.5C188.749 88.5 188.078 89.1716 188.078 90C188.078 90.8284 188.749 91.5 189.578 91.5Z" fill="#62C4AA"/>
<path opacity="0.7" d="M224.578 97C225.682 97 226.578 96.1046 226.578 95C226.578 93.8954 225.682 93 224.578 93C223.473 93 222.578 93.8954 222.578 95C222.578 96.1046 223.473 97 224.578 97Z" fill="#62C4AA"/>
<path opacity="0.75" d="M259.578 107.5C260.958 107.5 262.078 106.381 262.078 105C262.078 103.619 260.958 102.5 259.578 102.5C258.197 102.5 257.078 103.619 257.078 105C257.078 106.381 258.197 107.5 259.578 107.5Z" fill="#62C4AA"/>
<path opacity="0.85" d="M299.578 113C301.234 113 302.578 111.657 302.578 110C302.578 108.343 301.234 107 299.578 107C297.921 107 296.578 108.343 296.578 110C296.578 111.657 297.921 113 299.578 113Z" fill="#62C4AA"/>
<path opacity="0.75" d="M339.578 107.5C340.958 107.5 342.078 106.381 342.078 105C342.078 103.619 340.958 102.5 339.578 102.5C338.197 102.5 337.078 103.619 337.078 105C337.078 106.381 338.197 107.5 339.578 107.5Z" fill="#62C4AA"/>
<path opacity="0.7" d="M374.578 97C375.682 97 376.578 96.1046 376.578 95C376.578 93.8954 375.682 93 374.578 93C373.473 93 372.578 93.8954 372.578 95C372.578 96.1046 373.473 97 374.578 97Z" fill="#62C4AA"/>
<path opacity="0.65" d="M409.578 91.5C410.406 91.5 411.078 90.8284 411.078 90C411.078 89.1716 410.406 88.5 409.578 88.5C408.749 88.5 408.078 89.1716 408.078 90C408.078 90.8284 408.749 91.5 409.578 91.5Z" fill="#62C4AA"/>
<path opacity="0.7" d="M434.578 82C435.682 82 436.578 81.1046 436.578 80C436.578 78.8954 435.682 78 434.578 78C433.473 78 432.578 78.8954 432.578 80C432.578 81.1046 433.473 82 434.578 82Z" fill="#62C4AA"/>
<path opacity="0.6" d="M154.578 51.5C155.406 51.5 156.078 50.8284 156.078 50C156.078 49.1716 155.406 48.5 154.578 48.5C153.749 48.5 153.078 49.1716 153.078 50C153.078 50.8284 153.749 51.5 154.578 51.5Z" fill="#62C4AA"/>
<path opacity="0.65" d="M214.578 67C215.682 67 216.578 66.1046 216.578 65C216.578 63.8954 215.682 63 214.578 63C213.473 63 212.578 63.8954 212.578 65C212.578 66.1046 213.473 67 214.578 67Z" fill="#62C4AA"/>
<path opacity="0.7" d="M274.578 77C275.682 77 276.578 76.1046 276.578 75C276.578 73.8954 275.682 73 274.578 73C273.473 73 272.578 73.8954 272.578 75C272.578 76.1046 273.473 77 274.578 77Z" fill="#62C4AA"/>
<path opacity="0.8" d="M299.578 82.5C300.958 82.5 302.078 81.3807 302.078 80C302.078 78.6193 300.958 77.5 299.578 77.5C298.197 77.5 297.078 78.6193 297.078 80C297.078 81.3807 298.197 82.5 299.578 82.5Z" fill="#62C4AA"/>
<path opacity="0.7" d="M324.578 77C325.682 77 326.578 76.1046 326.578 75C326.578 73.8954 325.682 73 324.578 73C323.473 73 322.578 73.8954 322.578 75C322.578 76.1046 323.473 77 324.578 77Z" fill="#62C4AA"/>
<path opacity="0.65" d="M384.578 67C385.682 67 386.578 66.1046 386.578 65C386.578 63.8954 385.682 63 384.578 63C383.473 63 382.578 63.8954 382.578 65C382.578 66.1046 383.473 67 384.578 67Z" fill="#62C4AA"/>
<path opacity="0.6" d="M444.578 51.5C445.406 51.5 446.078 50.8284 446.078 50C446.078 49.1716 445.406 48.5 444.578 48.5C443.749 48.5 443.078 49.1716 443.078 50C443.078 50.8284 443.749 51.5 444.578 51.5Z" fill="#62C4AA"/>
<g opacity="0.6">
<path d="M299.578 60L294.578 50H304.578L299.578 60Z" fill="#36C9CB"/>
<path d="M269.578 59C271.787 59 273.578 57.2091 273.578 55C273.578 52.7909 271.787 51 269.578 51C267.368 51 265.578 52.7909 265.578 55C265.578 57.2091 267.368 59 269.578 59Z" fill="#62C4AA"/>
<path d="M329.578 59C331.787 59 333.578 57.2091 333.578 55C333.578 52.7909 331.787 51 329.578 51C327.368 51 325.578 52.7909 325.578 55C325.578 57.2091 327.368 59 329.578 59Z" fill="#62C4AA"/>
<path d="M291.027 43.5L286.078 38.5503L281.128 43.5L286.078 48.4498L291.027 43.5Z" fill="#36C9CB"/>
<path d="M318.027 43.5L313.078 38.5503L308.128 43.5L313.078 48.4498L318.027 43.5Z" fill="#36C9CB"/>
</g>
<path d="M299.578 90C321.669 90 339.578 72.0914 339.578 50C339.578 27.9086 321.669 10 299.578 10C277.486 10 259.578 27.9086 259.578 50C259.578 72.0914 277.486 90 299.578 90Z" fill="url(#paint0_radial_5590_965)"/>
<g opacity="0.15">
<path d="M184.578 140L214.578 150L244.578 160" stroke="#8391A6" stroke-width="0.5"/>
<path d="M354.578 160L384.578 150L414.578 140" stroke="#8391A6" stroke-width="0.5"/>
<path d="M244.578 160L284.578 170H299.578H314.578L354.578 160" stroke="#8391A6" stroke-width="0.5"/>
</g>
</g>
<defs>
<radialGradient id="paint0_radial_5590_965" cx="0" cy="0" r="1" gradientUnits="userSpaceOnUse" gradientTransform="translate(299.578 50) scale(40)">
<stop stop-color="#36C9CB" stop-opacity="0.5"/>
<stop offset="1" stop-color="#36C9CB" stop-opacity="0"/>
</radialGradient>
<clipPath id="clip0_5590_965">
<rect width="484.578" height="264.59" fill="white"/>
</clipPath>
</defs>
</svg>
